<?xml version="1.0" encoding="UTF-8"?>
<svg version="1.1" xmlns="http://www.w3.org/2000/svg" width="512" height="512">
<path d="M0 0 C1.21921141 -0.00905664 2.43842281 -0.01811328 3.69458002 -0.02744436 C5.05465579 -0.02233958 6.4147305 -0.01694745 7.77480412 -0.01129913 C9.21410269 -0.01618517 10.65339735 -0.02237364 12.09268528 -0.02975702 C16.05739261 -0.04621628 20.02190189 -0.04382654 23.98663151 -0.03838205 C28.2587039 -0.0357192 32.5307226 -0.05022958 36.80277348 -0.06247711 C45.17580138 -0.0835647 53.54876008 -0.08807007 61.92181139 -0.08628923 C68.72520465 -0.08498331 75.52857626 -0.08877703 82.33196545 -0.09621429 C84.2891946 -0.09831341 86.24642376 -0.10041101 88.20365292 -0.10250711 C89.66475052 -0.10407241 89.66475052 -0.10407241 91.15536524 -0.10566932 C109.59076391 -0.12458502 128.02612282 -0.12351738 146.46152718 -0.11669999 C163.3395639 -0.11112315 180.2174489 -0.13195362 197.09545016 -0.16506046 C214.41188757 -0.19876458 231.72825224 -0.21396992 249.04472309 -0.20934343 C258.77219343 -0.20709547 268.49952352 -0.21238957 278.2269659 -0.23723602 C286.50783294 -0.25820685 294.78848282 -0.26188324 303.06935864 -0.24293643 C307.29675174 -0.2337525 311.52373951 -0.23271613 315.75110149 -0.25329208 C319.61821448 -0.2719069 323.48458749 -0.26760687 327.35167146 -0.24474627 C328.75339436 -0.24053628 330.15517294 -0.24484059 331.55683713 -0.25834221 C333.45692202 -0.2754038 335.3572209 -0.25886773 337.2572937 -0.24050903 C338.31432776 -0.24078142 339.37136183 -0.2410538 340.46042722 -0.24133444 C343.19156742 0.38311005 343.19156742 0.38311005 345.53169757 2.56835812 C347.39348629 5.72551732 347.68939541 7.40851367 347.68375874 11.0427599 C347.69172293 12.17785191 347.69968712 13.31294392 347.70789266 14.48243266 C347.69624129 15.72464476 347.68458992 16.96685685 347.67258549 18.24671173 C347.67433007 19.58334085 347.6778329 20.91996863 347.68294215 22.25658911 C347.69188845 25.92817601 347.67588369 29.59929638 347.65582991 33.27082384 C347.63856412 37.23055465 347.64440099 41.19025892 347.647439 45.15001678 C347.64953692 52.01008912 347.6369816 58.87000934 347.61448765 65.73004341 C347.58198637 75.64848815 347.57156255 85.5668593 347.56653568 95.48535153 C347.55778009 111.57720792 347.53115734 127.66898323 347.49332523 143.76079559 C347.45661199 159.39295292 347.42829686 175.02508823 347.41129398 190.65727997 C347.41024309 191.62076592 347.4091922 192.58425188 347.40810946 193.57693437 C347.40288933 198.41043608 347.39783449 203.24393794 347.39286184 208.0774399 C347.35139158 248.17938673 347.28093595 288.28124304 347.19156742 328.38311005 C350.16156742 328.38311005 353.13156742 328.38311005 356.19156742 328.38311005 C356.28437992 326.27936005 356.28437992 326.27936005 356.37906742 324.13311005 C357.89731468 309.4081914 367.2160839 296.7855012 378.19156742 287.38311005 C389.16117523 279.3253013 401.72236086 275.20824469 415.25406742 275.19561005 C415.94822758 275.18336395 416.64238773 275.17111786 417.35758305 275.15850067 C421.40396114 275.14697253 424.62230118 275.41182722 428.19156742 277.38311005 C432.42215807 283.72899603 431.85342893 292.55806626 430.59000492 299.85967255 C429.41548246 305.4950076 428.08984348 310.94413646 426.19156742 316.38311005 C426.88766117 316.46689911 427.58375492 316.55068817 428.30094242 316.6370163 C437.80424951 319.08989691 447.84597735 328.43767964 453.19156742 336.38311005 C454.19156742 339.94561005 454.19156742 339.94561005 453.19156742 343.38311005 C445.98570337 355.84608246 433.14353336 363.48501008 419.63687992 367.4182663 C409.60430543 369.77822638 400.3326375 369.91383761 390.19156742 368.38311005 C389.86285648 369.21971161 389.53414555 370.05631317 389.19547367 370.9182663 C374.26233721 407.46195796 345.5375734 435.82780647 309.44156742 451.4417038 C274.39598997 466.10487075 232.86146764 466.82906374 197.55875492 452.56279755 C178.84672912 444.65489158 152.95007715 431.77125517 142.45208073 413.32694244 C140.50927617 411.01978394 139.4418022 410.43367348 136.44731808 409.82859612 C132.78081976 409.62309087 129.13816733 409.60936402 125.46866703 409.65776825 C124.05570999 409.65450786 122.64275697 409.64856986 121.22982121 409.64015961 C118.19190947 409.62776537 115.15482776 409.63417531 112.11696529 409.65522957 C107.31396246 409.6883123 102.51160913 409.67898972 97.70855045 409.66391754 C90.11309903 409.64504334 82.51798198 409.65405986 74.92254597 409.67523879 C61.31679506 409.71293759 47.71109033 409.71711694 34.10531527 409.69038647 C29.3302282 409.68229098 24.5555448 409.69090753 19.78050506 409.7129494 C16.81175838 409.72402741 13.8431 409.72305121 10.8743391 409.71907425 C9.49726528 409.71986124 8.12018324 409.72583119 6.74315739 409.73735237 C4.86407726 409.75244307 2.98486785 409.74746889 1.10573673 409.74146271 C0.05401248 409.74464665 -0.99771177 409.7478306 -2.08130646 409.75111103 C-5.34098252 409.31124725 -6.50750501 408.72369197 -8.80843258 406.38311005 C-9.30867857 403.42991877 -9.30867857 403.42991877 -9.30900383 399.72854614 C-9.314518 399.0455688 -9.32003216 398.36259147 -9.32571343 397.65891784 C-9.33938948 395.35328303 -9.32436917 393.04871134 -9.30963802 390.7430954 C-9.31352801 389.08034492 -9.31916602 387.41759775 -9.32640892 385.75485849 C-9.34122511 381.17247674 -9.33094599 376.59043645 -9.31667221 372.00806546 C-9.30560114 367.07139181 -9.31749215 362.13476759 -9.32651424 357.19809723 C-9.34047517 347.52193687 -9.33286952 337.84590668 -9.31783866 328.16975248 C-9.30101207 316.91070337 -9.30418458 305.651687 -9.30793274 294.39262921 C-9.31381655 274.30886337 -9.29961935 254.22516016 -9.27498531 234.14141083 C-9.25106303 214.63585309 -9.24398039 195.13037903 -9.2544775 175.62480927 C-9.26587694 154.40440826 -9.26782884 133.18404599 -9.2533794 111.96364546 C-9.2518535 109.70252196 -9.25033315 107.44139847 -9.2488184 105.18027496 C-9.24806058 104.06764563 -9.24730277 102.95501629 -9.24652199 101.80867091 C-9.24177162 93.95329522 -9.24363593 86.09793678 -9.2478838 78.24256134 C-9.25280147 68.67455799 -9.24686639 59.10663389 -9.2269895 49.53864872 C-9.21709181 44.65327528 -9.21203897 39.76802272 -9.21988201 34.88264275 C-9.22690694 30.41559227 -9.22020948 25.94878639 -9.20227838 21.48176831 C-9.19821307 19.86068945 -9.19926834 18.23958851 -9.20579725 16.6185177 C-9.21388099 14.42460582 -9.20371789 12.23153146 -9.18874931 10.03767395 C-9.18772018 8.81622098 -9.18669105 7.59476802 -9.18563074 6.33630133 C-8.80843258 3.38311005 -8.80843258 3.38311005 -7.64768982 1.49114418 C-5.03152797 -0.08492499 -3.04801076 0.00453134 0 0 Z " fill="#020201" transform="translate(33.80843257904053,24.61688995361328)"/>
<path d="M0 0 C109.23 0 218.46 0 331 0 C331 60.39 331 120.78 331 183 C306.77980469 183.07347656 306.77980469 183.07347656 282.0703125 183.1484375 C271.87108824 183.18380225 261.67186986 183.21966779 251.47265625 183.2578125 C246.11735077 183.27781011 240.76204495 183.29770627 235.40673828 183.31738281 C234.39988737 183.32108997 234.39988737 183.32108997 233.37269604 183.32487202 C222.52510908 183.36463043 211.67751165 183.39735528 200.8298942 183.42749982 C189.70375245 183.45857424 178.57765212 183.49731542 167.45155895 183.54279006 C161.19949021 183.56809877 154.9474532 183.58986702 148.69534683 183.60334396 C142.81688809 183.61612477 136.93853789 183.63813571 131.0601387 183.66738319 C128.89693878 183.67649025 126.73372135 183.68215643 124.57050323 183.68421364 C121.62834897 183.68751419 118.68650662 183.70293116 115.74441528 183.7215271 C114.87866855 183.71959237 114.01292181 183.71765763 113.12094033 183.71566427 C108.58471909 183.55859162 108.58471909 183.55859162 105 186 C103.45554015 206.85020796 113.94399469 228.28094447 124.23828125 245.82421875 C126 249 126 249 126 251 C84.42 251 42.84 251 0 251 C0 168.17 0 85.34 0 0 Z " fill="#FAAF3A" transform="translate(37,170)"/>
<path d="M0 0 C109.23 0 218.46 0 331 0 C331 39.6 331 79.2 331 120 C221.77 120 112.54 120 0 120 C0 80.4 0 40.8 0 0 Z " fill="#B4B581" transform="translate(37,38)"/>
<path d="M0 0 C0.51915946 10.11399542 -1.01918598 18.3212756 -6.328125 27.015625 C-7.35482067 30.04795871 -6.98032633 31.98236998 -6 35 C-3.61113561 36.60450888 -3.61113561 36.60450888 -0.5625 37.5 C7.71740688 40.57539398 15.09826966 44.31137228 21 51 C17.63643353 58.48353305 11.0819526 61.72855033 3.84375 64.921875 C-2.63664687 67.37872876 -8.19947722 68.31868747 -15.0625 68.25 C-16.22749023 68.26160156 -16.22749023 68.26160156 -17.41601562 68.2734375 C-22.02020375 68.2578433 -25.65550069 67.68446904 -30 66 C-32.62875402 65.41511438 -32.62875402 65.41511438 -35 66 C-37.26000761 69.2285823 -38.78360852 72.68481108 -40.29345703 76.31445312 C-54.45399292 110.33965151 -79.57409911 137.08311578 -113.74682617 151.55249023 C-130.46473437 158.31745166 -146.63595938 161.41157668 -164.625 161.3125 C-165.32965393 161.31034485 -166.03430786 161.3081897 -166.76031494 161.30596924 C-204.13962182 161.12275292 -237.62309233 146.54822254 -264.0078125 120.0234375 C-279.82760512 103.5986348 -298.37405715 75.71179592 -298 52 C-296.7452547 51.99761165 -295.4905094 51.99522329 -294.19774151 51.99276257 C-264.43201199 51.93543863 -234.66636358 51.86273378 -204.90072204 51.77101372 C-201.23939772 51.75974516 -197.57807301 51.74860677 -193.91674805 51.73754883 C-192.82336344 51.7342433 -192.82336344 51.7342433 -191.70789025 51.730871 C-179.89558423 51.69547061 -168.08327828 51.67062198 -156.27093884 51.64965298 C-144.15601884 51.62791272 -132.04116786 51.59487929 -119.92630655 51.55129844 C-112.44701123 51.524751 -104.96780195 51.50707846 -97.48846183 51.50065396 C-91.75932954 51.49479072 -86.0303405 51.47323738 -80.30127525 51.44572449 C-77.94660297 51.43689912 -75.59190511 51.4332309 -73.23721695 51.43499184 C-70.03256384 51.43663235 -66.82851739 51.42005003 -63.62394714 51.39872742 C-62.68329428 51.40357499 -61.74264142 51.40842257 -60.77348393 51.41341704 C-59.48960143 51.39923223 -59.48960143 51.39923223 -58.17978191 51.38476086 C-57.06966953 51.38191295 -57.06966953 51.38191295 -55.93713063 51.37900752 C-53.43012052 50.88850075 -52.54785414 49.99948168 -51 48 C-50.34576958 45.18345602 -50.34576958 45.18345602 -50.0625 42 C-48.16781723 28.32796916 -42.89187558 17.19443677 -31.75 8.625 C-21.25249789 1.60741262 -12.6458924 -0.84181236 0 0 Z " fill="#69BCC7" transform="translate(452,313)"/>
<path d="M0 0 C1.30823227 -0.01268417 2.61646454 -0.02536835 3.96434021 -0.03843689 C5.39427854 -0.03638538 6.82421579 -0.0333973 8.25415039 -0.02954102 C9.72001895 -0.03410174 11.18588536 -0.03940699 12.65174866 -0.04542542 C15.72430099 -0.05436212 18.79659349 -0.05192751 21.86914062 -0.04199219 C25.80484005 -0.0305054 29.73964187 -0.05070546 33.67522335 -0.07990932 C36.70274037 -0.09826523 39.73004208 -0.09798011 42.75760078 -0.0922718 C44.20846376 -0.09211849 45.65934123 -0.09817118 47.11015129 -0.11056328 C49.13979037 -0.12545575 51.16957697 -0.11217523 53.19921875 -0.09765625 C54.3537706 -0.09749008 55.50832245 -0.09732391 56.69786072 -0.09715271 C59.66430664 0.40405273 59.66430664 0.40405273 62.036026 2.03807068 C64.15519823 5.11734543 64.17142819 7.03615235 64.18188477 10.76147461 C64.19449341 12.0496106 64.20710205 13.33774658 64.22009277 14.66491699 C64.21293296 16.06755114 64.20472897 17.4701803 64.19555664 18.87280273 C64.1982522 20.314822 64.20213515 21.75683949 64.20715332 23.19885254 C64.21304553 26.21843806 64.20449513 29.23754972 64.18579102 32.25708008 C64.16300069 36.12441476 64.17612539 39.99063909 64.20008087 43.85793304 C64.2145469 46.83486268 64.20992938 49.81152979 64.1995697 52.78846741 C64.19690459 54.21419914 64.20016465 55.63995483 64.20948792 57.06565857 C64.21966462 59.05931126 64.20139853 61.0530477 64.18188477 63.04663086 C64.17870239 64.18040161 64.17552002 65.31417236 64.17224121 66.4822998 C63.66430664 69.40405273 63.66430664 69.40405273 62.036026 71.77003479 C58.92423059 73.91393496 56.96505963 73.90521972 53.19921875 73.90576172 C51.88783432 73.91514267 50.57644989 73.92452362 49.22532654 73.93418884 C47.79742784 73.92371164 46.36953544 73.91234277 44.94165039 73.90014648 C43.47481718 73.90030149 42.00798356 73.90179064 40.54115295 73.90455627 C37.4702845 73.90593963 34.39988348 73.89339211 31.32910156 73.87060547 C27.39231068 73.84219532 23.45629484 73.84496547 19.51944637 73.85769558 C16.49196242 73.8646485 13.46465779 73.85686846 10.43719673 73.84443855 C8.98552704 73.839922 7.53383811 73.83958904 6.08216667 73.84350395 C4.05474553 73.84641266 2.02732794 73.82776175 0 73.80810547 C-1.15375626 73.80270248 -2.30751251 73.7972995 -3.49623108 73.79173279 C-6.33569336 73.40405273 -6.33569336 73.40405273 -8.20741272 72.2815094 C-9.88530223 69.4895047 -9.71728805 67.20310272 -9.72387695 63.96069336 C-9.72913391 63.31158493 -9.73439087 62.6624765 -9.73980713 61.99369812 C-9.75300632 59.84898789 -9.74427008 57.70502045 -9.73413086 55.56030273 C-9.73615164 54.06961932 -9.73906311 52.57893687 -9.74282837 51.08825684 C-9.74725158 47.96442246 -9.74082101 44.84084547 -9.72680664 41.71704102 C-9.70971444 37.71187097 -9.71955568 33.70730399 -9.73752403 29.70215607 C-9.74836212 26.6240789 -9.74491548 23.54614482 -9.73714066 20.46806335 C-9.7351387 18.99126616 -9.73759778 17.514456 -9.74457932 16.03767395 C-9.75219458 13.97390304 -9.7405903 11.91111013 -9.72387695 9.84741211 C-9.72149017 8.67287476 -9.71910339 7.4983374 -9.71664429 6.28820801 C-9.33569336 3.40405273 -9.33569336 3.40405273 -8.20741272 1.52659607 C-5.44643518 -0.12927019 -3.20628285 0.01501487 0 0 Z " fill="#030201" transform="translate(201.335693359375,270.595947265625)"/>
<path d="M0 0 C1.31138443 -0.00938095 2.62276886 -0.0187619 3.97389221 -0.02842712 C5.40179091 -0.01794992 6.82968331 -0.00658105 8.25756836 0.00561523 C9.72440157 0.00546023 11.19123519 0.00397108 12.6580658 0.00120544 C15.72893425 -0.00017791 18.79933527 0.01236961 21.87011719 0.03515625 C25.80690807 0.0635664 29.74292391 0.06079625 33.67977238 0.04806614 C36.70725633 0.04111322 39.73456096 0.04889326 42.76202202 0.06132317 C44.21369171 0.06583972 45.66538064 0.06617268 47.11705208 0.06225777 C49.14447322 0.05934906 51.17189081 0.07799997 53.19921875 0.09765625 C54.92985313 0.10576073 54.92985313 0.10576073 56.69544983 0.11402893 C59.53491211 0.50170898 59.53491211 0.50170898 61.40563965 1.62425232 C63.08395434 4.41451172 62.92405415 6.70368145 62.93896484 9.94506836 C62.94582809 10.59417679 62.95269135 11.24328522 62.95976257 11.9120636 C62.97805766 14.05675149 62.97419005 16.20070984 62.96850586 18.34545898 C62.97306606 19.83614338 62.97837115 21.32682567 62.98439026 22.81750488 C62.99332637 25.94133039 62.99089234 29.06490031 62.98095703 32.1887207 C62.96946014 36.19401449 62.98968617 40.19842759 63.01887417 44.20360565 C63.0372096 47.28169364 63.03694923 50.35956948 63.03123665 53.43769836 C63.03108314 54.91450741 63.03715197 56.39133057 63.04952812 57.86808777 C63.06438948 59.93207266 63.05380066 61.99441649 63.03662109 64.05834961 C63.03645493 65.23288696 63.03628876 66.40742432 63.03611755 67.61755371 C62.53491211 70.50170898 62.53491211 70.50170898 60.90089417 72.37916565 C57.84941231 73.82694528 55.55582232 73.88966228 52.17749023 73.90576172 C50.88935425 73.91844589 49.60121826 73.93113007 48.27404785 73.94419861 C46.87141764 73.94214725 45.46878852 73.93915929 44.06616211 73.93530273 C42.624143 73.93986493 41.18212608 73.94517062 39.7401123 73.95118713 C36.72061316 73.96011482 33.70137856 73.95769877 30.68188477 73.94775391 C26.81458979 73.93625712 22.94820695 73.95648699 19.0810318 73.98567104 C16.10412815 74.00402559 13.12744347 74.00374231 10.15049744 73.99803352 C8.72475402 73.99788025 7.29899581 74.00392942 5.87330627 74.016325 C3.87969983 74.03121815 1.88594319 74.01793658 -0.10766602 74.00341797 C-1.24143677 74.0032518 -2.37520752 74.00308563 -3.54333496 74.00291443 C-6.46508789 73.50170898 -6.46508789 73.50170898 -8.83007812 71.86769104 C-10.95796755 68.78847506 -10.97219661 66.8741769 -10.98266602 63.14428711 C-10.99527466 61.85615112 -11.0078833 60.56801514 -11.02087402 59.24084473 C-11.01371421 57.83821057 -11.00551022 56.43558142 -10.99633789 55.03295898 C-10.99903345 53.59093972 -11.0029164 52.14892223 -11.00793457 50.70690918 C-11.01382678 47.68732366 -11.00527638 44.668212 -10.98657227 41.64868164 C-10.96378194 37.78134696 -10.97690664 33.91512263 -11.00086212 30.04782867 C-11.01532815 27.07089904 -11.01071063 24.09423193 -11.00035095 21.11729431 C-10.99768584 19.69156258 -11.0009459 18.26580689 -11.01026917 16.84010315 C-11.02044587 14.84645046 -11.00217978 12.85271402 -10.98266602 10.85913086 C-10.97948364 9.72536011 -10.97630127 8.59158936 -10.97302246 7.42346191 C-10.46508789 4.50170898 -10.46508789 4.50170898 -8.83680725 2.13572693 C-5.72501184 -0.00817324 -3.76584088 0.000542 0 0 Z " fill="#040302" transform="translate(287.465087890625,270.498291015625)"/>
<path d="M0 0 C0.66032227 -0.00350464 1.32064453 -0.00700928 2.00097656 -0.01062012 C4.18825732 -0.01943775 6.37521583 -0.01358837 8.5625 -0.00683594 C10.07942772 -0.00818258 11.59635501 -0.01012311 13.11328125 -0.01263428 C16.29431258 -0.01558558 19.47523169 -0.01128778 22.65625 -0.00195312 C26.73877902 0.00944149 30.82104509 0.00288204 34.90356445 -0.00909805 C38.03647858 -0.01631654 41.16933011 -0.01402879 44.30224609 -0.00884247 C45.80778026 -0.00750594 47.31332007 -0.00915382 48.81884766 -0.01380157 C50.92105212 -0.01886672 53.02282758 -0.01115721 55.125 0 C56.92130859 0.00238678 56.92130859 0.00238678 58.75390625 0.00482178 C61.5625 0.25878906 61.5625 0.25878906 63.5625 2.25878906 C63.81646729 5.06738281 63.81646729 5.06738281 63.82128906 8.69628906 C63.8247937 9.35661133 63.82829834 10.01693359 63.83190918 10.69726562 C63.84072681 12.88454639 63.83487743 15.07150489 63.828125 17.25878906 C63.82947165 18.77571678 63.83141217 20.29264408 63.83392334 21.80957031 C63.83687464 24.99060165 63.83257684 28.17152076 63.82324219 31.35253906 C63.81184757 35.43506808 63.81840702 39.51733415 63.83038712 43.59985352 C63.83760561 46.73276764 63.83531786 49.86561917 63.83013153 52.99853516 C63.828795 54.50406932 63.83044288 56.00960913 63.83509064 57.51513672 C63.84015579 59.61734118 63.83244627 61.71911664 63.82128906 63.82128906 C63.81969788 65.01882812 63.81810669 66.21636719 63.81646729 67.45019531 C63.5625 70.25878906 63.5625 70.25878906 61.5625 72.25878906 C58.75390625 72.51948547 58.75390625 72.51948547 55.125 72.53344727 C54.1345166 72.54111366 54.1345166 72.54111366 53.12402344 72.54893494 C50.93675731 72.56285909 48.74980523 72.5618723 46.5625 72.55957031 C45.04557172 72.56345536 43.52864452 72.56778963 42.01171875 72.57255554 C38.83069331 72.58002356 35.64977884 72.57972206 32.46875 72.57446289 C28.38613587 72.56866372 24.30397474 72.58560681 20.22143555 72.60880756 C17.08851451 72.6235162 13.95570335 72.62442062 10.82275391 72.62129784 C9.31721091 72.62181238 7.81166198 72.62707494 6.30615234 72.63710976 C4.2037991 72.64940363 2.10233823 72.64272653 0 72.63110352 C-1.19753906 72.63173294 -2.39507812 72.63236237 -3.62890625 72.63301086 C-4.55574219 72.50951767 -5.48257813 72.38602448 -6.4375 72.25878906 C-8.83136566 68.66799058 -8.69052334 67.06646665 -8.69628906 62.79956055 C-8.70154602 61.82348846 -8.70154602 61.82348846 -8.70690918 60.82769775 C-8.7157069 58.67831738 -8.70988515 56.52926649 -8.703125 54.37988281 C-8.70447205 52.88680457 -8.70641293 51.39372676 -8.70892334 49.90065002 C-8.7118718 46.77267274 -8.70758534 43.64480971 -8.69824219 40.5168457 C-8.68683786 36.50272517 -8.69341495 32.48887178 -8.70538712 28.47476101 C-8.71260484 25.39246091 -8.71031838 22.31022443 -8.70513153 19.22792244 C-8.7037953 17.74750805 -8.70544184 16.26708792 -8.71009064 14.78668022 C-8.71515562 12.72050479 -8.707447 10.65476586 -8.69628906 8.58862305 C-8.69469788 7.41186508 -8.69310669 6.23510712 -8.69146729 5.02268982 C-8.17373612 -0.6117271 -4.8120071 0.00639378 0 0 Z " fill="#030606" transform="translate(243.4375,187.7412109375)"/>
<path d="M0 0 C16.17 0 32.34 0 49 0 C49 16.17 49 32.34 49 49 C32.83 49 16.66 49 0 49 C0 32.83 0 16.66 0 0 Z " fill="#69BBC6" transform="translate(289,283)"/>
<path d="M0 0 C16.17 0 32.34 0 49 0 C49 16.17 49 32.34 49 49 C32.83 49 16.66 49 0 49 C0 32.83 0 16.66 0 0 Z " fill="#69BBC6" transform="translate(204,283)"/>
<path d="M0 0 C15.84 0 31.68 0 48 0 C48 15.84 48 31.68 48 48 C32.16 48 16.32 48 0 48 C0 32.16 0 16.32 0 0 Z " fill="#6ABDC8" transform="translate(247,200)"/>
<path d="M0 0 C1.30816681 -0.00856522 1.30816681 -0.00856522 2.64276123 -0.01730347 C3.60692963 -0.01842133 4.57109802 -0.01953918 5.56448364 -0.02069092 C7.07903137 -0.02813828 7.07903137 -0.02813828 8.62417603 -0.03573608 C11.98075021 -0.0504 15.33727715 -0.05716666 18.69387817 -0.06268311 C21.0169678 -0.06843099 23.3400574 -0.07418876 25.66314697 -0.07995605 C30.54074323 -0.09047804 35.41832294 -0.09631289 40.29592896 -0.09979248 C46.55650113 -0.10528029 52.81685615 -0.12930956 59.07736015 -0.15776443 C63.87793625 -0.17635635 68.67845969 -0.18159457 73.47906876 -0.18312836 C75.78762118 -0.18616312 78.09617251 -0.19421915 80.40468979 -0.20731354 C83.62999909 -0.22430226 86.85477319 -0.22251128 90.08010864 -0.21600342 C91.52028854 -0.22982559 91.52028854 -0.22982559 92.98956299 -0.243927 C93.86731384 -0.23835785 94.7450647 -0.2327887 95.64941406 -0.22705078 C96.79371541 -0.22925062 96.79371541 -0.22925062 97.96113396 -0.2314949 C100.53148768 0.24877734 101.43408169 1.03182437 102.95169067 3.14044189 C102.82669067 6.70294189 102.82669067 6.70294189 101.95169067 10.14044189 C98.87919428 12.18877282 98.24879198 12.39210489 94.78349304 12.40786743 C93.93532013 12.4163974 93.08714722 12.42492737 92.21327209 12.43371582 C91.28591751 12.43280945 90.35856293 12.43190308 89.40310669 12.43096924 C88.42398315 12.43768646 87.44485962 12.44440369 86.43606567 12.45132446 C83.19252478 12.4703557 79.94919021 12.47423113 76.70559692 12.47637939 C74.4550213 12.4828033 72.20444652 12.48953135 69.95387268 12.49655151 C65.23364322 12.5085368 60.51348702 12.512231 55.79324341 12.51104736 C49.73899371 12.510844 43.68521253 12.53815865 37.63107395 12.57259178 C32.98228285 12.59480635 28.33360552 12.59888659 23.68476677 12.59782791 C21.45239584 12.6001916 19.22002214 12.60905807 16.98770332 12.62449265 C13.86802267 12.64404401 10.74936561 12.6383572 7.62966919 12.62628174 C6.70433884 12.63752075 5.77900848 12.64875977 4.82563782 12.66033936 C-1.38146334 12.59915055 -1.38146334 12.59915055 -4.66490173 10.34054565 C-6.04830933 8.14044189 -6.04830933 8.14044189 -5.86080933 4.45294189 C-4.74767173 -0.08523446 -4.36257663 0.0170279 0 0 Z " fill="#0A0702" transform="translate(73.04830932617188,242.85955810546875)"/>
<path d="M0 0 C0.97926956 -0.00686325 1.95853912 -0.0137265 2.96748352 -0.02079773 C6.20568321 -0.0391049 9.44340028 -0.03522291 12.68164062 -0.02954102 C14.93078774 -0.0341006 17.17993346 -0.0394055 19.42907715 -0.04542542 C24.14336812 -0.05436399 28.85748975 -0.05192443 33.57177734 -0.04199219 C39.61817809 -0.03049578 45.66399543 -0.05072097 51.71031952 -0.07990932 C56.35483523 -0.09823871 60.99921026 -0.09798545 65.64375305 -0.0922718 C67.87332478 -0.09211822 70.10290582 -0.0981929 72.33244324 -0.11056328 C75.44726382 -0.12541128 78.56099518 -0.11484165 81.67578125 -0.09765625 C82.59954056 -0.10732422 83.52329987 -0.11699219 84.47505188 -0.12695312 C90.70604198 -0.05482484 90.70604198 -0.05482484 93.91442871 2.2752533 C95.68768195 4.92716865 95.89963106 6.27435605 95.33789062 9.40405273 C93.78085324 11.41384782 92.89242484 12.29774895 90.3685379 12.78157616 C89.23919453 12.78327277 89.23919453 12.78327277 88.08703613 12.78500366 C87.22058975 12.79346313 86.35414337 12.80192261 85.46144104 12.81063843 C84.04000038 12.80152939 84.04000038 12.80152939 82.58984375 12.79223633 C81.58960678 12.79749329 80.58936981 12.80275024 79.55882263 12.8081665 C76.24543745 12.82139346 72.93253088 12.81261869 69.61914062 12.80249023 C67.32132881 12.80451019 65.02351762 12.80742097 62.72570801 12.81118774 C57.90708317 12.81561476 53.08862502 12.80916777 48.27001953 12.79516602 C42.08569318 12.77807409 35.90175739 12.78791323 29.71744537 12.80588341 C24.97175134 12.81671095 20.22615029 12.8132796 15.48045349 12.80550003 C13.19982355 12.80349518 10.91918523 12.80596724 8.63856506 12.81293869 C5.45412758 12.82053609 2.27032738 12.80897257 -0.9140625 12.79223633 C-1.86168961 12.79830902 -2.80931671 12.80438171 -3.78565979 12.81063843 C-4.65210617 12.80217896 -5.51855255 12.79371948 -6.41125488 12.78500366 C-7.16415047 12.78387259 -7.91704605 12.78274151 -8.69275665 12.78157616 C-11.2304387 12.29510443 -12.11502335 11.44411228 -13.66210938 9.40405273 C-14.09960938 6.40405273 -14.09960938 6.40405273 -13.66210938 3.40405273 C-10.06990451 -0.79074211 -5.07884725 -0.02475015 0 0 Z " fill="#070501" transform="translate(80.662109375,200.595947265625)"/>
<path d="M0 0 C0.86644638 -0.00845947 1.73289276 -0.01691895 2.62559509 -0.02563477 C3.5732222 -0.01956207 4.5208493 -0.01348938 5.49719238 -0.00723267 C6.49742935 -0.01248962 7.49766632 -0.01774658 8.5282135 -0.02316284 C11.84159868 -0.0363898 15.15450526 -0.02761502 18.46789551 -0.01748657 C20.76570732 -0.01950653 23.06351851 -0.02241731 25.36132812 -0.02618408 C30.17995296 -0.0306111 34.99841111 -0.0241641 39.8170166 -0.01016235 C46.00134295 0.00692957 52.18527875 -0.00290957 58.36959076 -0.02087975 C63.11528479 -0.03170729 67.86088585 -0.02827594 72.60658264 -0.02049637 C74.88721258 -0.01849152 77.1678509 -0.02096357 79.44847107 -0.02793503 C82.63290855 -0.03553243 85.81670876 -0.0239689 89.00109863 -0.00723267 C89.94872574 -0.01330536 90.89635284 -0.01937805 91.87269592 -0.02563477 C92.7391423 -0.01717529 93.60558868 -0.00871582 94.49829102 0 C95.2511866 0.00113108 96.00408218 0.00226215 96.77979279 0.00342751 C99.33231668 0.4927444 100.23766755 1.28739163 101.74914551 3.38095093 C101.62414551 6.94345093 101.62414551 6.94345093 100.74914551 10.38095093 C97.67664911 12.42928186 97.04624681 12.63261392 93.58094788 12.64837646 C92.73277496 12.65690643 91.88460205 12.6654364 91.01072693 12.67422485 C90.08337234 12.67331848 89.15601776 12.67241211 88.20056152 12.67147827 C87.22143799 12.6781955 86.24231445 12.68491272 85.23352051 12.6918335 C81.98997961 12.71086473 78.74664504 12.71474016 75.50305176 12.71688843 C73.25247613 12.72331233 71.00190136 12.73004038 68.75132751 12.73706055 C64.03109805 12.74904583 59.31094185 12.75274004 54.59069824 12.7515564 C48.53644855 12.75135304 42.48266736 12.77866768 36.42852879 12.81310081 C31.77973769 12.83531538 27.13106036 12.83939562 22.4822216 12.83833694 C20.24985068 12.84070064 18.01747698 12.8495671 15.78515816 12.86500168 C12.6654775 12.88455305 9.54682045 12.87886623 6.42712402 12.86679077 C5.50179367 12.87802979 4.57646332 12.8892688 3.62309265 12.90084839 C-2.61913747 12.83931329 -2.61913747 12.83931329 -5.8283844 10.51074219 C-7.60003467 7.85814142 -7.81255279 6.51041285 -7.25085449 3.38095093 C-5.03833395 0.52507029 -3.56159746 0.0053506 0 0 Z " fill="#070501" transform="translate(74.2508544921875,283.6190490722656)"/>
<path d="M0 0 C4.69453504 1.37174423 7.74087669 4.02789392 11.48046875 7.10546875 C13.06354096 8.37564866 14.64824145 9.64380126 16.234375 10.91015625 C17.06211426 11.57370117 17.88985352 12.23724609 18.74267578 12.92089844 C24.08779379 17.13426187 29.58649546 21.14793553 35.06884766 25.18017578 C35.87628418 25.77942871 36.6837207 26.37868164 37.515625 26.99609375 C38.23371338 27.52493164 38.95180176 28.05376953 39.69165039 28.59863281 C42.09348241 30.59340452 42.32799697 31.7394366 42.68359375 34.859375 C42.35546875 37.98046875 42.35546875 37.98046875 40.65234375 40.0078125 C39.811875 40.63816406 38.97140625 41.26851562 38.10546875 41.91796875 C37.11289062 42.67722656 36.1203125 43.43648437 35.09765625 44.21875 C33.85036704 45.13946738 32.60295874 46.06002343 31.35546875 46.98046875 C29.73196592 48.2016547 28.1096532 49.4244238 26.48828125 50.6484375 C22.26582479 53.83101766 18.02746109 56.99152031 13.78271484 60.14428711 C10.56920576 62.57526697 7.43233466 65.09870363 4.30664062 67.64135742 C2.35546875 68.98046875 2.35546875 68.98046875 -1.01953125 69.66796875 C-3.64453125 68.98046875 -3.64453125 68.98046875 -5.58203125 67.35546875 C-7.04806998 64.078441 -6.6400044 62.41121958 -5.64453125 58.98046875 C-3.30078125 56.6640625 -3.30078125 56.6640625 -0.14453125 54.41796875 C1.02628949 53.56153661 2.19684814 52.7047461 3.3671875 51.84765625 C4.00188965 51.39229492 4.6365918 50.93693359 5.29052734 50.46777344 C9.1204232 47.70923412 12.89541243 44.87913404 16.66796875 42.04296875 C17.42722656 41.48730225 18.18648438 40.93163574 18.96875 40.35913086 C19.67 39.83327393 20.37125 39.30741699 21.09375 38.765625 C21.72321533 38.300354 22.35268066 37.83508301 23.0012207 37.35571289 C24.70629212 35.94588951 24.70629212 35.94588951 24.35546875 32.98046875 C22.02322099 31.01774596 19.70680088 29.24448543 17.23046875 27.48046875 C15.76759122 26.40581578 14.30536503 25.33027569 12.84375 24.25390625 C10.64396299 22.64792386 8.44276382 21.04393043 6.23974609 19.44238281 C4.2867812 18.01255869 2.35128766 16.56169527 0.41796875 15.10546875 C-0.17838379 14.67814453 -0.77473633 14.25082031 -1.38916016 13.81054688 C-4.24492165 11.64033637 -5.55247895 10.27908642 -6.62109375 6.8125 C-6.64453125 3.98046875 -6.64453125 3.98046875 -5.08203125 1.54296875 C-2.64453125 -0.01953125 -2.64453125 -0.01953125 0 0 Z " fill="#040403" transform="translate(245.64453125,63.01953125)"/>
<path d="M0 0 C2.75 0.9375 2.75 0.9375 4.75 3.9375 C4.63504279 7.53470285 4.28625996 9.34739427 1.84375 12.03515625 C0.9878125 12.68355469 0.131875 13.33195312 -0.75 14 C-1.7296875 14.75667969 -2.709375 15.51335937 -3.71875 16.29296875 C-4.89570227 17.17465415 -6.07279829 18.05614767 -7.25 18.9375 C-9.48758852 20.64176932 -11.72152804 22.35074502 -13.95507812 24.06030273 C-15.46605503 25.21394967 -16.98030616 26.36332279 -18.49804688 27.50805664 C-19.19994141 28.03906982 -19.90183594 28.57008301 -20.625 29.1171875 C-21.25148437 29.58882324 -21.87796875 30.06045898 -22.5234375 30.54638672 C-24.22166929 31.91467359 -25.73909623 33.3669248 -27.25 34.9375 C-19.22204682 41.41908515 -11.18368559 47.83444283 -2.8359375 53.90234375 C-0.05895097 56.08785732 2.40890047 58.2873584 4.75 60.9375 C4.6763784 64.69220151 4.42158839 66.26591161 1.75 68.9375 C-1.34612967 69.54558544 -3.39667929 69.43616545 -6.15087891 67.82666016 C-8.35154457 66.20229613 -10.45963373 64.49915151 -12.5625 62.75 C-14.15543281 61.46513205 -15.74920453 60.18130356 -17.34375 58.8984375 C-18.15328125 58.24069336 -18.9628125 57.58294922 -19.796875 56.90527344 C-24.34161498 53.25971171 -29.0155884 49.7820254 -33.67895508 46.2902832 C-35.55893023 44.8658785 -37.40944868 43.41234428 -39.25 41.9375 C-40.25417969 41.13441406 -41.25835937 40.33132812 -42.29296875 39.50390625 C-44.25 36.9375 -44.25 36.9375 -44.49609375 33.47265625 C-42.81768974 28.71103987 -40.40494893 27.11935944 -36.3125 24.375 C-34.85650748 23.3446565 -33.40214426 22.31200765 -31.94921875 21.27734375 C-31.18399902 20.73964355 -30.4187793 20.20194336 -29.63037109 19.64794922 C-25.53179902 16.70286245 -21.58667734 13.56293722 -17.625 10.4375 C-4.27933617 -0.08229493 -4.27933617 -0.08229493 0 0 Z " fill="#040402" transform="translate(161.25,63.0625)"/>
<path d="M0 0 C2.5 0.375 2.5 0.375 4.3125 1.5 C6.03917175 4.22632382 5.74104268 6.18565265 5.5 9.375 C4.37353516 12.08129883 4.37353516 12.08129883 2.7890625 14.83203125 C1.91894531 16.36355835 1.91894531 16.36355835 1.03125 17.92602539 C0.4021875 19.00231201 -0.226875 20.07859863 -0.875 21.1875 C-1.51695312 22.30825928 -2.15890625 23.42901855 -2.8203125 24.58374023 C-4.6996008 27.85581608 -6.59626319 31.11710158 -8.5 34.375 C-8.96825195 35.18001953 -9.43650391 35.98503906 -9.91894531 36.81445312 C-11.87831565 40.17995983 -13.85334619 43.53557464 -15.84375 46.8828125 C-17.97237646 50.46777979 -20.06740942 54.07139768 -22.15625 57.6796875 C-22.79175781 58.77595459 -23.42726562 59.87222168 -24.08203125 61.00170898 C-25.34217085 63.17695759 -26.60005422 65.35351511 -27.85546875 67.53149414 C-28.71591797 69.0144397 -28.71591797 69.0144397 -29.59375 70.52734375 C-30.10615234 71.41413818 -30.61855469 72.30093262 -31.14648438 73.21459961 C-32.5 75.375 -32.5 75.375 -34.5 77.375 C-37.60347254 77.70515665 -39.65781176 77.88031294 -42.375 76.25 C-44.00705314 73.52991143 -43.7247746 71.50985005 -43.5 68.375 C-42.45288086 65.90332031 -42.45288086 65.90332031 -40.96484375 63.453125 C-40.41014404 62.52298584 -39.85544434 61.59284668 -39.28393555 60.63452148 C-38.67461182 59.64137939 -38.06528809 58.6482373 -37.4375 57.625 C-36.15006394 55.47584582 -34.86364103 53.32608445 -33.578125 51.17578125 C-32.90716797 50.06154785 -32.23621094 48.94731445 -31.54492188 47.79931641 C-28.18798105 42.17796349 -24.9432862 36.49281666 -21.6875 30.8125 C-13.43043314 16.48097687 -13.43043314 16.48097687 -9.25 9.4375 C-8.58484375 8.31472656 -7.9196875 7.19195312 -7.234375 6.03515625 C-3.65722656 0.54858398 -3.65722656 0.54858398 0 0 Z " fill="#040402" transform="translate(221.5,58.625)"/>
<path d="M0 0 C1.07121094 -0.00945648 2.14242187 -0.01891296 3.24609375 -0.02865601 C4.98052734 -0.01954697 4.98052734 -0.01954697 6.75 -0.01025391 C7.93722656 -0.01312408 9.12445313 -0.01599426 10.34765625 -0.01895142 C12.85937985 -0.02099417 15.37111928 -0.01544963 17.8828125 -0.00292969 C21.73473572 0.01311999 25.58560955 -0.00277228 29.4375 -0.02197266 C31.87500232 -0.01999026 34.31250399 -0.01614667 36.75 -0.01025391 C37.90628906 -0.0163266 39.06257813 -0.02239929 40.25390625 -0.02865601 C41.32511719 -0.01919952 42.39632812 -0.00974304 43.5 0 C44.91539063 0.00358017 44.91539063 0.00358017 46.359375 0.00723267 C48.75 0.38818359 48.75 0.38818359 50.5546875 1.72494507 C52.41268911 4.31029397 52.1357206 6.3024188 51.75 9.38818359 C50.5546875 11.05142212 50.5546875 11.05142212 48.75 12.38818359 C46.359375 12.76913452 46.359375 12.76913452 43.5 12.77636719 C42.42878906 12.78582367 41.35757813 12.79528015 40.25390625 12.80502319 C38.51947266 12.79591415 38.51947266 12.79591415 36.75 12.78662109 C35.56277344 12.78949127 34.37554687 12.79236145 33.15234375 12.7953186 C30.64062015 12.79736136 28.12888072 12.79181682 25.6171875 12.77929688 C21.76526428 12.76324719 17.91439045 12.77913947 14.0625 12.79833984 C11.62499768 12.79635745 9.18749601 12.79251386 6.75 12.78662109 C5.59371094 12.79269379 4.43742187 12.79876648 3.24609375 12.80502319 C2.17488281 12.79556671 1.10367188 12.78611023 0 12.77636719 C-0.94359375 12.77398041 -1.8871875 12.77159363 -2.859375 12.76913452 C-5.25 12.38818359 -5.25 12.38818359 -7.0546875 11.05142212 C-8.91268911 8.46607322 -8.6357206 6.47394838 -8.25 3.38818359 C-5.89835105 0.11594046 -3.90027529 0.00986558 0 0 Z " fill="#030200" transform="translate(75.25,324.61181640625)"/>
</svg>
