<?xml version="1.0" encoding="UTF-8"?>
<svg version="1.1" xmlns="http://www.w3.org/2000/svg" width="512" height="512">
<path d="M0 0 C0.82483887 0.00572021 1.64967773 0.01144043 2.49951172 0.01733398 C13.79554731 0.34387891 23.73761602 4.44057658 31.75 12.5 C41.22669691 23.69116892 44.929372 35.96503697 43.75 50.5 C42.52809746 56.01670851 41.15902691 61.40051867 37.98828125 66.125 C36.4600306 68.39513968 36.4600306 68.39513968 37.34375 70.6171875 C38.83351679 72.6118197 40.32114046 74.05187275 42.25 75.625 C72.1133167 101.07607892 97.5832296 142.85697372 101.19140625 182.4765625 C101.51149699 191.95537856 99.70803127 200.33201271 93.5 207.6875 C92.5925 208.615625 91.685 209.54375 90.75 210.5 C92.4 209.84 94.05 209.18 95.75 208.5 C97.94965743 214.72805131 99.65583887 220.96843511 101.22180176 227.38328552 C105.9389641 246.6069545 112.05801426 265.274094 118.42480469 284.00506592 C119.82777755 288.14061899 121.21792391 292.28048113 122.609375 296.41992188 C125.31086582 304.45071841 128.02573872 312.47689924 130.75 320.5 C133.39 320.83 136.03 321.16 138.75 321.5 C138.75 384.53 138.75 447.56 138.75 512.5 C-30.21 512.5 -199.17 512.5 -373.25 512.5 C-373.25 509.53 -373.25 506.56 -373.25 503.5 C-368.11064464 501.6674319 -362.91475905 500.40545376 -357.60791016 499.17749023 C-356.1774662 498.84296341 -356.1774662 498.84296341 -354.71812439 498.50167847 C-351.57578437 497.76769582 -348.43247744 497.03795803 -345.2890625 496.30859375 C-343.09716744 495.79831551 -340.90530389 495.28790192 -338.71347046 494.77735901 C-334.12258125 493.70875738 -329.53118751 492.64235638 -324.93945312 491.57739258 C-319.06523642 490.21471333 -313.19250814 488.84573651 -307.32016945 487.47498989 C-302.7945845 486.41949937 -298.26812481 485.36780012 -293.74140549 484.31718636 C-291.57625358 483.81410911 -289.41139623 483.30976232 -287.24684525 482.80410576 C-284.21574967 482.09652737 -281.18348695 481.3941788 -278.15087891 480.69311523 C-276.81957695 480.3806208 -276.81957695 480.3806208 -275.46138 480.06181335 C-271.5437024 479.16128902 -267.71461749 478.39687484 -263.7144165 477.97695923 C-262.57115906 477.81956268 -261.42790161 477.66216614 -260.25 477.5 C-258.80540657 475.72898527 -258.80540657 475.72898527 -258.25 473.5 C-257.380132 472.21072532 -256.47931381 470.9419924 -255.5546875 469.69140625 C-255.01199219 468.95535156 -254.46929687 468.21929687 -253.91015625 467.4609375 C-253.32105469 466.66945313 -252.73195313 465.87796875 -252.125 465.0625 C-251.50753906 464.22847656 -250.89007813 463.39445312 -250.25390625 462.53515625 C-244.97912954 455.43164934 -239.61460778 448.39779842 -234.23852539 441.37084961 C-225.71948484 430.21893354 -217.40664102 418.91929743 -209.25 407.5 C-203.31 407.5 -197.37 407.5 -191.25 407.5 C-191.25 390.67 -191.25 373.84 -191.25 356.5 C-194.22 356.5 -197.19 356.5 -200.25 356.5 C-201.84427624 356.42437807 -203.43801244 356.3288775 -205.02856445 356.19628906 C-206.26078484 356.0955307 -206.26078484 356.0955307 -207.51789856 355.99273682 C-208.37437485 355.91778992 -209.23085114 355.84284302 -210.11328125 355.765625 C-211.48313423 355.64667877 -211.48313423 355.64667877 -212.88066101 355.52532959 C-214.80110273 355.35616307 -216.72133466 355.18459934 -218.64135742 355.01074219 C-221.54313311 354.75172869 -224.44613181 354.51250401 -227.34960938 354.2734375 C-253.87392653 351.95997569 -253.87392653 351.95997569 -263.25 342.5 C-269.6427471 334.65104627 -273.54135422 325.73901987 -273.25 315.5 C-272.16453272 308.03085444 -269.87127427 301.22987345 -267.14453125 294.21875 C-266.74223801 293.16578735 -266.33994476 292.11282471 -265.92546082 291.0279541 C-264.64521229 287.68240702 -263.35403538 284.34120372 -262.0625 281 C-261.21477682 278.78933769 -260.36776583 276.57840213 -259.52148438 274.3671875 C-258.68776432 272.19260698 -257.85378281 270.01812667 -257.01953125 267.84375 C-256.6135672 266.78551025 -256.20760315 265.72727051 -255.78933716 264.63696289 C-253.91010575 259.75396921 -252.01025634 254.88242074 -250.04052734 250.03515625 C-249.70631271 249.20455688 -249.37209808 248.37395752 -249.02775574 247.51818848 C-248.41191385 245.99273045 -247.78712602 244.47083966 -247.15156555 242.95349121 C-245.62740397 239.16784403 -245.62740397 239.16784403 -245.46899414 235.14697266 C-246.58525515 232.7930193 -248.17911684 231.23011029 -250 229.375 C-257.90201008 220.72244058 -261.8533924 210.31645553 -261.4296875 198.546875 C-260.29893261 185.66610196 -254.9515804 174.20034968 -245.25 165.5 C-234.02346791 157.10770716 -221.95840878 155.04266118 -208.25 156.5 C-197.87048319 158.72687815 -187.75421539 165.06630445 -181.25 173.5 C-174.29296621 185.26604332 -171.37736877 196.71774049 -173.75 210.37890625 C-176.0629284 218.77641335 -180.35639835 226.12853875 -186.25 232.5 C-186.91 232.83 -187.57 233.16 -188.25 233.5 C-169.70530654 237.08423498 -143.5568159 242.05761418 -126.34442139 231.21899414 C-110.57566022 220.22726104 -97.43433944 204.4725039 -85.43540955 189.59954834 C-78.92732898 181.64503546 -72.11808549 176.71133953 -63.25 171.5 C-61.2621557 170.20068018 -59.28148117 168.89023118 -57.3125 167.5625 C-56.34828125 166.91667969 -55.3840625 166.27085937 -54.390625 165.60546875 C-53.35421875 164.91066406 -52.3178125 164.21585938 -51.25 163.5 C-48.68844387 161.79024994 -46.12544515 160.08266695 -43.5625 158.375 C-40.9151503 156.61068805 -40.9151503 156.61068805 -38.2877655 154.81690979 C-36.25 153.5 -36.25 153.5 -34.06243896 152.41598511 C-28.86260664 149.61171297 -26.63542844 147.10442043 -24.85131836 141.43457031 C-24.22792867 138.99138141 -23.64270107 136.53823384 -23.08984375 134.078125 C-22.76942502 132.76795438 -22.44593092 131.45853244 -22.11952209 130.14984131 C-21.27429434 126.72503021 -20.47215686 123.29152372 -19.67858887 119.85443115 C-18.86036995 116.34817091 -17.99902394 112.85254659 -17.14257812 109.35546875 C-13.80379138 98.02735961 -13.80379138 98.02735961 -12.25 86.5 C-12.86746094 86.29246094 -13.48492187 86.08492188 -14.12109375 85.87109375 C-25.71665778 81.65292053 -34.64485741 74.30230342 -40 63.125 C-45.54776427 50.04940125 -45.32450456 38.67402007 -40.4765625 25.37890625 C-35.85621545 14.84536274 -26.78228253 6.95852453 -16.25878906 2.69287109 C-10.77606755 0.68429027 -5.82333999 -0.04753501 0 0 Z M16.75 159.5 C16.40453125 160.44359375 16.0590625 161.3871875 15.703125 162.359375 C10.6503334 174.4648233 2.7563926 178.95054534 -8.47949219 184.96679688 C-13.1217684 187.5358394 -17.54880027 190.4289124 -22 193.3125 C-27.88252865 197.09152464 -33.77989777 200.84050403 -39.73046875 204.51171875 C-40.80780273 205.17776123 -41.88513672 205.84380371 -42.99511719 206.5300293 C-45.06696713 207.80853627 -47.14168053 209.08241889 -49.21972656 210.35083008 C-56.77313219 215.01998614 -63.127912 219.71541229 -68.625 226.75 C-71.56722021 230.4402423 -74.56579507 234.01623572 -77.75 237.5 C-80.86458668 240.91739372 -83.8418662 244.4052235 -86.75 248 C-90.35277348 252.45342833 -94.11750345 256.70998186 -97.9765625 260.94140625 C-101.2093237 264.57965124 -104.25813104 268.35779763 -107.3046875 272.15234375 C-107.94664062 272.92707031 -108.58859375 273.70179688 -109.25 274.5 C-109.8689917 275.28334717 -109.8689917 275.28334717 -110.50048828 276.08251953 C-112.99082494 278.1002274 -115.0073175 278.15973952 -118.1875 278.52734375 C-118.8259082 278.60291 -119.46431641 278.67847626 -120.12207031 278.7563324 C-131.80605982 280.084263 -143.53708286 281.03196437 -155.25 282.0625 C-159.00045014 282.39404616 -162.75080624 282.72656718 -166.50097656 283.06126404 C-168.81916294 283.26801653 -171.13751548 283.47291693 -173.45605469 283.67567444 C-178.74917319 284.14639621 -183.99975463 284.67567028 -189.25 285.5 C-190.75801568 289.43447709 -192.25502914 293.37304977 -193.75 297.3125 C-194.17925781 298.43205078 -194.60851562 299.55160156 -195.05078125 300.70507812 C-195.45683594 301.77822266 -195.86289063 302.85136719 -196.28125 303.95703125 C-196.65830078 304.94678955 -197.03535156 305.93654785 -197.42382812 306.95629883 C-198.40445325 309.52979542 -198.40445325 309.52979542 -198.25 312.5 C-192.93476268 313.75780425 -187.62896987 314.79946019 -182.23828125 315.68359375 C-180.98595703 315.88919922 -179.73363281 316.09480469 -178.44335938 316.30664062 C-175.8453152 316.7289699 -173.24633711 317.14559159 -170.64648438 317.55664062 C-169.39802734 317.76353516 -168.14957031 317.97042969 -166.86328125 318.18359375 C-165.17392456 318.45514282 -165.17392456 318.45514282 -163.45043945 318.73217773 C-156.7308708 320.3442796 -153.19699658 323.08697612 -149.25 328.5 C-148.08339635 331.99981095 -148.07463624 335.17415346 -148.04467773 338.81713867 C-148.03477814 339.55884811 -148.02487854 340.30055756 -148.01467896 341.06474304 C-147.98309743 343.51578583 -147.95831979 345.966848 -147.93359375 348.41796875 C-147.91302133 350.11762495 -147.89202478 351.81727607 -147.87062073 353.516922 C-147.8154298 357.99014163 -147.76600738 362.46340721 -147.71777344 366.93670654 C-147.66753668 371.50146574 -147.61186196 376.06615823 -147.55664062 380.63085938 C-147.44909548 389.58718259 -147.3476424 398.54356373 -147.25 407.5 C-143.07745408 407.69004326 -138.9060309 407.80466228 -134.73046875 407.90625 C-133.55480347 407.96071289 -132.37913818 408.01517578 -131.16784668 408.07128906 C-125.42535203 408.17604603 -121.29980359 408.23157126 -116.74560547 404.46826172 C-113.91621158 401.65765659 -111.59253477 398.51785025 -109.39013672 395.20019531 C-107.9732921 393.08736748 -106.34693528 391.24407524 -104.625 389.375 C-103.84769531 388.47394531 -103.84769531 388.47394531 -103.0546875 387.5546875 C-100.66218226 384.83075297 -98.20594058 382.16656731 -95.75 379.5 C-92.71107665 376.1997517 -89.68843844 372.8905059 -86.75 369.5 C-83.3432265 365.5691075 -79.81997215 361.74803427 -76.296875 357.921875 C-73.74444857 355.14505943 -71.22016712 352.35019283 -68.75 349.5 C-65.81154919 346.10947983 -62.78843371 342.80071144 -59.75 339.5 C-54.94484786 334.27170016 -54.94484786 334.27170016 -50.1875 329 C-49.66027344 328.4121875 -49.13304687 327.824375 -48.58984375 327.21875 C-46.95418282 325.23702414 -46.95418282 325.23702414 -45.25 321.5 C-38.98 321.5 -32.71 321.5 -26.25 321.5 C-25.7559668 318.96175537 -25.26193359 316.42351074 -24.75292969 313.80834961 C-23.1160487 305.40822462 -21.46526073 297.01087624 -19.80767441 288.6148138 C-18.80342473 283.52581745 -17.80383215 278.43599924 -16.81494141 273.34399414 C-15.85985619 268.42698343 -14.8924619 263.51253973 -13.91660309 258.59961128 C-13.54704608 256.72786656 -13.18188006 254.85524918 -12.82125092 252.98176384 C-12.3140966 250.35117888 -11.79120203 247.72417278 -11.26464844 245.09741211 C-11.12006699 244.32776627 -10.97548553 243.55812042 -10.82652283 242.76515198 C-9.22701941 234.96006982 -5.45179346 229.39045575 -0.1875 223.4375 C4.30039611 218.25086223 8.62405177 212.96752664 12.80786133 207.53222656 C14.88617096 204.83763228 16.97790081 202.24614481 19.25390625 199.7109375 C19.99511719 198.87820312 20.73632812 198.04546875 21.5 197.1875 C22.15484375 196.49011719 22.8096875 195.79273438 23.484375 195.07421875 C26.92769308 188.07067982 22.53080285 178.0327191 20.6875 170.9375 C20.40583984 169.83341797 20.12417969 168.72933594 19.83398438 167.59179688 C19.14470682 164.89310002 18.44994298 162.1959465 17.75 159.5 C17.42 159.5 17.09 159.5 16.75 159.5 Z M58.75 234.5 C57.81933716 235.2113208 57.81933716 235.2113208 56.86987305 235.93701172 C54.05980363 238.08395421 51.24866509 240.22949239 48.4375 242.375 C46.97280273 243.49455078 46.97280273 243.49455078 45.47851562 244.63671875 C44.54072266 245.35214844 43.60292969 246.06757813 42.63671875 246.8046875 C41.77264404 247.46452637 40.90856934 248.12436523 40.01831055 248.80419922 C38.30023789 250.08863929 36.53485163 251.31009891 34.75 252.5 C34.00160195 255.18986509 34.00160195 255.18986509 33.67504883 258.41503906 C33.51510941 259.65682922 33.35516998 260.89861938 33.19038391 262.17803955 C33.02887383 263.54052156 32.86776625 264.90305134 32.70703125 266.265625 C32.5330298 267.66100252 32.35794007 269.05624474 32.18180847 270.45135498 C31.81492466 273.37922699 31.45684217 276.30799038 31.10571289 279.23779297 C30.65681375 282.98281036 30.19318677 286.72579993 29.72377491 290.46829605 C29.27563833 294.04595122 28.83474821 297.62448815 28.39453125 301.203125 C28.26847472 302.22098461 28.26847472 302.22098461 28.1398716 303.25940704 C27.90155055 305.19491632 27.66904748 307.13113925 27.43676758 309.06738281 C27.30369705 310.16721497 27.17062653 311.26704712 27.03352356 312.40020752 C26.75710424 315.42232856 26.75 318.4652639 26.75 321.5 C46.22 321.5 65.69 321.5 85.75 321.5 C83.93105605 316.04316814 82.24107066 311.12120509 79.9296875 305.94921875 C71.94649174 287.5132322 67.09061264 269.32127072 63.46630859 249.5612793 C63.2949086 248.63324997 63.12350861 247.70522064 62.94691467 246.74906921 C62.62690697 244.99411528 62.3164495 243.23738565 62.01683044 241.47883606 C61.65848276 239.47340946 61.21300305 237.4838793 60.75 235.5 C60.09 235.17 59.43 234.84 58.75 234.5 Z " fill="#DB9215" transform="translate(373.25,-0.5)"/>
<path d="M0 0 C0.82483887 0.00572021 1.64967773 0.01144043 2.49951172 0.01733398 C13.79554731 0.34387891 23.73761602 4.44057658 31.75 12.5 C41.22669691 23.69116892 44.929372 35.96503697 43.75 50.5 C42.52809746 56.01670851 41.15902691 61.40051867 37.98828125 66.125 C36.4600306 68.39513968 36.4600306 68.39513968 37.34375 70.6171875 C38.83351679 72.6118197 40.32114046 74.05187275 42.25 75.625 C72.1133167 101.07607892 97.5832296 142.85697372 101.19140625 182.4765625 C101.51149699 191.95537856 99.70803127 200.33201271 93.5 207.6875 C92.13875 209.0796875 92.13875 209.0796875 90.75 210.5 C93.225 209.51 93.225 209.51 95.75 208.5 C97.95016046 214.72905824 99.65597515 220.97041837 101.22180176 227.38644409 C105.93367146 246.59231429 112.05606502 265.23622677 118.42480469 283.94677734 C120.10073713 288.87838211 121.76156175 293.81509385 123.42424774 298.75117683 C124.7108835 302.57024539 125.99977652 306.3884958 127.29602051 310.20431519 C127.52946167 310.89306732 127.76290283 311.58181946 128.00341797 312.29144287 C128.63220927 314.14627416 129.26240503 316.00062916 129.8927002 317.85494995 C130.75 320.5 130.75 320.5 130.75 321.5 C115.9 321.5 101.05 321.5 85.75 321.5 C83.89375 317.065625 82.0375 312.63125 80.125 308.0625 C79.55313965 306.70326416 78.9812793 305.34402832 78.39208984 303.94360352 C76.81039167 300.1420775 75.26381467 296.32900289 73.75 292.5 C73.48745422 291.8376535 73.22490845 291.17530701 72.95440674 290.4928894 C68.35762147 278.71640911 65.7003916 266.83996372 63.375 254.4375 C63.01811879 252.58766032 62.66005152 250.73804905 62.30078125 248.88867188 C61.43689105 244.42828328 60.58887916 239.96515705 59.75 235.5 C57.70488353 236.81353009 55.70667563 238.15639613 53.72875977 239.57104492 C51.41688477 241.06814551 49.49811507 242.06177151 47.00366211 243.1105957 C42.21944637 245.41588659 38.60888266 247.94315879 35.75 252.5 C32.21973481 262.97321399 31.56171889 274.29758514 30.54797363 285.24108887 C30.08425875 290.05877159 29.5183374 294.86543911 28.96999359 299.6740799 C28.15234152 306.94397946 27.46390893 314.21580729 26.75 321.5 C9.26 321.5 -8.23 321.5 -26.25 321.5 C-25.63140654 315.31406543 -25.0029056 309.62210878 -23.82299805 303.59106445 C-23.68297363 302.86933044 -23.54294922 302.14759644 -23.39868164 301.4039917 C-22.94149 299.05604936 -22.47721018 296.70959125 -22.01171875 294.36328125 C-21.68637588 292.71283454 -21.36108485 291.06237761 -21.0358429 289.41191101 C-20.35600017 285.96944491 -19.67196525 282.52784022 -18.9855957 279.08666992 C-18.1097483 274.6911267 -17.24997876 270.29260126 -16.39398479 265.8931551 C-15.72898222 262.48985212 -15.05268546 259.08886419 -14.37330055 255.68840599 C-14.05145898 254.06781108 -13.73372139 252.4463952 -13.42029381 250.82415199 C-12.98046515 248.55380196 -12.52475278 246.28717722 -12.06518555 244.02075195 C-11.81061081 242.73409134 -11.55603607 241.44743073 -11.29374695 240.1217804 C-9.39437534 233.53100006 -5.70375974 228.54456604 -1.1875 223.4375 C3.30039611 218.25086223 7.62405177 212.96752664 11.80786133 207.53222656 C13.88617096 204.83763228 15.97790081 202.24614481 18.25390625 199.7109375 C18.99511719 198.87820312 19.73632812 198.04546875 20.5 197.1875 C21.48226562 196.14142578 21.48226562 196.14142578 22.484375 195.07421875 C25.89082139 188.14567502 21.58944653 178.43189733 19.6875 171.4375 C19.40583984 170.38111328 19.12417969 169.32472656 18.83398438 168.23632812 C18.14510271 165.65594085 17.45034171 163.07729586 16.75 160.5 C16.40453125 161.44359375 16.0590625 162.3871875 15.703125 163.359375 C10.6503334 175.4648233 2.7563926 179.95054534 -8.47949219 185.96679688 C-13.12184579 188.53588223 -17.54818813 191.42974304 -22 194.3125 C-23.8248241 195.48025614 -25.65035688 196.64690554 -27.4765625 197.8125 C-28.40629883 198.40675781 -29.33603516 199.00101563 -30.29394531 199.61328125 C-35.6446604 203.02840564 -41.00523765 206.42740895 -46.375 209.8125 C-47.40077148 210.46516846 -48.42654297 211.11783691 -49.48339844 211.7902832 C-50.9186084 212.69266724 -50.9186084 212.69266724 -52.3828125 213.61328125 C-53.22730957 214.14735596 -54.07180664 214.68143066 -54.94189453 215.23168945 C-57.08286068 216.40815647 -58.8627939 217.05012197 -61.25 217.5 C-63.70211182 212.71919844 -66.1411169 207.93202728 -68.56811523 203.13842773 C-69.3959059 201.50801955 -70.22727455 199.87942291 -71.06225586 198.25268555 C-72.2605589 195.91659983 -73.44592151 193.57434091 -74.62890625 191.23046875 C-75.00592178 190.50224411 -75.38293732 189.77401947 -75.77137756 189.02372742 C-76.67430717 187.21886987 -77.4716667 185.36198547 -78.25 183.5 C-76.91518708 179.49556125 -74.3751005 178.40560069 -70.9375 176.3125 C-69.64788069 175.50609811 -68.35882685 174.69879127 -67.0703125 173.890625 C-66.42352539 173.48779297 -65.77673828 173.08496094 -65.11035156 172.66992188 C-62.47879488 171.01501116 -59.89462724 169.29329919 -57.3125 167.5625 C-56.34828125 166.91667969 -55.3840625 166.27085937 -54.390625 165.60546875 C-53.35421875 164.91066406 -52.3178125 164.21585938 -51.25 163.5 C-48.68844387 161.79024994 -46.12544515 160.08266695 -43.5625 158.375 C-40.9151503 156.61068805 -40.9151503 156.61068805 -38.2877655 154.81690979 C-36.25 153.5 -36.25 153.5 -34.06243896 152.41598511 C-28.86260664 149.61171297 -26.63542844 147.10442043 -24.85131836 141.43457031 C-24.22792867 138.99138141 -23.64270107 136.53823384 -23.08984375 134.078125 C-22.76942502 132.76795438 -22.44593092 131.45853244 -22.11952209 130.14984131 C-21.27429434 126.72503021 -20.47215686 123.29152372 -19.67858887 119.85443115 C-18.86036995 116.34817091 -17.99902394 112.85254659 -17.14257812 109.35546875 C-13.80379138 98.02735961 -13.80379138 98.02735961 -12.25 86.5 C-12.86746094 86.29246094 -13.48492187 86.08492188 -14.12109375 85.87109375 C-25.71665778 81.65292053 -34.64485741 74.30230342 -40 63.125 C-45.54776427 50.04940125 -45.32450456 38.67402007 -40.4765625 25.37890625 C-35.85621545 14.84536274 -26.78228253 6.95852453 -16.25878906 2.69287109 C-10.77606755 0.68429027 -5.82333999 -0.04753501 0 0 Z " fill="#E7542B" transform="translate(373.25,-0.5)"/>
<path d="M0 0 C9.20213229 7.21153821 14.34167093 16.1847573 17.05859375 27.61328125 C18.24939077 41.91831041 15.44135599 53.87578821 6.37109375 65.11328125 C4.05859375 67.61328125 4.05859375 67.61328125 2.05859375 68.61328125 C34.95249638 74.72815021 34.95249638 74.72815021 65.90269947 65.03225613 C74.48624425 58.62565926 81.95758874 50.98444045 89.18359375 43.11328125 C89.74379337 42.50343258 90.303993 41.89358391 90.88116837 41.26525497 C97.87826492 33.60022405 104.58264683 25.72422738 111.05859375 17.61328125 C114.25080023 20.59420288 115.95456981 24.02445278 117.8515625 27.90625 C118.20245438 28.61227859 118.55334625 29.31830719 118.91487122 30.04573059 C120.03095689 32.29465372 121.13861142 34.54761097 122.24609375 36.80078125 C123.00270242 38.32904984 123.75985766 39.85704796 124.51757812 41.38476562 C126.37093322 45.12449882 128.21673932 48.86787138 130.05859375 52.61328125 C126.79178534 57.0617743 123.50939728 61.37898969 119.74609375 65.42578125 C116.56576134 68.9044363 113.52127255 72.44741866 110.55859375 76.11328125 C106.94710241 80.57748582 103.17198681 84.84330239 99.3046875 89.0859375 C96.99671777 91.68290518 94.80303512 94.34732138 92.62109375 97.05078125 C91.87214844 97.95570313 91.12320313 98.860625 90.3515625 99.79296875 C88.78580482 101.71882403 87.26895773 103.68522238 85.796875 105.68359375 C79.97849718 113.05033327 79.97849718 113.05033327 75.23681641 114.44067383 C74.15964355 114.54532959 73.0824707 114.64998535 71.97265625 114.7578125 C71.34496338 114.82443085 70.71727051 114.89104919 70.07055664 114.95968628 C67.73496709 115.20001712 65.39728265 115.40528464 63.05859375 115.61328125 C60.97170287 115.81668825 58.88496188 116.02163656 56.79833984 116.2277832 C50.8054819 116.81144153 44.8100426 117.3617189 38.81298828 117.90039062 C35.03894085 118.24004999 31.26555915 118.58651591 27.4921875 118.93359375 C25.07685964 119.1527489 22.66149626 119.37151292 20.24609375 119.58984375 C18.56628418 119.74448593 18.56628418 119.74448593 16.85253906 119.9022522 C11.56467811 120.37288599 6.36751456 120.73729491 1.05859375 120.61328125 C0.93170166 121.32895264 0.80480957 122.04462402 0.67407227 122.78198242 C0.05843003 125.61403438 -0.78770582 128.19609436 -1.7890625 130.9140625 C-2.32563477 132.37875977 -2.32563477 132.37875977 -2.87304688 133.87304688 C-3.24623047 134.88044922 -3.61941406 135.88785156 -4.00390625 136.92578125 C-4.38095703 137.95251953 -4.75800781 138.97925781 -5.14648438 140.03710938 C-6.07486693 142.56372012 -7.00660754 145.08903886 -7.94140625 147.61328125 C-7.23234131 147.71874268 -6.52327637 147.8242041 -5.79272461 147.93286133 C1.08705837 148.96078512 7.96103016 150.02120296 14.83154297 151.109375 C17.50007851 151.5260687 20.17022704 151.91809009 22.84375 152.30078125 C30.46605359 153.54144104 36.29832227 155.18757043 41.05859375 161.61328125 C43.16463079 165.81264386 43.33282371 169.64305365 43.28564453 174.24926758 C43.28593658 175.00102264 43.28622864 175.75277771 43.28652954 176.52731323 C43.2851416 179.00009905 43.26960586 181.47257963 43.25390625 183.9453125 C43.25017421 185.66452368 43.24732814 187.38373698 43.24533081 189.10295105 C43.23770939 193.61898716 43.21807373 198.1348938 43.19592285 202.65087891 C43.17182708 208.07409744 43.16267634 213.49735936 43.15101624 218.92061615 C43.13164844 227.15159445 43.09331554 235.3822889 43.05859375 243.61328125 C28.53859375 243.61328125 14.01859375 243.61328125 -0.94140625 243.61328125 C-0.94140625 226.45328125 -0.94140625 209.29328125 -0.94140625 191.61328125 C-3.91140625 191.61328125 -6.88140625 191.61328125 -9.94140625 191.61328125 C-11.53568249 191.53765932 -13.12941869 191.44215875 -14.7199707 191.30957031 C-15.54145096 191.24239807 -16.36293121 191.17522583 -17.20930481 191.10601807 C-18.0657811 191.03107117 -18.92225739 190.95612427 -19.8046875 190.87890625 C-20.71792282 190.79960876 -21.63115814 190.72031128 -22.57206726 190.63861084 C-24.49250898 190.46944432 -26.41274091 190.29788059 -28.33276367 190.12402344 C-31.23453936 189.86500994 -34.13753806 189.62578526 -37.04101562 189.38671875 C-63.56533278 187.07325694 -63.56533278 187.07325694 -72.94140625 177.61328125 C-79.33415335 169.76432752 -83.23276047 160.85230112 -82.94140625 150.61328125 C-81.85593897 143.14413569 -79.56268052 136.3431547 -76.8359375 129.33203125 C-76.43364426 128.2790686 -76.03135101 127.22610596 -75.61686707 126.14123535 C-74.33661854 122.79568827 -73.04544163 119.45448497 -71.75390625 116.11328125 C-70.90618307 113.90261894 -70.05917208 111.69168338 -69.21289062 109.48046875 C-68.37917057 107.30588823 -67.54518906 105.13140792 -66.7109375 102.95703125 C-66.10199142 101.36967163 -66.10199142 101.36967163 -65.48074341 99.75024414 C-63.601512 94.86725046 -61.70166259 89.99570199 -59.73193359 85.1484375 C-59.23061165 83.90253845 -59.23061165 83.90253845 -58.71916199 82.63146973 C-58.1033201 81.1060117 -57.47853227 79.58412091 -56.8429718 78.06677246 C-55.31881022 74.28112528 -55.31881022 74.28112528 -55.16040039 70.26025391 C-56.2766614 67.90630055 -57.87052309 66.34339154 -59.69140625 64.48828125 C-67.59341633 55.83572183 -71.54479865 45.42973678 -71.12109375 33.66015625 C-69.99033886 20.77938321 -64.64298665 9.31363093 -54.94140625 0.61328125 C-38.34836832 -11.79069465 -16.81007608 -12.07568745 0 0 Z " fill="#5AD1F3" transform="translate(182.94140625,164.38671875)"/>
<path d="M0 0 C1.42119141 0.63615234 1.42119141 0.63615234 2.87109375 1.28515625 C8.12578584 3.9015702 12.02128806 6.86554272 16.1875 11 C18.57030326 13.33123399 18.57030326 13.33123399 21 15 C24.4592596 14.75628372 24.4592596 14.75628372 26.61328125 13.7734375 C35.13309826 11.0125148 45.90684899 12.38505921 54 16 C59.75051127 18.94290871 64.71453927 22.1023306 69 27 C69.845625 27.928125 70.69125 28.85625 71.5625 29.8125 C78.25569507 38.02113547 80 46.49311777 80 57 C25.55 57 -28.9 57 -85 57 C-85 41.84996071 -82.06145705 31.10732497 -73 19 C-72.42765625 18.22140625 -71.8553125 17.4428125 -71.265625 16.640625 C-54.83549423 -3.72150288 -23.78907131 -10.74021363 0 0 Z " fill="#BEECF4" transform="translate(85,4)"/>
<path d="M0 0 C4.0649903 0.58634962 6.85965757 1.95126755 10.390625 4.0078125 C17.49541981 7.65168795 23.87829329 7.89143363 31.75 7.875 C33.03132813 7.895625 34.31265625 7.91625 35.6328125 7.9375 C38.75586999 7.9841128 41.87666977 8.0044857 45 8 C43.72628992 11.43474578 42.25616447 14.35566875 40.20605469 17.38793945 C39.3644278 18.63997917 39.3644278 18.63997917 38.50579834 19.91731262 C37.90060364 20.80698227 37.29540894 21.69665192 36.671875 22.61328125 C36.04524963 23.54166306 35.41862427 24.47004486 34.77301025 25.42655945 C33.44708733 27.38898511 32.11888632 29.34987324 30.78857422 31.30932617 C28.76661415 34.28802448 26.75185244 37.27148563 24.73828125 40.25585938 C23.44573616 42.16695327 22.1527805 44.07776956 20.859375 45.98828125 C20.26227722 46.8718782 19.66517944 47.75547516 19.04998779 48.66584778 C17.38135682 51.12112199 15.69619541 53.56370495 14 56 C13.54851593 56.65833328 13.09703186 57.31666656 12.63186646 57.99494934 C8.03123787 64.44218578 2.40779119 69.93925615 -3.1640625 75.53515625 C-4.2445658 76.62464152 -5.32499875 77.71419657 -6.40536499 78.80381775 C-8.65589636 81.07073225 -10.91068788 83.33331332 -13.16796875 85.59350586 C-16.06284479 88.49380935 -18.94114145 91.41000962 -21.81592751 94.33020878 C-24.03453249 96.57847482 -26.26422597 98.81548396 -28.49720383 101.04946709 C-29.56425687 102.12073052 -30.62718173 103.19612227 -31.68587112 104.27565193 C-33.16009604 105.7766129 -34.64916384 107.26109124 -36.14306641 108.74243164 C-36.98656647 109.59100235 -37.83006653 110.43957306 -38.6991272 111.31385803 C-41 113 -41 113 -43.13748169 112.91088867 C-46.16530413 111.43009294 -48.32265116 109.04148427 -50.640625 106.65234375 C-51.16767029 106.12105362 -51.69471558 105.58976349 -52.23773193 105.04237366 C-53.91567187 103.34767175 -55.58286728 101.64282783 -57.25 99.9375 C-58.38732745 98.78512255 -59.52534066 97.63342148 -60.6640625 96.48242188 C-63.45071992 93.66272816 -66.22778792 90.83389412 -69 88 C-67.57794533 84.72920357 -65.87004978 82.67690169 -63.27905273 80.24243164 C-62.1295237 79.15046478 -62.1295237 79.15046478 -60.95677185 78.03643799 C-60.12412308 77.25226501 -59.2914743 76.46809204 -58.43359375 75.66015625 C-30.85694108 49.24751958 -30.85694108 49.24751958 -10.67578125 17.21337891 C-7.54763768 11.215036 -3.74760879 5.6250935 0 0 Z " fill="#59C6DD" transform="translate(112,347)"/>
<path d="M0 0 C0.99 0.33 1.98 0.66 3 1 C3.87768555 3.55102539 3.87768555 3.55102539 4.63671875 7.09765625 C4.95650953 8.50029164 5.27842669 9.90244331 5.60205078 11.30419922 C5.77641663 12.07342712 5.95078247 12.84265503 6.13043213 13.63519287 C11.1869116 35.66774815 18.40467385 56.98184097 25.625 78.375 C25.90362759 79.20061054 26.18225517 80.02622108 26.46932602 80.87685013 C28.83708959 87.88920541 31.20564763 94.90128876 33.59642029 101.90583801 C33.82674863 102.58214988 34.05707697 103.25846174 34.29438496 103.95526791 C34.9138323 105.77349634 35.53493567 107.59116036 36.15615845 109.40878296 C37 112 37 112 37 113 C22.15 113 7.3 113 -8 113 C-9.85625 108.565625 -11.7125 104.13125 -13.625 99.5625 C-14.19686035 98.20326416 -14.7687207 96.84402832 -15.35791016 95.44360352 C-16.93960566 91.64208391 -18.4847683 87.82842531 -20 84 C-20.39381866 83.01046829 -20.39381866 83.01046829 -20.79559326 82.00094604 C-25.47588471 70.06709112 -28.07755193 58.02231115 -30.375 45.4375 C-30.73184236 43.53948177 -31.08990917 41.64169333 -31.44921875 39.74414062 C-32.31355446 35.1652746 -33.16148243 30.58366119 -34 26 C-28.84857279 21.96735342 -23.68519171 17.95047325 -18.51123047 13.94677734 C-16.88004044 12.6822324 -15.25131106 11.41450462 -13.62548828 10.14306641 C-11.44532061 8.43959135 -9.25537754 6.74956469 -7.0625 5.0625 C-6.39541016 4.53688477 -5.72832031 4.01126953 -5.04101562 3.46972656 C-3.41905018 2.23262 -1.71502657 1.10448559 0 0 Z " fill="#BE4421" transform="translate(467,208)"/>
<path d="M0 0 C6.27 0 12.54 0 19 0 C19 6.27 19 12.54 19 19 C12.73 19 6.46 19 0 19 C0 12.73 0 6.46 0 0 Z " fill="#BDEBF3" transform="translate(190,86)"/>
<path d="M0 0 C5.94 0 11.88 0 18 0 C18 6.27 18 12.54 18 19 C12.06 19 6.12 19 0 19 C0 12.73 0 6.46 0 0 Z " fill="#BEEBF3" transform="translate(156,86)"/>
<path d="M0 0 C5.94 0 11.88 0 18 0 C18 6.27 18 12.54 18 19 C12.06 19 6.12 19 0 19 C0 12.73 0 6.46 0 0 Z " fill="#BEEBF3" transform="translate(121,86)"/>
</svg>
