<svg version="1.1" id="Layer_1" xmlns="http://www.w3.org/2000/svg" xmlns:xlink="http://www.w3.org/1999/xlink" x="0px" y="0px"
	 width="100%" viewBox="0 0 512 512" enable-background="new 0 0 512 512" xml:space="preserve">
<path fill="#020201" opacity="0.000000" stroke="none" 
	d="
M1.000000,192.000000 
	C1.000000,128.000000 1.000000,64.500000 1.000000,1.000000 
	C171.666672,1.000000 342.333344,1.000000 513.000000,1.000000 
	C513.000000,171.666672 513.000000,342.333344 513.000000,513.000000 
	C342.333344,513.000000 171.666672,513.000000 1.000000,513.000000 
	C1.000000,406.166656 1.000000,299.333344 1.000000,192.000000 
M182.760666,458.499847 
	C182.760666,471.094452 182.760666,483.689087 182.760666,496.057556 
	C276.697815,496.057556 369.923370,496.057556 462.999878,496.057556 
	C462.999878,451.973236 462.999878,408.266907 462.999878,364.472473 
	C369.499329,364.472473 276.413971,364.472473 182.760666,364.472473 
	C182.760666,395.625580 182.760666,426.562714 182.760666,458.499847 
M141.500214,50.572983 
	C103.850052,50.573101 66.199875,50.558903 28.549725,50.584347 
	C20.123077,50.590042 17.552450,53.182339 17.547104,61.655769 
	C17.523979,98.306366 17.524313,134.957001 17.548460,171.607590 
	C17.554005,180.023544 20.249748,182.737213 28.570320,182.738754 
	C103.704071,182.752640 178.837814,182.751694 253.971573,182.741150 
	C262.657532,182.739929 265.164124,180.170242 265.166595,171.333527 
	C265.176758,135.182693 265.172760,99.031876 265.170197,62.881046 
	C265.169434,52.590519 263.177368,50.577015 252.951843,50.575359 
	C216.134644,50.569397 179.317429,50.572941 141.500214,50.572983 
M198.500031,199.126495 
	C142.188675,199.126526 85.877304,199.124985 29.565941,199.128052 
	C19.860315,199.128586 17.542671,201.454453 17.540298,211.250488 
	C17.531584,247.236481 17.532047,283.222473 17.539318,319.208466 
	C17.541306,329.050354 19.731287,331.242615 29.541916,331.243744 
	C73.358192,331.248871 117.174477,331.248535 160.990753,331.235992 
	C162.590805,331.235565 164.190826,331.088135 166.095139,330.994232 
	C166.095139,315.170166 166.079361,299.704742 166.100113,284.239380 
	C166.116913,271.707947 172.652496,265.193665 185.243210,265.183594 
	C210.066864,265.163696 234.890533,265.177704 259.714203,265.177704 
	C261.466217,265.177704 263.218201,265.177704 265.170471,265.177704 
	C265.170471,246.314651 265.185791,228.169067 265.163666,210.023529 
	C265.153564,201.722687 262.486328,199.137436 253.978851,199.130844 
	C235.819260,199.116776 217.659653,199.126511 198.500031,199.126495 
M166.092712,442.500000 
	C166.092712,411.073273 166.092712,379.646576 166.092712,347.926270 
	C163.862045,347.926270 162.222580,347.926270 160.583115,347.926270 
	C116.923721,347.926300 73.264320,347.925293 29.604923,347.927155 
	C19.692339,347.927551 17.544941,350.041290 17.542660,359.879364 
	C17.534317,395.873352 17.534868,431.867371 17.542212,467.861359 
	C17.544216,477.679291 19.838964,479.994049 29.533407,479.994873 
	C73.359436,479.998596 117.185471,479.996521 161.011505,479.996521 
	C162.616257,479.996521 164.221008,479.996521 166.092712,479.996521 
	C166.092712,467.446472 166.092712,455.473236 166.092712,442.500000 
M324.500000,314.878723 
	C318.000458,314.878571 311.500671,314.839661 305.001465,314.888214 
	C297.033142,314.947693 291.346222,311.505249 287.882935,304.251099 
	C284.873627,297.947662 281.493988,291.817322 278.605988,285.461456 
	C277.292999,282.571808 275.565613,281.794434 272.505707,281.807404 
	C244.007950,281.928040 215.509445,281.875610 187.011169,281.889496 
	C185.726807,281.890137 184.442505,282.044800 183.117065,282.130341 
	C183.117065,304.153015 183.117065,325.865967 183.117065,347.537842 
	C276.679749,347.537842 369.890991,347.537842 463.131165,347.537842 
	C463.131165,336.553833 463.131165,325.954742 463.131165,315.461792 
	C462.576355,315.217957 462.282471,314.975800 461.988312,314.975525 
	C416.492218,314.931854 370.996124,314.905670 324.500000,314.878723 
M412.499268,163.332413 
	C413.586548,164.247223 414.631500,165.885330 415.768402,165.951828 
	C420.735718,166.242355 425.729675,166.076828 430.597076,166.076828 
	C438.653046,147.776855 448.044952,143.883270 468.455048,149.960861 
	C472.599701,145.949219 476.639252,142.039322 480.636902,138.169968 
	C473.251038,121.279373 477.878601,108.999062 494.122681,101.094711 
	C495.477905,100.435249 496.567535,97.344070 496.302063,95.608887 
	C495.624847,91.182587 499.397461,85.177750 494.100739,82.481667 
	C477.839294,74.204391 473.316406,62.651134 480.434021,45.979927 
	C476.294983,41.708096 472.265961,37.549835 468.225220,33.379467 
	C454.356445,39.733253 440.015930,37.013859 434.456573,24.937143 
	C431.007629,17.444967 426.467438,17.134087 420.244476,17.559437 
	C419.415436,17.616100 418.559570,17.683672 417.749847,17.546673 
	C414.621521,17.017393 413.058441,18.247429 412.003296,21.326061 
	C409.844971,27.623438 405.277405,31.935017 399.258240,34.654121 
	C391.239655,38.276474 383.410217,37.433372 375.401550,32.939423 
	C372.260986,36.261127 369.322845,39.682896 366.036804,42.729450 
	C363.983948,44.632687 363.783875,46.085720 364.929962,48.689331 
	C370.091278,60.414127 365.902496,73.645195 355.195984,80.018295 
	C352.947510,81.356712 350.434479,82.250595 348.046814,83.347717 
	C348.046814,89.113548 348.046814,94.754723 348.046814,100.500359 
	C349.664734,101.115326 351.223114,101.621712 352.710571,102.286789 
	C363.428925,107.079323 370.212738,119.947083 366.165161,130.824799 
	C363.711731,137.418442 365.035645,141.205185 370.102325,144.889938 
	C371.299164,145.760345 372.334045,146.908417 373.271973,148.067505 
	C374.854736,150.023529 376.292694,150.227112 378.776703,149.146637 
	C392.333130,143.249939 406.092346,148.911133 412.499268,163.332413 
z"/>
<path fill="#E5E8EC" opacity="1.000000" stroke="none" 
	d="
M182.760666,457.999817 
	C182.760666,426.562714 182.760666,395.625580 182.760666,364.472473 
	C276.413971,364.472473 369.499329,364.472473 462.999878,364.472473 
	C462.999878,408.266907 462.999878,451.973236 462.999878,496.057556 
	C369.923370,496.057556 276.697815,496.057556 182.760666,496.057556 
	C182.760666,483.689087 182.760666,471.094452 182.760666,457.999817 
M402.500000,480.007629 
	C411.816467,480.001221 421.135895,480.138062 430.448608,479.948395 
	C439.860260,479.756744 446.664001,472.846130 446.941193,463.437500 
	C447.073425,458.949402 446.975494,454.454346 446.971008,449.962463 
	C446.957794,436.725800 440.657532,430.349274 427.464111,430.328827 
	C407.333740,430.297638 387.203278,430.313293 367.072876,430.334198 
	C365.415588,430.335907 363.739288,430.404236 362.104553,430.655151 
	C353.749786,431.937408 348.133911,438.259125 347.930115,446.702271 
	C347.809692,451.690460 347.878754,456.683807 347.900970,461.674683 
	C347.952942,473.345215 354.471313,479.950806 366.063843,479.996918 
	C377.875732,480.043915 389.687927,480.007507 402.500000,480.007629 
z"/>
<path fill="#FBD670" opacity="1.000000" stroke="none" 
	d="
M142.000214,50.572937 
	C179.317429,50.572941 216.134644,50.569397 252.951843,50.575359 
	C263.177368,50.577015 265.169434,52.590519 265.170197,62.881046 
	C265.172760,99.031876 265.176758,135.182693 265.166595,171.333527 
	C265.164124,180.170242 262.657532,182.739929 253.971573,182.741150 
	C178.837814,182.751694 103.704071,182.752640 28.570320,182.738754 
	C20.249748,182.737213 17.554005,180.023544 17.548460,171.607590 
	C17.524313,134.957001 17.523979,98.306366 17.547104,61.655769 
	C17.552450,53.182339 20.123077,50.590042 28.549725,50.584347 
	C66.199875,50.558903 103.850052,50.573101 142.000214,50.572937 
M115.854233,149.531631 
	C116.255219,144.225311 116.656212,138.919006 117.073112,133.402100 
	C110.896423,133.402100 105.573395,133.402100 100.350220,133.402100 
	C100.350220,138.974304 100.350220,144.180542 100.350220,149.734039 
	C105.435471,149.734039 110.202065,149.734039 115.854233,149.531631 
M79.266335,133.043060 
	C75.316956,133.043060 71.367569,133.043060 67.257195,133.043060 
	C67.257195,138.793274 67.257195,144.030609 67.257195,149.463394 
	C72.733246,149.463394 77.956055,149.463394 83.686462,149.463394 
	C83.686462,144.714798 83.895599,140.238571 83.527779,135.810257 
	C83.444092,134.802811 81.363136,133.961273 79.266335,133.043060 
M33.986763,144.355865 
	C33.986763,145.981110 33.986763,147.606369 33.986763,149.489151 
	C39.640835,149.489151 44.859787,149.489151 50.358150,149.489151 
	C50.358150,143.977951 50.358150,138.743439 50.358150,133.293182 
	C44.864311,133.293182 39.637196,133.293182 33.986763,133.293182 
	C33.986763,136.819199 33.986763,140.110123 33.986763,144.355865 
z"/>
<path fill="#FBD670" opacity="1.000000" stroke="none" 
	d="
M199.000046,199.126495 
	C217.659653,199.126511 235.819260,199.116776 253.978851,199.130844 
	C262.486328,199.137436 265.153564,201.722687 265.163666,210.023529 
	C265.185791,228.169067 265.170471,246.314651 265.170471,265.177704 
	C263.218201,265.177704 261.466217,265.177704 259.714203,265.177704 
	C234.890533,265.177704 210.066864,265.163696 185.243210,265.183594 
	C172.652496,265.193665 166.116913,271.707947 166.100113,284.239380 
	C166.079361,299.704742 166.095139,315.170166 166.095139,330.994232 
	C164.190826,331.088135 162.590805,331.235565 160.990753,331.235992 
	C117.174477,331.248535 73.358192,331.248871 29.541916,331.243744 
	C19.731287,331.242615 17.541306,329.050354 17.539318,319.208466 
	C17.532047,283.222473 17.531584,247.236481 17.540298,211.250488 
	C17.542671,201.454453 19.860315,199.128586 29.565941,199.128052 
	C85.877304,199.124985 142.188675,199.126526 199.000046,199.126495 
M112.329300,298.220734 
	C113.727905,298.092987 115.126511,297.965240 116.348053,297.853668 
	C116.348053,292.237061 116.348053,287.170685 116.348053,282.181213 
	C110.753075,282.181213 105.527161,282.181213 100.282089,282.181213 
	C100.282089,287.612671 100.282089,292.697571 100.282089,298.220825 
	C104.131462,298.220825 107.749725,298.220825 112.329300,298.220734 
M67.102692,297.287842 
	C72.420128,297.721771 77.737564,298.155670 83.354675,298.614044 
	C83.354675,292.589355 83.354675,287.373566 83.354675,282.141052 
	C77.801918,282.141052 72.569138,282.141052 67.029106,282.141052 
	C67.029106,287.065125 67.029106,291.691925 67.102692,297.287842 
M34.007858,296.333710 
	C34.578304,296.955383 35.132782,298.098358 35.721722,298.116394 
	C40.505062,298.262909 45.294853,298.198730 50.282539,298.198730 
	C50.282539,292.564636 50.282539,287.355103 50.282539,282.157166 
	C44.719440,282.157166 39.495373,282.157166 34.000107,282.157166 
	C34.000107,286.770172 34.000107,291.066589 34.007858,296.333710 
z"/>
<path fill="#FCD770" opacity="1.000000" stroke="none" 
	d="
M166.092712,443.000000 
	C166.092712,455.473236 166.092712,467.446472 166.092712,479.996521 
	C164.221008,479.996521 162.616257,479.996521 161.011505,479.996521 
	C117.185471,479.996521 73.359436,479.998596 29.533407,479.994873 
	C19.838964,479.994049 17.544216,477.679291 17.542212,467.861359 
	C17.534868,431.867371 17.534317,395.873352 17.542660,359.879364 
	C17.544941,350.041290 19.692339,347.927551 29.604923,347.927155 
	C73.264320,347.925293 116.923721,347.926300 160.583115,347.926270 
	C162.222580,347.926270 163.862045,347.926270 166.092712,347.926270 
	C166.092712,379.646576 166.092712,411.073273 166.092712,443.000000 
M43.410084,430.307037 
	C40.335159,430.307037 37.260235,430.307037 34.336723,430.307037 
	C34.336723,436.336517 34.336723,441.573853 34.336723,446.614838 
	C39.911804,446.614838 45.127167,446.614838 50.220901,446.614838 
	C50.220901,441.005585 50.220901,435.784546 50.220901,430.307098 
	C47.984398,430.307098 46.164772,430.307098 43.410084,430.307037 
M67.126137,446.189728 
	C72.463516,446.558350 77.800903,446.927002 83.397125,447.313507 
	C83.397125,441.297455 83.397125,436.072906 83.397125,430.589233 
	C77.874016,430.589233 72.647255,430.589233 67.018517,430.589233 
	C67.018517,435.656830 67.018517,440.447876 67.126137,446.189728 
M116.732529,438.519409 
	C116.732529,435.923462 116.732529,433.327545 116.732529,430.636536 
	C110.797165,430.636536 105.561516,430.636536 100.332657,430.636536 
	C100.332657,436.212097 100.332657,441.451416 100.332657,446.678619 
	C105.879990,446.678619 111.110817,446.678619 116.732498,446.678619 
	C116.732498,444.066803 116.732498,441.766693 116.732529,438.519409 
z"/>
<path fill="#FE826E" opacity="1.000000" stroke="none" 
	d="
M325.000000,314.878723 
	C370.996124,314.905670 416.492218,314.931854 461.988312,314.975525 
	C462.282471,314.975800 462.576355,315.217957 463.131165,315.461792 
	C463.131165,325.954742 463.131165,336.553833 463.131165,347.537842 
	C369.890991,347.537842 276.679749,347.537842 183.117065,347.537842 
	C183.117065,325.865967 183.117065,304.153015 183.117065,282.130341 
	C184.442505,282.044800 185.726807,281.890137 187.011169,281.889496 
	C215.509445,281.875610 244.007950,281.928040 272.505707,281.807404 
	C275.565613,281.794434 277.292999,282.571808 278.605988,285.461456 
	C281.493988,291.817322 284.873627,297.947662 287.882935,304.251099 
	C291.346222,311.505249 297.033142,314.947693 305.001465,314.888214 
	C311.500671,314.839661 318.000458,314.878571 325.000000,314.878723 
z"/>
<path fill="#FAD56F" opacity="1.000000" stroke="none" 
	d="
M412.335815,162.967072 
	C406.092346,148.911133 392.333130,143.249939 378.776703,149.146637 
	C376.292694,150.227112 374.854736,150.023529 373.271973,148.067505 
	C372.334045,146.908417 371.299164,145.760345 370.102325,144.889938 
	C365.035645,141.205185 363.711731,137.418442 366.165161,130.824799 
	C370.212738,119.947083 363.428925,107.079323 352.710571,102.286789 
	C351.223114,101.621712 349.664734,101.115326 348.046814,100.500359 
	C348.046814,94.754723 348.046814,89.113548 348.046814,83.347717 
	C350.434479,82.250595 352.947510,81.356712 355.195984,80.018295 
	C365.902496,73.645195 370.091278,60.414127 364.929962,48.689331 
	C363.783875,46.085720 363.983948,44.632687 366.036804,42.729450 
	C369.322845,39.682896 372.260986,36.261127 375.401550,32.939423 
	C383.410217,37.433372 391.239655,38.276474 399.258240,34.654121 
	C405.277405,31.935017 409.844971,27.623438 412.003296,21.326061 
	C413.058441,18.247429 414.621521,17.017393 417.749847,17.546673 
	C418.559570,17.683672 419.415436,17.616100 420.244476,17.559437 
	C426.467438,17.134087 431.007629,17.444967 434.456573,24.937143 
	C440.015930,37.013859 454.356445,39.733253 468.225220,33.379467 
	C472.265961,37.549835 476.294983,41.708096 480.434021,45.979927 
	C473.316406,62.651134 477.839294,74.204391 494.100739,82.481667 
	C499.397461,85.177750 495.624847,91.182587 496.302063,95.608887 
	C496.567535,97.344070 495.477905,100.435249 494.122681,101.094711 
	C477.878601,108.999062 473.251038,121.279373 480.636902,138.169968 
	C476.639252,142.039322 472.599701,145.949219 468.455048,149.960861 
	C448.044952,143.883270 438.653046,147.776855 430.597076,166.076828 
	C425.729675,166.076828 420.735718,166.242355 415.768402,165.951828 
	C414.631500,165.885330 413.586548,164.247223 412.335815,162.967072 
M463.351440,92.449135 
	C463.305817,91.285736 463.284882,90.120773 463.210907,88.959183 
	C461.677856,64.884537 440.307434,47.807159 415.788666,51.058006 
	C393.186920,54.054680 377.109955,76.984985 381.711029,99.662407 
	C385.950714,120.558708 404.083282,134.323929 425.580322,132.965530 
	C445.935913,131.679245 461.883118,114.944778 463.351440,92.449135 
z"/>
<path fill="#040505" opacity="1.000000" stroke="none" 
	d="
M402.000000,480.007629 
	C389.687927,480.007507 377.875732,480.043915 366.063843,479.996918 
	C354.471313,479.950806 347.952942,473.345215 347.900970,461.674683 
	C347.878754,456.683807 347.809692,451.690460 347.930115,446.702271 
	C348.133911,438.259125 353.749786,431.937408 362.104553,430.655151 
	C363.739288,430.404236 365.415588,430.335907 367.072876,430.334198 
	C387.203278,430.313293 407.333740,430.297638 427.464111,430.328827 
	C440.657532,430.349274 446.957794,436.725800 446.971008,449.962463 
	C446.975494,454.454346 447.073425,458.949402 446.941193,463.437500 
	C446.664001,472.846130 439.860260,479.756744 430.448608,479.948395 
	C421.135895,480.138062 411.816467,480.001221 402.000000,480.007629 
M430.106598,447.675720 
	C429.008514,447.442780 427.910858,447.008972 426.812317,447.006714 
	C406.997833,446.966309 387.183228,446.973114 367.368683,446.993835 
	C366.437653,446.994781 365.506866,447.218689 364.612244,447.334076 
	C364.612244,452.788818 364.612244,457.869049 364.612244,462.983032 
	C386.638794,462.983032 408.334259,462.983032 430.288025,462.983032 
	C430.288025,457.928253 430.288025,453.283691 430.106598,447.675720 
z"/>
<path fill="#0E0C06" opacity="1.000000" stroke="none" 
	d="
M115.411453,149.632843 
	C110.202065,149.734039 105.435471,149.734039 100.350220,149.734039 
	C100.350220,144.180542 100.350220,138.974304 100.350220,133.402100 
	C105.573395,133.402100 110.896423,133.402100 117.073112,133.402100 
	C116.656212,138.919006 116.255219,144.225311 115.411453,149.632843 
z"/>
<path fill="#0E0B06" opacity="1.000000" stroke="none" 
	d="
M79.733902,133.043213 
	C81.363136,133.961273 83.444092,134.802811 83.527779,135.810257 
	C83.895599,140.238571 83.686462,144.714798 83.686462,149.463394 
	C77.956055,149.463394 72.733246,149.463394 67.257195,149.463394 
	C67.257195,144.030609 67.257195,138.793274 67.257195,133.043060 
	C71.367569,133.043060 75.316956,133.043060 79.733902,133.043213 
z"/>
<path fill="#0D0B06" opacity="1.000000" stroke="none" 
	d="
M33.986763,143.878464 
	C33.986763,140.110123 33.986763,136.819199 33.986763,133.293182 
	C39.637196,133.293182 44.864311,133.293182 50.358150,133.293182 
	C50.358150,138.743439 50.358150,143.977951 50.358150,149.489151 
	C44.859787,149.489151 39.640835,149.489151 33.986763,149.489151 
	C33.986763,147.606369 33.986763,145.981110 33.986763,143.878464 
z"/>
<path fill="#070603" opacity="1.000000" stroke="none" 
	d="
M111.848648,298.220764 
	C107.749725,298.220825 104.131462,298.220825 100.282089,298.220825 
	C100.282089,292.697571 100.282089,287.612671 100.282089,282.181213 
	C105.527161,282.181213 110.753075,282.181213 116.348053,282.181213 
	C116.348053,287.170685 116.348053,292.237061 116.348053,297.853668 
	C115.126511,297.965240 113.727905,298.092987 111.848648,298.220764 
z"/>
<path fill="#070603" opacity="1.000000" stroke="none" 
	d="
M67.065903,296.803284 
	C67.029106,291.691925 67.029106,287.065125 67.029106,282.141052 
	C72.569138,282.141052 77.801918,282.141052 83.354675,282.141052 
	C83.354675,287.373566 83.354675,292.589355 83.354675,298.614044 
	C77.737564,298.155670 72.420128,297.721771 67.065903,296.803284 
z"/>
<path fill="#070603" opacity="1.000000" stroke="none" 
	d="
M34.003983,295.848358 
	C34.000107,291.066589 34.000107,286.770172 34.000107,282.157166 
	C39.495373,282.157166 44.719440,282.157166 50.282539,282.157166 
	C50.282539,287.355103 50.282539,292.564636 50.282539,298.198730 
	C45.294853,298.198730 40.505062,298.262909 35.721722,298.116394 
	C35.132782,298.098358 34.578304,296.955383 34.003983,295.848358 
z"/>
<path fill="#0D0B06" opacity="1.000000" stroke="none" 
	d="
M43.877617,430.307068 
	C46.164772,430.307098 47.984398,430.307098 50.220901,430.307098 
	C50.220901,435.784546 50.220901,441.005585 50.220901,446.614838 
	C45.127167,446.614838 39.911804,446.614838 34.336723,446.614838 
	C34.336723,441.573853 34.336723,436.336517 34.336723,430.307037 
	C37.260235,430.307037 40.335159,430.307037 43.877617,430.307068 
z"/>
<path fill="#0E0B06" opacity="1.000000" stroke="none" 
	d="
M67.072327,445.714355 
	C67.018517,440.447876 67.018517,435.656830 67.018517,430.589233 
	C72.647255,430.589233 77.874016,430.589233 83.397125,430.589233 
	C83.397125,436.072906 83.397125,441.297455 83.397125,447.313507 
	C77.800903,446.927002 72.463516,446.558350 67.072327,445.714355 
z"/>
<path fill="#0E0B06" opacity="1.000000" stroke="none" 
	d="
M116.732513,438.992981 
	C116.732498,441.766693 116.732498,444.066803 116.732498,446.678619 
	C111.110817,446.678619 105.879990,446.678619 100.332657,446.678619 
	C100.332657,441.451416 100.332657,436.212097 100.332657,430.636536 
	C105.561516,430.636536 110.797165,430.636536 116.732529,430.636536 
	C116.732529,433.327545 116.732529,435.923462 116.732513,438.992981 
z"/>
<path fill="#010101" opacity="1.000000" stroke="none" 
	d="
M463.321075,92.921310 
	C461.883118,114.944778 445.935913,131.679245 425.580322,132.965530 
	C404.083282,134.323929 385.950714,120.558708 381.711029,99.662407 
	C377.109955,76.984985 393.186920,54.054680 415.788666,51.058006 
	C440.307434,47.807159 461.677856,64.884537 463.210907,88.959183 
	C463.284882,90.120773 463.305817,91.285736 463.321075,92.921310 
z"/>
<path fill="#5CD5B2" opacity="1.000000" stroke="none" 
	d="
M430.197327,448.157440 
	C430.288025,453.283691 430.288025,457.928253 430.288025,462.983032 
	C408.334259,462.983032 386.638794,462.983032 364.612244,462.983032 
	C364.612244,457.869049 364.612244,452.788818 364.612244,447.334076 
	C365.506866,447.218689 366.437653,446.994781 367.368683,446.993835 
	C387.183228,446.973114 406.997833,446.966309 426.812317,447.006714 
	C427.910858,447.008972 429.008514,447.442780 430.197327,448.157440 
z"/>
</svg>