<svg version="1.1" id="Layer_1" xmlns="http://www.w3.org/2000/svg" xmlns:xlink="http://www.w3.org/1999/xlink" x="0px" y="0px"
	 width="100%" viewBox="0 0 476 356" enable-background="new 0 0 476 356" xml:space="preserve">
<path fill="#FFFFFD" opacity="0.000000" stroke="none" 
	d="
M477.000000,127.000000 
	C477.000000,203.999985 477.000000,280.499969 477.000000,357.000000 
	C318.333374,357.000000 159.666718,357.000000 1.000063,357.000000 
	C1.000042,238.333374 1.000042,119.666748 1.000021,1.000095 
	C159.666611,1.000063 318.333221,1.000063 476.999908,1.000032 
	C477.000000,42.833332 477.000000,84.666664 477.000000,127.000000 
M105.013100,70.963219 
	C105.013100,70.963219 104.730286,70.728333 104.227943,70.865822 
	C104.060699,71.156380 103.893463,71.446930 103.686996,71.722031 
	C103.686996,71.722031 103.649681,71.702423 103.028648,71.903511 
	C100.945869,74.891739 98.863098,77.879967 96.925301,80.890503 
	C96.925301,80.890503 96.806030,80.805130 96.182816,81.052193 
	C95.385963,82.663834 94.589119,84.275475 93.922356,85.966599 
	C93.922356,85.966599 93.832222,85.843658 93.248749,86.193130 
	C91.333954,90.574570 88.064812,93.218246 83.837700,95.645706 
	C77.211601,99.450806 71.314087,104.524628 65.025772,109.030968 
	C65.025772,109.030968 65.058983,109.112000 64.392906,109.222412 
	C58.929573,115.815285 53.466244,122.408165 48.000000,129.000000 
	C48.000000,129.000000 48.001282,129.002869 47.407696,129.292130 
	C46.849751,130.449356 46.291809,131.606567 45.733219,132.926666 
	C45.733219,132.926666 45.758110,132.769348 45.139965,133.019440 
	C38.540154,143.430664 34.338688,154.671066 33.160725,167.680023 
	C33.152561,168.134140 33.144402,168.588272 32.677853,169.711746 
	C30.807852,186.862518 32.423141,203.611877 39.992279,219.247589 
	C43.540756,226.577744 48.519901,233.215317 52.972797,240.030441 
	C52.972797,240.030441 52.824013,240.137024 52.924484,240.820648 
	C58.910198,249.035004 65.968811,256.070679 75.257622,261.145905 
	C75.257622,261.145905 75.583794,261.193390 75.930901,261.790833 
	C84.811317,266.019165 93.524399,270.671021 102.650879,274.276489 
	C106.539909,275.812866 110.258469,276.951050 112.880646,280.734039 
	C112.880646,280.734039 113.114204,280.976410 113.188705,281.643494 
	C115.351418,283.860138 117.514130,286.076813 119.727043,288.287537 
	C119.727043,288.287537 119.746689,288.240936 119.895943,288.754242 
	C120.203758,288.912994 120.511574,289.071747 120.757187,289.148682 
	C120.757187,289.148682 120.744514,289.250671 120.891426,289.902863 
	C125.240540,292.979675 129.589661,296.056488 133.978394,299.034607 
	C133.978394,299.034607 133.892685,299.097565 134.212509,299.615875 
	C134.770676,299.817322 135.328827,300.018768 135.952332,300.081940 
	C135.952332,300.081940 135.836975,300.182404 136.199127,300.761963 
	C148.348007,307.716309 161.325134,309.346619 175.632965,306.882263 
	C176.075958,306.791290 176.518936,306.700287 177.714355,306.759827 
	C181.360535,305.342194 184.220108,306.310547 186.908096,309.158325 
	C188.520203,310.866241 190.837830,311.908264 192.899719,313.159088 
	C192.899719,313.159088 192.790833,313.169312 192.966537,313.682831 
	C193.275116,313.846375 193.583710,314.009888 193.870377,314.063324 
	C193.870377,314.063324 193.820831,314.164032 194.039871,314.790680 
	C194.386627,315.143677 194.689148,315.559082 195.086456,315.840790 
	C219.788834,333.356445 247.229111,339.437897 276.859253,334.122620 
	C285.967010,332.488831 294.608429,328.255341 304.004456,325.190613 
	C304.323425,325.029877 304.642365,324.869141 305.659149,324.713013 
	C308.517761,322.891937 311.376373,321.070862 314.144623,319.062256 
	C314.144623,319.062256 314.182709,319.266937 314.901764,319.216492 
	C318.296021,317.207825 321.690308,315.199188 325.284302,313.072357 
	C325.850830,313.512787 326.522552,313.969269 327.118805,314.509186 
	C330.901459,317.934418 334.468018,323.829865 338.492493,324.157196 
	C342.915588,324.516998 347.785492,319.810516 352.405609,317.213409 
	C358.132507,313.994110 362.753174,315.819244 364.461548,322.077026 
	C365.600037,326.247375 366.906036,330.381592 367.822205,334.600372 
	C368.845642,339.312988 372.453857,339.064636 375.644348,338.552429 
	C380.236542,337.815216 386.325439,341.666687 389.056335,334.599762 
	C389.236084,334.134705 389.399994,333.660492 389.528229,333.179016 
	C390.426208,329.807556 391.252258,326.415680 392.215363,323.063110 
	C394.472900,315.204620 398.275116,313.678802 405.173553,317.793518 
	C419.119812,326.112152 419.119781,326.112122 429.458282,314.985626 
	C429.571503,314.863739 429.779999,314.758728 429.795319,314.628326 
	C430.036469,312.579010 431.041534,310.179016 430.320160,308.543732 
	C428.520935,304.464813 425.802551,300.803253 423.697479,296.844269 
	C421.154053,292.060944 423.093323,287.456604 428.239990,285.879669 
	C432.369659,284.614319 436.635193,283.763092 440.699554,282.328857 
	C442.244751,281.783600 443.396576,280.123535 444.936066,278.065979 
	C444.878021,273.721893 444.819977,269.377777 444.940887,264.291870 
	C444.065155,263.262451 443.366425,261.621490 442.283447,261.308014 
	C437.233429,259.846222 432.077209,258.751160 426.333923,257.217010 
	C425.875824,257.149078 425.417725,257.081146 424.596375,256.361267 
	C423.892456,253.896851 423.188507,251.432419 422.761536,248.345169 
	C422.816864,247.895905 422.872192,247.446625 423.160889,246.580780 
	C423.160889,246.580780 423.173767,246.103485 423.085297,246.001419 
	C423.085297,246.001419 423.130219,246.128799 423.634857,245.791245 
	C423.830658,245.232468 424.026489,244.673691 424.116272,244.127686 
	C424.116272,244.127686 424.192780,244.202209 424.812775,243.965683 
	C426.558044,241.791183 428.228058,239.550812 430.062103,237.453964 
	C436.879395,229.659744 444.524841,222.448471 450.376587,213.992279 
	C455.864929,206.061356 459.906799,196.990326 460.844452,186.320175 
	C460.858521,185.869385 460.872589,185.418594 461.327454,184.336365 
	C465.249084,164.395004 461.611420,145.511108 451.489288,128.303665 
	C446.657806,120.090240 439.237854,113.399467 433.001221,105.999802 
	C433.001221,105.999802 432.982056,106.010284 432.752960,105.378853 
	C423.376678,96.876488 412.408813,91.228333 400.294220,87.918694 
	C394.302155,86.281693 388.114197,85.404228 384.026978,79.988243 
	C384.026978,79.988243 384.243713,79.757133 384.056580,79.121994 
	C381.032593,76.428978 378.008575,73.735962 374.998352,70.996666 
	C374.998352,70.996666 374.955597,71.019188 374.697540,70.402786 
	C362.184509,59.680756 347.637512,53.675678 331.312317,52.073029 
	C327.542877,51.702988 325.080444,50.623272 322.920197,47.150616 
	C319.806549,42.145340 315.632111,37.799969 311.927551,33.073181 
	C311.927551,33.073181 311.827271,33.087250 311.661407,32.527683 
	C311.165588,32.265202 310.669769,32.002720 310.107483,31.841536 
	C310.107483,31.841536 310.225220,31.812973 310.082428,31.290382 
	C309.777771,31.121553 309.473114,30.952723 309.232208,30.855751 
	C309.232208,30.855751 309.241272,30.760117 309.087158,30.111710 
	C306.094727,27.675470 303.102295,25.239229 300.101288,22.918118 
	C300.101288,22.918118 300.182983,22.836536 299.957428,22.210789 
	C297.975983,20.729643 296.101685,19.071684 293.996063,17.795408 
	C277.678650,7.904961 259.893524,4.371197 241.044907,6.180353 
	C229.577637,7.281022 218.626434,10.256556 209.000000,16.999695 
	C209.000000,16.999695 209.007935,17.012510 208.296646,17.073427 
	C205.372314,18.907215 202.293976,20.537388 199.551620,22.611750 
	C190.119812,29.746128 181.989426,38.040150 176.999329,49.029701 
	C176.999329,49.029701 177.045044,49.089329 176.186325,49.166927 
	C174.866806,49.036972 173.515381,49.047268 172.232635,48.755585 
	C157.822083,45.478703 143.743347,46.820072 130.174698,52.370911 
	C120.769798,56.218380 111.850395,61.040569 105.707031,69.669197 
	C105.707031,69.669197 105.704025,69.718208 105.200920,69.849304 
	C105.042351,70.145432 104.883789,70.441566 105.013100,70.963219 
z"/>
<path fill="#F9B140" opacity="1.000000" stroke="none" 
	d="
M113.114204,280.976410 
	C113.114204,280.976410 112.880646,280.734039 112.886673,280.172119 
	C112.195160,276.421936 110.445198,274.817535 107.099884,273.701782 
	C99.167923,271.056244 91.507095,267.597900 83.736206,264.469299 
	C81.019463,263.375519 78.301308,262.285248 75.583794,261.193390 
	C75.583794,261.193390 75.257622,261.145905 75.095787,260.696289 
	C69.146797,254.860474 63.375252,249.457306 57.561844,244.099564 
	C56.049664,242.705917 54.406834,241.454025 52.824013,240.137024 
	C52.824013,240.137024 52.972797,240.030441 52.962555,239.718613 
	C52.432384,238.242493 52.000126,237.028961 51.378136,235.922012 
	C47.662315,229.309067 43.283882,222.988174 40.292023,216.066071 
	C34.765926,203.280670 33.311684,189.658875 33.939045,175.780731 
	C34.039829,173.551270 33.421913,171.289322 33.136238,169.042389 
	C33.144402,168.588272 33.152561,168.134140 33.605751,167.250824 
	C34.676640,165.701218 35.554050,164.650024 35.884541,163.448395 
	C37.269836,158.411575 38.243229,153.249847 39.840549,148.286102 
	C41.533882,143.024002 43.762997,137.934326 45.758110,132.769348 
	C45.758110,132.769348 45.733219,132.926666 46.117699,132.876923 
	C47.001877,131.552414 47.501579,130.277649 48.001282,129.002869 
	C48.001282,129.002869 48.000000,129.000000 48.339607,128.958160 
	C52.729881,124.382278 56.850788,119.908188 60.797192,115.285126 
	C62.412125,113.393311 63.649727,111.179390 65.058983,109.112000 
	C65.058983,109.112000 65.025772,109.030968 65.425697,109.030434 
	C66.838684,108.555664 67.914734,108.181656 68.854622,107.590988 
	C75.061981,103.689995 81.039696,99.364410 87.497314,95.941360 
	C91.886589,93.614685 93.445145,90.288918 93.832222,85.843658 
	C93.832222,85.843658 93.922356,85.966599 94.199203,85.832535 
	C95.252716,84.067360 96.029373,82.436249 96.806030,80.805130 
	C96.806030,80.805130 96.925301,80.890503 97.200333,80.801651 
	C99.533470,77.709335 101.591576,74.705879 103.649673,71.702423 
	C103.649681,71.702423 103.686996,71.722031 103.987907,71.703690 
	C104.435974,71.366348 104.583130,71.047340 104.730286,70.728333 
	C104.730286,70.728333 105.013100,70.963219 105.150902,70.823479 
	C105.427147,70.361893 105.565582,70.040047 105.704025,69.718208 
	C105.704025,69.718208 105.707031,69.669197 106.085632,69.741264 
	C107.838860,69.309654 109.442955,69.103470 110.548409,68.250824 
	C115.351273,64.546295 119.555428,59.802456 124.811363,57.001900 
	C136.595871,50.722691 149.153152,47.127453 162.830414,49.872406 
	C166.674530,50.643898 170.680908,50.698280 174.621048,50.822903 
	C175.409973,50.847862 176.236069,49.697670 177.045044,49.089325 
	C177.045044,49.089329 176.999329,49.029701 177.413513,49.019360 
	C179.393921,46.992432 181.014389,45.015335 182.517105,42.952480 
	C189.257858,33.699100 197.188446,25.754923 207.188858,19.983948 
	C208.072525,19.474009 208.414413,18.025238 209.007935,17.012512 
	C209.007935,17.012510 209.000000,16.999695 209.397964,17.012442 
	C210.617874,16.933788 211.577240,17.087513 212.241592,16.715031 
	C227.599625,8.104245 244.358841,6.506686 261.299683,8.275806 
	C269.287628,9.109982 277.094208,12.492699 284.759796,15.324622 
	C290.097412,17.296511 295.055420,20.296064 300.182983,22.836540 
	C300.182983,22.836536 300.101288,22.918118 300.188171,23.204702 
	C303.263794,25.914232 306.252533,28.337177 309.241272,30.760118 
	C309.241272,30.760117 309.232208,30.855751 309.255005,31.094069 
	C309.593628,31.492582 309.909424,31.652779 310.225220,31.812973 
	C310.225220,31.812973 310.107483,31.841536 310.202209,32.084171 
	C310.807037,32.580292 311.317139,32.833771 311.827271,33.087250 
	C311.827271,33.087250 311.927551,33.073181 311.944397,33.476105 
	C315.587921,39.690426 318.998566,45.656624 322.980804,51.213177 
	C324.088531,52.758854 326.815369,53.520138 328.929535,53.882790 
	C332.335663,54.467060 336.010956,53.839920 339.289032,54.747982 
	C350.283478,57.793594 360.930603,61.733311 370.065308,68.941345 
	C371.406708,69.999817 373.311493,70.344330 374.955597,71.019180 
	C374.955597,71.019188 374.998352,70.996666 375.023010,71.361786 
	C378.113007,74.403648 381.178375,77.080391 384.243713,79.757133 
	C384.243713,79.757133 384.026978,79.988243 384.082184,80.248154 
	C385.907715,83.512115 386.534454,87.579025 391.108185,87.970680 
	C400.964233,88.814659 409.816223,92.480614 418.211945,97.509392 
	C423.084473,100.427879 428.055420,103.182121 432.982056,106.010284 
	C432.982056,106.010284 433.001221,105.999802 433.024475,106.353943 
	C435.986023,110.253693 438.948883,113.779266 441.858032,117.348610 
	C451.143433,128.741333 457.255249,141.753845 459.781982,156.124603 
	C460.957855,162.812302 459.963837,169.870193 460.101868,176.757294 
	C460.156799,179.498276 460.613098,182.231201 460.886658,184.967804 
	C460.872589,185.418594 460.858521,185.869385 460.380798,186.723480 
	C458.928558,190.128311 458.084564,193.186951 456.925110,196.120941 
	C452.921936,206.250885 448.516907,216.277054 440.978577,224.290039 
	C436.519989,229.029404 431.033447,232.801743 426.004578,237.004471 
	C426.000000,237.000000 425.990936,236.990997 425.985260,236.637253 
	C425.930725,235.813400 425.881866,235.343277 425.847656,234.874390 
	C425.862366,234.875595 425.873291,234.903015 426.183594,234.739532 
	C428.673889,231.364670 428.667694,229.136292 423.713837,228.871490 
	C422.624390,227.824280 421.811523,226.913849 421.009674,225.630524 
	C421.701904,224.572586 422.373566,223.306656 423.065796,223.295288 
	C428.174133,223.211441 431.845551,220.277252 433.008118,215.015991 
	C432.998108,215.000885 433.030457,215.016525 433.376251,214.976135 
	C437.500183,212.579849 440.330322,209.653351 439.892029,204.441162 
	C440.278412,203.428787 440.632111,202.715042 441.297424,201.845245 
	C444.937042,196.625565 447.802673,191.411163 447.034912,184.637589 
	C447.125031,183.513214 447.227509,182.766998 447.670532,181.906799 
	C451.224243,174.485779 450.341797,166.934998 448.907776,159.508438 
	C447.390198,151.649155 446.572144,143.436234 440.641541,136.881165 
	C440.242798,136.229355 440.061279,135.734711 439.893921,134.868927 
	C438.669800,132.990173 437.431519,131.482513 436.111816,129.768646 
	C436.030334,129.562424 435.937347,129.128815 435.958374,128.740219 
	C434.111359,122.827141 429.679413,119.789970 424.989685,117.006302 
	C425.000000,116.999695 424.987183,117.020714 424.956970,116.667892 
	C423.872986,115.582291 422.819275,114.849525 421.493774,114.063965 
	C420.821228,113.657417 420.420441,113.303658 419.964050,112.618958 
	C418.993286,111.833290 418.078064,111.378563 417.123291,110.915306 
	C417.083710,110.906776 417.065765,110.827805 416.987854,110.515053 
	C416.207123,109.834145 415.504333,109.465981 414.598572,109.075348 
	C414.395630,109.052887 414.010864,108.916046 413.952545,108.577011 
	C411.844116,107.204483 409.793976,106.170982 407.451538,105.128967 
	C406.778320,105.039627 406.397430,104.958817 405.964233,104.527222 
	C401.070435,99.063309 394.246979,99.546577 388.167175,98.130264 
	C384.836853,97.354462 382.106323,96.631538 379.896637,93.614197 
	C376.981201,89.633133 373.670441,85.792458 369.922943,82.604599 
	C364.199463,77.735817 358.692078,72.219368 350.355408,71.187248 
	C349.722443,71.106880 349.364319,71.030952 348.934082,70.597565 
	C344.589508,69.118629 340.317139,67.997147 335.663757,66.902969 
	C334.530884,66.819786 333.778961,66.709282 332.951447,66.323196 
	C331.934692,65.983444 330.993591,65.919296 329.711761,65.880127 
	C328.920197,65.846695 328.469360,65.788277 327.901062,65.373169 
	C327.242218,64.696159 326.641235,64.027008 326.168243,64.107735 
	C318.895020,65.349113 315.688934,60.869499 312.661804,55.311378 
	C310.781830,51.859631 307.689423,49.068195 305.066467,45.780899 
	C304.991669,45.581417 304.922638,45.160976 304.922302,44.800751 
	C302.584442,42.317982 300.246948,40.195435 297.952026,38.038841 
	C297.994598,38.004787 297.928497,38.091499 297.919220,37.735725 
	C294.890045,35.278164 291.870117,33.176384 288.637573,31.042721 
	C288.424957,31.010841 288.017761,30.872564 287.967896,30.528370 
	C286.818420,29.523096 285.718781,28.862017 284.275818,28.143465 
	C282.630829,27.603392 281.329193,27.120790 279.951202,26.348553 
	C279.192902,25.733801 278.510956,25.408686 277.521851,25.065220 
	C276.818359,24.943071 276.422058,24.839273 275.937622,24.405613 
	C266.929260,18.848820 257.081085,18.554642 247.176926,18.876799 
	C245.095551,18.944498 243.045883,19.986504 240.592499,20.690346 
	C239.126755,20.842142 238.050140,20.883150 236.707779,20.657497 
	C234.967575,20.317213 233.288239,19.745159 232.052719,20.252954 
	C225.338272,23.012606 218.376633,25.448523 212.212173,29.174105 
	C207.879883,31.792398 204.684143,36.291237 200.873856,40.185535 
	C200.481979,40.602921 200.197144,40.785110 199.575623,41.012207 
	C190.678024,46.547077 187.796722,56.003529 182.889587,64.403381 
	C182.120285,64.726952 181.549347,64.830856 180.722473,64.668228 
	C178.135422,63.700493 175.845016,62.739601 173.462509,62.366100 
	C170.699768,61.932987 167.856125,62.015781 164.643234,61.898979 
	C163.166153,61.833149 162.093445,61.742970 160.889038,61.299965 
	C155.303238,59.751232 149.819672,58.285133 144.647430,62.757088 
	C143.870041,62.867970 143.419922,62.891579 142.754837,62.670925 
	C141.018585,63.192230 139.497284,63.957798 137.648331,64.819023 
	C136.644196,64.994972 135.967743,65.075272 134.890533,65.109077 
	C130.604202,66.732056 125.697289,66.820282 123.784302,71.927948 
	C123.586662,72.006195 123.169060,72.085876 122.817711,72.081627 
	C121.336319,73.122475 120.206276,74.167572 118.975677,75.404434 
	C118.694695,75.835472 118.461113,75.998642 117.813095,76.084175 
	C114.959229,78.406937 112.333557,80.605614 109.998947,83.079033 
	C102.926903,90.571548 101.973618,102.837212 91.085091,107.386627 
	C91.000404,107.422012 91.015251,107.695618 90.693810,107.961533 
	C89.658112,108.404106 88.912224,108.743134 87.789726,109.083733 
	C85.961182,110.084183 84.509254,111.083069 83.023033,112.060913 
	C82.988739,112.039879 83.064842,112.060516 82.671806,112.038498 
	C78.867081,111.873230 76.987206,113.383072 76.731369,117.101028 
	C75.353058,118.200256 74.229706,119.119125 72.861000,120.128220 
	C72.421249,120.498566 72.226860,120.778679 72.033470,121.026489 
	C72.034477,120.994194 72.067780,121.049660 71.716324,121.062592 
	C69.265236,123.411636 67.165604,125.747757 65.033432,128.056107 
	C65.000885,128.028336 65.085083,128.043564 64.768005,128.164703 
	C55.384224,136.451248 51.315735,147.364914 48.084305,158.637604 
	C47.142559,161.922821 47.261810,165.512192 46.916824,169.402588 
	C46.841515,171.889511 46.744110,173.936005 46.292801,176.115036 
	C45.640396,176.798843 45.099091,177.341553 45.079372,177.902603 
	C44.714558,188.281952 45.271561,198.566879 49.214947,208.337646 
	C50.041817,210.386444 51.618050,212.132812 53.014824,214.298599 
	C53.440819,215.390289 53.700966,216.201904 53.722530,217.211823 
	C54.618126,218.945328 55.752304,220.480545 56.967514,222.283936 
	C57.082508,222.922745 57.116470,223.293411 57.189972,223.949402 
	C57.512463,224.473846 57.795410,224.712936 58.043636,224.940491 
	C58.008915,224.928955 58.079357,224.909073 58.056637,225.284119 
	C60.363007,228.435059 62.692097,231.210968 65.010925,233.994049 
	C65.000656,234.001205 65.013283,233.980667 65.043121,234.300446 
	C65.693001,235.084000 66.313042,235.547760 67.004066,236.189713 
	C67.075058,236.367905 67.125122,236.748230 67.108047,237.116058 
	C70.683907,242.586014 74.328819,247.625275 81.005249,248.995270 
	C80.999695,249.000000 81.008873,248.987289 81.053741,249.329620 
	C85.560158,254.090546 90.689682,257.218445 97.039070,257.966370 
	C97.011505,257.996674 97.032631,257.917480 97.221336,258.219879 
	C101.104904,259.908234 104.707115,262.033325 108.515869,262.510742 
	C114.569618,263.269562 118.096443,266.371338 121.338554,271.283508 
	C125.771004,277.999207 130.946075,284.334473 139.397491,286.923035 
	C139.601028,286.942291 139.988998,287.071320 140.038940,287.431885 
	C141.743088,288.513458 143.397293,289.234406 145.028839,289.977905 
	C145.006180,290.000458 145.021210,289.938385 145.214813,290.236267 
	C149.173584,291.747925 152.294556,295.769135 157.338425,293.139984 
	C158.822266,293.186127 159.900375,293.270782 161.078461,293.670044 
	C162.792130,293.804382 164.405823,293.624176 166.448853,293.348389 
	C168.937271,293.216187 170.996323,293.179596 173.331207,293.398560 
	C175.687973,293.490784 177.903915,293.726929 179.821106,293.079010 
	C183.539413,291.822449 186.378876,291.765015 189.627945,294.838226 
	C193.694901,298.685028 198.669937,301.571808 203.442780,304.892883 
	C203.632584,304.912781 203.990204,305.046143 204.035339,305.405151 
	C205.455200,306.473938 206.829941,307.183716 208.405792,307.933624 
	C208.606903,307.973785 208.977951,308.148621 209.029816,308.492981 
	C210.414505,309.535706 211.747330,310.234100 213.066803,310.965881 
	C213.053436,310.999298 213.039963,310.928650 213.170868,311.184479 
	C213.651367,311.574066 214.000931,311.707825 214.627686,311.835083 
	C215.266495,311.902802 215.628128,311.976990 216.045990,312.389893 
	C218.386780,313.525391 220.671326,314.322205 223.251617,315.112701 
	C224.035065,315.389130 224.522751,315.671906 225.207764,316.249756 
	C230.368942,318.325684 235.285675,320.262695 240.327927,321.783539 
	C241.682404,322.192078 243.419037,321.333588 245.426498,321.033905 
	C248.243042,321.131439 250.613327,321.251831 253.115631,321.720032 
	C257.171143,321.825623 261.094604,321.583405 265.429626,321.258789 
	C267.239929,321.151459 268.638641,321.126495 270.312195,321.366028 
	C276.491516,320.525055 282.443298,319.615417 288.274933,318.207977 
	C290.318420,317.714722 292.066528,315.997559 294.152283,314.615570 
	C295.129303,314.202942 295.903503,314.014008 297.081604,313.876038 
	C306.251862,311.163605 313.629120,306.002594 320.347870,299.987915 
	C323.953644,296.760010 326.804688,292.689087 329.998138,288.999268 
	C330.000000,289.000000 329.998871,288.996521 330.367859,289.002777 
	C332.005127,288.009308 333.273438,287.009613 335.094849,285.573883 
	C335.066498,285.567535 336.028076,285.783051 337.039001,286.296753 
	C337.094208,286.997253 337.100067,287.399628 337.150909,288.059875 
	C337.443451,288.550812 337.691040,288.783905 338.183411,289.185425 
	C338.597961,289.909729 338.767731,290.465576 338.671417,291.273682 
	C337.990204,293.770203 337.575073,296.014465 337.119354,298.527985 
	C336.775085,299.229401 336.471375,299.661530 335.805176,300.104553 
	C334.372742,302.193970 333.302765,304.272430 332.210846,306.627319 
	C332.103485,307.263031 332.018036,307.622314 331.573120,308.032471 
	C329.591187,309.058319 327.927826,309.971832 326.354309,311.020233 
	C322.276001,313.737457 318.237244,316.514038 314.182709,319.266937 
	C314.182709,319.266937 314.144623,319.062256 313.812683,319.098633 
	C310.640930,320.992767 307.801117,322.850555 304.961304,324.708374 
	C304.642365,324.869141 304.323425,325.029877 303.313904,325.135834 
	C301.357605,325.413635 300.035492,325.608612 298.834686,326.099945 
	C285.877716,331.401489 272.395996,334.640564 258.421234,333.852081 
	C247.439041,333.232361 236.154709,332.437256 225.716293,329.329590 
	C216.071503,326.458191 207.384003,320.386688 198.245422,315.783081 
	C196.852234,315.081268 195.299683,314.695801 193.820831,314.164001 
	C193.820831,314.164032 193.870377,314.063324 193.803741,313.853394 
	C193.421677,313.485443 193.106247,313.327393 192.790833,313.169312 
	C192.790833,313.169312 192.899719,313.159088 192.801224,312.862366 
	C190.453247,310.208374 188.325836,307.717194 185.923096,305.528198 
	C182.983643,302.850220 179.387054,303.393494 176.961929,306.609283 
	C176.518936,306.700287 176.075958,306.791290 174.974854,306.583832 
	C163.655670,306.041840 152.947739,306.260590 142.800797,302.035126 
	C140.603394,301.120087 138.164597,300.784760 135.836975,300.182404 
	C135.836975,300.182404 135.952332,300.081940 135.803650,299.850281 
	C135.067551,299.444916 134.480118,299.271240 133.892685,299.097565 
	C133.892685,299.097565 133.978394,299.034607 133.851379,298.746368 
	C129.397766,295.388977 125.071136,292.319824 120.744514,289.250671 
	C120.744514,289.250671 120.757187,289.148682 120.735321,288.913025 
	C120.391197,288.531891 120.068947,288.386414 119.746689,288.240936 
	C119.746689,288.240936 119.727043,288.287537 119.784775,287.926147 
	C117.599731,285.368652 115.356964,283.172546 113.114204,280.976410 
z"/>
<path fill="#F3B658" opacity="1.000000" stroke="none" 
	d="
M314.542236,319.241699 
	C318.237244,316.514038 322.276001,313.737457 326.354309,311.020233 
	C327.927826,309.971832 329.591187,309.058319 331.550323,308.379700 
	C329.965149,313.824707 335.107056,314.931793 337.315277,317.556213 
	C337.992065,318.360535 340.927887,317.942017 342.433411,317.237549 
	C346.187286,315.480988 349.621826,313.042450 353.374390,311.282349 
	C354.994659,310.522339 357.238586,310.190765 358.931366,310.650635 
	C364.667816,312.208954 369.115112,315.162231 369.531281,321.987518 
	C369.669556,324.255341 370.918365,326.434052 371.297333,328.713715 
	C371.852295,332.051788 373.343414,333.320679 376.941711,333.205902 
	C384.357819,332.969360 384.370850,333.212097 386.258759,325.886566 
	C386.920990,323.317017 387.160278,320.545807 388.311218,318.222717 
	C389.319763,316.187073 391.091309,314.317749 392.950989,312.955414 
	C398.419281,308.949707 403.647156,309.701080 408.733124,314.088409 
	C410.711365,315.794891 413.252075,316.874268 415.605896,318.106812 
	C416.418030,318.532074 417.860016,319.051422 418.297577,318.681091 
	C420.824371,316.542419 423.499298,314.395447 425.317200,311.705902 
	C425.921692,310.811523 424.267792,308.241241 423.422974,306.548645 
	C421.794708,303.286346 419.774689,300.200348 418.379608,296.848724 
	C417.632141,295.053040 417.337189,292.753326 417.721771,290.860626 
	C418.919586,284.965851 422.488647,281.983093 428.680542,280.454010 
	C442.159454,277.125458 440.281586,279.565765 440.260132,265.217987 
	C441.087555,270.021423 441.551910,274.669769 442.037170,279.527496 
	C442.590607,279.413147 443.659149,279.192352 444.727692,278.971558 
	C443.396576,280.123535 442.244751,281.783600 440.699554,282.328857 
	C436.635193,283.763092 432.369659,284.614319 428.239990,285.879669 
	C423.093323,287.456604 421.154053,292.060944 423.697479,296.844269 
	C425.802551,300.803253 428.520935,304.464813 430.320160,308.543732 
	C431.041534,310.179016 430.036469,312.579010 429.795319,314.628326 
	C429.779999,314.758728 429.571503,314.863739 429.458282,314.985626 
	C419.119781,326.112122 419.119812,326.112152 405.173553,317.793518 
	C398.275116,313.678802 394.472900,315.204620 392.215363,323.063110 
	C391.252258,326.415680 390.426208,329.807556 389.528229,333.179016 
	C389.399994,333.660492 389.236084,334.134705 389.056335,334.599762 
	C386.325439,341.666687 380.236542,337.815216 375.644348,338.552429 
	C372.453857,339.064636 368.845642,339.312988 367.822205,334.600372 
	C366.906036,330.381592 365.600037,326.247375 364.461548,322.077026 
	C362.753174,315.819244 358.132507,313.994110 352.405609,317.213409 
	C347.785492,319.810516 342.915588,324.516998 338.492493,324.157196 
	C334.468018,323.829865 330.901459,317.934418 327.118805,314.509186 
	C326.522552,313.969269 325.850830,313.512787 325.284302,313.072357 
	C321.690308,315.199188 318.296021,317.207825 314.542236,319.241699 
z"/>
<path fill="#F3B658" opacity="1.000000" stroke="none" 
	d="
M193.930359,314.477356 
	C195.299683,314.695801 196.852234,315.081268 198.245422,315.783081 
	C207.384003,320.386688 216.071503,326.458191 225.716293,329.329590 
	C236.154709,332.437256 247.439041,333.232361 258.421234,333.852081 
	C272.395996,334.640564 285.877716,331.401489 298.834686,326.099945 
	C300.035492,325.608612 301.357605,325.413635 303.043396,325.146667 
	C294.608429,328.255341 285.967010,332.488831 276.859253,334.122620 
	C247.229111,339.437897 219.788834,333.356445 195.086456,315.840790 
	C194.689148,315.559082 194.386627,315.143677 193.930359,314.477356 
z"/>
<path fill="#F3B658" opacity="1.000000" stroke="none" 
	d="
M300.070190,22.523666 
	C295.055420,20.296064 290.097412,17.296511 284.759796,15.324622 
	C277.094208,12.492699 269.287628,9.109982 261.299683,8.275806 
	C244.358841,6.506686 227.599625,8.104245 212.241592,16.715031 
	C211.577240,17.087513 210.617874,16.933788 209.404205,17.017155 
	C218.626434,10.256556 229.577637,7.281022 241.044907,6.180353 
	C259.893524,4.371197 277.678650,7.904961 293.996063,17.795408 
	C296.101685,19.071684 297.975983,20.729643 300.070190,22.523666 
z"/>
<path fill="#F3B658" opacity="1.000000" stroke="none" 
	d="
M461.107056,184.652084 
	C460.613098,182.231201 460.156799,179.498276 460.101868,176.757294 
	C459.963837,169.870193 460.957855,162.812302 459.781982,156.124603 
	C457.255249,141.753845 451.143433,128.741333 441.858032,117.348610 
	C438.948883,113.779266 435.986023,110.253693 433.019043,106.363541 
	C439.237854,113.399467 446.657806,120.090240 451.489288,128.303665 
	C461.611420,145.511108 465.249084,164.395004 461.107056,184.652084 
z"/>
<path fill="#F9B140" opacity="1.000000" stroke="none" 
	d="
M444.831879,278.518768 
	C443.659149,279.192352 442.590607,279.413147 442.037170,279.527496 
	C441.551910,274.669769 441.087555,270.021423 439.902191,265.199036 
	C438.472107,264.908142 437.763031,264.791351 436.996765,264.421936 
	C436.305817,264.069244 435.672089,263.969147 434.746338,263.872498 
	C433.952423,263.624481 433.450623,263.373077 432.892578,262.934814 
	C432.557220,262.831055 432.278168,262.914093 431.680725,262.982025 
	C430.570709,262.668884 429.779022,262.370819 428.916931,261.892029 
	C428.563416,261.793823 428.280304,261.876404 427.668518,261.947113 
	C426.910187,261.850159 426.480560,261.765045 425.959656,261.370514 
	C423.562042,258.707489 421.255737,256.353851 418.790344,253.719147 
	C418.121033,252.290894 417.610779,251.143753 417.329620,249.812393 
	C417.681396,249.065125 417.804108,248.502075 417.959930,247.971680 
	C417.993073,248.004349 417.914978,247.952744 418.183716,247.806702 
	C418.627808,247.093750 418.803131,246.526825 419.048340,245.741241 
	C419.247437,245.230194 419.454071,245.010727 420.025696,244.785706 
	C420.476990,244.362534 420.640717,244.017822 420.814392,243.391479 
	C420.893982,242.740814 420.963593,242.371780 421.253723,241.880478 
	C421.631317,241.467682 421.788391,241.177124 421.997314,240.565582 
	C422.703949,239.164444 423.358795,238.084335 424.343262,237.006409 
	C425.112183,237.002747 425.551575,236.996872 425.990936,236.990997 
	C425.990936,236.990997 426.000000,237.000000 426.000122,237.380768 
	C425.397766,239.908432 424.795288,242.055328 424.192780,244.202209 
	C424.192780,244.202209 424.116272,244.127686 423.865295,244.236282 
	C423.452942,244.939529 423.291595,245.534164 423.130249,246.128799 
	C423.130219,246.128799 423.085297,246.001419 422.937744,246.081604 
	C422.697479,246.247635 422.511902,246.383209 422.527008,246.411377 
	C422.638000,246.618744 422.789062,246.804672 422.927521,246.997345 
	C422.872192,247.446625 422.816864,247.895905 422.317902,248.777161 
	C420.642242,252.704163 421.037323,255.555939 424.959625,257.013184 
	C425.417725,257.081146 425.875824,257.149078 426.759399,257.680847 
	C433.043884,260.441040 438.902924,262.737366 444.761932,265.033691 
	C444.819977,269.377777 444.878021,273.721893 444.831879,278.518768 
z"/>
<path fill="#F3B658" opacity="1.000000" stroke="none" 
	d="
M176.615692,49.128128 
	C176.236069,49.697670 175.409973,50.847862 174.621048,50.822903 
	C170.680908,50.698280 166.674530,50.643898 162.830414,49.872406 
	C149.153152,47.127453 136.595871,50.722691 124.811363,57.001900 
	C119.555428,59.802456 115.351273,64.546295 110.548409,68.250824 
	C109.442955,69.103470 107.838860,69.309654 106.075768,69.718781 
	C111.850395,61.040569 120.769798,56.218380 130.174698,52.370911 
	C143.743347,46.820072 157.822083,45.478703 172.232635,48.755585 
	C173.515381,49.047268 174.866806,49.036972 176.615692,49.128128 
z"/>
<path fill="#F3B658" opacity="1.000000" stroke="none" 
	d="
M374.826569,70.710983 
	C373.311493,70.344330 371.406708,69.999817 370.065308,68.941345 
	C360.930603,61.733311 350.283478,57.793594 339.289032,54.747982 
	C336.010956,53.839920 332.335663,54.467060 328.929535,53.882790 
	C326.815369,53.520138 324.088531,52.758854 322.980804,51.213177 
	C318.998566,45.656624 315.587921,39.690426 311.935791,33.526009 
	C315.632111,37.799969 319.806549,42.145340 322.920197,47.150616 
	C325.080444,50.623272 327.542877,51.702988 331.312317,52.073029 
	C347.637512,53.675678 362.184509,59.680756 374.826569,70.710983 
z"/>
<path fill="#F3B658" opacity="1.000000" stroke="none" 
	d="
M32.907043,169.377075 
	C33.421913,171.289322 34.039829,173.551270 33.939045,175.780731 
	C33.311684,189.658875 34.765926,203.280670 40.292023,216.066071 
	C43.283882,222.988174 47.662315,229.309067 51.378136,235.922012 
	C52.000126,237.028961 52.432384,238.242493 52.901489,239.786774 
	C48.519901,233.215317 43.540756,226.577744 39.992279,219.247589 
	C32.423141,203.611877 30.807852,186.862518 32.907043,169.377075 
z"/>
<path fill="#F3B658" opacity="1.000000" stroke="none" 
	d="
M424.502777,244.083954 
	C424.795288,242.055328 425.397766,239.908432 426.004700,237.385254 
	C431.033447,232.801743 436.519989,229.029404 440.978577,224.290039 
	C448.516907,216.277054 452.921936,206.250885 456.925110,196.120941 
	C458.084564,193.186951 458.928558,190.128311 460.263733,187.042313 
	C459.906799,196.990326 455.864929,206.061356 450.376587,213.992279 
	C444.524841,222.448471 436.879395,229.659744 430.062103,237.453964 
	C428.228058,239.550812 426.558044,241.791183 424.502777,244.083954 
z"/>
<path fill="#F3B658" opacity="1.000000" stroke="none" 
	d="
M432.867493,105.694565 
	C428.055420,103.182121 423.084473,100.427879 418.211945,97.509392 
	C409.816223,92.480614 400.964233,88.814659 391.108185,87.970680 
	C386.534454,87.579025 385.907715,83.512115 384.188293,80.133560 
	C388.114197,85.404228 394.302155,86.281693 400.294220,87.918694 
	C412.408813,91.228333 423.376678,96.876488 432.867493,105.694565 
z"/>
<path fill="#F3B658" opacity="1.000000" stroke="none" 
	d="
M208.652283,17.042969 
	C208.414413,18.025238 208.072525,19.474009 207.188858,19.983948 
	C197.188446,25.754923 189.257858,33.699100 182.517105,42.952480 
	C181.014389,45.015335 179.393921,46.992432 177.450714,49.024483 
	C181.989426,38.040150 190.119812,29.746128 199.551620,22.611750 
	C202.293976,20.537388 205.372314,18.907215 208.652283,17.042969 
z"/>
<path fill="#F3B658" opacity="1.000000" stroke="none" 
	d="
M136.018051,300.472168 
	C138.164597,300.784760 140.603394,301.120087 142.800797,302.035126 
	C152.947739,306.260590 163.655670,306.041840 174.635101,306.538147 
	C161.325134,309.346619 148.348007,307.716309 136.018051,300.472168 
z"/>
<path fill="#F3B658" opacity="1.000000" stroke="none" 
	d="
M75.757347,261.492126 
	C78.301308,262.285248 81.019463,263.375519 83.736206,264.469299 
	C91.507095,267.597900 99.167923,271.056244 107.099884,273.701782 
	C110.445198,274.817535 112.195160,276.421936 112.856995,280.006470 
	C110.258469,276.951050 106.539909,275.812866 102.650879,274.276489 
	C93.524399,270.671021 84.811317,266.019165 75.757347,261.492126 
z"/>
<path fill="#F3B658" opacity="1.000000" stroke="none" 
	d="
M93.540482,86.018394 
	C93.445145,90.288918 91.886589,93.614685 87.497314,95.941360 
	C81.039696,99.364410 75.061981,103.689995 68.854622,107.590988 
	C67.914734,108.181656 66.838684,108.555664 65.466812,109.045502 
	C71.314087,104.524628 77.211601,99.450806 83.837700,95.645706 
	C88.064812,93.218246 91.333954,90.574570 93.540482,86.018394 
z"/>
<path fill="#F3B658" opacity="1.000000" stroke="none" 
	d="
M45.449036,132.894394 
	C43.762997,137.934326 41.533882,143.024002 39.840549,148.286102 
	C38.243229,153.249847 37.269836,158.411575 35.884541,163.448395 
	C35.554050,164.650024 34.676640,165.701218 33.715565,166.927185 
	C34.338688,154.671066 38.540154,143.430664 45.449036,132.894394 
z"/>
<path fill="#F3B658" opacity="1.000000" stroke="none" 
	d="
M52.874245,240.478836 
	C54.406834,241.454025 56.049664,242.705917 57.561844,244.099564 
	C63.375252,249.457306 69.146797,254.860474 74.973030,260.586365 
	C65.968811,256.070679 58.910198,249.035004 52.874245,240.478836 
z"/>
<path fill="#F3B658" opacity="1.000000" stroke="none" 
	d="
M64.725945,109.167206 
	C63.649727,111.179390 62.412125,113.393311 60.797192,115.285126 
	C56.850788,119.908188 52.729881,124.382278 48.341064,128.958679 
	C53.466244,122.408165 58.929573,115.815285 64.725945,109.167206 
z"/>
<path fill="#F3B658" opacity="1.000000" stroke="none" 
	d="
M177.338135,306.684570 
	C179.387054,303.393494 182.983643,302.850220 185.923096,305.528198 
	C188.325836,307.717194 190.453247,310.208374 192.770554,312.907593 
	C190.837830,311.908264 188.520203,310.866241 186.908096,309.158325 
	C184.220108,306.310547 181.360535,305.342194 177.338135,306.684570 
z"/>
<path fill="#F3B658" opacity="1.000000" stroke="none" 
	d="
M444.851410,264.662781 
	C438.902924,262.737366 433.043884,260.441040 427.071930,257.834839 
	C432.077209,258.751160 437.233429,259.846222 442.283447,261.308014 
	C443.366425,261.621490 444.065155,263.262451 444.851410,264.662781 
z"/>
<path fill="#F3B658" opacity="1.000000" stroke="none" 
	d="
M120.817970,289.576782 
	C125.071136,292.319824 129.397766,295.388977 133.831573,298.795715 
	C129.589661,296.056488 125.240540,292.979675 120.817970,289.576782 
z"/>
<path fill="#F3B658" opacity="1.000000" stroke="none" 
	d="
M384.150146,79.439560 
	C381.178375,77.080391 378.113007,74.403648 375.016113,71.384933 
	C378.008575,73.735962 381.032593,76.428978 384.150146,79.439560 
z"/>
<path fill="#F3B658" opacity="1.000000" stroke="none" 
	d="
M309.164215,30.435915 
	C306.252533,28.337177 303.263794,25.914232 300.192444,23.147139 
	C303.102295,25.239229 306.094727,27.675470 309.164215,30.435915 
z"/>
<path fill="#F3B658" opacity="1.000000" stroke="none" 
	d="
M103.339157,71.802963 
	C101.591576,74.705879 99.533470,77.709335 97.127846,80.790497 
	C98.863098,77.879967 100.945869,74.891739 103.339157,71.802963 
z"/>
<path fill="#F3B658" opacity="1.000000" stroke="none" 
	d="
M305.310242,324.710693 
	C307.801117,322.850555 310.640930,320.992767 313.857880,319.192383 
	C311.376373,321.070862 308.517761,322.891937 305.310242,324.710693 
z"/>
<path fill="#F3B658" opacity="1.000000" stroke="none" 
	d="
M113.151459,281.309937 
	C115.356964,283.172546 117.599731,285.368652 119.759666,287.929138 
	C117.514130,286.076813 115.351418,283.860138 113.151459,281.309937 
z"/>
<path fill="#F3B658" opacity="1.000000" stroke="none" 
	d="
M424.778015,256.687225 
	C421.037323,255.555939 420.642242,252.704163 422.179443,249.088562 
	C423.188507,251.432419 423.892456,253.896851 424.778015,256.687225 
z"/>
<path fill="#F3B658" opacity="1.000000" stroke="none" 
	d="
M96.494423,80.928665 
	C96.029373,82.436249 95.252716,84.067360 94.134171,85.792801 
	C94.589119,84.275475 95.385963,82.663834 96.494423,80.928665 
z"/>
<path fill="#F3B658" opacity="1.000000" stroke="none" 
	d="
M47.704491,129.147491 
	C47.501579,130.277649 47.001877,131.552414 46.118019,132.795502 
	C46.291809,131.606567 46.849751,130.449356 47.704491,129.147491 
z"/>
<path fill="#F3B658" opacity="1.000000" stroke="none" 
	d="
M134.052597,299.356720 
	C134.480118,299.271240 135.067551,299.444916 135.770981,299.919434 
	C135.328827,300.018768 134.770676,299.817322 134.052597,299.356720 
z"/>
<path fill="#F3B658" opacity="1.000000" stroke="none" 
	d="
M423.382568,245.960022 
	C423.291595,245.534164 423.452942,244.939529 423.918335,244.229889 
	C424.026489,244.673691 423.830658,245.232468 423.382568,245.960022 
z"/>
<path fill="#F3B658" opacity="1.000000" stroke="none" 
	d="
M311.744324,32.807465 
	C311.317139,32.833771 310.807037,32.580292 310.235413,32.033524 
	C310.669769,32.002720 311.165588,32.265202 311.744324,32.807465 
z"/>
<path fill="#F3B658" opacity="1.000000" stroke="none" 
	d="
M310.153809,31.551678 
	C309.909424,31.652779 309.593628,31.492582 309.223145,31.058140 
	C309.473114,30.952723 309.777771,31.121553 310.153809,31.551678 
z"/>
<path fill="#F3B658" opacity="1.000000" stroke="none" 
	d="
M192.878693,313.426086 
	C193.106247,313.327393 193.421677,313.485443 193.814697,313.908447 
	C193.583710,314.009888 193.275116,313.846375 192.878693,313.426086 
z"/>
<path fill="#F3B658" opacity="1.000000" stroke="none" 
	d="
M104.479118,70.797073 
	C104.583130,71.047340 104.435974,71.366348 104.007523,71.711426 
	C103.893463,71.446930 104.060699,71.156380 104.479118,70.797073 
z"/>
<path fill="#F3B658" opacity="1.000000" stroke="none" 
	d="
M105.452469,69.783752 
	C105.565582,70.040047 105.427147,70.361893 105.006966,70.710716 
	C104.883789,70.441566 105.042351,70.145432 105.452469,69.783752 
z"/>
<path fill="#F3B658" opacity="1.000000" stroke="none" 
	d="
M423.044189,246.789062 
	C422.789062,246.804672 422.638000,246.618744 422.527008,246.411377 
	C422.511902,246.383209 422.697479,246.247635 422.981964,246.132629 
	C423.173767,246.103485 423.160889,246.580780 423.044189,246.789062 
z"/>
<path fill="#F3B658" opacity="1.000000" stroke="none" 
	d="
M119.821320,288.497589 
	C120.068947,288.386414 120.391197,288.531891 120.766418,288.953949 
	C120.511574,289.071747 120.203758,288.912994 119.821320,288.497589 
z"/>
<path fill="#FFDCB3" opacity="1.000000" stroke="none" 
	d="
M270.037384,321.101501 
	C268.638641,321.126495 267.239929,321.151459 264.975800,321.159851 
	C260.401489,321.219604 256.692535,321.295898 252.983597,321.372223 
	C250.613327,321.251831 248.243042,321.131439 245.156952,320.769836 
	C237.964233,319.003937 231.487335,317.479309 225.010437,315.954651 
	C224.522751,315.671906 224.035065,315.389130 223.055923,314.827271 
	C220.372910,313.715820 218.181335,312.883514 215.989777,312.051208 
	C215.628128,311.976990 215.266495,311.902802 214.455719,311.619232 
	C213.684387,311.249451 213.362183,311.089050 213.039963,310.928650 
	C213.039963,310.928650 213.053436,310.999298 212.982971,310.646576 
	C211.600998,309.578796 210.289474,308.863708 208.977951,308.148621 
	C208.977951,308.148621 208.606903,307.973785 208.286987,307.620972 
	C206.641434,306.527466 205.315826,305.786804 203.990204,305.046143 
	C203.990204,305.046143 203.632584,304.912781 203.330872,304.569458 
	C198.106705,299.804382 193.243027,295.313599 188.206131,291.026306 
	C187.328613,290.279388 185.628571,289.945923 184.467072,290.186707 
	C180.624054,290.983551 176.853653,292.130463 173.055374,293.143036 
	C170.996323,293.179596 168.937271,293.216187 166.041626,293.220581 
	C163.796188,293.244080 162.387329,293.299744 160.978485,293.355438 
	C159.900375,293.270782 158.822266,293.186127 157.097351,292.852081 
	C152.640762,291.714600 148.830994,290.826477 145.021210,289.938385 
	C145.021210,289.938385 145.006180,290.000458 144.862701,289.690643 
	C143.142471,288.610992 141.565735,287.841156 139.988998,287.071320 
	C139.988998,287.071320 139.601028,286.942291 139.275864,286.608337 
	C131.493591,280.425842 124.522766,274.174042 120.035088,265.559814 
	C119.286636,264.123169 117.426476,262.793365 115.823578,262.357727 
	C109.616188,260.670654 103.305099,259.365112 97.032631,257.917480 
	C97.032631,257.917480 97.011505,257.996674 96.867844,257.671997 
	C91.485748,254.560623 86.247314,251.773956 81.008873,248.987289 
	C81.008873,248.987289 80.999695,249.000000 80.857941,248.696701 
	C76.185829,244.511673 71.655479,240.629959 67.125122,236.748230 
	C67.125122,236.748230 67.075058,236.367905 66.910858,235.915543 
	C66.168861,234.969009 65.591072,234.474838 65.013275,233.980667 
	C65.013283,233.980667 65.000656,234.001205 64.964996,233.646149 
	C62.646004,230.497086 60.362679,227.703079 58.079357,224.909073 
	C58.079357,224.909073 58.008915,224.928955 57.957241,224.682983 
	C57.653854,224.179352 57.402142,223.921707 57.150429,223.664062 
	C57.116470,223.293411 57.082508,222.922745 56.957092,221.950256 
	C55.897465,219.903458 54.929287,218.458496 53.961113,217.013535 
	C53.700966,216.201904 53.440819,215.390289 53.012039,213.922363 
	C47.786339,201.335419 46.484924,188.780548 46.646706,175.982483 
	C46.744110,173.936005 46.841515,171.889511 47.188412,169.146606 
	C49.595577,157.668686 53.175034,147.423141 58.937439,138.004333 
	C60.973637,134.676117 63.035133,131.363373 65.085083,128.043564 
	C65.085083,128.043564 65.000885,128.028336 65.366005,127.991943 
	C67.843346,125.653595 69.955559,123.351624 72.067780,121.049652 
	C72.067780,121.049660 72.034477,120.994194 72.274796,120.931854 
	C72.712189,120.592331 72.909271,120.315163 73.106354,120.037994 
	C74.229706,119.119125 75.353058,118.200256 77.066483,117.078903 
	C79.459320,115.271118 81.262077,113.665817 83.064835,112.060516 
	C83.064842,112.060516 82.988739,112.039879 83.379776,112.041443 
	C85.235985,111.056061 86.701164,110.069107 88.166336,109.082153 
	C88.912224,108.743134 89.658112,108.404106 91.054550,107.952026 
	C98.419128,106.008301 102.812340,102.031609 104.971497,95.155457 
	C106.029831,91.785049 108.483940,88.793724 110.580124,85.824089 
	C112.951317,82.464867 115.629616,79.322426 118.174370,76.085716 
	C118.461113,75.998642 118.694695,75.835472 119.322342,75.340408 
	C120.902740,74.085030 122.035904,73.085457 123.169060,72.085876 
	C123.169060,72.085876 123.586662,72.006195 124.134399,71.919334 
	C128.218521,69.606842 131.754898,67.381203 135.291275,65.155563 
	C135.967743,65.075272 136.644196,64.994972 137.993866,64.855934 
	C140.101318,64.169853 141.535568,63.542522 142.969803,62.915188 
	C143.419922,62.891579 143.870041,62.867970 145.068451,62.838261 
	C150.884750,62.439037 155.952744,62.045914 161.020737,61.652794 
	C162.093445,61.742970 163.166153,61.833149 164.897797,62.186104 
	C169.023499,63.308632 172.465424,64.297890 175.968170,64.970253 
	C177.576706,65.279030 179.304611,64.965881 180.978394,64.934761 
	C181.549347,64.830856 182.120285,64.726952 183.229279,64.324554 
	C185.474228,61.694565 187.229660,59.396778 188.878189,57.024696 
	C192.584381,51.691799 196.237564,46.322052 199.912308,40.967304 
	C200.197144,40.785110 200.481979,40.602921 201.214630,40.148758 
	C205.180496,37.186451 208.392975,33.889072 212.280289,31.932417 
	C220.321152,27.885103 228.721191,24.551365 236.973511,20.924160 
	C238.050140,20.883150 239.126755,20.842142 241.023712,20.797932 
	C253.483231,19.980675 264.891815,21.166883 276.025757,24.735474 
	C276.422058,24.839273 276.818359,24.943071 277.626465,25.357386 
	C278.701385,25.991331 279.364471,26.314760 280.027557,26.638191 
	C281.329193,27.120790 282.630829,27.603392 284.412354,28.449306 
	C285.934052,29.499269 286.975922,30.185919 288.017761,30.872566 
	C288.017761,30.872564 288.424957,31.010841 288.748352,31.360840 
	C292.023987,33.837727 294.976257,35.964615 297.928497,38.091499 
	C297.928497,38.091499 297.994598,38.004787 298.017456,38.371056 
	C300.334412,40.878548 302.628510,43.019768 304.922638,45.160980 
	C304.922638,45.160976 304.991669,45.581417 305.074219,46.129692 
	C307.074188,49.732136 309.227600,52.665443 310.865112,55.862972 
	C315.915680,65.725189 317.013123,66.442924 328.018494,65.729858 
	C328.469360,65.788277 328.920197,65.846695 329.911987,66.149078 
	C331.310944,66.461617 332.169006,66.530197 333.027069,66.598785 
	C333.778961,66.709282 334.530884,66.819786 335.907806,67.174286 
	C340.690643,68.597198 344.848419,69.776115 349.006226,70.955025 
	C349.364319,71.030952 349.722443,71.106880 350.511627,71.496407 
	C351.441193,72.228088 351.887238,72.740837 352.445923,73.050247 
	C363.148529,78.977470 372.599335,86.299332 379.600586,96.552200 
	C380.611969,98.033287 382.648712,99.216850 384.436340,99.694420 
	C391.581390,101.603226 398.815399,103.179001 406.016510,104.878006 
	C406.397430,104.958817 406.778320,105.039627 407.587799,105.440063 
	C410.014526,106.811806 412.012695,107.863930 414.010864,108.916046 
	C414.010864,108.916046 414.395630,109.052887 414.704285,109.374420 
	C415.697205,110.073242 416.381470,110.450523 417.065765,110.827805 
	C417.065765,110.827805 417.083710,110.906776 417.223541,111.215111 
	C418.248779,111.998932 419.134216,112.474419 420.019623,112.949898 
	C420.420441,113.303658 420.821228,113.657417 421.595306,114.380768 
	C422.974762,115.507149 423.980957,116.263939 424.987183,117.020721 
	C424.987183,117.020714 425.000000,116.999695 425.047974,117.341949 
	C428.709778,121.499069 432.323547,125.313942 435.937347,129.128815 
	C435.937347,129.128815 436.030334,129.562424 436.107056,130.109467 
	C437.415771,132.184357 438.647766,133.712204 439.879791,135.240051 
	C440.061279,135.734711 440.242798,136.229355 440.671143,137.270966 
	C442.277802,141.723984 443.708099,145.607193 444.983887,149.540497 
	C448.430634,160.167053 448.679199,171.039841 447.329987,182.020767 
	C447.227509,182.766998 447.125031,183.513214 446.771759,184.883728 
	C444.675903,191.005768 442.830841,196.503540 440.985779,202.001297 
	C440.632111,202.715042 440.278412,203.428787 439.583130,204.583862 
	C437.171173,208.355652 435.100830,211.686081 433.030457,215.016525 
	C433.030457,215.016525 432.998108,215.000885 432.677856,215.078201 
	C431.217316,216.334030 429.981506,217.435394 428.955566,218.706223 
	C426.380310,221.896164 423.971558,223.352585 420.539215,219.451767 
	C419.776337,218.584732 416.816284,218.833832 415.352875,219.554245 
	C411.046570,221.674179 407.064331,224.442886 402.803925,226.667999 
	C398.322083,229.008804 393.955383,226.745880 392.872498,221.799545 
	C389.113037,204.627335 388.724060,204.305740 372.563019,205.003479 
	C372.396942,205.010666 372.177368,204.936951 372.072052,205.017609 
	C370.674072,206.087982 368.580872,206.906464 368.040039,208.316650 
	C366.443359,212.479797 365.421021,216.867889 364.250488,221.188690 
	C362.636871,227.145096 358.598022,229.070480 353.264465,226.190796 
	C349.763611,224.300583 346.322449,222.276215 342.990326,220.103714 
	C339.765228,218.000992 337.113831,217.704437 334.413300,221.062546 
	C332.235748,223.770401 329.272491,225.865341 327.220673,228.647324 
	C326.208557,230.019592 325.671661,232.670578 326.304230,234.151627 
	C328.121277,238.405823 330.652649,242.353912 332.887939,246.430710 
	C335.686584,251.534836 333.972931,255.670807 328.422333,257.209961 
	C324.268646,258.361786 320.062592,259.351746 315.975098,260.702118 
	C314.354218,261.237579 311.768402,262.488464 311.714691,263.522430 
	C311.433594,268.930237 311.584198,274.399353 312.174774,279.782440 
	C312.300354,280.927032 314.751495,282.196381 316.355865,282.720642 
	C319.812469,283.850098 323.498199,284.299530 326.914948,285.518433 
	C328.193787,285.974670 328.985199,287.797028 329.998871,288.996521 
	C329.998871,288.996521 330.000000,289.000000 329.657104,289.035828 
	C322.052338,295.073883 314.896149,301.211060 307.480713,307.017090 
	C304.146729,309.627441 300.294678,311.576172 296.677734,313.825134 
	C295.903503,314.014008 295.129303,314.202942 293.752258,314.649109 
	C285.445404,316.971436 277.741394,319.036469 270.037384,321.101501 
z"/>
<path fill="#FEDBAF" opacity="1.000000" stroke="none" 
	d="
M426.050934,261.679932 
	C426.480560,261.765045 426.910187,261.850159 427.913208,262.000488 
	C428.653503,262.068054 428.820435,262.070435 428.987366,262.072784 
	C429.779022,262.370819 430.570709,262.668884 431.916016,263.029480 
	C432.469666,263.092010 432.948822,263.121674 432.948822,263.121674 
	C433.450623,263.373077 433.952423,263.624481 434.905396,264.130005 
	C435.922363,264.480927 436.488190,264.577728 437.053986,264.674500 
	C437.763031,264.791351 438.472107,264.908142 439.539124,265.043945 
	C440.281586,279.565765 442.159454,277.125458 428.680542,280.454010 
	C422.488647,281.983093 418.919586,284.965851 417.721771,290.860626 
	C417.337189,292.753326 417.632141,295.053040 418.379608,296.848724 
	C419.774689,300.200348 421.794708,303.286346 423.422974,306.548645 
	C424.267792,308.241241 425.921692,310.811523 425.317200,311.705902 
	C423.499298,314.395447 420.824371,316.542419 418.297577,318.681091 
	C417.860016,319.051422 416.418030,318.532074 415.605896,318.106812 
	C413.252075,316.874268 410.711365,315.794891 408.733124,314.088409 
	C403.647156,309.701080 398.419281,308.949707 392.950989,312.955414 
	C391.091309,314.317749 389.319763,316.187073 388.311218,318.222717 
	C387.160278,320.545807 386.920990,323.317017 386.258759,325.886566 
	C384.370850,333.212097 384.357819,332.969360 376.941711,333.205902 
	C373.343414,333.320679 371.852295,332.051788 371.297333,328.713715 
	C370.918365,326.434052 369.669556,324.255341 369.531281,321.987518 
	C369.115112,315.162231 364.667816,312.208954 358.931366,310.650635 
	C357.238586,310.190765 354.994659,310.522339 353.374390,311.282349 
	C349.621826,313.042450 346.187286,315.480988 342.433411,317.237549 
	C340.927887,317.942017 337.992065,318.360535 337.315277,317.556213 
	C335.107056,314.931793 329.965149,313.824707 331.909851,308.328827 
	C332.018036,307.622314 332.103485,307.263031 332.524048,306.481201 
	C333.962006,304.070282 335.064819,302.081970 336.167664,300.093658 
	C336.471375,299.661530 336.775085,299.229401 337.446716,298.383667 
	C339.944672,295.937561 341.068726,293.742462 338.937500,291.021393 
	C338.767731,290.465576 338.597961,289.909729 338.118652,288.939453 
	C337.574677,288.283997 337.340271,288.042999 337.105896,287.802002 
	C337.100067,287.399628 337.094208,286.997253 337.017029,285.940979 
	C335.289032,284.231812 333.632355,283.176575 331.607147,282.014862 
	C329.265228,281.531555 327.291870,281.154724 325.072998,280.499939 
	C323.280365,279.679535 321.769775,278.963440 320.178986,278.628143 
	C315.908752,277.728058 316.021790,274.558685 316.083008,271.280304 
	C316.140503,268.202393 315.957947,265.344727 320.252045,264.657379 
	C324.495575,263.978149 328.660553,262.696014 332.781860,261.425079 
	C334.243042,260.974457 336.121643,260.085938 336.699738,258.869751 
	C339.362885,253.267273 341.624329,247.586899 336.405701,241.909180 
	C334.649628,239.998642 333.891235,237.204758 332.297455,235.102188 
	C330.598083,232.860352 330.776978,231.021393 332.940735,229.603088 
	C335.650604,227.826797 336.659485,222.468353 341.637115,225.253830 
	C345.555725,227.446686 349.374817,229.840607 353.408264,231.793793 
	C355.062378,232.594803 357.402924,233.182770 359.017822,232.639297 
	C364.301331,230.861267 369.159973,228.459900 369.371582,221.574692 
	C369.445862,219.157349 370.921814,216.811172 371.225891,214.366379 
	C371.706512,210.502060 373.845215,210.026047 377.308838,209.725952 
	C382.750031,209.254562 385.705109,210.930511 386.346222,216.462616 
	C386.535217,218.093307 387.393768,219.647324 387.575653,221.277740 
	C388.200165,226.876190 390.641449,230.411591 396.524078,232.014389 
	C399.937622,232.944473 402.484100,233.030502 405.370544,231.104218 
	C408.408813,229.076569 411.760773,227.516754 414.784454,225.470001 
	C417.164551,223.858902 419.056885,224.328506 420.998627,226.003418 
	C421.811523,226.913849 422.624390,227.824280 423.863098,229.193802 
	C424.817047,231.402924 425.345184,233.152969 425.873291,234.903015 
	C425.873291,234.903015 425.862366,234.875595 425.546143,234.940598 
	C424.824493,235.671814 424.419098,236.338013 424.013672,237.004227 
	C423.358795,238.084335 422.703949,239.164444 421.774109,240.686340 
	C421.343781,241.419662 421.188477,241.711197 421.033203,242.002731 
	C420.963593,242.371780 420.893982,242.740814 420.597504,243.553574 
	C420.159790,244.286240 419.948975,244.575195 419.738159,244.864166 
	C419.454071,245.010727 419.247437,245.230194 418.798981,245.907349 
	C418.291504,246.845657 418.103241,247.399200 417.914978,247.952744 
	C417.914978,247.952744 417.993073,248.004349 417.717957,248.147675 
	C417.328705,248.859543 417.214630,249.428085 417.100525,249.996613 
	C417.610779,251.143753 418.121033,252.290894 418.795105,254.110565 
	C419.285065,259.177582 421.108185,262.032715 426.050934,261.679932 
M377.530121,238.920685 
	C374.574280,239.197586 371.406647,238.879044 368.695404,239.843491 
	C341.592926,249.484665 338.198853,282.144104 357.925476,297.641937 
	C373.479401,309.861542 397.144928,306.099182 407.302338,288.038391 
	C420.329102,264.875549 401.795227,237.059357 377.530121,238.920685 
z"/>
<path fill="#F5B44F" opacity="1.000000" stroke="none" 
	d="
M421.009674,225.630524 
	C419.056885,224.328506 417.164551,223.858902 414.784454,225.470001 
	C411.760773,227.516754 408.408813,229.076569 405.370544,231.104218 
	C402.484100,233.030502 399.937622,232.944473 396.524078,232.014389 
	C390.641449,230.411591 388.200165,226.876190 387.575653,221.277740 
	C387.393768,219.647324 386.535217,218.093307 386.346222,216.462616 
	C385.705109,210.930511 382.750031,209.254562 377.308838,209.725952 
	C373.845215,210.026047 371.706512,210.502060 371.225891,214.366379 
	C370.921814,216.811172 369.445862,219.157349 369.371582,221.574692 
	C369.159973,228.459900 364.301331,230.861267 359.017822,232.639297 
	C357.402924,233.182770 355.062378,232.594803 353.408264,231.793793 
	C349.374817,229.840607 345.555725,227.446686 341.637115,225.253830 
	C336.659485,222.468353 335.650604,227.826797 332.940735,229.603088 
	C330.776978,231.021393 330.598083,232.860352 332.297455,235.102188 
	C333.891235,237.204758 334.649628,239.998642 336.405701,241.909180 
	C341.624329,247.586899 339.362885,253.267273 336.699738,258.869751 
	C336.121643,260.085938 334.243042,260.974457 332.781860,261.425079 
	C328.660553,262.696014 324.495575,263.978149 320.252045,264.657379 
	C315.957947,265.344727 316.140503,268.202393 316.083008,271.280304 
	C316.021790,274.558685 315.908752,277.728058 320.178986,278.628143 
	C321.769775,278.963440 323.280365,279.679535 324.663879,280.571899 
	C322.851379,280.821381 321.202454,280.720917 319.553558,280.620453 
	C322.777527,282.577972 326.128418,283.791290 329.577026,284.573914 
	C330.160950,284.706451 331.165466,282.985779 331.975677,282.121338 
	C333.632355,283.176575 335.289032,284.231812 336.967712,285.642822 
	C336.028076,285.783051 335.066498,285.567535 335.094849,285.573883 
	C333.273438,287.009613 332.005127,288.009308 330.367859,289.002777 
	C328.985199,287.797028 328.193787,285.974670 326.914948,285.518433 
	C323.498199,284.299530 319.812469,283.850098 316.355865,282.720642 
	C314.751495,282.196381 312.300354,280.927032 312.174774,279.782440 
	C311.584198,274.399353 311.433594,268.930237 311.714691,263.522430 
	C311.768402,262.488464 314.354218,261.237579 315.975098,260.702118 
	C320.062592,259.351746 324.268646,258.361786 328.422333,257.209961 
	C333.972931,255.670807 335.686584,251.534836 332.887939,246.430710 
	C330.652649,242.353912 328.121277,238.405823 326.304230,234.151627 
	C325.671661,232.670578 326.208557,230.019592 327.220673,228.647324 
	C329.272491,225.865341 332.235748,223.770401 334.413300,221.062546 
	C337.113831,217.704437 339.765228,218.000992 342.990326,220.103714 
	C346.322449,222.276215 349.763611,224.300583 353.264465,226.190796 
	C358.598022,229.070480 362.636871,227.145096 364.250488,221.188690 
	C365.421021,216.867889 366.443359,212.479797 368.040039,208.316650 
	C368.580872,206.906464 370.674072,206.087982 372.072052,205.017609 
	C372.177368,204.936951 372.396942,205.010666 372.563019,205.003479 
	C388.724060,204.305740 389.113037,204.627335 392.872498,221.799545 
	C393.955383,226.745880 398.322083,229.008804 402.803925,226.667999 
	C407.064331,224.442886 411.046570,221.674179 415.352875,219.554245 
	C416.816284,218.833832 419.776337,218.584732 420.539215,219.451767 
	C423.971558,223.352585 426.380310,221.896164 428.955566,218.706223 
	C429.981506,217.435394 431.217316,216.334030 432.687866,215.093323 
	C431.845551,220.277252 428.174133,223.211441 423.065796,223.295288 
	C422.373566,223.306656 421.701904,224.572586 421.009674,225.630524 
z"/>
<path fill="#F5B44F" opacity="1.000000" stroke="none" 
	d="
M405.964233,104.527222 
	C398.815399,103.179001 391.581390,101.603226 384.436340,99.694420 
	C382.648712,99.216850 380.611969,98.033287 379.600586,96.552200 
	C372.599335,86.299332 363.148529,78.977470 352.445923,73.050247 
	C351.887238,72.740837 351.441193,72.228088 350.786499,71.500847 
	C358.692078,72.219368 364.199463,77.735817 369.922943,82.604599 
	C373.670441,85.792458 376.981201,89.633133 379.896637,93.614197 
	C382.106323,96.631538 384.836853,97.354462 388.167175,98.130264 
	C394.246979,99.546577 401.070435,99.063309 405.964233,104.527222 
z"/>
<path fill="#F5B44F" opacity="1.000000" stroke="none" 
	d="
M97.221336,258.219879 
	C103.305099,259.365112 109.616188,260.670654 115.823578,262.357727 
	C117.426476,262.793365 119.286636,264.123169 120.035088,265.559814 
	C124.522766,274.174042 131.493591,280.425842 139.072327,286.589081 
	C130.946075,284.334473 125.771004,277.999207 121.338554,271.283508 
	C118.096443,266.371338 114.569618,263.269562 108.515869,262.510742 
	C104.707115,262.033325 101.104904,259.908234 97.221336,258.219879 
z"/>
<path fill="#F5B44F" opacity="1.000000" stroke="none" 
	d="
M64.768005,128.164703 
	C63.035133,131.363373 60.973637,134.676117 58.937439,138.004333 
	C53.175034,147.423141 49.595577,157.668686 47.166313,168.706146 
	C47.261810,165.512192 47.142559,161.922821 48.084305,158.637604 
	C51.315735,147.364914 55.384224,136.451248 64.768005,128.164703 
z"/>
<path fill="#F5B44F" opacity="1.000000" stroke="none" 
	d="
M117.813095,76.084175 
	C115.629616,79.322426 112.951317,82.464867 110.580124,85.824089 
	C108.483940,88.793724 106.029831,91.785049 104.971497,95.155457 
	C102.812340,102.031609 98.419128,106.008301 91.344376,107.848480 
	C91.015251,107.695618 91.000404,107.422012 91.085091,107.386627 
	C101.973618,102.837212 102.926903,90.571548 109.998947,83.079033 
	C112.333557,80.605614 114.959229,78.406937 117.813095,76.084175 
z"/>
<path fill="#F5B44F" opacity="1.000000" stroke="none" 
	d="
M236.707779,20.657497 
	C228.721191,24.551365 220.321152,27.885103 212.280289,31.932417 
	C208.392975,33.889072 205.180496,37.186451 201.321686,39.913567 
	C204.684143,36.291237 207.879883,31.792398 212.212173,29.174105 
	C218.376633,25.448523 225.338272,23.012606 232.052719,20.252954 
	C233.288239,19.745159 234.967575,20.317213 236.707779,20.657497 
z"/>
<path fill="#F5B44F" opacity="1.000000" stroke="none" 
	d="
M297.081604,313.876038 
	C300.294678,311.576172 304.146729,309.627441 307.480713,307.017090 
	C314.896149,301.211060 322.052338,295.073883 329.655243,289.035126 
	C326.804688,292.689087 323.953644,296.760010 320.347870,299.987915 
	C313.629120,306.002594 306.251862,311.163605 297.081604,313.876038 
z"/>
<path fill="#F5B44F" opacity="1.000000" stroke="none" 
	d="
M447.670532,181.906799 
	C448.679199,171.039841 448.430634,160.167053 444.983887,149.540497 
	C443.708099,145.607193 442.277802,141.723984 440.888367,137.428131 
	C446.572144,143.436234 447.390198,151.649155 448.907776,159.508438 
	C450.341797,166.934998 451.224243,174.485779 447.670532,181.906799 
z"/>
<path fill="#F5B44F" opacity="1.000000" stroke="none" 
	d="
M46.292801,176.115036 
	C46.484924,188.780548 47.786339,201.335419 52.846191,213.642303 
	C51.618050,212.132812 50.041817,210.386444 49.214947,208.337646 
	C45.271561,198.566879 44.714558,188.281952 45.079372,177.902603 
	C45.099091,177.341553 45.640396,176.798843 46.292801,176.115036 
z"/>
<path fill="#F5B44F" opacity="1.000000" stroke="none" 
	d="
M173.331207,293.398560 
	C176.853653,292.130463 180.624054,290.983551 184.467072,290.186707 
	C185.628571,289.945923 187.328613,290.279388 188.206131,291.026306 
	C193.243027,295.313599 198.106705,299.804382 203.141068,304.549561 
	C198.669937,301.571808 193.694901,298.685028 189.627945,294.838226 
	C186.378876,291.765015 183.539413,291.822449 179.821106,293.079010 
	C177.903915,293.726929 175.687973,293.490784 173.331207,293.398560 
z"/>
<path fill="#F5B44F" opacity="1.000000" stroke="none" 
	d="
M275.937622,24.405615 
	C264.891815,21.166883 253.483231,19.980675 241.412811,20.687145 
	C243.045883,19.986504 245.095551,18.944498 247.176926,18.876799 
	C257.081085,18.554642 266.929260,18.848820 275.937622,24.405615 
z"/>
<path fill="#F5B44F" opacity="1.000000" stroke="none" 
	d="
M327.901062,65.373169 
	C317.013123,66.442924 315.915680,65.725189 310.865112,55.862972 
	C309.227600,52.665443 307.074188,49.732136 305.148987,46.329178 
	C307.689423,49.068195 310.781830,51.859631 312.661804,55.311378 
	C315.688934,60.869499 318.895020,65.349113 326.168243,64.107735 
	C326.641235,64.027008 327.242218,64.696159 327.901062,65.373169 
z"/>
<path fill="#F5B44F" opacity="1.000000" stroke="none" 
	d="
M199.575623,41.012207 
	C196.237564,46.322052 192.584381,51.691799 188.878189,57.024696 
	C187.229660,59.396778 185.474228,61.694565 183.427628,64.104897 
	C187.796722,56.003529 190.678024,46.547077 199.575623,41.012207 
z"/>
<path fill="#F5B44F" opacity="1.000000" stroke="none" 
	d="
M270.312195,321.366028 
	C277.741394,319.036469 285.445404,316.971436 293.549438,314.872864 
	C292.066528,315.997559 290.318420,317.714722 288.274933,318.207977 
	C282.443298,319.615417 276.491516,320.525055 270.312195,321.366028 
z"/>
<path fill="#F5B44F" opacity="1.000000" stroke="none" 
	d="
M67.108047,237.116058 
	C71.655479,240.629959 76.185829,244.511673 80.863495,248.691956 
	C74.328819,247.625275 70.683907,242.586014 67.108047,237.116058 
z"/>
<path fill="#F5B44F" opacity="1.000000" stroke="none" 
	d="
M225.207764,316.249786 
	C231.487335,317.479309 237.964233,319.003937 244.710693,320.792664 
	C243.419037,321.333588 241.682404,322.192078 240.327927,321.783539 
	C235.285675,320.262695 230.368942,318.325684 225.207764,316.249786 
z"/>
<path fill="#F5B44F" opacity="1.000000" stroke="none" 
	d="
M81.053741,249.329620 
	C86.247314,251.773956 91.485748,254.560623 96.895416,257.641663 
	C90.689682,257.218445 85.560158,254.090546 81.053741,249.329620 
z"/>
<path fill="#F5B44F" opacity="1.000000" stroke="none" 
	d="
M435.958374,128.740219 
	C432.323547,125.313942 428.709778,121.499069 425.037659,117.348557 
	C429.679413,119.789970 434.111359,122.827141 435.958374,128.740219 
z"/>
<path fill="#F5B44F" opacity="1.000000" stroke="none" 
	d="
M160.889038,61.299961 
	C155.952744,62.045914 150.884750,62.439037 145.395737,62.750992 
	C149.819672,58.285133 155.303238,59.751232 160.889038,61.299961 
z"/>
<path fill="#F5B44F" opacity="1.000000" stroke="none" 
	d="
M441.297424,201.845245 
	C442.830841,196.503540 444.675903,191.005768 446.784119,185.261871 
	C447.802673,191.411163 444.937042,196.625565 441.297424,201.845245 
z"/>
<path fill="#F5B44F" opacity="1.000000" stroke="none" 
	d="
M180.722473,64.668228 
	C179.304611,64.965881 177.576706,65.279030 175.968170,64.970253 
	C172.465424,64.297890 169.023499,63.308632 165.302155,62.161758 
	C167.856125,62.015781 170.699768,61.932987 173.462509,62.366100 
	C175.845016,62.739601 178.135422,63.700493 180.722473,64.668228 
z"/>
<path fill="#F5B44F" opacity="1.000000" stroke="none" 
	d="
M433.376251,214.976135 
	C435.100830,211.686081 437.171173,208.355652 439.550415,204.882492 
	C440.330322,209.653351 437.500183,212.579849 433.376251,214.976135 
z"/>
<path fill="#F5B44F" opacity="1.000000" stroke="none" 
	d="
M134.890533,65.109077 
	C131.754898,67.381203 128.218521,69.606842 124.332039,71.841087 
	C125.697289,66.820282 130.604202,66.732056 134.890533,65.109077 
z"/>
<path fill="#F5B44F" opacity="1.000000" stroke="none" 
	d="
M58.056637,225.284119 
	C60.362679,227.703079 62.646004,230.497086 64.975258,233.638977 
	C62.692097,231.210968 60.363007,228.435059 58.056637,225.284119 
z"/>
<path fill="#F5B44F" opacity="1.000000" stroke="none" 
	d="
M253.115631,321.720032 
	C256.692535,321.295898 260.401489,321.219604 264.564240,321.242249 
	C261.094604,321.583405 257.171143,321.825623 253.115631,321.720032 
z"/>
<path fill="#F5B44F" opacity="1.000000" stroke="none" 
	d="
M348.934082,70.597565 
	C344.848419,69.776115 340.690643,68.597198 336.288788,67.146973 
	C340.317139,67.997147 344.589508,69.118629 348.934082,70.597565 
z"/>
<path fill="#F5B44F" opacity="1.000000" stroke="none" 
	d="
M297.919220,37.735725 
	C294.976257,35.964615 292.023987,33.837727 288.960999,31.392719 
	C291.870117,33.176384 294.890045,35.278164 297.919220,37.735725 
z"/>
<path fill="#F5B44F" opacity="1.000000" stroke="none" 
	d="
M145.214813,290.236267 
	C148.830994,290.826477 152.640762,291.714600 156.691620,292.890594 
	C152.294556,295.769135 149.173584,291.747925 145.214813,290.236267 
z"/>
<path fill="#F5B44F" opacity="1.000000" stroke="none" 
	d="
M304.922302,44.800758 
	C302.628510,43.019768 300.334412,40.878548 297.974854,38.405109 
	C300.246948,40.195435 302.584442,42.317982 304.922302,44.800758 
z"/>
<path fill="#F5B44F" opacity="1.000000" stroke="none" 
	d="
M71.716316,121.062584 
	C69.955559,123.351624 67.843346,125.653595 65.398552,128.019714 
	C67.165604,125.747757 69.265236,123.411636 71.716316,121.062584 
z"/>
<path fill="#F5B44F" opacity="1.000000" stroke="none" 
	d="
M82.671799,112.038490 
	C81.262077,113.665817 79.459320,115.271118 77.321442,116.898544 
	C76.987206,113.383072 78.867081,111.873230 82.671799,112.038490 
z"/>
<path fill="#F5B44F" opacity="1.000000" stroke="none" 
	d="
M216.045990,312.389893 
	C218.181335,312.883514 220.372910,313.715820 222.760162,314.833588 
	C220.671326,314.322205 218.386780,313.525391 216.045990,312.389893 
z"/>
<path fill="#F3B658" opacity="1.000000" stroke="none" 
	d="
M335.805176,300.104553 
	C335.064819,302.081970 333.962006,304.070282 332.545959,306.204773 
	C333.302765,304.272430 334.372742,302.193970 335.805176,300.104553 
z"/>
<path fill="#F3B658" opacity="1.000000" stroke="none" 
	d="
M338.671417,291.273682 
	C341.068726,293.742462 339.944672,295.937561 337.487305,298.114380 
	C337.575073,296.014465 337.990204,293.770203 338.671417,291.273682 
z"/>
<path fill="#F5B44F" opacity="1.000000" stroke="none" 
	d="
M413.952545,108.577011 
	C412.012695,107.863930 410.014526,106.811806 407.880127,105.448586 
	C409.793976,106.170982 411.844116,107.204483 413.952545,108.577011 
z"/>
<path fill="#F3B658" opacity="1.000000" stroke="none" 
	d="
M426.183624,234.739532 
	C425.345184,233.152969 424.817047,231.402924 424.139648,229.330566 
	C428.667694,229.136292 428.673889,231.364670 426.183624,234.739532 
z"/>
<path fill="#F5B44F" opacity="1.000000" stroke="none" 
	d="
M439.893921,134.868927 
	C438.647766,133.712204 437.415771,132.184357 436.188507,130.315674 
	C437.431519,131.482513 438.669800,132.990173 439.893921,134.868927 
z"/>
<path fill="#F5B44F" opacity="1.000000" stroke="none" 
	d="
M53.722530,217.211823 
	C54.929287,218.458496 55.897465,219.903458 56.876060,221.682098 
	C55.752304,220.480545 54.618126,218.945328 53.722530,217.211823 
z"/>
<path fill="#F5B44F" opacity="1.000000" stroke="none" 
	d="
M140.038940,287.431885 
	C141.565735,287.841156 143.142471,288.610992 144.885345,289.668091 
	C143.397293,289.234406 141.743088,288.513458 140.038940,287.431885 
z"/>
<path fill="#F5B44F" opacity="1.000000" stroke="none" 
	d="
M142.754837,62.670925 
	C141.535568,63.542522 140.101318,64.169853 138.321533,64.760277 
	C139.497284,63.957798 141.018585,63.192230 142.754837,62.670925 
z"/>
<path fill="#F5B44F" opacity="1.000000" stroke="none" 
	d="
M87.789719,109.083725 
	C86.701164,110.069107 85.235985,111.056061 83.414062,112.062485 
	C84.509254,111.083069 85.961182,110.084183 87.789719,109.083725 
z"/>
<path fill="#F5B44F" opacity="1.000000" stroke="none" 
	d="
M161.078461,293.669983 
	C162.387329,293.299744 163.796188,293.244080 165.612274,293.316193 
	C164.405823,293.624176 162.792130,293.804382 161.078461,293.669983 
z"/>
<path fill="#F5B44F" opacity="1.000000" stroke="none" 
	d="
M209.029816,308.492981 
	C210.289474,308.863708 211.600998,309.578796 212.996338,310.613159 
	C211.747330,310.234100 210.414505,309.535706 209.029816,308.492981 
z"/>
<path fill="#F5B44F" opacity="1.000000" stroke="none" 
	d="
M204.035339,305.405151 
	C205.315826,305.786804 206.641434,306.527466 208.085861,307.580811 
	C206.829941,307.183716 205.455200,306.473938 204.035339,305.405151 
z"/>
<path fill="#F5B44F" opacity="1.000000" stroke="none" 
	d="
M122.817711,72.081635 
	C122.035904,73.085457 120.902740,74.085030 119.422905,75.148636 
	C120.206276,74.167572 121.336319,73.122475 122.817711,72.081635 
z"/>
<path fill="#F5B44F" opacity="1.000000" stroke="none" 
	d="
M287.967896,30.528370 
	C286.975922,30.185919 285.934052,29.499269 284.755676,28.506779 
	C285.718781,28.862017 286.818420,29.523096 287.967896,30.528370 
z"/>
<path fill="#F5B44F" opacity="1.000000" stroke="none" 
	d="
M424.956970,116.667892 
	C423.980957,116.263939 422.974762,115.507149 421.867065,114.433563 
	C422.819275,114.849525 423.872986,115.582291 424.956970,116.667892 
z"/>
<path fill="#F5B44F" opacity="1.000000" stroke="none" 
	d="
M332.951447,66.323196 
	C332.169006,66.530197 331.310944,66.461617 330.252686,66.124084 
	C330.993591,65.919296 331.934692,65.983444 332.951447,66.323196 
z"/>
<path fill="#F5B44F" opacity="1.000000" stroke="none" 
	d="
M419.964050,112.618958 
	C419.134216,112.474419 418.248779,111.998932 417.263123,111.223640 
	C418.078064,111.378563 418.993286,111.833290 419.964050,112.618958 
z"/>
<path fill="#F3B658" opacity="1.000000" stroke="none" 
	d="
M424.343262,237.006409 
	C424.419098,236.338013 424.824493,235.671814 425.531433,234.939392 
	C425.881866,235.343277 425.930725,235.813400 425.985260,236.637253 
	C425.551575,236.996872 425.112183,237.002747 424.343262,237.006409 
z"/>
<path fill="#F5B44F" opacity="1.000000" stroke="none" 
	d="
M416.987854,110.515060 
	C416.381470,110.450523 415.697205,110.073242 414.907227,109.396881 
	C415.504333,109.465981 416.207123,109.834145 416.987854,110.515060 
z"/>
<path fill="#F5B44F" opacity="1.000000" stroke="none" 
	d="
M279.951202,26.348555 
	C279.364471,26.314760 278.701385,25.991331 277.933655,25.375736 
	C278.510956,25.408686 279.192902,25.733801 279.951202,26.348555 
z"/>
<path fill="#F5B44F" opacity="1.000000" stroke="none" 
	d="
M65.043121,234.300446 
	C65.591072,234.474838 66.168861,234.969009 66.839859,235.737350 
	C66.313042,235.547760 65.693001,235.084000 65.043121,234.300446 
z"/>
<path fill="#F5B44F" opacity="1.000000" stroke="none" 
	d="
M57.189968,223.949402 
	C57.402142,223.921707 57.653854,224.179352 57.991962,224.694519 
	C57.795410,224.712936 57.512463,224.473846 57.189968,223.949402 
z"/>
<path fill="#F5B44F" opacity="1.000000" stroke="none" 
	d="
M213.170868,311.184479 
	C213.362183,311.089050 213.684387,311.249451 214.178543,311.625732 
	C214.000931,311.707825 213.651367,311.574066 213.170868,311.184479 
z"/>
<path fill="#F3B658" opacity="1.000000" stroke="none" 
	d="
M337.150879,288.059875 
	C337.340271,288.042999 337.574677,288.283997 337.873840,288.770996 
	C337.691040,288.783905 337.443451,288.550812 337.150879,288.059875 
z"/>
<path fill="#F5B44F" opacity="1.000000" stroke="none" 
	d="
M72.861000,120.128220 
	C72.909271,120.315163 72.712189,120.592331 72.273788,120.964142 
	C72.226860,120.778679 72.421249,120.498566 72.861000,120.128220 
z"/>
<path fill="#F3B658" opacity="1.000000" stroke="none" 
	d="
M425.959656,261.370514 
	C421.108185,262.032715 419.285065,259.177582 418.954193,254.391663 
	C421.255737,256.353851 423.562042,258.707489 425.959656,261.370514 
z"/>
<path fill="#F3B658" opacity="1.000000" stroke="none" 
	d="
M436.996765,264.421906 
	C436.488190,264.577728 435.922363,264.480927 435.197479,264.126587 
	C435.672089,263.969147 436.305817,264.069244 436.996765,264.421906 
z"/>
<path fill="#F3B658" opacity="1.000000" stroke="none" 
	d="
M418.183716,247.806702 
	C418.103241,247.399200 418.291504,246.845657 418.729095,246.126007 
	C418.803131,246.526825 418.627808,247.093750 418.183716,247.806702 
z"/>
<path fill="#F3B658" opacity="1.000000" stroke="none" 
	d="
M417.329620,249.812393 
	C417.214630,249.428085 417.328705,248.859543 417.684814,248.115021 
	C417.804108,248.502075 417.681396,249.065125 417.329620,249.812393 
z"/>
<path fill="#F3B658" opacity="1.000000" stroke="none" 
	d="
M420.025696,244.785690 
	C419.948975,244.575195 420.159790,244.286240 420.587524,243.835205 
	C420.640717,244.017822 420.476990,244.362534 420.025696,244.785690 
z"/>
<path fill="#F3B658" opacity="1.000000" stroke="none" 
	d="
M421.253723,241.880478 
	C421.188477,241.711197 421.343781,241.419662 421.722290,241.007355 
	C421.788391,241.177124 421.631317,241.467682 421.253723,241.880478 
z"/>
<path fill="#F3B658" opacity="1.000000" stroke="none" 
	d="
M432.892578,262.934814 
	C432.948822,263.121674 432.469666,263.092010 432.234375,263.044556 
	C432.278168,262.914093 432.557220,262.831055 432.892578,262.934814 
z"/>
<path fill="#F3B658" opacity="1.000000" stroke="none" 
	d="
M428.916931,261.892029 
	C428.820435,262.070435 428.653503,262.068054 428.241882,262.012329 
	C428.280304,261.876404 428.563416,261.793823 428.916931,261.892029 
z"/>
<path fill="#F6B44E" opacity="1.000000" stroke="none" 
	d="
M378.006226,238.919800 
	C401.795227,237.059357 420.329102,264.875549 407.302338,288.038391 
	C397.144928,306.099182 373.479401,309.861542 357.925476,297.641937 
	C338.198853,282.144104 341.592926,249.484665 368.695404,239.843491 
	C371.406647,238.879044 374.574280,239.197586 378.006226,238.919800 
M361.732300,294.868439 
	C372.820435,302.264282 386.314240,302.091614 396.083801,294.262085 
	C405.125244,287.016113 410.428162,274.079681 404.838165,260.660095 
	C400.658539,250.626236 390.338104,243.134995 379.796509,243.024582 
	C367.222931,242.892899 356.944092,249.286224 352.418671,260.053314 
	C347.055695,272.813110 349.922882,284.151367 361.732300,294.868439 
z"/>
<path fill="#F9B140" opacity="1.000000" stroke="none" 
	d="
M331.607147,282.014862 
	C331.165466,282.985779 330.160950,284.706451 329.577026,284.573914 
	C326.128418,283.791290 322.777527,282.577972 319.553558,280.620453 
	C321.202454,280.720917 322.851379,280.821381 324.909363,280.849854 
	C327.291870,281.154724 329.265228,281.531555 331.607147,282.014862 
z"/>
<path fill="#FEDAA8" opacity="1.000000" stroke="none" 
	d="
M361.427979,294.672791 
	C349.922882,284.151367 347.055695,272.813110 352.418671,260.053314 
	C356.944092,249.286224 367.222931,242.892899 379.796509,243.024582 
	C390.338104,243.134995 400.658539,250.626236 404.838165,260.660095 
	C410.428162,274.079681 405.125244,287.016113 396.083801,294.262085 
	C386.314240,302.091614 372.820435,302.264282 361.427979,294.672791 
M380.281799,294.033264 
	C390.554565,293.372955 399.781952,284.837708 400.946075,274.919006 
	C402.278778,263.564056 395.578949,252.869293 385.267731,250.047058 
	C375.450287,247.359985 367.156952,249.791534 360.749573,257.817352 
	C355.113159,264.877441 354.456177,272.827393 358.012909,280.815521 
	C362.034363,289.847351 369.211945,294.559845 380.281799,294.033264 
z"/>
<path fill="#F6B44E" opacity="1.000000" stroke="none" 
	d="
M379.832672,294.040161 
	C369.211945,294.559845 362.034363,289.847351 358.012909,280.815521 
	C354.456177,272.827393 355.113159,264.877441 360.749573,257.817352 
	C367.156952,249.791534 375.450287,247.359985 385.267731,250.047058 
	C395.578949,252.869293 402.278778,263.564056 400.946075,274.919006 
	C399.781952,284.837708 390.554565,293.372955 379.832672,294.040161 
M383.212036,288.997437 
	C391.695862,285.948975 395.992188,280.318390 396.110718,272.092987 
	C396.221222,264.423553 391.982910,257.820160 385.249634,255.171173 
	C378.748657,252.613556 370.053497,254.176636 366.206390,258.594482 
	C360.823792,264.775665 358.993378,274.384949 362.395020,279.686340 
	C366.950806,286.786377 372.915192,291.085602 383.212036,288.997437 
z"/>
<path fill="#FEDBB0" opacity="1.000000" stroke="none" 
	d="
M382.815247,289.025818 
	C372.915192,291.085602 366.950806,286.786377 362.395020,279.686340 
	C358.993378,274.384949 360.823792,264.775665 366.206390,258.594482 
	C370.053497,254.176636 378.748657,252.613556 385.249634,255.171173 
	C391.982910,257.820160 396.221222,264.423553 396.110718,272.092987 
	C395.992188,280.318390 391.695862,285.948975 382.815247,289.025818 
z"/>
</svg>