<svg version="1.1" id="Layer_1" xmlns="http://www.w3.org/2000/svg" xmlns:xlink="http://www.w3.org/1999/xlink" x="0px" y="0px"
	 width="100%" viewBox="0 0 512 512" enable-background="new 0 0 512 512" xml:space="preserve">
<path fill="#000000" opacity="0.000000" stroke="none" 
	d="
M306.000000,513.000000 
	C204.024765,513.000000 102.549522,513.000000 1.037143,513.000000 
	C1.037143,342.399750 1.037143,171.799469 1.037143,1.099597 
	C171.558578,1.099597 342.117249,1.099597 512.837952,1.099597 
	C512.837952,171.666550 512.837952,342.333252 512.837952,513.000000 
	C444.132782,513.000000 375.316376,513.000000 306.000000,513.000000 
M186.718964,159.516083 
	C180.588654,154.989120 174.458359,150.462143 168.781113,146.269745 
	C161.146271,153.971436 153.808151,161.373795 146.318390,168.929123 
	C150.630447,174.781311 155.124207,181.185471 159.955978,187.323547 
	C162.871399,191.027191 162.444458,194.103470 160.489700,198.237656 
	C155.680054,208.409744 150.992050,218.727310 147.484497,229.390747 
	C145.674255,234.894058 143.249954,237.405212 137.705673,237.998962 
	C130.322586,238.789658 122.997566,240.122681 115.594498,241.230698 
	C115.594498,251.966766 115.594498,262.248322 115.594498,272.805817 
	C123.490181,273.965179 131.193192,275.196075 138.926300,276.193512 
	C143.410553,276.771912 145.589493,278.945679 147.168182,283.389954 
	C151.043076,294.298340 155.448761,305.057678 160.362930,315.538422 
	C162.394623,319.871521 162.863098,323.027863 159.820892,326.876740 
	C154.992096,332.985931 150.519394,339.376617 146.257645,345.157715 
	C153.908371,352.810242 161.278305,360.181854 168.849731,367.755035 
	C174.731201,363.418915 181.125153,358.926605 187.256927,354.101135 
	C190.927399,351.212585 193.994614,351.474091 198.163956,353.451996 
	C208.329391,358.274567 218.706635,362.738037 229.270584,366.602600 
	C236.371399,369.200287 236.950027,369.139496 237.981720,376.702393 
	C238.966415,383.920593 240.108612,391.117340 241.177612,398.296967 
	C251.951202,398.296967 262.336700,398.296967 272.872192,398.296967 
	C274.044098,390.221069 275.251587,382.500885 276.254211,374.754211 
	C276.813416,370.433868 279.023560,368.400757 283.217072,366.874207 
	C294.249908,362.858063 305.144775,358.383453 315.805878,353.465576 
	C319.969116,351.545105 323.031403,351.175415 326.718567,354.072693 
	C332.948853,358.968323 339.442963,363.528137 345.204468,367.771301 
	C352.995941,360.112579 360.331970,352.901520 367.738800,345.620819 
	C367.703156,345.521088 367.659760,345.176819 367.480652,344.931793 
	C364.337158,340.631500 361.576111,335.963623 357.933289,332.135590 
	C351.391235,325.260956 349.635132,318.491455 356.403015,310.864838 
	C356.604706,310.637512 356.628815,310.252563 357.156799,309.368439 
	C360.368744,301.012695 364.188721,292.825897 366.574188,284.240540 
	C368.109253,278.715790 370.874359,276.615326 376.115448,276.024719 
	C383.515198,275.190857 390.867981,273.940430 398.329529,272.855194 
	C398.329529,262.128143 398.329529,251.826157 398.329529,241.140778 
	C390.837250,240.053223 383.475922,238.803772 376.067780,237.970551 
	C370.805389,237.378693 368.296875,235.086731 366.528229,229.728149 
	C363.007202,219.060562 358.485382,208.662964 353.580139,198.539978 
	C351.370117,193.979187 351.160889,190.771103 354.332245,186.812408 
	C359.178314,180.763321 363.589783,174.366119 367.730835,168.735291 
	C360.000366,160.979218 352.735840,153.690613 345.306213,146.236389 
	C339.577606,150.445435 333.371704,154.647446 327.591675,159.370590 
	C323.333832,162.849884 319.890656,162.586044 314.991455,160.170776 
	C305.056824,155.273117 294.772308,150.889359 284.252838,147.455322 
	C278.877502,145.700562 276.619873,143.173004 276.026062,137.911530 
	C275.191406,130.516357 273.920166,123.170464 272.824951,115.730698 
	C262.105682,115.730698 251.802765,115.730698 241.153046,115.730698 
	C240.037659,123.395157 238.810410,130.929413 237.886414,138.500687 
	C237.291946,143.371857 235.059418,145.688980 230.133835,147.352554 
	C219.485062,150.949051 209.048126,155.340729 198.915024,160.218338 
	C194.495102,162.345871 191.019730,163.188187 186.718964,159.516083 
M473.348755,434.868744 
	C476.021820,430.715851 478.694916,426.562927 481.548706,422.129303 
	C476.155457,418.616241 471.272858,415.165192 466.125092,412.169922 
	C462.146423,409.854858 460.979950,406.869110 462.207336,402.573578 
	C466.289673,388.286407 466.289368,373.977264 462.173584,359.695740 
	C460.926331,355.367859 462.243134,352.428741 466.184937,350.142151 
	C471.329254,347.158051 476.224121,343.743835 481.565857,340.295502 
	C475.164642,330.346558 468.978699,320.732178 462.731659,311.022827 
	C457.070099,314.655670 451.912537,318.380798 446.342438,321.325745 
	C444.243500,322.435486 440.271210,322.898376 438.722504,321.672760 
	C430.007019,314.775604 420.636444,309.322815 410.139832,305.641357 
	C406.605011,304.401581 405.034302,299.957428 407.431122,297.433655 
	C412.029694,292.591553 409.109314,287.265106 409.937286,282.657379 
	C400.324463,284.148682 391.189667,285.740387 381.999756,286.891937 
	C378.987579,287.269409 377.846191,288.514557 376.984833,291.238983 
	C375.133972,297.093079 374.013184,303.673615 370.502319,308.404968 
	C363.001190,318.513611 366.341461,326.111511 373.879486,333.658752 
	C373.995605,333.774994 374.044983,333.999146 374.175354,334.053619 
	C375.735779,334.705322 377.298370,335.839294 378.874634,335.862000 
	C381.947510,335.906311 385.037720,335.386871 388.103485,334.972870 
	C389.326843,334.807678 391.149719,334.673462 391.597046,333.893066 
	C394.305176,329.168823 398.058411,330.205994 402.035431,331.521240 
	C429.034485,340.450104 444.286682,369.080322 435.743683,396.288605 
	C429.296539,416.821777 414.876312,429.580170 393.552399,432.702118 
	C371.640198,435.910217 354.060547,427.578918 341.703247,409.058807 
	C340.400024,407.105621 339.323120,402.938385 340.328308,401.884613 
	C343.703888,398.345917 342.204132,395.329254 341.138062,391.723267 
	C340.273132,388.797607 340.039276,385.589508 340.091370,382.516266 
	C340.141144,379.581390 339.422974,377.579193 336.859985,375.878998 
	C332.425323,372.937134 328.170563,369.703735 324.002991,366.388184 
	C321.901642,364.716461 320.281586,364.491943 317.806030,365.885895 
	C313.182159,368.489685 308.336121,370.751587 303.423035,372.767059 
	C300.917236,373.795013 299.599792,374.921021 299.966522,377.790741 
	C301.020447,386.038147 302.045898,394.293579 302.788116,402.572235 
	C302.914612,403.983490 301.998779,406.112854 300.862915,406.906891 
	C295.288605,410.803619 289.414642,414.269867 283.800690,418.113312 
	C282.634613,418.911652 282.121948,420.664337 280.693024,422.969513 
	C288.574738,421.213074 289.445435,421.589691 293.167236,427.345001 
	C298.291534,435.269104 303.412750,443.195190 308.696960,451.370575 
	C314.218658,447.815491 319.455811,444.605957 324.512085,441.133148 
	C328.094788,438.672455 331.111664,438.889069 334.395935,441.727081 
	C342.558228,448.780212 351.837036,453.948059 362.211823,456.939301 
	C366.637970,458.215454 368.390411,460.760040 368.213531,465.305756 
	C367.976746,471.391815 368.154938,477.493988 368.154938,483.603607 
	C380.156830,483.603607 391.414642,483.603607 403.093903,483.603607 
	C403.093903,477.370148 403.246582,471.400055 403.043915,465.442078 
	C402.891479,460.961731 404.543518,458.263489 408.989410,456.986145 
	C419.368469,454.003998 428.673615,448.879181 436.836792,441.835846 
	C440.313568,438.836029 443.456146,438.720703 447.162781,441.263458 
	C452.186005,444.709412 457.375092,447.913544 462.725403,451.371643 
	C466.316040,445.812103 469.648773,440.651886 473.348755,434.868744 
M81.510094,197.003799 
	C88.583397,200.645538 95.605865,204.391098 102.749634,207.888916 
	C106.838547,209.890961 109.092644,213.650909 106.603828,216.455872 
	C102.243896,221.369614 104.691788,226.602264 104.081985,231.515259 
	C109.017578,230.626480 113.379433,229.783966 117.761894,229.067520 
	C122.360176,228.315781 126.959587,227.391830 131.593719,227.097092 
	C135.091324,226.874664 136.282150,225.263809 137.225861,222.123993 
	C138.944321,216.406601 140.233856,210.108643 143.614243,205.436081 
	C150.728561,195.602341 148.166321,187.979599 140.418442,180.546082 
	C140.182877,180.320053 140.092682,179.867386 139.832870,179.754272 
	C138.414780,179.136826 136.961014,178.108627 135.526489,178.119812 
	C132.099609,178.146500 128.667923,178.606903 125.257233,179.041595 
	C124.208893,179.175217 122.730591,179.498749 122.289070,180.237350 
	C119.874352,184.276932 116.545547,184.031357 112.727547,182.871765 
	C90.868614,176.232941 75.766006,155.556534 75.945816,132.411240 
	C76.126404,109.167259 91.697746,88.800980 114.103287,82.503838 
	C136.251907,76.278893 160.419952,85.567001 172.427292,104.866608 
	C174.559372,108.293510 175.505402,111.496010 172.035522,114.708221 
	C171.444229,115.255615 171.100876,116.485092 171.216034,117.320473 
	C173.745087,135.668320 173.760605,135.666138 189.537323,147.034332 
	C189.672348,147.131622 189.811264,147.227417 189.930038,147.342789 
	C191.998795,149.351959 193.951172,149.387558 196.574326,147.894516 
	C201.041214,145.352005 205.711273,143.068207 210.513062,141.248734 
	C213.456131,140.133560 214.293335,138.516754 214.017319,135.690552 
	C213.298981,128.335480 213.360260,120.812950 211.737671,113.669052 
	C210.623184,108.762245 212.171616,107.003906 215.947998,104.853180 
	C221.822174,101.507721 227.318665,97.499069 233.065308,93.712143 
	C232.328857,92.927155 232.136749,92.628044 231.864609,92.454506 
	C231.460159,92.196609 230.931473,91.766602 230.572174,91.859665 
	C224.905350,93.327545 222.530685,89.542717 220.055466,85.573761 
	C215.316071,77.974197 210.398560,70.485725 205.358261,62.645184 
	C200.005630,66.081924 194.904617,69.181038 189.998810,72.563271 
	C186.146561,75.219139 182.937805,75.194435 179.263550,72.002716 
	C171.254135,65.045189 162.050751,60.037842 151.847229,57.078640 
	C147.449081,55.803101 145.627426,53.274334 145.790894,48.725872 
	C146.009964,42.629707 145.845139,36.519749 145.845139,30.298317 
	C133.909546,30.298317 122.662720,30.298317 110.907104,30.298317 
	C110.907104,36.674255 110.785126,42.796555 110.948380,48.911236 
	C111.064423,53.257740 109.152138,55.721748 105.047722,56.927925 
	C94.689072,59.972034 85.351006,64.991043 77.191353,72.065910 
	C73.760086,75.041008 70.571800,75.169083 66.835709,72.617233 
	C61.810734,69.185043 56.579197,66.055275 51.178669,62.632393 
	C44.799866,72.554970 38.714256,82.021469 32.367233,91.894608 
	C37.596519,95.263382 42.344421,98.598824 47.358109,101.470169 
	C51.915073,104.079941 52.818344,107.421219 51.486877,112.345367 
	C47.760681,126.125923 47.705235,140.006485 51.663776,153.776031 
	C53.025528,158.512802 51.782726,161.702484 47.466412,164.187912 
	C42.455532,167.073257 37.707005,170.414215 32.462383,173.804520 
	C38.843609,183.738388 45.010742,193.338974 51.268703,203.080963 
	C55.291683,200.498016 58.964893,198.214401 62.561752,195.816269 
	C73.348640,188.624313 72.155396,189.725220 81.510094,197.003799 
z"/>
<path fill="#FDAA03" opacity="1.000000" stroke="none" 
	d="
M356.735718,309.941132 
	C356.628815,310.252563 356.604706,310.637512 356.403015,310.864838 
	C349.635132,318.491455 351.391235,325.260956 357.933289,332.135590 
	C361.576111,335.963623 364.337158,340.631500 367.480652,344.931793 
	C367.659760,345.176819 367.703156,345.521088 367.738800,345.620819 
	C360.331970,352.901520 352.995941,360.112579 345.204468,367.771301 
	C339.442963,363.528137 332.948853,358.968323 326.718567,354.072693 
	C323.031403,351.175415 319.969116,351.545105 315.805878,353.465576 
	C305.144775,358.383453 294.249908,362.858063 283.217072,366.874207 
	C279.023560,368.400757 276.813416,370.433868 276.254211,374.754211 
	C275.251587,382.500885 274.044098,390.221069 272.872192,398.296967 
	C262.336700,398.296967 251.951202,398.296967 241.177612,398.296967 
	C240.108612,391.117340 238.966415,383.920593 237.981720,376.702393 
	C236.950027,369.139496 236.371399,369.200287 229.270584,366.602600 
	C218.706635,362.738037 208.329391,358.274567 198.163956,353.451996 
	C193.994614,351.474091 190.927399,351.212585 187.256927,354.101135 
	C181.125153,358.926605 174.731201,363.418915 168.849731,367.755035 
	C161.278305,360.181854 153.908371,352.810242 146.257645,345.157715 
	C150.519394,339.376617 154.992096,332.985931 159.820892,326.876740 
	C162.863098,323.027863 162.394623,319.871521 160.362930,315.538422 
	C155.448761,305.057678 151.043076,294.298340 147.168182,283.389954 
	C145.589493,278.945679 143.410553,276.771912 138.926300,276.193512 
	C131.193192,275.196075 123.490181,273.965179 115.594498,272.805817 
	C115.594498,262.248322 115.594498,251.966766 115.594498,241.230698 
	C122.997566,240.122681 130.322586,238.789658 137.705673,237.998962 
	C143.249954,237.405212 145.674255,234.894058 147.484497,229.390747 
	C150.992050,218.727310 155.680054,208.409744 160.489700,198.237656 
	C162.444458,194.103470 162.871399,191.027191 159.955978,187.323547 
	C155.124207,181.185471 150.630447,174.781311 146.318390,168.929123 
	C153.808151,161.373795 161.146271,153.971436 168.781113,146.269745 
	C174.458359,150.462143 180.588654,154.989120 186.882507,160.227417 
	C186.697968,164.564331 186.214340,168.182800 186.023956,171.816635 
	C184.847870,194.263870 188.975220,215.723022 198.172791,236.606384 
	C191.357880,259.603729 195.133224,280.154144 210.670578,298.065948 
	C228.150681,318.217438 259.444946,326.966095 289.133606,310.559174 
	C300.443512,312.073242 311.431488,314.611176 322.381958,314.458527 
	C333.851990,314.298615 345.285980,311.555298 356.735718,309.941132 
z"/>
<path fill="#FEC34E" opacity="1.000000" stroke="none" 
	d="
M356.946259,309.654785 
	C345.285980,311.555298 333.851990,314.298615 322.381958,314.458527 
	C311.431488,314.611176 300.443512,312.073242 289.421722,310.315582 
	C289.929565,309.552765 290.495239,309.203461 291.044830,308.830536 
	C318.686249,290.074005 327.237030,254.230164 310.772827,226.141022 
	C293.769714,197.132385 258.380768,186.685913 228.557419,201.920868 
	C213.970551,209.372437 204.475494,221.382675 198.193390,236.213104 
	C188.975220,215.723022 184.847870,194.263870 186.023956,171.816635 
	C186.214340,168.182800 186.697968,164.564331 187.070221,160.514343 
	C191.019730,163.188187 194.495102,162.345871 198.915024,160.218338 
	C209.048126,155.340729 219.485062,150.949051 230.133835,147.352554 
	C235.059418,145.688980 237.291946,143.371857 237.886414,138.500687 
	C238.810410,130.929413 240.037659,123.395157 241.153046,115.730698 
	C251.802765,115.730698 262.105682,115.730698 272.824951,115.730698 
	C273.920166,123.170464 275.191406,130.516357 276.026062,137.911530 
	C276.619873,143.173004 278.877502,145.700562 284.252838,147.455322 
	C294.772308,150.889359 305.056824,155.273117 314.991455,160.170776 
	C319.890656,162.586044 323.333832,162.849884 327.591675,159.370590 
	C333.371704,154.647446 339.577606,150.445435 345.306213,146.236389 
	C352.735840,153.690613 360.000366,160.979218 367.730835,168.735291 
	C363.589783,174.366119 359.178314,180.763321 354.332245,186.812408 
	C351.160889,190.771103 351.370117,193.979187 353.580139,198.539978 
	C358.485382,208.662964 363.007202,219.060562 366.528229,229.728149 
	C368.296875,235.086731 370.805389,237.378693 376.067780,237.970551 
	C383.475922,238.803772 390.837250,240.053223 398.329529,241.140778 
	C398.329529,251.826157 398.329529,262.128143 398.329529,272.855194 
	C390.867981,273.940430 383.515198,275.190857 376.115448,276.024719 
	C370.874359,276.615326 368.109253,278.715790 366.574188,284.240540 
	C364.188721,292.825897 360.368744,301.012695 356.946259,309.654785 
z"/>
<path fill="#7BB4E6" opacity="1.000000" stroke="none" 
	d="
M473.165161,435.180176 
	C469.648773,440.651886 466.316040,445.812103 462.725403,451.371643 
	C457.375092,447.913544 452.186005,444.709412 447.162781,441.263458 
	C443.456146,438.720703 440.313568,438.836029 436.836792,441.835846 
	C428.673615,448.879181 419.368469,454.003998 408.989410,456.986145 
	C404.543518,458.263489 402.891479,460.961731 403.043915,465.442078 
	C403.246582,471.400055 403.093903,477.370148 403.093903,483.603607 
	C391.414642,483.603607 380.156830,483.603607 368.154938,483.603607 
	C368.154938,477.493988 367.976746,471.391815 368.213531,465.305756 
	C368.390411,460.760040 366.637970,458.215454 362.211823,456.939301 
	C351.837036,453.948059 342.558228,448.780212 334.395935,441.727081 
	C331.111664,438.889069 328.094788,438.672455 324.512085,441.133148 
	C319.455811,444.605957 314.218658,447.815491 308.696960,451.370575 
	C303.412750,443.195190 298.291534,435.269104 293.167236,427.345001 
	C289.445435,421.589691 288.574738,421.213074 280.693024,422.969513 
	C282.121948,420.664337 282.634613,418.911652 283.800690,418.113312 
	C289.414642,414.269867 295.288605,410.803619 300.862915,406.906891 
	C301.998779,406.112854 302.914612,403.983490 302.788116,402.572235 
	C302.045898,394.293579 301.020447,386.038147 299.966522,377.790741 
	C299.599792,374.921021 300.917236,373.795013 303.423035,372.767059 
	C308.336121,370.751587 313.182159,368.489685 317.806030,365.885895 
	C320.281586,364.491943 321.901642,364.716461 324.002991,366.388184 
	C328.170563,369.703735 332.425323,372.937134 336.859985,375.878998 
	C339.422974,377.579193 340.141144,379.581390 340.091370,382.516266 
	C340.039276,385.589508 340.273132,388.797607 341.138062,391.723267 
	C342.204132,395.329254 343.703888,398.345917 340.328308,401.884613 
	C339.323120,402.938385 340.400024,407.105621 341.703247,409.058807 
	C354.060547,427.578918 371.640198,435.910217 393.552399,432.702118 
	C414.876312,429.580170 429.296539,416.821777 435.743683,396.288605 
	C444.286682,369.080322 429.034485,340.450104 402.035431,331.521240 
	C398.058411,330.205994 394.305176,329.168823 391.597046,333.893066 
	C391.149719,334.673462 389.326843,334.807678 388.103485,334.972870 
	C385.037720,335.386871 381.947510,335.906311 378.874634,335.862000 
	C377.298370,335.839294 375.735779,334.705322 374.175354,334.053619 
	C374.044983,333.999146 373.995605,333.774994 373.879486,333.658752 
	C366.341461,326.111511 363.001190,318.513611 370.502319,308.404968 
	C374.013184,303.673615 375.133972,297.093079 376.984833,291.238983 
	C377.846191,288.514557 378.987579,287.269409 381.999756,286.891937 
	C391.189667,285.740387 400.324463,284.148682 409.937286,282.657379 
	C409.109314,287.265106 412.029694,292.591553 407.431122,297.433655 
	C405.034302,299.957428 406.605011,304.401581 410.139832,305.641357 
	C420.636444,309.322815 430.007019,314.775604 438.722504,321.672760 
	C440.271210,322.898376 444.243500,322.435486 446.342438,321.325745 
	C451.912537,318.380798 457.070099,314.655670 462.731659,311.022827 
	C468.978699,320.732178 475.164642,330.346558 481.565857,340.295502 
	C476.224121,343.743835 471.329254,347.158051 466.184937,350.142151 
	C462.243134,352.428741 460.926331,355.367859 462.173584,359.695740 
	C466.289368,373.977264 466.289673,388.286407 462.207336,402.573578 
	C460.979950,406.869110 462.146423,409.854858 466.125092,412.169922 
	C471.272858,415.165192 476.155457,418.616241 481.548706,422.129303 
	C478.694916,426.562927 476.021820,430.715851 473.165161,435.180176 
z"/>
<path fill="#89B954" opacity="1.000000" stroke="none" 
	d="
M81.222443,196.786407 
	C72.155396,189.725220 73.348640,188.624313 62.561752,195.816269 
	C58.964893,198.214401 55.291683,200.498016 51.268703,203.080963 
	C45.010742,193.338974 38.843609,183.738388 32.462383,173.804520 
	C37.707005,170.414215 42.455532,167.073257 47.466412,164.187912 
	C51.782726,161.702484 53.025528,158.512802 51.663776,153.776031 
	C47.705235,140.006485 47.760681,126.125923 51.486877,112.345367 
	C52.818344,107.421219 51.915073,104.079941 47.358109,101.470169 
	C42.344421,98.598824 37.596519,95.263382 32.367233,91.894608 
	C38.714256,82.021469 44.799866,72.554970 51.178669,62.632393 
	C56.579197,66.055275 61.810734,69.185043 66.835709,72.617233 
	C70.571800,75.169083 73.760086,75.041008 77.191353,72.065910 
	C85.351006,64.991043 94.689072,59.972034 105.047722,56.927925 
	C109.152138,55.721748 111.064423,53.257740 110.948380,48.911236 
	C110.785126,42.796555 110.907104,36.674255 110.907104,30.298317 
	C122.662720,30.298317 133.909546,30.298317 145.845139,30.298317 
	C145.845139,36.519749 146.009964,42.629707 145.790894,48.725872 
	C145.627426,53.274334 147.449081,55.803101 151.847229,57.078640 
	C162.050751,60.037842 171.254135,65.045189 179.263550,72.002716 
	C182.937805,75.194435 186.146561,75.219139 189.998810,72.563271 
	C194.904617,69.181038 200.005630,66.081924 205.358261,62.645184 
	C210.398560,70.485725 215.316071,77.974197 220.055466,85.573761 
	C222.530685,89.542717 224.905350,93.327545 230.572174,91.859665 
	C230.931473,91.766602 231.460159,92.196609 231.864609,92.454506 
	C232.136749,92.628044 232.328857,92.927155 233.065308,93.712143 
	C227.318665,97.499069 221.822174,101.507721 215.947998,104.853180 
	C212.171616,107.003906 210.623184,108.762245 211.737671,113.669052 
	C213.360260,120.812950 213.298981,128.335480 214.017319,135.690552 
	C214.293335,138.516754 213.456131,140.133560 210.513062,141.248734 
	C205.711273,143.068207 201.041214,145.352005 196.574326,147.894516 
	C193.951172,149.387558 191.998795,149.351959 189.930038,147.342789 
	C189.811264,147.227417 189.672348,147.131622 189.537323,147.034332 
	C173.760605,135.666138 173.745087,135.668320 171.216034,117.320473 
	C171.100876,116.485092 171.444229,115.255615 172.035522,114.708221 
	C175.505402,111.496010 174.559372,108.293510 172.427292,104.866608 
	C160.419952,85.567001 136.251907,76.278893 114.103287,82.503838 
	C91.697746,88.800980 76.126404,109.167259 75.945816,132.411240 
	C75.766006,155.556534 90.868614,176.232941 112.727547,182.871765 
	C116.545547,184.031357 119.874352,184.276932 122.289070,180.237350 
	C122.730591,179.498749 124.208893,179.175217 125.257233,179.041595 
	C128.667923,178.606903 132.099609,178.146500 135.526489,178.119812 
	C136.961014,178.108627 138.414780,179.136826 139.832870,179.754272 
	C140.092682,179.867386 140.182877,180.320053 140.418442,180.546082 
	C148.166321,187.979599 150.728561,195.602341 143.614243,205.436081 
	C140.233856,210.108643 138.944321,216.406601 137.225861,222.123993 
	C136.282150,225.263809 135.091324,226.874664 131.593719,227.097092 
	C126.959587,227.391830 122.360176,228.315781 117.761894,229.067520 
	C113.379433,229.783966 109.017578,230.626480 104.081985,231.515259 
	C104.691788,226.602264 102.243896,221.369614 106.603828,216.455872 
	C109.092644,213.650909 106.838547,209.890961 102.749634,207.888916 
	C95.605865,204.391098 88.583397,200.645538 81.222443,196.786407 
z"/>
<path fill="#010100" opacity="1.000000" stroke="none" 
	d="
M198.172791,236.606384 
	C204.475494,221.382675 213.970551,209.372437 228.557419,201.920868 
	C258.380768,186.685913 293.769714,197.132385 310.772827,226.141022 
	C327.237030,254.230164 318.686249,290.074005 291.044830,308.830536 
	C290.495239,309.203461 289.929565,309.552765 289.083313,310.156708 
	C259.444946,326.966095 228.150681,318.217438 210.670578,298.065948 
	C195.133224,280.154144 191.357880,259.603729 198.172791,236.606384 
z"/>
</svg>