<svg version="1.1" id="Layer_1" xmlns="http://www.w3.org/2000/svg" xmlns:xlink="http://www.w3.org/1999/xlink" x="0px" y="0px"
	 width="100%" viewBox="0 0 512 512" enable-background="new 0 0 512 512" xml:space="preserve">
<path fill="#000000" opacity="0.000000" stroke="none" 
	d="
M281.000000,513.000000 
	C187.356064,513.000000 94.212128,513.000000 1.034094,513.000000 
	C1.034094,342.397705 1.034094,171.795395 1.034094,1.096548 
	C171.560623,1.096548 342.121307,1.096548 512.841003,1.096548 
	C512.841003,171.666550 512.841003,342.333252 512.841003,513.000000 
	C435.795380,513.000000 358.647675,513.000000 281.000000,513.000000 
M376.074066,384.977386 
	C371.144318,384.977386 366.214569,384.977386 361.000000,384.977386 
	C361.000000,387.074768 361.000000,388.546570 361.000000,390.018341 
	C361.000000,415.483124 360.993042,440.947937 361.003998,466.412720 
	C361.007599,474.790833 367.173340,480.992584 375.513611,480.995422 
	C408.468048,481.006592 441.422455,481.005524 474.376892,480.996185 
	C482.735443,480.993805 488.985931,474.803894 488.995178,466.519318 
	C489.011932,451.540039 489.007050,436.560730 488.988678,421.581451 
	C488.986908,420.144073 488.826447,418.706909 488.713409,416.834351 
	C483.262817,416.834351 478.131775,416.834351 473.000610,415.919189 
	C473.000580,397.599487 473.014587,379.279724 472.992432,360.960052 
	C472.985321,355.071228 470.921112,353.011169 465.017944,353.007233 
	C438.371094,352.989471 411.724243,352.990479 385.077393,353.006195 
	C378.921204,353.009827 377.015656,355.003998 377.003113,361.351807 
	C376.987671,369.179291 376.999329,377.006836 376.074066,384.977386 
M376.074066,224.977386 
	C371.144318,224.977386 366.214600,224.977386 361.000000,224.977386 
	C361.000000,227.074722 361.000000,228.546494 361.000000,230.018265 
	C361.000000,255.483047 360.993011,280.947845 361.003967,306.412628 
	C361.007568,314.790649 367.173462,320.992584 375.513550,320.995422 
	C408.467987,321.006592 441.422424,321.005493 474.376862,320.996155 
	C482.735504,320.993774 488.985901,314.803986 488.995178,306.519318 
	C489.011932,291.540039 489.007050,276.560730 488.988647,261.581451 
	C488.986877,260.144073 488.826447,258.706909 488.713409,256.834351 
	C483.262817,256.834351 478.131775,256.834351 473.000610,255.919174 
	C473.000580,237.599457 473.014587,219.279724 472.992432,200.960037 
	C472.985321,195.071213 470.921143,193.011124 465.017914,193.007187 
	C438.371063,192.989441 411.724213,192.990463 385.077362,193.006180 
	C378.921204,193.009811 377.015656,195.004013 377.003113,201.351791 
	C376.987671,209.179276 376.999298,217.006821 376.074066,224.977386 
M473.000610,87.919167 
	C473.000580,69.599480 473.014587,51.279774 472.992432,32.960114 
	C472.985321,27.071245 470.921143,25.011126 465.017975,25.007191 
	C438.371124,24.989428 411.724243,24.990444 385.077393,25.006168 
	C378.921204,25.009802 377.015656,27.004002 377.003113,33.351788 
	C376.987640,41.179272 376.999298,49.006809 376.074066,56.977379 
	C371.144318,56.977379 366.214569,56.977379 361.000000,56.977379 
	C361.000000,59.069317 361.000000,60.543819 361.000000,62.018318 
	C361.000000,87.483101 360.993011,112.947891 361.003967,138.412674 
	C361.007568,146.790833 367.173279,152.992569 375.513580,152.995392 
	C408.468018,153.006577 441.422424,153.005524 474.376862,152.996155 
	C482.735535,152.993774 488.985901,146.803986 488.995178,138.519302 
	C489.011963,123.540039 489.007050,108.560730 488.988647,93.581474 
	C488.986908,92.144089 488.826447,90.706894 488.713379,88.834328 
	C483.262817,88.834328 478.131775,88.834328 473.000610,87.919167 
M58.516354,334.989197 
	C59.687607,336.173370 61.015556,337.240753 62.001125,338.563293 
	C65.119095,342.747314 67.969543,342.477997 71.689247,338.984283 
	C75.469383,335.433716 79.891678,332.560242 84.077736,329.450836 
	C86.806854,327.423676 89.264618,326.532990 92.799843,328.788696 
	C96.554871,331.184631 101.079269,332.428528 105.352104,333.936310 
	C107.473045,334.684753 108.828781,335.249054 109.129814,338.045807 
	C109.945030,345.619385 111.356895,353.128693 112.537903,360.700531 
	C123.630882,360.700531 134.705139,360.700531 145.454987,360.700531 
	C146.669739,352.953583 147.700546,345.521912 149.100525,338.160431 
	C149.387573,336.651031 150.768539,334.798706 152.140640,334.146210 
	C156.956650,331.856110 161.929596,329.847626 166.975571,328.119476 
	C168.460480,327.610931 170.768204,327.814789 172.040543,328.670746 
	C177.306290,332.213257 182.388840,336.042145 187.398224,339.946075 
	C190.123306,342.069763 192.199371,342.625031 194.922577,339.684479 
	C200.238419,333.944397 205.783310,328.393555 211.528732,323.083954 
	C214.368973,320.459137 214.320206,318.346405 212.083359,315.570068 
	C208.500885,311.123596 205.035263,306.581879 201.570663,302.041962 
	C199.519165,299.353760 198.418243,296.972778 200.720078,293.339722 
	C203.186371,289.447083 204.129456,284.618805 206.115311,280.375763 
	C206.774475,278.967377 208.468597,277.391296 209.921539,277.115906 
	C217.423080,275.694122 224.999924,274.669647 232.749588,273.475922 
	C232.749588,262.496796 232.749588,251.423279 232.749588,240.294907 
	C226.194305,239.504242 219.801010,239.108658 213.598648,237.804871 
	C211.026917,237.264282 207.312302,238.297058 205.966507,234.098572 
	C204.289551,228.866959 201.850449,223.883057 200.056244,218.683228 
	C199.590561,217.333618 199.775238,215.215912 200.562485,214.070450 
	C204.247742,208.708344 208.233139,203.551590 212.141876,198.344421 
	C214.017654,195.845535 214.658585,193.811218 211.809982,191.193512 
	C205.927887,185.788177 200.289246,180.094772 194.849945,174.241592 
	C192.527771,171.742691 190.489624,171.655365 188.069031,173.470520 
	C183.627243,176.801315 179.106705,180.056061 174.921478,183.690796 
	C171.606796,186.569504 168.681503,187.349350 164.571213,185.053009 
	C160.650970,182.862854 156.125671,181.781876 152.034149,179.856720 
	C150.743774,179.249573 149.354462,177.608963 149.104172,176.241196 
	C147.704956,168.595352 146.640976,160.888168 145.487961,153.368286 
	C134.240036,153.368286 123.179138,153.368286 112.258041,153.368286 
	C111.435028,160.252014 110.539803,166.746262 109.918999,173.266647 
	C109.473373,177.947052 107.032669,180.038635 102.525650,181.145065 
	C98.487999,182.136276 94.811447,184.521576 90.844872,185.921463 
	C89.478531,186.403671 87.337173,186.326126 86.202583,185.550018 
	C80.832474,181.876770 75.621239,177.959122 70.490181,173.953339 
	C67.695755,171.771744 65.607216,171.546356 62.953514,174.406570 
	C57.632694,180.141434 52.082512,185.683762 46.352180,191.009888 
	C43.472965,193.686005 43.764324,195.795410 45.999496,198.532578 
	C49.612690,202.957291 53.098602,207.490189 56.518021,212.067261 
	C58.521996,214.749680 59.490082,217.209946 57.225342,220.796249 
	C54.766758,224.689468 53.854691,229.528702 51.863762,233.765335 
	C51.212288,235.151672 49.420918,236.612167 47.934200,236.893402 
	C40.444916,238.309952 32.884037,239.347977 25.294647,240.527206 
	C25.294647,251.617172 25.294647,262.691193 25.294647,273.727478 
	C31.918350,274.517517 38.341766,274.851074 44.530727,276.233948 
	C47.020508,276.790283 50.814426,275.590546 52.090359,280.036682 
	C53.555527,285.142181 56.153309,289.913055 57.882084,294.958466 
	C58.392948,296.449432 58.199871,298.758514 57.347244,300.038422 
	C53.921951,305.180206 50.256783,310.181946 46.390438,315.003021 
	C43.959866,318.033752 43.174992,320.313385 46.632107,323.268555 
	C50.671738,326.721649 54.241375,330.724609 58.516354,334.989197 
M300.678467,424.999786 
	C296.726562,425.790588 296.974274,423.225647 296.975983,420.574677 
	C297.008636,369.929443 296.998749,319.284210 297.009644,268.638947 
	C297.009857,267.527832 297.149902,266.416748 297.255188,264.853210 
	C310.619141,264.853210 323.683289,264.853210 336.651825,264.853210 
	C336.651825,259.306488 336.651825,254.246887 336.651825,248.718719 
	C323.243866,248.718719 310.179688,248.718719 297.220917,248.718719 
	C297.220917,203.309906 297.220917,158.380173 297.220917,112.973152 
	C310.496033,112.973152 323.560242,112.973152 336.712036,112.973152 
	C336.712036,107.431435 336.712036,102.372253 336.712036,97.000008 
	C320.961761,97.000008 305.497437,96.996597 290.033081,97.001495 
	C282.707947,97.003815 281.002441,98.687057 281.001862,105.936462 
	C280.998230,151.750427 281.000000,197.564392 281.000000,243.378357 
	C281.000000,245.148758 281.000000,246.919144 281.000000,249.160767 
	C272.700531,249.160767 264.964417,249.160767 257.356384,249.160767 
	C257.356384,254.710785 257.356384,259.771454 257.356384,265.300415 
	C265.442810,265.300415 273.178589,265.300415 281.000000,265.300415 
	C281.000000,267.779236 281.000000,269.776672 281.000000,271.774139 
	C281.000031,325.418121 280.996063,379.062134 281.005463,432.706116 
	C281.006561,439.006256 282.960693,440.984802 289.183746,440.993439 
	C303.844177,441.013733 318.504700,441.008453 333.165131,440.984589 
	C334.419006,440.982574 335.672516,440.765137 336.753326,440.664001 
	C336.753326,435.277008 336.753326,430.332031 336.753326,425.000000 
	C324.888763,425.000000 313.266693,425.000000 300.678467,424.999786 
z"/>
<path fill="#FF9811" opacity="1.000000" stroke="none" 
	d="
M58.265640,334.739075 
	C54.241375,330.724609 50.671738,326.721649 46.632107,323.268555 
	C43.174992,320.313385 43.959866,318.033752 46.390438,315.003021 
	C50.256783,310.181946 53.921951,305.180206 57.347244,300.038422 
	C58.199871,298.758514 58.392948,296.449432 57.882084,294.958466 
	C56.153309,289.913055 53.555527,285.142181 52.090359,280.036682 
	C50.814426,275.590546 47.020508,276.790283 44.530727,276.233948 
	C38.341766,274.851074 31.918350,274.517517 25.294647,273.727478 
	C25.294647,262.691193 25.294647,251.617172 25.294647,240.527206 
	C32.884037,239.347977 40.444916,238.309952 47.934200,236.893402 
	C49.420918,236.612167 51.212288,235.151672 51.863762,233.765335 
	C53.854691,229.528702 54.766758,224.689468 57.225342,220.796249 
	C59.490082,217.209946 58.521996,214.749680 56.518021,212.067261 
	C53.098602,207.490189 49.612690,202.957291 45.999496,198.532578 
	C43.764324,195.795410 43.472965,193.686005 46.352180,191.009888 
	C52.082512,185.683762 57.632694,180.141434 62.953514,174.406570 
	C65.607216,171.546356 67.695755,171.771744 70.490181,173.953339 
	C75.621239,177.959122 80.832474,181.876770 86.202583,185.550018 
	C87.337173,186.326126 89.478531,186.403671 90.844872,185.921463 
	C94.811447,184.521576 98.487999,182.136276 102.525650,181.145065 
	C107.032669,180.038635 109.473373,177.947052 109.918999,173.266647 
	C110.539803,166.746262 111.435028,160.252014 112.258041,153.368286 
	C123.179138,153.368286 134.240036,153.368286 145.487961,153.368286 
	C146.640976,160.888168 147.704956,168.595352 149.104172,176.241196 
	C149.354462,177.608963 150.743774,179.249573 152.034149,179.856720 
	C156.125671,181.781876 160.650970,182.862854 164.571213,185.053009 
	C168.681503,187.349350 171.606796,186.569504 174.921478,183.690796 
	C179.106705,180.056061 183.627243,176.801315 188.069031,173.470520 
	C190.489624,171.655365 192.527771,171.742691 194.849945,174.241592 
	C200.289246,180.094772 205.927887,185.788177 211.809982,191.193512 
	C214.658585,193.811218 214.017654,195.845535 212.141876,198.344421 
	C208.233139,203.551590 204.247742,208.708344 200.562485,214.070450 
	C199.775238,215.215912 199.590561,217.333618 200.056244,218.683228 
	C201.850449,223.883057 204.289551,228.866959 205.966507,234.098572 
	C207.312302,238.297058 211.026917,237.264282 213.598648,237.804871 
	C219.801010,239.108658 226.194305,239.504242 232.749588,240.294907 
	C232.749588,251.423279 232.749588,262.496796 232.749588,273.475922 
	C224.999924,274.669647 217.423080,275.694122 209.921539,277.115906 
	C208.468597,277.391296 206.774475,278.967377 206.115311,280.375763 
	C204.129456,284.618805 203.186371,289.447083 200.720078,293.339722 
	C198.418243,296.972778 199.519165,299.353760 201.570663,302.041962 
	C205.035263,306.581879 208.500885,311.123596 212.083359,315.570068 
	C214.320206,318.346405 214.368973,320.459137 211.528732,323.083954 
	C205.783310,328.393555 200.238419,333.944397 194.922577,339.684479 
	C192.199371,342.625031 190.123306,342.069763 187.398224,339.946075 
	C182.388840,336.042145 177.306290,332.213257 172.040543,328.670746 
	C170.768204,327.814789 168.460480,327.610931 166.975571,328.119476 
	C161.929596,329.847626 156.956650,331.856110 152.140640,334.146210 
	C150.768539,334.798706 149.387573,336.651031 149.100525,338.160431 
	C147.700546,345.521912 146.669739,352.953583 145.454987,360.700531 
	C134.705139,360.700531 123.630882,360.700531 112.537903,360.700531 
	C111.356895,353.128693 109.945030,345.619385 109.129814,338.045807 
	C108.828781,335.249054 107.473045,334.684753 105.352104,333.936310 
	C101.079269,332.428528 96.554871,331.184631 92.799843,328.788696 
	C89.264618,326.532990 86.806854,327.423676 84.077736,329.450836 
	C79.891678,332.560242 75.469383,335.433716 71.689247,338.984283 
	C67.969543,342.477997 65.119095,342.747314 62.001125,338.563293 
	C61.015556,337.240753 59.687607,336.173370 58.265640,334.739075 
M163.192123,277.598999 
	C168.365829,268.607666 170.204224,259.135620 168.102158,248.814194 
	C164.152039,229.418884 145.528030,215.353012 125.661980,217.063614 
	C105.787384,218.774918 89.509407,235.806808 89.010857,255.412216 
	C88.544815,273.739746 99.886063,289.750549 117.194962,295.200562 
	C134.341095,300.599335 152.302216,293.921570 163.192123,277.598999 
z"/>
<path fill="#FF9811" opacity="1.000000" stroke="none" 
	d="
M473.000763,88.834328 
	C478.131775,88.834328 483.262817,88.834328 488.713379,88.834328 
	C488.826447,90.706894 488.986908,92.144089 488.988647,93.581474 
	C489.007050,108.560730 489.011963,123.540039 488.995178,138.519302 
	C488.985901,146.803986 482.735535,152.993774 474.376862,152.996155 
	C441.422424,153.005524 408.468018,153.006577 375.513580,152.995392 
	C367.173279,152.992569 361.007568,146.790833 361.003967,138.412674 
	C360.993011,112.947891 361.000000,87.483101 361.000000,62.018318 
	C361.000000,60.543819 361.000000,59.069317 361.000000,56.977379 
	C366.214569,56.977379 371.144318,56.977379 377.001007,56.973064 
	C389.546936,56.979691 401.169861,56.836914 412.781677,57.130951 
	C415.110779,57.189926 417.933807,58.350761 419.614716,59.959160 
	C428.607239,68.563568 437.251526,77.530975 446.173676,86.210991 
	C447.567261,87.566750 449.743988,88.805511 451.602997,88.872879 
	C458.725800,89.131020 465.866638,88.889420 473.000763,88.834328 
z"/>
<path fill="#FF9811" opacity="1.000000" stroke="none" 
	d="
M473.000763,256.834351 
	C478.131775,256.834351 483.262817,256.834351 488.713409,256.834351 
	C488.826447,258.706909 488.986877,260.144073 488.988647,261.581451 
	C489.007050,276.560730 489.011932,291.540039 488.995178,306.519318 
	C488.985901,314.803986 482.735504,320.993774 474.376862,320.996155 
	C441.422424,321.005493 408.467987,321.006592 375.513550,320.995422 
	C367.173462,320.992584 361.007568,314.790649 361.003967,306.412628 
	C360.993011,280.947845 361.000000,255.483047 361.000000,230.018265 
	C361.000000,228.546494 361.000000,227.074722 361.000000,224.977386 
	C366.214600,224.977386 371.144318,224.977386 377.001007,224.973068 
	C389.546936,224.979691 401.169861,224.836899 412.781677,225.130920 
	C415.110779,225.189911 417.933807,226.350723 419.614716,227.959122 
	C428.607269,236.563538 437.251556,245.530960 446.173676,254.210999 
	C447.567261,255.566757 449.743988,256.805511 451.602997,256.872894 
	C458.725800,257.131012 465.866638,256.889435 473.000763,256.834351 
z"/>
<path fill="#FF9811" opacity="1.000000" stroke="none" 
	d="
M473.000763,416.834351 
	C478.131775,416.834351 483.262817,416.834351 488.713409,416.834351 
	C488.826447,418.706909 488.986908,420.144073 488.988678,421.581451 
	C489.007050,436.560730 489.011932,451.540039 488.995178,466.519318 
	C488.985931,474.803894 482.735443,480.993805 474.376892,480.996185 
	C441.422455,481.005524 408.468048,481.006592 375.513611,480.995422 
	C367.173340,480.992584 361.007599,474.790833 361.003998,466.412720 
	C360.993042,440.947937 361.000000,415.483124 361.000000,390.018341 
	C361.000000,388.546570 361.000000,387.074768 361.000000,384.977386 
	C366.214569,384.977386 371.144318,384.977386 377.001007,384.973083 
	C389.546936,384.979675 401.169861,384.836884 412.781677,385.130920 
	C415.110779,385.189880 417.933777,386.350769 419.614685,387.959167 
	C428.607269,396.563568 437.251556,405.530914 446.173676,414.210968 
	C447.567261,415.566742 449.743988,416.805542 451.602997,416.872925 
	C458.725800,417.131012 465.866638,416.889435 473.000763,416.834351 
z"/>
<path fill="#FFA733" opacity="1.000000" stroke="none" 
	d="
M301.161530,424.999878 
	C313.266693,425.000000 324.888763,425.000000 336.753326,425.000000 
	C336.753326,430.332031 336.753326,435.277008 336.753326,440.664001 
	C335.672516,440.765137 334.419006,440.982574 333.165131,440.984589 
	C318.504700,441.008453 303.844177,441.013733 289.183746,440.993439 
	C282.960693,440.984802 281.006561,439.006256 281.005463,432.706116 
	C280.996063,379.062134 281.000031,325.418121 281.000000,271.774139 
	C281.000000,269.776672 281.000000,267.779236 281.000000,265.300415 
	C273.178589,265.300415 265.442810,265.300415 257.356384,265.300415 
	C257.356384,259.771454 257.356384,254.710785 257.356384,249.160767 
	C264.964417,249.160767 272.700531,249.160767 281.000000,249.160767 
	C281.000000,246.919144 281.000000,245.148758 281.000000,243.378357 
	C281.000000,197.564392 280.998230,151.750427 281.001862,105.936462 
	C281.002441,98.687057 282.707947,97.003815 290.033081,97.001495 
	C305.497437,96.996597 320.961761,97.000008 336.712036,97.000008 
	C336.712036,102.372253 336.712036,107.431435 336.712036,112.973152 
	C323.560242,112.973152 310.496033,112.973152 297.220917,112.973152 
	C297.220917,158.380173 297.220917,203.309906 297.220917,248.718719 
	C310.179688,248.718719 323.243866,248.718719 336.651825,248.718719 
	C336.651825,254.246887 336.651825,259.306488 336.651825,264.853210 
	C323.683289,264.853210 310.619141,264.853210 297.255188,264.853210 
	C297.149902,266.416748 297.009857,267.527832 297.009644,268.638947 
	C296.998749,319.284210 297.008636,369.929443 296.975983,420.574677 
	C296.974274,423.225647 296.726562,425.790588 301.161530,424.999878 
z"/>
<path fill="#E6E7E7" opacity="1.000000" stroke="none" 
	d="
M473.000671,88.376747 
	C465.866638,88.889420 458.725800,89.131020 451.602997,88.872879 
	C449.743988,88.805511 447.567261,87.566750 446.173676,86.210991 
	C437.251526,77.530975 428.607239,68.563568 419.614716,59.959160 
	C417.933807,58.350761 415.110779,57.189926 412.781677,57.130951 
	C401.169861,56.836914 389.546936,56.979691 377.463593,56.901535 
	C376.999298,49.006809 376.987640,41.179272 377.003113,33.351788 
	C377.015656,27.004002 378.921204,25.009802 385.077393,25.006168 
	C411.724243,24.990444 438.371124,24.989428 465.017975,25.007191 
	C470.921143,25.011126 472.985321,27.071245 472.992432,32.960114 
	C473.014587,51.279774 473.000580,69.599480 473.000671,88.376747 
z"/>
<path fill="#E6E7E7" opacity="1.000000" stroke="none" 
	d="
M473.000671,256.376770 
	C465.866638,256.889435 458.725800,257.131012 451.602997,256.872894 
	C449.743988,256.805511 447.567261,255.566757 446.173676,254.210999 
	C437.251556,245.530960 428.607269,236.563538 419.614716,227.959122 
	C417.933807,226.350723 415.110779,225.189911 412.781677,225.130920 
	C401.169861,224.836899 389.546936,224.979691 377.463593,224.901550 
	C376.999298,217.006821 376.987671,209.179276 377.003113,201.351791 
	C377.015656,195.004013 378.921204,193.009811 385.077362,193.006180 
	C411.724213,192.990463 438.371063,192.989441 465.017914,193.007187 
	C470.921143,193.011124 472.985321,195.071213 472.992432,200.960037 
	C473.014587,219.279724 473.000580,237.599457 473.000671,256.376770 
z"/>
<path fill="#E6E7E7" opacity="1.000000" stroke="none" 
	d="
M473.000671,416.376770 
	C465.866638,416.889435 458.725800,417.131012 451.602997,416.872925 
	C449.743988,416.805542 447.567261,415.566742 446.173676,414.210968 
	C437.251556,405.530914 428.607269,396.563568 419.614685,387.959167 
	C417.933777,386.350769 415.110779,385.189880 412.781677,385.130920 
	C401.169861,384.836884 389.546936,384.979675 377.463593,384.901550 
	C376.999329,377.006836 376.987671,369.179291 377.003113,361.351807 
	C377.015656,355.003998 378.921204,353.009827 385.077393,353.006195 
	C411.724243,352.990479 438.371094,352.989471 465.017944,353.007233 
	C470.921112,353.011169 472.985321,355.071228 472.992432,360.960052 
	C473.014587,379.279724 473.000580,397.599487 473.000671,416.376770 
z"/>
<path fill="#FFD422" opacity="1.000000" stroke="none" 
	d="
M163.011719,277.916229 
	C152.302216,293.921570 134.341095,300.599335 117.194962,295.200562 
	C99.886063,289.750549 88.544815,273.739746 89.010857,255.412216 
	C89.509407,235.806808 105.787384,218.774918 125.661980,217.063614 
	C145.528030,215.353012 164.152039,229.418884 168.102158,248.814194 
	C170.204224,259.135620 168.365829,268.607666 163.011719,277.916229 
z"/>
</svg>