<svg version="1.1" id="Layer_1" xmlns="http://www.w3.org/2000/svg" xmlns:xlink="http://www.w3.org/1999/xlink" x="0px" y="0px"
	 width="100%" viewBox="0 0 512 512" enable-background="new 0 0 512 512" xml:space="preserve">
<path fill="#000000" opacity="0.000000" stroke="none" 
	d="
M304.000000,513.000000 
	C202.691269,513.000000 101.882530,513.000000 1.036899,513.000000 
	C1.036899,342.399567 1.036899,171.799149 1.036899,1.099354 
	C171.558746,1.099354 342.117554,1.099354 512.838196,1.099354 
	C512.838196,171.666550 512.838196,342.333252 512.838196,513.000000 
	C443.465790,513.000000 373.982880,513.000000 304.000000,513.000000 
M470.004028,186.504013 
	C467.529938,184.030518 464.864868,181.717285 462.624756,179.047470 
	C458.878632,174.582748 454.131653,171.193512 448.524658,171.419067 
	C443.928345,171.603973 439.430237,174.230637 434.170319,176.019135 
	C431.237061,174.685089 427.204407,173.044907 423.381683,171.010254 
	C421.992493,170.270859 420.485962,168.760239 420.087555,167.311508 
	C417.442322,157.691879 411.470734,152.420471 401.655060,152.932953 
	C395.009369,153.279938 388.330750,152.966217 381.667236,153.009247 
	C376.019470,153.045700 369.063293,157.322830 368.196259,162.762466 
	C367.071350,169.820099 362.631500,172.339706 356.774384,173.996033 
	C355.852356,174.256775 354.978149,174.907715 354.066711,174.939087 
	C352.137024,175.005508 349.817291,175.436508 348.324463,174.569565 
	C339.629974,169.520370 332.251923,170.252350 325.197998,177.299286 
	C321.191010,181.302261 317.533417,185.751083 313.102722,189.210526 
	C306.947937,194.016068 306.479736,206.147339 310.493500,212.186050 
	C311.410767,213.566040 311.417206,216.067520 310.909760,217.775635 
	C309.690338,221.880035 307.917419,225.820007 306.362488,229.840164 
	C296.799805,230.190720 287.931885,237.417099 288.894379,248.261292 
	C289.466553,254.707672 289.070099,261.247314 288.981049,267.743286 
	C288.871338,275.746307 293.545319,281.469269 299.316101,282.334503 
	C306.779846,283.453583 308.184296,288.150757 309.997131,293.501190 
	C310.152405,293.959534 310.154755,294.522339 310.431519,294.878601 
	C312.605225,297.676697 311.440155,299.896515 309.964355,302.742310 
	C305.968658,310.447266 305.844147,316.695587 312.462799,323.911530 
	C316.737396,328.571899 321.583954,332.711823 325.802826,337.417938 
	C330.147339,342.264191 339.930389,344.496033 346.072998,340.308838 
	C349.676605,337.852295 352.667664,337.652832 356.236450,339.971130 
	C358.097198,341.179840 360.459686,341.622711 362.301147,342.852417 
	C363.766968,343.831238 365.387024,345.282166 365.904144,346.862091 
	C368.774139,355.630310 374.097076,361.618530 384.000031,361.072845 
	C390.809723,360.697601 397.660797,361.143555 404.485840,360.952637 
	C409.348877,360.816589 413.792023,359.298218 416.024658,354.495911 
	C417.689209,350.915558 417.986786,346.213684 420.543488,343.670105 
	C423.125000,341.101807 427.661957,340.277191 431.496002,339.279510 
	C433.536804,338.748474 436.341797,338.732361 438.046631,339.749603 
	C445.582062,344.245850 453.876923,343.579071 460.092957,337.412689 
	C464.232117,333.306549 468.340454,329.169403 472.463806,325.047363 
	C479.510040,318.003326 480.275604,309.736206 474.832458,301.228149 
	C474.209412,300.254272 473.872803,298.606537 474.244751,297.574524 
	C475.601013,293.811676 477.186829,290.114105 478.970093,286.533325 
	C479.507812,285.453613 480.859772,284.328125 482.021210,284.081085 
	C492.120850,281.932648 497.771820,275.576599 497.077606,264.828278 
	C496.659698,258.358093 497.063324,251.838104 496.983063,245.341919 
	C496.905518,239.067337 491.887329,231.869171 485.816376,231.236740 
	C480.282501,230.660294 478.823334,227.096191 477.051117,223.213852 
	C476.388275,221.761826 476.108185,220.096237 475.268860,218.771866 
	C473.635468,216.194595 474.145447,214.110687 475.724213,211.664703 
	C478.183594,207.854370 479.321167,204.012787 478.321167,198.971115 
	C477.241272,193.526596 473.857147,190.486496 470.004028,186.504013 
M411.600342,408.000153 
	C427.529755,406.669067 442.505737,401.800110 457.023102,395.443176 
	C470.271027,389.642059 482.195831,381.622498 493.136719,372.238831 
	C498.238983,367.862854 502.724640,362.767883 507.333771,358.154907 
	C502.448547,354.051239 498.119934,350.415131 494.423218,347.309784 
	C488.422516,352.882324 483.154327,358.617218 477.063995,363.277649 
	C456.035278,379.369171 432.276794,389.375916 405.880707,391.810516 
	C391.149353,393.169250 376.169922,392.620605 361.720428,388.817871 
	C337.042206,382.323151 315.163788,370.574402 296.954102,352.433624 
	C293.271851,348.765289 288.309723,347.518372 285.031464,349.458649 
	C281.252563,351.695160 280.222626,355.631989 281.554810,361.172363 
	C283.173676,367.904938 284.436859,374.722565 286.027039,381.462585 
	C287.860565,389.233887 289.883118,396.960571 291.856903,404.839630 
	C296.161377,403.824371 300.001434,402.773438 303.901581,402.043518 
	C307.174164,401.430969 308.802917,400.622437 307.411011,396.601379 
	C305.732605,391.752441 305.058594,386.555847 303.800354,380.829620 
	C318.849182,391.418884 334.450684,398.816284 351.285400,403.716583 
	C369.349884,408.974854 387.828857,409.493744 406.419006,408.960846 
	C407.846222,408.919891 409.257904,408.335663 411.600342,408.000153 
M310.965271,128.539490 
	C298.386536,135.256409 288.814941,145.464218 278.857391,155.792328 
	C282.135895,158.564484 285.449921,160.822861 288.057587,163.717545 
	C290.930206,166.906342 292.667694,166.015930 295.239960,163.391663 
	C299.739075,158.801651 304.312683,154.173508 309.424286,150.315521 
	C326.024902,137.786148 344.195129,128.328339 364.877625,124.645988 
	C374.158813,122.993546 383.564026,121.683731 392.964355,121.183365 
	C398.911926,120.866783 404.951569,122.357361 410.954712,122.991821 
	C425.199310,124.497292 438.619415,128.764526 451.514923,134.891479 
	C465.748871,141.654373 478.271942,150.782455 489.409058,161.882919 
	C492.462585,164.926407 498.428436,166.288544 501.037384,164.405457 
	C504.800446,161.689377 505.769867,157.817047 504.764099,153.453705 
	C501.545654,139.491272 498.301666,125.534027 494.882568,111.620239 
	C494.672119,110.763756 492.768982,109.638367 491.814117,109.773521 
	C488.476227,110.245987 485.239532,111.647461 481.906616,111.885109 
	C478.073181,112.158440 477.524719,113.633530 478.439728,116.991943 
	C479.832275,122.102997 480.847443,127.316879 482.156494,133.074722 
	C430.658081,96.200844 361.221710,96.018745 310.965271,128.539490 
M29.519466,213.000000 
	C26.686995,212.999985 23.854408,212.983414 21.022078,213.003372 
	C15.009672,213.045746 13.014956,214.957993 13.009380,220.870743 
	C12.986757,244.863815 12.991488,268.856934 13.005818,292.850037 
	C13.009533,299.067291 14.962284,300.991913 21.248671,300.995117 
	C45.075153,301.007294 68.901642,301.007111 92.728134,300.995178 
	C99.033661,300.992035 100.990044,299.076721 100.993942,292.873322 
	C101.008919,269.046844 101.006241,245.220352 100.995979,221.393875 
	C100.993149,214.823120 99.147148,213.006073 92.495354,213.003235 
	C71.834625,212.994400 51.173893,212.999985 29.519466,213.000000 
M22.493736,458.996155 
	C24.319544,460.663361 26.050974,462.450195 27.987085,463.977600 
	C37.696266,471.637268 48.912685,473.635559 60.982021,473.067596 
	C71.802147,472.558472 81.002144,468.571045 89.000511,461.500793 
	C101.085480,450.818054 105.606880,437.404907 105.196335,421.338623 
	C104.745224,403.684387 90.315681,385.487244 74.818253,379.787872 
	C67.114357,376.954651 59.372635,376.318848 51.660664,377.228699 
	C45.275181,377.982056 38.424519,379.581116 33.005531,382.842133 
	C16.605747,392.711182 8.063982,407.248566 8.857575,427.068817 
	C9.351909,439.414948 13.464918,449.748047 22.493736,458.996155 
M36.958878,70.383987 
	C27.931955,88.433670 18.801746,106.432785 9.929648,124.558250 
	C6.447958,131.671249 9.923315,136.995590 17.609627,136.997787 
	C43.608913,137.005264 69.608200,137.001480 95.607483,137.000153 
	C104.356773,136.999710 107.742462,131.383041 103.753937,123.383911 
	C90.792564,97.389465 77.769508,71.425682 64.863823,45.403664 
	C63.166840,41.981995 60.666054,40.908657 57.041103,40.930161 
	C53.448978,40.951473 50.838524,41.887360 49.165245,45.362881 
	C45.244419,53.506721 41.095615,61.540802 36.958878,70.383987 
M232.530228,224.999908 
	C245.952530,224.999908 259.374847,224.999908 272.692413,224.999908 
	C272.692413,219.327682 272.692413,214.258636 272.692413,208.973770 
	C259.094971,208.973770 245.803314,208.973770 232.249054,208.973770 
	C230.478027,199.639511 228.753998,190.468643 226.995468,181.304398 
	C224.376175,167.654404 221.657913,154.022888 219.124252,140.357117 
	C217.295853,130.495285 215.796967,120.572380 213.969025,110.710464 
	C212.443359,102.479324 210.950836,94.216957 208.775024,86.148727 
	C208.218140,84.083664 205.164688,81.275421 203.200928,81.228958 
	C186.601349,80.836128 169.988449,81.004776 153.221924,81.004776 
	C153.221924,86.497803 153.221924,91.565628 153.221924,97.001709 
	C166.864990,97.001709 180.292618,97.001709 193.737015,97.001709 
	C195.536362,106.390366 197.324081,115.416107 198.986710,124.464836 
	C201.442703,137.831482 203.760269,151.223618 206.227646,164.588104 
	C209.100922,180.151047 211.769424,195.760986 215.095535,211.228226 
	C217.809586,223.849075 216.306595,225.582565 230.545212,225.001617 
	C230.877792,224.988052 231.211441,224.999908 232.530228,224.999908 
M226.995911,333.392975 
	C228.735474,323.925476 230.475037,314.457977 232.242096,304.840820 
	C246.063492,304.840820 259.339661,304.840820 272.780457,304.840820 
	C272.780457,299.508392 272.780457,294.440002 272.780457,289.001038 
	C256.111237,289.001038 239.658859,288.990479 223.206528,289.009583 
	C219.743896,289.013611 217.687332,291.087769 217.069489,294.204010 
	C215.218079,303.542206 213.711594,312.948517 211.886642,322.292297 
	C209.007919,337.031555 205.847183,351.716492 203.049377,366.470581 
	C199.865738,383.259338 196.949600,400.098755 193.860229,417.232056 
	C182.629379,417.232056 171.886093,417.232056 161.334900,417.232056 
	C161.334900,422.728485 161.334900,427.798248 161.334900,433.000000 
	C174.820419,433.000000 187.971863,432.946198 201.122421,433.030487 
	C205.451691,433.058228 208.260010,431.610779 209.058517,426.992615 
	C210.624573,417.935120 212.319931,408.899078 214.049164,399.870911 
	C216.660950,386.235016 219.332077,372.610413 222.008133,358.986938 
	C223.627411,350.743439 225.303635,342.511108 226.995911,333.392975 
M180.500427,249.000000 
	C174.070343,249.000000 167.640259,249.000000 161.301025,249.000000 
	C161.301025,254.659134 161.301025,259.728088 161.301025,264.707214 
	C195.993057,264.707214 230.384064,264.707214 264.698975,264.707214 
	C264.698975,259.340942 264.698975,254.271988 264.698975,249.000000 
	C236.765732,249.000000 209.132965,249.000000 180.500427,249.000000 
M129.000015,253.609406 
	C129.000015,257.361328 129.000015,261.113281 129.000015,264.667297 
	C134.732590,264.667297 139.801239,264.667297 144.664062,264.667297 
	C144.664062,259.260559 144.664062,254.191467 144.664062,249.000183 
	C140.344009,249.000183 136.344696,249.208694 132.379089,248.932816 
	C129.322937,248.720200 128.604477,250.023544 129.000015,253.609406 
M121.000015,86.580887 
	C121.000015,90.004158 121.000015,93.427422 121.000015,96.678116 
	C126.711601,96.678116 131.777039,96.678116 136.675674,96.678116 
	C136.675674,91.284645 136.675674,86.217468 136.675674,81.150162 
	C131.403137,81.150162 126.455956,81.150162 121.000015,81.150162 
	C121.000015,82.731728 121.000015,84.170570 121.000015,86.580887 
M129.753571,417.066925 
	C129.404572,422.237183 129.055557,427.407471 128.692429,432.787201 
	C134.485580,432.787201 139.550690,432.787201 144.784195,432.787201 
	C144.784195,427.508179 144.784195,422.443054 144.784195,417.005402 
	C139.957458,417.005402 135.337524,417.005402 129.753571,417.066925 
z"/>
<path fill="#FEF9C1" opacity="1.000000" stroke="none" 
	d="
M470.256226,186.754272 
	C473.857147,190.486496 477.241272,193.526596 478.321167,198.971115 
	C479.321167,204.012787 478.183594,207.854370 475.724213,211.664703 
	C474.145447,214.110687 473.635468,216.194595 475.268860,218.771866 
	C476.108185,220.096237 476.388275,221.761826 477.051117,223.213852 
	C478.823334,227.096191 480.282501,230.660294 485.816376,231.236740 
	C491.887329,231.869171 496.905518,239.067337 496.983063,245.341919 
	C497.063324,251.838104 496.659698,258.358093 497.077606,264.828278 
	C497.771820,275.576599 492.120850,281.932648 482.021210,284.081085 
	C480.859772,284.328125 479.507812,285.453613 478.970093,286.533325 
	C477.186829,290.114105 475.601013,293.811676 474.244751,297.574524 
	C473.872803,298.606537 474.209412,300.254272 474.832458,301.228149 
	C480.275604,309.736206 479.510040,318.003326 472.463806,325.047363 
	C468.340454,329.169403 464.232117,333.306549 460.092957,337.412689 
	C453.876923,343.579071 445.582062,344.245850 438.046631,339.749603 
	C436.341797,338.732361 433.536804,338.748474 431.496002,339.279510 
	C427.661957,340.277191 423.125000,341.101807 420.543488,343.670105 
	C417.986786,346.213684 417.689209,350.915558 416.024658,354.495911 
	C413.792023,359.298218 409.348877,360.816589 404.485840,360.952637 
	C397.660797,361.143555 390.809723,360.697601 384.000031,361.072845 
	C374.097076,361.618530 368.774139,355.630310 365.904144,346.862091 
	C365.387024,345.282166 363.766968,343.831238 362.301147,342.852417 
	C360.459686,341.622711 358.097198,341.179840 356.236450,339.971130 
	C352.667664,337.652832 349.676605,337.852295 346.072998,340.308838 
	C339.930389,344.496033 330.147339,342.264191 325.802826,337.417938 
	C321.583954,332.711823 316.737396,328.571899 312.462799,323.911530 
	C305.844147,316.695587 305.968658,310.447266 309.964355,302.742310 
	C311.440155,299.896515 312.605225,297.676697 310.431519,294.878601 
	C310.154755,294.522339 310.152405,293.959534 309.997131,293.501190 
	C308.184296,288.150757 306.779846,283.453583 299.316101,282.334503 
	C293.545319,281.469269 288.871338,275.746307 288.981049,267.743286 
	C289.070099,261.247314 289.466553,254.707672 288.894379,248.261292 
	C287.931885,237.417099 296.799805,230.190720 306.362488,229.840164 
	C307.917419,225.820007 309.690338,221.880035 310.909760,217.775635 
	C311.417206,216.067520 311.410767,213.566040 310.493500,212.186050 
	C306.479736,206.147339 306.947937,194.016068 313.102722,189.210526 
	C317.533417,185.751083 321.191010,181.302261 325.197998,177.299286 
	C332.251923,170.252350 339.629974,169.520370 348.324463,174.569565 
	C349.817291,175.436508 352.137024,175.005508 354.066711,174.939087 
	C354.978149,174.907715 355.852356,174.256775 356.774384,173.996033 
	C362.631500,172.339706 367.071350,169.820099 368.196259,162.762466 
	C369.063293,157.322830 376.019470,153.045700 381.667236,153.009247 
	C388.330750,152.966217 395.009369,153.279938 401.655060,152.932953 
	C411.470734,152.420471 417.442322,157.691879 420.087555,167.311508 
	C420.485962,168.760239 421.992493,170.270859 423.381683,171.010254 
	C427.204407,173.044907 431.237061,174.685089 434.170319,176.019135 
	C439.430237,174.230637 443.928345,171.603973 448.524658,171.419067 
	C454.131653,171.193512 458.878632,174.582748 462.624756,179.047470 
	C464.864868,181.717285 467.529938,184.030518 470.256226,186.754272 
M474.092041,268.280579 
	C476.299316,267.714722 478.506561,267.148865 480.745605,266.574829 
	C480.745605,259.974640 480.745605,253.687119 480.745605,248.221802 
	C476.294281,245.984604 471.199158,244.952805 468.637573,241.837692 
	C462.058960,233.837479 458.264374,224.194016 457.026489,213.811203 
	C456.771210,211.670273 457.797729,209.251404 458.666260,207.138519 
	C459.456635,205.215790 460.835114,203.534821 462.349426,201.116364 
	C457.405304,196.733932 452.569794,192.447784 447.533875,187.984009 
	C440.704163,194.530350 432.530762,194.440231 423.921417,189.549271 
	C422.340210,188.650986 420.639679,187.840729 418.891449,187.378693 
	C409.560883,184.912720 403.656738,179.431549 402.965302,169.210358 
	C396.228912,169.210358 389.784790,169.210358 384.974365,169.210358 
	C381.546326,174.587158 379.656921,180.527298 375.607574,183.223267 
	C369.091278,187.561707 361.345428,190.485718 353.723877,192.543564 
	C350.085388,193.525970 345.509827,191.259491 341.420258,190.221970 
	C340.092194,189.885056 338.959564,188.777863 338.467926,188.474167 
	C333.516388,193.399719 328.960449,197.931747 324.174194,202.692856 
	C330.461945,209.736664 330.315155,217.652710 325.649323,225.876587 
	C324.996185,227.027771 324.388733,228.255356 324.047150,229.524780 
	C321.415558,239.305695 316.266418,246.426834 305.285797,247.103928 
	C305.285797,253.992157 305.285797,260.403351 305.285797,267.075226 
	C315.637299,267.797638 320.979462,273.905090 323.504547,283.130768 
	C323.809937,284.246613 324.213623,285.372650 324.783936,286.373016 
	C329.792206,295.158051 331.488281,303.839081 323.220001,312.350677 
	C328.545319,317.103882 333.383545,321.422333 338.402313,325.901917 
	C344.978302,319.647705 352.941467,319.554016 361.503418,324.189423 
	C364.552002,325.839966 367.946228,326.858826 371.199219,328.123566 
	C377.255524,330.478241 381.092651,334.661499 382.210114,341.190552 
	C382.423523,342.437256 382.927429,343.634216 383.283661,344.809021 
	C389.914764,344.809021 396.205200,344.809021 402.952240,344.809021 
	C403.455048,334.025909 410.248169,328.924438 419.634979,326.214966 
	C420.907806,325.847565 422.212769,325.425751 423.343933,324.759369 
	C431.772919,319.793427 439.981750,319.163544 447.321716,325.874756 
	C452.320312,320.926575 456.979706,316.314178 461.472046,311.867126 
	C460.109863,309.117493 458.262878,306.442566 457.415558,303.481598 
	C454.862701,294.560791 464.974213,272.872162 474.092041,268.280579 
z"/>
<path fill="#FFF9C1" opacity="1.000000" stroke="none" 
	d="
M411.138550,408.002075 
	C409.257904,408.335663 407.846222,408.919891 406.419006,408.960846 
	C387.828857,409.493744 369.349884,408.974854 351.285400,403.716583 
	C334.450684,398.816284 318.849182,391.418884 303.800354,380.829620 
	C305.058594,386.555847 305.732605,391.752441 307.411011,396.601379 
	C308.802917,400.622437 307.174164,401.430969 303.901581,402.043518 
	C300.001434,402.773438 296.161377,403.824371 291.856903,404.839630 
	C289.883118,396.960571 287.860565,389.233887 286.027039,381.462585 
	C284.436859,374.722565 283.173676,367.904938 281.554810,361.172363 
	C280.222626,355.631989 281.252563,351.695160 285.031464,349.458649 
	C288.309723,347.518372 293.271851,348.765289 296.954102,352.433624 
	C315.163788,370.574402 337.042206,382.323151 361.720428,388.817871 
	C376.169922,392.620605 391.149353,393.169250 405.880707,391.810516 
	C432.276794,389.375916 456.035278,379.369171 477.063995,363.277649 
	C483.154327,358.617218 488.422516,352.882324 494.423218,347.309784 
	C498.119934,350.415131 502.448547,354.051239 507.333771,358.154907 
	C502.724640,362.767883 498.238983,367.862854 493.136719,372.238831 
	C482.195831,381.622498 470.271027,389.642059 457.023102,395.443176 
	C442.505737,401.800110 427.529755,406.669067 411.138550,408.002075 
z"/>
<path fill="#FFF9C1" opacity="1.000000" stroke="none" 
	d="
M311.228394,128.272324 
	C361.221710,96.018745 430.658081,96.200844 482.156494,133.074722 
	C480.847443,127.316879 479.832275,122.102997 478.439728,116.991943 
	C477.524719,113.633530 478.073181,112.158440 481.906616,111.885109 
	C485.239532,111.647461 488.476227,110.245987 491.814117,109.773521 
	C492.768982,109.638367 494.672119,110.763756 494.882568,111.620239 
	C498.301666,125.534027 501.545654,139.491272 504.764099,153.453705 
	C505.769867,157.817047 504.800446,161.689377 501.037384,164.405457 
	C498.428436,166.288544 492.462585,164.926407 489.409058,161.882919 
	C478.271942,150.782455 465.748871,141.654373 451.514923,134.891479 
	C438.619415,128.764526 425.199310,124.497292 410.954712,122.991821 
	C404.951569,122.357361 398.911926,120.866783 392.964355,121.183365 
	C383.564026,121.683731 374.158813,122.993546 364.877625,124.645988 
	C344.195129,128.328339 326.024902,137.786148 309.424286,150.315521 
	C304.312683,154.173508 299.739075,158.801651 295.239960,163.391663 
	C292.667694,166.015930 290.930206,166.906342 288.057587,163.717545 
	C285.449921,160.822861 282.135895,158.564484 278.857391,155.792328 
	C288.814941,145.464218 298.386536,135.256409 311.228394,128.272324 
z"/>
<path fill="#FFF9C1" opacity="1.000000" stroke="none" 
	d="
M30.016314,213.000000 
	C51.173893,212.999985 71.834625,212.994400 92.495354,213.003235 
	C99.147148,213.006073 100.993149,214.823120 100.995979,221.393875 
	C101.006241,245.220352 101.008919,269.046844 100.993942,292.873322 
	C100.990044,299.076721 99.033661,300.992035 92.728134,300.995178 
	C68.901642,301.007111 45.075153,301.007294 21.248671,300.995117 
	C14.962284,300.991913 13.009533,299.067291 13.005818,292.850037 
	C12.991488,268.856934 12.986757,244.863815 13.009380,220.870743 
	C13.014956,214.957993 15.009672,213.045746 21.022078,213.003372 
	C23.854408,212.983414 26.686995,212.999985 30.016314,213.000000 
M84.916313,230.883881 
	C83.413612,230.256104 81.915459,229.095551 80.407509,229.082703 
	C64.767784,228.949295 49.125595,229.089157 33.486294,228.932800 
	C29.993910,228.897888 28.897749,229.991531 28.932718,233.485321 
	C29.089249,249.124619 29.121256,264.767944 28.915968,280.406128 
	C28.864517,284.325439 30.331226,285.105194 33.877392,285.068512 
	C49.350212,284.908447 64.826996,284.888733 80.299126,285.079132 
	C84.074448,285.125549 85.116371,283.914307 85.075127,280.229645 
	C84.894470,264.091614 84.988770,247.950485 84.916313,230.883881 
z"/>
<path fill="#FFF8C1" opacity="1.000000" stroke="none" 
	d="
M22.242882,458.742126 
	C13.464918,449.748047 9.351909,439.414948 8.857575,427.068817 
	C8.063982,407.248566 16.605747,392.711182 33.005531,382.842133 
	C38.424519,379.581116 45.275181,377.982056 51.660664,377.228699 
	C59.372635,376.318848 67.114357,376.954651 74.818253,379.787872 
	C90.315681,385.487244 104.745224,403.684387 105.196335,421.338623 
	C105.606880,437.404907 101.085480,450.818054 89.000511,461.500793 
	C81.002144,468.571045 71.802147,472.558472 60.982021,473.067596 
	C48.912685,473.635559 37.696266,471.637268 27.987085,463.977600 
	C26.050974,462.450195 24.319544,460.663361 22.242882,458.742126 
M47.261322,394.493286 
	C46.336590,394.871765 45.406143,395.236908 44.487980,395.630737 
	C29.670467,401.986298 21.924454,417.932007 26.108337,433.458954 
	C30.102648,448.282349 45.273827,458.695465 60.244251,456.888977 
	C76.759056,454.896179 88.937714,441.419708 88.991127,425.063538 
	C89.059219,404.212097 69.088257,388.263367 47.261322,394.493286 
z"/>
<path fill="#FFF9C1" opacity="1.000000" stroke="none" 
	d="
M36.998993,70.001648 
	C41.095615,61.540802 45.244419,53.506721 49.165245,45.362881 
	C50.838524,41.887360 53.448978,40.951473 57.041103,40.930161 
	C60.666054,40.908657 63.166840,41.981995 64.863823,45.403664 
	C77.769508,71.425682 90.792564,97.389465 103.753937,123.383911 
	C107.742462,131.383041 104.356773,136.999710 95.607483,137.000153 
	C69.608200,137.001480 43.608913,137.005264 17.609627,136.997787 
	C9.923315,136.995590 6.447958,131.671249 9.929648,124.558250 
	C18.801746,106.432785 27.931955,88.433670 36.998993,70.001648 
M72.456345,121.001633 
	C76.039742,121.001633 79.623131,121.001633 84.029243,121.001633 
	C74.920967,102.795265 66.218323,85.399712 56.992401,66.958183 
	C47.686607,85.587852 38.995995,102.985977 29.996908,121.001640 
	C44.538086,121.001640 58.004608,121.001640 72.456345,121.001633 
z"/>
<path fill="#FFF9C1" opacity="1.000000" stroke="none" 
	d="
M232.037415,224.999908 
	C231.211441,224.999908 230.877792,224.988052 230.545212,225.001617 
	C216.306595,225.582565 217.809586,223.849075 215.095535,211.228226 
	C211.769424,195.760986 209.100922,180.151047 206.227646,164.588104 
	C203.760269,151.223618 201.442703,137.831482 198.986710,124.464836 
	C197.324081,115.416107 195.536362,106.390366 193.737015,97.001709 
	C180.292618,97.001709 166.864990,97.001709 153.221924,97.001709 
	C153.221924,91.565628 153.221924,86.497803 153.221924,81.004776 
	C169.988449,81.004776 186.601349,80.836128 203.200928,81.228958 
	C205.164688,81.275421 208.218140,84.083664 208.775024,86.148727 
	C210.950836,94.216957 212.443359,102.479324 213.969025,110.710464 
	C215.796967,120.572380 217.295853,130.495285 219.124252,140.357117 
	C221.657913,154.022888 224.376175,167.654404 226.995468,181.304398 
	C228.753998,190.468643 230.478027,199.639511 232.249054,208.973770 
	C245.803314,208.973770 259.094971,208.973770 272.692413,208.973770 
	C272.692413,214.258636 272.692413,219.327682 272.692413,224.999908 
	C259.374847,224.999908 245.952530,224.999908 232.037415,224.999908 
z"/>
<path fill="#FFF9C1" opacity="1.000000" stroke="none" 
	d="
M226.975098,333.833374 
	C225.303635,342.511108 223.627411,350.743439 222.008133,358.986938 
	C219.332077,372.610413 216.660950,386.235016 214.049164,399.870911 
	C212.319931,408.899078 210.624573,417.935120 209.058517,426.992615 
	C208.260010,431.610779 205.451691,433.058228 201.122421,433.030487 
	C187.971863,432.946198 174.820419,433.000000 161.334900,433.000000 
	C161.334900,427.798248 161.334900,422.728485 161.334900,417.232056 
	C171.886093,417.232056 182.629379,417.232056 193.860229,417.232056 
	C196.949600,400.098755 199.865738,383.259338 203.049377,366.470581 
	C205.847183,351.716492 209.007919,337.031555 211.886642,322.292297 
	C213.711594,312.948517 215.218079,303.542206 217.069489,294.204010 
	C217.687332,291.087769 219.743896,289.013611 223.206528,289.009583 
	C239.658859,288.990479 256.111237,289.001038 272.780457,289.001038 
	C272.780457,294.440002 272.780457,299.508392 272.780457,304.840820 
	C259.339661,304.840820 246.063492,304.840820 232.242096,304.840820 
	C230.475037,314.457977 228.735474,323.925476 226.975098,333.833374 
z"/>
<path fill="#FFF9C1" opacity="1.000000" stroke="none" 
	d="
M181.000305,249.000000 
	C209.132965,249.000000 236.765732,249.000000 264.698975,249.000000 
	C264.698975,254.271988 264.698975,259.340942 264.698975,264.707214 
	C230.384064,264.707214 195.993057,264.707214 161.301025,264.707214 
	C161.301025,259.728088 161.301025,254.659134 161.301025,249.000000 
	C167.640259,249.000000 174.070343,249.000000 181.000305,249.000000 
z"/>
<path fill="#FFF9C1" opacity="1.000000" stroke="none" 
	d="
M129.000031,253.127686 
	C128.604477,250.023544 129.322937,248.720200 132.379089,248.932816 
	C136.344696,249.208694 140.344009,249.000183 144.664062,249.000183 
	C144.664062,254.191467 144.664062,259.260559 144.664062,264.667297 
	C139.801239,264.667297 134.732590,264.667297 129.000015,264.667297 
	C129.000015,261.113281 129.000015,257.361328 129.000031,253.127686 
z"/>
<path fill="#FFF9C1" opacity="1.000000" stroke="none" 
	d="
M121.000015,86.095154 
	C121.000015,84.170570 121.000015,82.731728 121.000015,81.150162 
	C126.455956,81.150162 131.403137,81.150162 136.675674,81.150162 
	C136.675674,86.217468 136.675674,91.284645 136.675674,96.678116 
	C131.777039,96.678116 126.711601,96.678116 121.000015,96.678116 
	C121.000015,93.427422 121.000015,90.004158 121.000015,86.095154 
z"/>
<path fill="#FFF9C1" opacity="1.000000" stroke="none" 
	d="
M130.235565,417.036163 
	C135.337524,417.005402 139.957458,417.005402 144.784195,417.005402 
	C144.784195,422.443054 144.784195,427.508179 144.784195,432.787201 
	C139.550690,432.787201 134.485580,432.787201 128.692429,432.787201 
	C129.055557,427.407471 129.404572,422.237183 130.235565,417.036163 
z"/>
<path fill="#5F9AF6" opacity="1.000000" stroke="none" 
	d="
M473.738800,268.446930 
	C464.974213,272.872162 454.862701,294.560791 457.415558,303.481598 
	C458.262878,306.442566 460.109863,309.117493 461.472046,311.867126 
	C456.979706,316.314178 452.320312,320.926575 447.321716,325.874756 
	C439.981750,319.163544 431.772919,319.793427 423.343933,324.759369 
	C422.212769,325.425751 420.907806,325.847565 419.634979,326.214966 
	C410.248169,328.924438 403.455048,334.025909 402.952240,344.809021 
	C396.205200,344.809021 389.914764,344.809021 383.283661,344.809021 
	C382.927429,343.634216 382.423523,342.437256 382.210114,341.190552 
	C381.092651,334.661499 377.255524,330.478241 371.199219,328.123566 
	C367.946228,326.858826 364.552002,325.839966 361.503418,324.189423 
	C352.941467,319.554016 344.978302,319.647705 338.402313,325.901917 
	C333.383545,321.422333 328.545319,317.103882 323.220001,312.350677 
	C331.488281,303.839081 329.792206,295.158051 324.783936,286.373016 
	C324.213623,285.372650 323.809937,284.246613 323.504547,283.130768 
	C320.979462,273.905090 315.637299,267.797638 305.285797,267.075226 
	C305.285797,260.403351 305.285797,253.992157 305.285797,247.103928 
	C316.266418,246.426834 321.415558,239.305695 324.047150,229.524780 
	C324.388733,228.255356 324.996185,227.027771 325.649323,225.876587 
	C330.315155,217.652710 330.461945,209.736664 324.174194,202.692856 
	C328.960449,197.931747 333.516388,193.399719 338.467926,188.474167 
	C338.959564,188.777863 340.092194,189.885056 341.420258,190.221970 
	C345.509827,191.259491 350.085388,193.525970 353.723877,192.543564 
	C361.345428,190.485718 369.091278,187.561707 375.607574,183.223267 
	C379.656921,180.527298 381.546326,174.587158 384.974365,169.210358 
	C389.784790,169.210358 396.228912,169.210358 402.965302,169.210358 
	C403.656738,179.431549 409.560883,184.912720 418.891449,187.378693 
	C420.639679,187.840729 422.340210,188.650986 423.921417,189.549271 
	C432.530762,194.440231 440.704163,194.530350 447.533875,187.984009 
	C452.569794,192.447784 457.405304,196.733932 462.349426,201.116364 
	C460.835114,203.534821 459.456635,205.215790 458.666260,207.138519 
	C457.797729,209.251404 456.771210,211.670273 457.026489,213.811203 
	C458.264374,224.194016 462.058960,233.837479 468.637573,241.837692 
	C471.199158,244.952805 476.294281,245.984604 480.745605,248.221802 
	C480.745605,253.687119 480.745605,259.974640 480.745605,266.574829 
	C478.506561,267.148865 476.299316,267.714722 473.738800,268.446930 
M397.170013,312.880249 
	C432.695923,309.721527 453.203674,277.240631 448.237061,247.989578 
	C443.469025,219.907883 418.684784,199.680466 389.540649,201.091156 
	C362.076874,202.420517 338.576477,225.843246 337.096802,253.361679 
	C335.277832,287.190125 361.691956,313.781219 397.170013,312.880249 
z"/>
<path fill="#F9DE79" opacity="1.000000" stroke="none" 
	d="
M84.949821,231.347183 
	C84.988770,247.950485 84.894470,264.091614 85.075127,280.229645 
	C85.116371,283.914307 84.074448,285.125549 80.299126,285.079132 
	C64.826996,284.888733 49.350212,284.908447 33.877392,285.068512 
	C30.331226,285.105194 28.864517,284.325439 28.915968,280.406128 
	C29.121256,264.767944 29.089249,249.124619 28.932718,233.485321 
	C28.897749,229.991531 29.993910,228.897888 33.486294,228.932800 
	C49.125595,229.089157 64.767784,228.949295 80.407509,229.082703 
	C81.915459,229.095551 83.413612,230.256104 84.949821,231.347183 
z"/>
<path fill="#ED7C7A" opacity="1.000000" stroke="none" 
	d="
M47.643539,394.355713 
	C69.088257,388.263367 89.059219,404.212097 88.991127,425.063538 
	C88.937714,441.419708 76.759056,454.896179 60.244251,456.888977 
	C45.273827,458.695465 30.102648,448.282349 26.108337,433.458954 
	C21.924454,417.932007 29.670467,401.986298 44.487980,395.630737 
	C45.406143,395.236908 46.336590,394.871765 47.643539,394.355713 
z"/>
<path fill="#81C878" opacity="1.000000" stroke="none" 
	d="
M71.963737,121.001633 
	C58.004608,121.001640 44.538086,121.001640 29.996908,121.001640 
	C38.995995,102.985977 47.686607,85.587852 56.992401,66.958183 
	C66.218323,85.399712 74.920967,102.795265 84.029243,121.001633 
	C79.623131,121.001633 76.039742,121.001633 71.963737,121.001633 
z"/>
<path fill="#FDF8C2" opacity="1.000000" stroke="none" 
	d="
M396.709106,312.894836 
	C361.691956,313.781219 335.277832,287.190125 337.096802,253.361679 
	C338.576477,225.843246 362.076874,202.420517 389.540649,201.091156 
	C418.684784,199.680466 443.469025,219.907883 448.237061,247.989578 
	C453.203674,277.240631 432.695923,309.721527 396.709106,312.894836 
M355.937134,269.487579 
	C358.247253,277.623291 363.459045,283.419067 370.011505,288.626831 
	C386.953888,302.092255 415.241302,297.308044 427.149200,276.544312 
	C436.305664,260.578369 432.181824,237.169678 416.225525,225.344284 
	C398.457214,212.176010 368.795868,216.704865 357.839996,239.477036 
	C353.194641,249.132507 353.160583,258.823578 355.937134,269.487579 
z"/>
<path fill="#000000" opacity="1.000000" stroke="none" 
	d="
M355.648499,269.182129 
	C353.160583,258.823578 353.194641,249.132507 357.839996,239.477036 
	C368.795868,216.704865 398.457214,212.176010 416.225525,225.344284 
	C432.181824,237.169678 436.305664,260.578369 427.149200,276.544312 
	C415.241302,297.308044 386.953888,302.092255 370.011505,288.626831 
	C363.459045,283.419067 358.247253,277.623291 355.648499,269.182129 
z"/>
</svg>