<svg version="1.1" id="Layer_1" xmlns="http://www.w3.org/2000/svg" xmlns:xlink="http://www.w3.org/1999/xlink" x="0px" y="0px"
	 width="100%" viewBox="0 0 512 512" enable-background="new 0 0 512 512" xml:space="preserve">
<path fill="#000000" opacity="0.000000" stroke="none" 
	d="
M513.000000,185.000000 
	C513.000000,294.640015 513.000000,403.780029 513.000000,512.960022 
	C342.401642,512.960022 171.803268,512.960022 1.102453,512.960022 
	C1.102453,342.443359 1.102453,171.886612 1.102453,1.164938 
	C171.666534,1.164938 342.333252,1.164938 513.000000,1.164938 
	C513.000000,62.196690 513.000000,123.348343 513.000000,185.000000 
M66.869072,487.010986 
	C76.177696,483.402649 82.447670,476.645721 87.553871,467.972992 
	C89.275528,467.540314 91.000366,467.119873 92.718384,466.673187 
	C123.054695,458.785492 153.373611,450.830261 183.730377,443.022095 
	C215.808685,434.771149 247.916962,426.636353 280.025208,418.502380 
	C288.949463,416.241608 297.919983,414.163635 307.141846,412.630035 
	C320.066742,425.969940 335.805573,430.615570 353.789276,426.881470 
	C363.083557,424.951630 371.380798,420.076599 377.411316,412.845093 
	C389.679382,398.133820 392.309601,381.310669 386.606964,362.808136 
	C392.863739,354.246735 399.045166,345.628967 405.394165,337.136505 
	C416.215118,322.662445 427.162445,308.282990 438.017792,293.834503 
	C450.729431,276.915253 463.399353,259.964661 476.868073,243.003693 
	C487.973267,240.509094 495.181854,233.604599 499.332794,223.206909 
	C503.858826,211.869659 499.331360,197.108932 490.065796,189.320831 
	C482.225250,182.730560 473.507324,181.405853 463.332581,181.851120 
	C454.591522,174.103409 445.897095,166.302292 437.098175,158.620880 
	C424.728424,147.822144 412.268188,137.127106 399.872711,126.357742 
	C394.160797,121.395157 388.553955,116.311295 382.823425,111.370659 
	C371.267395,101.407501 359.653168,91.511841 348.074554,81.574883 
	C337.742523,72.707794 327.426056,63.822617 317.008545,54.137825 
	C314.236511,36.543510 299.938690,24.519960 282.349792,24.215992 
	C266.020660,23.933794 252.222565,32.235909 245.010910,50.989006 
	C200.370834,50.960556 155.730743,50.932106 110.804115,50.268108 
	C105.785217,43.479984 99.277931,38.899715 90.667831,36.184097 
	C85.951668,35.782711 81.241669,35.149715 76.518166,35.023788 
	C62.881386,34.660236 52.670448,41.512146 45.077591,51.897942 
	C31.948376,69.856567 36.105995,97.801895 57.016949,111.820076 
	C56.679932,113.572372 56.188595,115.310898 56.030869,117.079185 
	C54.981361,128.844910 54.007809,140.617416 53.000572,152.386948 
	C52.007381,163.992371 51.007465,175.597244 50.003479,187.201752 
	C48.673756,202.571198 47.334328,217.939804 46.004536,233.309235 
	C45.000107,244.918213 44.008324,256.528290 43.003563,268.137238 
	C41.674004,283.498932 40.336849,298.859985 39.003761,314.221344 
	C37.670055,329.589905 36.257347,344.952118 35.027847,360.329010 
	C33.914185,374.257233 33.068184,388.206757 31.964947,402.135864 
	C31.541443,407.482941 30.732687,412.799438 29.743029,418.695251 
	C18.459120,426.416290 12.335812,437.320984 12.162742,450.771667 
	C11.960530,466.487091 20.192253,481.230682 35.942860,487.377869 
	C45.811852,491.229584 56.116463,492.042694 66.869072,487.010986 
z"/>
<path fill="#4689D3" opacity="1.000000" stroke="none" 
	d="
M385.987885,363.164154 
	C392.309601,381.310669 389.679382,398.133820 377.411316,412.845093 
	C371.380798,420.076599 363.083557,424.951630 353.789276,426.881470 
	C335.805573,430.615570 320.066742,425.969940 306.926392,411.990417 
	C304.135803,407.508453 301.560669,403.666138 298.971619,399.448914 
	C292.027893,382.294189 295.201752,366.815125 305.297668,352.032227 
	C308.520325,348.938721 311.439301,346.001190 314.618774,342.848907 
	C321.321350,338.388702 328.165466,335.234070 336.487061,334.872742 
	C341.310547,334.903168 345.673920,334.900757 350.445221,334.940887 
	C353.485596,335.640228 356.141937,336.214478 358.746033,336.969147 
	C367.014496,339.365387 372.801910,345.350403 378.900452,351.335571 
	C381.314117,355.512146 383.651001,359.338165 385.987885,363.164154 
z"/>
<path fill="#B0B5CA" opacity="1.000000" stroke="none" 
	d="
M111.090668,50.903656 
	C155.730743,50.932106 200.370834,50.960556 245.532669,51.383923 
	C245.674255,55.542816 245.294098,59.306797 244.452850,63.039650 
	C203.821793,63.008526 163.651810,63.008526 123.481812,63.008526 
	C124.308670,64.506516 125.299316,65.012650 126.157104,65.687622 
	C140.398285,76.893661 154.565659,88.194328 168.866364,99.323708 
	C184.686981,111.635963 200.631943,123.788368 216.512024,136.024323 
	C229.698120,146.184494 242.912338,156.308960 256.031464,166.555054 
	C265.533539,173.976196 274.900391,181.570496 284.191803,189.401306 
	C281.092163,192.829178 278.128235,195.943329 275.028320,198.732971 
	C266.604126,191.783447 258.384186,185.070755 250.014450,178.550354 
	C227.782257,161.230484 205.506699,143.966049 183.208130,126.731651 
	C162.196594,110.491997 141.133759,94.318726 119.923256,77.735329 
	C119.037025,67.826355 116.616966,58.856373 111.090668,50.903656 
z"/>
<path fill="#F3CE7D" opacity="1.000000" stroke="none" 
	d="
M244.913925,63.070774 
	C245.294098,59.306797 245.674255,55.542816 245.995789,51.343025 
	C252.222565,32.235909 266.020660,23.933794 282.349792,24.215992 
	C299.938690,24.519960 314.236511,36.543510 317.018860,55.005665 
	C316.728546,61.260921 316.427979,66.648338 316.066040,72.406296 
	C312.418884,82.323265 305.853424,89.216194 296.630371,94.033051 
	C292.469910,95.012070 288.701752,96.049881 284.479858,97.048691 
	C282.696228,97.006462 281.366364,96.999657 280.036469,97.000534 
	C261.193237,97.012970 245.794037,81.853897 244.913925,63.070774 
z"/>
<path fill="#B0B5CA" opacity="1.000000" stroke="none" 
	d="
M30.099474,418.129883 
	C30.732687,412.799438 31.541443,407.482941 31.964947,402.135864 
	C33.068184,388.206757 33.914185,374.257233 35.027847,360.329010 
	C36.257347,344.952118 37.670055,329.589905 39.003761,314.221344 
	C40.336849,298.859985 41.674004,283.498932 43.003563,268.137238 
	C44.008324,256.528290 45.000107,244.918213 46.004536,233.309235 
	C47.334328,217.939804 48.673756,202.571198 50.003479,187.201752 
	C51.007465,175.597244 52.007381,163.992371 53.000572,152.386948 
	C54.007809,140.617416 54.981361,128.844910 56.030869,117.079185 
	C56.188595,115.310898 56.679932,113.572372 57.451115,111.408470 
	C61.619488,112.699966 65.353691,114.403069 69.049088,116.562004 
	C67.678543,132.887665 66.358002,148.758423 65.011345,164.626984 
	C64.026306,176.234238 62.997772,187.837814 62.005104,199.444427 
	C60.662479,215.142731 59.355656,230.844147 57.995205,246.540894 
	C57.031841,257.656158 55.982674,268.763977 55.012051,279.878601 
	C53.655849,295.408600 52.261261,310.935852 51.024990,326.475555 
	C49.916687,340.406738 49.005508,354.353577 47.996189,368.292725 
	C47.663631,372.885498 47.345173,377.480103 46.934742,382.066223 
	C46.014774,392.345886 45.041149,402.620758 43.765041,413.081848 
	C38.993629,414.887360 34.546551,416.508606 30.099474,418.129883 
z"/>
<path fill="#8F8FB7" opacity="1.000000" stroke="none" 
	d="
M463.943207,182.163361 
	C473.507324,181.405853 482.225250,182.730560 490.065796,189.320831 
	C499.331360,197.108932 503.858826,211.869659 499.332794,223.206909 
	C495.181854,233.604599 487.973267,240.509094 476.008698,243.009430 
	C470.069397,242.686096 464.989471,242.357010 459.545166,242.007294 
	C457.297791,241.037033 455.283447,240.280380 453.554688,239.104004 
	C446.408325,234.241165 441.055298,228.096756 439.978607,218.620117 
	C439.981598,214.070587 439.977722,209.990753 439.985718,205.524109 
	C441.247803,197.940338 445.980560,192.961014 451.231384,188.027435 
	C455.715057,186.040222 459.829132,184.101791 463.943207,182.163361 
z"/>
<path fill="#B0B5CA" opacity="1.000000" stroke="none" 
	d="
M298.985535,399.823792 
	C301.560669,403.666138 304.135803,407.508453 306.790100,411.676270 
	C297.919983,414.163635 288.949463,416.241608 280.025208,418.502380 
	C247.916962,426.636353 215.808685,434.771149 183.730377,443.022095 
	C153.373611,450.830261 123.054695,458.785492 92.718384,466.673187 
	C91.000366,467.119873 89.275528,467.540314 87.205643,467.511108 
	C87.945198,462.359772 89.032990,457.670288 90.528610,452.992737 
	C93.299789,452.495850 95.686310,452.075714 98.022972,451.464874 
	C129.128189,443.333038 160.211670,435.117767 191.331131,427.040894 
	C215.578354,420.747681 239.860443,414.588104 264.142395,408.429565 
	C275.738403,405.488556 287.370026,402.687988 298.985535,399.823792 
z"/>
<path fill="#A5E2FB" opacity="1.000000" stroke="none" 
	d="
M110.947388,50.585884 
	C116.616966,58.856373 119.037025,67.826355 119.745102,78.096779 
	C117.934959,91.882553 112.502785,102.760681 100.736259,110.098152 
	C97.580879,111.124016 94.791847,112.130608 91.690582,112.974304 
	C90.793655,112.499062 90.214066,112.176689 89.623520,111.875801 
	C61.903107,97.752045 58.734348,61.763947 83.537674,42.879688 
	C86.071564,40.950489 88.523331,38.913425 91.013206,36.926418 
	C99.277931,38.899715 105.785217,43.479984 110.947388,50.585884 
z"/>
<path fill="#B0B5CA" opacity="1.000000" stroke="none" 
	d="
M463.637878,182.007233 
	C459.829132,184.101791 455.715057,186.040222 450.924591,187.878174 
	C446.472076,184.665466 442.613403,181.647415 438.935242,178.423431 
	C427.437653,168.345749 416.091797,158.093674 404.532135,148.088287 
	C388.414215,134.137512 372.132233,120.376534 355.965546,106.481842 
	C342.652130,95.039444 329.404297,83.520676 316.127411,72.035751 
	C316.427979,66.648338 316.728546,61.260921 317.065918,55.409462 
	C327.426056,63.822617 337.742523,72.707794 348.074554,81.574883 
	C359.653168,91.511841 371.267395,101.407501 382.823425,111.370659 
	C388.553955,116.311295 394.160797,121.395157 399.872711,126.357742 
	C412.268188,137.127106 424.728424,147.822144 437.098175,158.620880 
	C445.897095,166.302292 454.591522,174.103409 463.637878,182.007233 
z"/>
<path fill="#53D8D8" opacity="1.000000" stroke="none" 
	d="
M90.120781,452.980835 
	C89.032990,457.670288 87.945198,462.359772 86.797348,467.442993 
	C82.447670,476.645721 76.177696,483.402649 66.168152,486.919464 
	C49.801365,479.424988 41.587814,466.998962 42.142033,449.737549 
	C42.650593,433.898224 51.297634,422.890869 65.587273,415.931458 
	C69.224899,417.688232 72.529175,419.373108 76.006958,421.363159 
	C77.679237,422.896942 79.403336,423.933746 80.639267,425.385986 
	C87.393265,433.322144 90.839035,442.450256 90.120781,452.980835 
z"/>
<path fill="#86BCCD" opacity="1.000000" stroke="none" 
	d="
M90.840515,36.555260 
	C88.523331,38.913425 86.071564,40.950489 83.537674,42.879688 
	C58.734348,61.763947 61.903107,97.752045 89.623520,111.875801 
	C90.214066,112.176689 90.793655,112.499062 91.520615,113.239761 
	C90.741554,114.132332 89.820229,114.596542 88.527191,115.217621 
	C81.799622,115.618378 75.443756,115.862274 69.087898,116.106171 
	C65.353691,114.403069 61.619488,112.699966 57.515785,110.976822 
	C36.105995,97.801895 31.948376,69.856567 45.077591,51.897942 
	C52.670448,41.512146 62.881386,34.660236 76.518166,35.023788 
	C81.241669,35.149715 85.951668,35.782711 90.840515,36.555260 
z"/>
<path fill="#44ABA8" opacity="1.000000" stroke="none" 
	d="
M65.253922,415.859589 
	C51.297634,422.890869 42.650593,433.898224 42.142033,449.737549 
	C41.587814,466.998962 49.801365,479.424988 65.798965,486.961975 
	C56.116463,492.042694 45.811852,491.229584 35.942860,487.377869 
	C20.192253,481.230682 11.960530,466.487091 12.162742,450.771667 
	C12.335812,437.320984 18.459120,426.416290 29.921249,418.412567 
	C34.546551,416.508606 38.993629,414.887360 44.192345,413.109924 
	C51.747944,412.100006 58.434456,412.463593 65.017059,415.122070 
	C65.158867,415.528320 65.206390,415.693970 65.253922,415.859589 
z"/>
<path fill="#B0B5CA" opacity="1.000000" stroke="none" 
	d="
M459.909546,242.027924 
	C464.989471,242.357010 470.069397,242.686096 475.618347,243.021423 
	C463.399353,259.964661 450.729431,276.915253 438.017792,293.834503 
	C427.162445,308.282990 416.215118,322.662445 405.394165,337.136505 
	C399.045166,345.628967 392.863739,354.246735 386.297424,362.986145 
	C383.651001,359.338165 381.314117,355.512146 379.060059,351.013489 
	C391.833588,333.323212 404.524841,316.305969 417.214905,299.287811 
	C431.447052,280.201660 445.678040,261.114594 459.909546,242.027924 
z"/>
<path fill="#000000" opacity="1.000000" stroke="none" 
	d="
M90.528610,452.992737 
	C90.839035,442.450256 87.393265,433.322144 80.639267,425.385986 
	C79.403336,423.933746 77.679237,422.896942 76.148170,421.028839 
	C78.085831,416.873413 80.061401,413.360596 82.024872,409.841064 
	C96.443718,383.995056 110.888206,358.163269 125.267479,332.295258 
	C134.932602,314.907867 144.504410,297.468628 154.537323,280.030396 
	C163.337387,281.783020 170.963150,280.069702 178.038666,275.366089 
	C188.203857,281.672302 198.234848,287.608826 208.196091,293.660217 
	C227.847000,305.597961 247.432236,317.643921 267.097290,329.558228 
	C279.680725,337.182068 292.358490,344.650177 304.993927,352.188141 
	C295.201752,366.815125 292.027893,382.294189 298.971619,399.448914 
	C287.370026,402.687988 275.738403,405.488556 264.142395,408.429565 
	C239.860443,414.588104 215.578354,420.747681 191.331131,427.040894 
	C160.211670,435.117767 129.128189,443.333038 98.022972,451.464874 
	C95.686310,452.075714 93.299789,452.495850 90.528610,452.992737 
z"/>
<path fill="#000000" opacity="1.000000" stroke="none" 
	d="
M459.545166,242.007309 
	C445.678040,261.114594 431.447052,280.201660 417.214905,299.287811 
	C404.524841,316.305969 391.833588,333.323212 378.983276,350.662903 
	C372.801910,345.350403 367.014496,339.365387 358.746033,336.969147 
	C356.141937,336.214478 353.485596,335.640228 350.428284,334.554199 
	C344.259644,317.553436 338.552460,300.969055 332.761475,284.413971 
	C327.238708,268.625793 321.628571,252.868179 316.369202,236.962799 
	C321.815369,232.136078 326.437164,227.095062 328.566864,220.025146 
	C349.889801,219.670181 370.753174,219.225830 391.618896,219.035492 
	C407.735016,218.888474 423.854004,219.059921 439.971741,219.089783 
	C441.055298,228.096756 446.408325,234.241165 453.554688,239.104004 
	C455.283447,240.280380 457.297791,241.037033 459.545166,242.007309 
z"/>
<path fill="#000000" opacity="1.000000" stroke="none" 
	d="
M336.026978,334.839874 
	C328.165466,335.234070 321.321350,338.388702 314.398529,342.535828 
	C304.780609,336.913879 295.626068,331.418762 286.509674,325.861023 
	C264.115295,312.208405 241.755386,298.499207 219.347519,284.868866 
	C208.290039,278.142761 197.157089,271.540771 186.198883,264.521515 
	C186.914139,259.801361 187.488831,255.442307 188.478973,251.046570 
	C190.470871,250.676407 192.049728,250.354019 193.623352,250.007767 
	C212.864334,245.774185 232.096451,241.499817 251.348587,237.317581 
	C260.205353,235.393585 269.100922,233.648346 278.294678,231.967361 
	C279.317535,232.814468 279.962402,233.595703 280.741394,234.205658 
	C287.563568,239.547562 294.885773,243.251358 303.966980,241.478165 
	C307.003052,250.509644 309.980072,259.165497 313.029022,267.795959 
	C317.582397,280.684845 322.280579,293.523407 326.737518,306.445343 
	C329.984192,315.858368 332.940948,325.371429 336.026978,334.839874 
z"/>
<path fill="#B0B5CA" opacity="1.000000" stroke="none" 
	d="
M186.058304,264.882629 
	C197.157089,271.540771 208.290039,278.142761 219.347519,284.868866 
	C241.755386,298.499207 264.115295,312.208405 286.509674,325.861023 
	C295.626068,331.418762 304.780609,336.913879 314.138031,342.750580 
	C311.439301,346.001190 308.520325,348.938721 305.297668,352.032227 
	C292.358490,344.650177 279.680725,337.182068 267.097290,329.558228 
	C247.432236,317.643921 227.847000,305.597961 208.196091,293.660217 
	C198.234848,287.608826 188.203857,281.672302 178.198730,275.064087 
	C180.814804,271.257111 183.436554,268.069855 186.058304,264.882629 
z"/>
<path fill="#B0B5CA" opacity="1.000000" stroke="none" 
	d="
M336.487061,334.872742 
	C332.940948,325.371429 329.984192,315.858368 326.737518,306.445343 
	C322.280579,293.523407 317.582397,280.684845 313.029022,267.795959 
	C309.980072,259.165497 307.003052,250.509644 304.340179,241.391296 
	C308.476654,239.643997 312.266754,238.370560 316.056885,237.097122 
	C321.628571,252.868179 327.238708,268.625793 332.761475,284.413971 
	C338.552460,300.969055 344.259644,317.553436 350.020386,334.511688 
	C345.673920,334.900757 341.310547,334.903168 336.487061,334.872742 
z"/>
<path fill="#000000" opacity="1.000000" stroke="none" 
	d="
M101.102608,110.078880 
	C112.502785,102.760681 117.934959,91.882553 119.915329,78.477707 
	C141.133759,94.318726 162.196594,110.491997 183.208130,126.731651 
	C205.506699,143.966049 227.782257,161.230484 250.014450,178.550354 
	C258.384186,185.070755 266.604126,191.783447 274.949066,199.106873 
	C271.310211,205.844162 271.777496,212.494400 271.928955,219.456345 
	C263.623260,221.514709 255.549988,223.222595 247.489899,224.990585 
	C226.351974,229.627197 205.219788,234.290009 183.947906,238.627197 
	C183.112396,237.601303 182.366501,236.931122 181.723511,236.173630 
	C174.462372,227.619736 165.198929,225.221237 153.038727,227.548065 
	C145.473450,210.421249 137.872650,193.695740 130.436874,176.897171 
	C120.591225,154.654312 110.874657,132.354324 101.102608,110.078880 
z"/>
<path fill="#000000" opacity="1.000000" stroke="none" 
	d="
M244.452850,63.039650 
	C245.794037,81.853897 261.193237,97.012970 280.036469,97.000534 
	C281.366364,96.999657 282.696228,97.006462 284.509125,97.500885 
	C285.666992,107.135056 286.274353,116.283676 287.038940,125.419144 
	C287.610809,132.252060 288.392334,139.067337 289.068359,145.891663 
	C290.386932,159.202454 291.696930,172.514069 292.634705,185.901672 
	C289.615143,187.014526 286.971344,188.051041 284.327545,189.087570 
	C274.900391,181.570496 265.533539,173.976196 256.031464,166.555054 
	C242.912338,156.308960 229.698120,146.184494 216.512024,136.024323 
	C200.631943,123.788368 184.686981,111.635963 168.866364,99.323708 
	C154.565659,88.194328 140.398285,76.893661 126.157104,65.687622 
	C125.299316,65.012650 124.308670,64.506516 123.481812,63.008526 
	C163.651810,63.008526 203.821793,63.008526 244.452850,63.039650 
z"/>
<path fill="#6994FE" opacity="1.000000" stroke="none" 
	d="
M284.191803,189.401306 
	C286.971344,188.051041 289.615143,187.014526 293.040161,185.928284 
	C297.908234,185.560760 301.995087,185.242935 306.420471,185.080536 
	C317.994476,188.407257 325.175507,195.563980 328.033264,207.390945 
	C328.027527,211.919540 328.067932,215.982346 328.108307,220.045151 
	C326.437164,227.095062 321.815369,232.136078 316.369232,236.962799 
	C312.266754,238.370560 308.476654,239.643997 304.313354,241.004303 
	C294.885773,243.251358 287.563568,239.547562 280.741394,234.205658 
	C279.962402,233.595703 279.317535,232.814468 278.296265,231.609039 
	C276.043793,227.114716 274.105591,223.123978 272.167358,219.133255 
	C271.777496,212.494400 271.310211,205.844162 275.085083,199.431366 
	C278.128235,195.943329 281.092163,192.829178 284.191803,189.401306 
z"/>
<path fill="#000000" opacity="1.000000" stroke="none" 
	d="
M328.079376,206.925156 
	C325.175507,195.563980 317.994476,188.407257 306.384338,184.630630 
	C305.011322,174.139877 303.945557,164.260696 303.030273,154.367584 
	C301.631958,139.253647 300.390350,124.125130 298.969269,109.013428 
	C298.499969,104.022690 297.681549,99.064774 297.022705,94.091843 
	C305.853424,89.216194 312.418884,82.323265 316.066040,72.406296 
	C329.404297,83.520676 342.652130,95.039444 355.965546,106.481842 
	C372.132233,120.376534 388.414215,134.137512 404.532135,148.088287 
	C416.091797,158.093674 427.437653,168.345749 438.935242,178.423431 
	C442.613403,181.647415 446.472076,184.665466 450.554993,187.926971 
	C445.980560,192.961014 441.247803,197.940338 439.520691,205.564560 
	C431.471527,206.327820 423.900177,206.929535 416.326996,206.952835 
	C386.911438,207.043335 357.495300,206.950043 328.079376,206.925156 
z"/>
<path fill="#B0B5CA" opacity="1.000000" stroke="none" 
	d="
M296.630371,94.033051 
	C297.681549,99.064774 298.499969,104.022690 298.969269,109.013428 
	C300.390350,124.125130 301.631958,139.253647 303.030273,154.367584 
	C303.945557,164.260696 305.011322,174.139877 306.045807,184.475204 
	C301.995087,185.242935 297.908234,185.560760 293.415955,185.851959 
	C291.696930,172.514069 290.386932,159.202454 289.068359,145.891663 
	C288.392334,139.067337 287.610809,132.252060 287.038940,125.419144 
	C286.274353,116.283676 285.666992,107.135056 284.962891,97.539886 
	C288.701752,96.049881 292.469910,95.012070 296.630371,94.033051 
z"/>
<path fill="#000000" opacity="1.000000" stroke="none" 
	d="
M64.922760,414.881409 
	C58.434456,412.463593 51.747944,412.100006 44.516678,412.925659 
	C45.041149,402.620758 46.014774,392.345886 46.934742,382.066223 
	C47.345173,377.480103 47.663631,372.885498 47.996189,368.292725 
	C49.005508,354.353577 49.916687,340.406738 51.024990,326.475555 
	C52.261261,310.935852 53.655849,295.408600 55.012051,279.878601 
	C55.982674,268.763977 57.031841,257.656158 57.995205,246.540894 
	C59.355656,230.844147 60.662479,215.142731 62.005104,199.444427 
	C62.997772,187.837814 64.026306,176.234238 65.011345,164.626984 
	C66.358002,148.758423 67.678543,132.887665 69.049088,116.562012 
	C75.443756,115.862274 81.799622,115.618378 88.680283,115.552460 
	C96.589188,132.418777 103.993652,149.098129 111.350746,165.798355 
	C116.951607,178.512039 122.416893,191.285934 128.083603,203.970001 
	C132.618484,214.120621 137.365662,224.176407 141.847290,234.551361 
	C133.569153,243.960480 131.155746,257.283569 138.674423,268.282501 
	C139.935028,270.126648 141.006485,272.100067 142.007050,274.339172 
	C138.783417,280.369385 135.777649,286.107178 132.642212,291.773132 
	C121.104645,312.622192 109.541199,333.457031 97.953072,354.278046 
	C91.403084,366.046722 84.697151,377.729370 78.229149,389.542633 
	C73.648239,397.909241 69.348175,406.429657 64.922760,414.881409 
M80.999458,275.320007 
	C81.666191,268.831970 82.318855,262.342438 83.003029,255.856247 
	C83.976151,246.630676 84.929031,237.402557 85.985374,228.186386 
	C86.300629,225.435974 83.435661,220.619263 80.859512,219.996109 
	C77.810020,219.258453 73.408859,221.549240 73.061142,224.418533 
	C71.924423,233.798492 70.944710,243.198822 70.018463,252.602524 
	C69.249176,260.412750 68.682304,268.242737 67.950432,276.056915 
	C67.006310,286.137268 66.074272,296.220276 64.957657,306.282227 
	C64.506454,310.348114 66.950157,312.293396 70.077507,312.828217 
	C73.301750,313.379639 76.327728,311.897308 76.969513,308.160339 
	C77.818687,303.215790 78.371780,298.218842 78.991135,293.236847 
	C79.694504,287.579071 80.330566,281.912964 80.999458,275.320007 
M77.640793,190.908188 
	C73.563080,194.414062 75.093018,199.171295 75.156464,203.443451 
	C75.181526,205.130814 76.642990,207.836288 77.991096,208.230865 
	C80.241638,208.889572 83.182198,208.649475 85.359795,207.701950 
	C87.691505,206.687332 89.354980,195.856827 87.795479,193.319077 
	C85.563881,189.687592 82.000252,189.406204 77.640793,190.908188 
z"/>
<path fill="#B0B5CA" opacity="1.000000" stroke="none" 
	d="
M328.033264,207.390945 
	C357.495300,206.950043 386.911438,207.043335 416.326996,206.952835 
	C423.900177,206.929535 431.471527,206.327820 439.508789,205.951355 
	C439.977722,209.990753 439.981598,214.070587 439.978607,218.620117 
	C423.854004,219.059921 407.735016,218.888474 391.618896,219.035492 
	C370.753174,219.225830 349.889801,219.670181 328.566864,220.025146 
	C328.067932,215.982346 328.027527,211.919540 328.033264,207.390945 
z"/>
<path fill="#B0B5CA" opacity="1.000000" stroke="none" 
	d="
M142.018616,234.274277 
	C137.365662,224.176407 132.618484,214.120621 128.083603,203.970001 
	C122.416893,191.285934 116.951607,178.512039 111.350746,165.798355 
	C103.993652,149.098129 96.589188,132.418777 89.052002,115.395599 
	C89.820229,114.596542 90.741554,114.132332 91.832840,113.402664 
	C94.791847,112.130608 97.580879,111.124016 100.736259,110.098152 
	C110.874657,132.354324 120.591225,154.654312 130.436874,176.897171 
	C137.872650,193.695740 145.473450,210.421249 152.800598,227.805450 
	C149.073135,230.379166 145.545883,232.326721 142.018616,234.274277 
z"/>
<path fill="#B0B5CA" opacity="1.000000" stroke="none" 
	d="
M65.017059,415.122070 
	C69.348175,406.429657 73.648239,397.909241 78.229149,389.542633 
	C84.697151,377.729370 91.403084,366.046722 97.953072,354.278046 
	C109.541199,333.457031 121.104645,312.622192 132.642212,291.773132 
	C135.777649,286.107178 138.783417,280.369385 142.369171,274.316956 
	C146.632385,275.997070 150.375183,278.024841 154.117981,280.052612 
	C144.504410,297.468628 134.932602,314.907867 125.267479,332.295258 
	C110.888206,358.163269 96.443718,383.995056 82.024872,409.841064 
	C80.061401,413.360596 78.085831,416.873413 75.974655,420.723633 
	C72.529175,419.373108 69.224899,417.688232 65.587273,415.931458 
	C65.206390,415.693970 65.158867,415.528320 65.017059,415.122070 
z"/>
<path fill="#5FCDA4" opacity="1.000000" stroke="none" 
	d="
M154.537323,280.030396 
	C150.375183,278.024841 146.632385,275.997070 142.527481,273.991516 
	C141.006485,272.100067 139.935028,270.126648 138.674423,268.282501 
	C131.155746,257.283569 133.569153,243.960480 141.847290,234.551361 
	C145.545883,232.326721 149.073135,230.379166 152.838501,228.174225 
	C165.198929,225.221237 174.462372,227.619736 181.723511,236.173630 
	C182.366501,236.931122 183.112396,237.601303 183.957001,238.995331 
	C185.423523,243.480164 186.743530,247.281708 188.063522,251.083252 
	C187.488831,255.442307 186.914139,259.801361 186.198883,264.521515 
	C183.436554,268.069855 180.814804,271.257111 178.032990,274.746338 
	C170.963150,280.069702 163.337387,281.783020 154.537323,280.030396 
z"/>
<path fill="#B0B5CA" opacity="1.000000" stroke="none" 
	d="
M188.478973,251.046570 
	C186.743530,247.281708 185.423523,243.480164 184.094421,239.310486 
	C205.219788,234.290009 226.351974,229.627197 247.489899,224.990585 
	C255.549988,223.222595 263.623260,221.514709 271.928955,219.456345 
	C274.105591,223.123978 276.043793,227.114716 277.980469,231.463745 
	C269.100922,233.648346 260.205353,235.393585 251.348587,237.317581 
	C232.096451,241.499817 212.864334,245.774185 193.623352,250.007767 
	C192.049728,250.354019 190.470871,250.676407 188.478973,251.046570 
z"/>
<path fill="#D4E1F4" opacity="1.000000" stroke="none" 
	d="
M80.997665,275.785217 
	C80.330566,281.912964 79.694504,287.579071 78.991135,293.236847 
	C78.371780,298.218842 77.818687,303.215790 76.969513,308.160339 
	C76.327728,311.897308 73.301750,313.379639 70.077507,312.828217 
	C66.950157,312.293396 64.506454,310.348114 64.957657,306.282227 
	C66.074272,296.220276 67.006310,286.137268 67.950432,276.056915 
	C68.682304,268.242737 69.249176,260.412750 70.018463,252.602524 
	C70.944710,243.198822 71.924423,233.798492 73.061142,224.418533 
	C73.408859,221.549240 77.810020,219.258453 80.859512,219.996109 
	C83.435661,220.619263 86.300629,225.435974 85.985374,228.186386 
	C84.929031,237.402557 83.976151,246.630676 83.003029,255.856247 
	C82.318855,262.342438 81.666191,268.831970 80.997665,275.785217 
z"/>
<path fill="#D4E1F4" opacity="1.000000" stroke="none" 
	d="
M77.920120,190.594711 
	C82.000252,189.406204 85.563881,189.687592 87.795479,193.319077 
	C89.354980,195.856827 87.691505,206.687332 85.359795,207.701950 
	C83.182198,208.649475 80.241638,208.889572 77.991096,208.230865 
	C76.642990,207.836288 75.181526,205.130814 75.156464,203.443451 
	C75.093018,199.171295 73.563080,194.414062 77.920120,190.594711 
z"/>
</svg>