<svg version="1.1" id="Layer_1" xmlns="http://www.w3.org/2000/svg" xmlns:xlink="http://www.w3.org/1999/xlink" x="0px" y="0px"
	 width="100%" viewBox="0 0 512 512" enable-background="new 0 0 512 512" xml:space="preserve">
<path fill="#000000" opacity="0.000000" stroke="none" 
	d="
M513.000000,424.000000 
	C513.000000,453.992798 513.000000,483.485596 513.000000,512.983765 
	C342.382202,512.989197 171.764374,512.989197 1.073285,512.989197 
	C1.073285,342.423889 1.073285,171.847702 1.073285,1.135770 
	C171.666595,1.135770 342.333282,1.135770 513.000000,1.135770 
	C513.000000,141.902252 513.000000,282.701111 513.000000,424.000000 
M432.970215,440.111664 
	C433.020264,435.107269 433.070282,430.102875 434.038727,425.009277 
	C447.855286,425.006195 461.672058,425.048157 475.488312,424.980988 
	C482.429871,424.947235 488.927887,418.419495 488.978729,411.466797 
	C489.023712,405.312439 488.889008,399.156738 488.975159,392.075012 
	C488.983917,370.410645 489.008514,348.746277 488.963989,327.082031 
	C488.961182,325.711334 488.420197,324.341766 488.007233,322.253082 
	C485.775513,316.788910 481.791992,313.103699 475.869141,313.083466 
	C431.253815,312.931122 386.637726,312.969849 342.021973,313.034363 
	C335.658966,313.043579 329.044678,319.713074 329.034882,326.091064 
	C329.000641,348.395081 329.110748,370.699310 329.015717,393.931213 
	C329.010498,399.423004 328.992767,404.914856 329.002930,410.406616 
	C329.018250,418.709595 335.217804,424.973633 343.445892,424.997864 
	C357.257202,425.038513 371.068604,425.065735 384.977814,426.015686 
	C385.038727,431.024323 385.099670,436.032959 385.021637,441.960785 
	C384.985718,446.967590 384.949799,451.974396 384.085266,456.996399 
	C376.996307,457.069092 370.223328,461.232697 369.377472,467.625977 
	C368.458771,474.569794 369.169098,481.729156 369.169098,488.605774 
	C396.114929,488.605774 422.454224,488.605774 449.000000,488.605774 
	C449.000000,483.067047 449.001740,477.921356 448.999664,472.775665 
	C448.995514,462.621979 443.388123,457.057526 433.011566,456.052673 
	C432.954193,451.049103 432.896820,446.045532 432.970215,440.111664 
M128.970230,440.111664 
	C129.020279,435.107269 129.070328,430.102875 130.038803,425.009277 
	C143.855347,425.006165 157.672104,425.048157 171.488342,424.980988 
	C178.429932,424.947235 184.927887,418.419495 184.978714,411.466797 
	C185.023697,405.312439 184.888977,399.156769 184.975159,392.075043 
	C184.983902,370.410645 185.008469,348.746216 184.963943,327.081940 
	C184.961121,325.711243 184.420120,324.341705 184.007217,322.253021 
	C181.775421,316.788971 177.792007,313.103638 171.869095,313.083435 
	C127.253799,312.931091 82.637695,312.969849 38.021965,313.034363 
	C31.658934,313.043579 25.044691,319.712952 25.034887,326.091095 
	C25.000605,348.395081 25.110746,370.699341 25.015724,393.931183 
	C25.010483,399.422974 24.992752,404.914825 25.002913,410.406586 
	C25.018274,418.709717 31.217728,424.973694 39.445858,424.997925 
	C53.257183,425.038605 67.068550,425.065735 80.977844,426.015656 
	C81.038773,431.024292 81.099701,436.032959 81.021629,441.960785 
	C80.985703,446.967590 80.949783,451.974396 80.085258,456.996399 
	C72.996231,457.069092 66.223358,461.232666 65.377502,467.625977 
	C64.458809,474.569824 65.169128,481.729156 65.169128,488.605774 
	C92.114922,488.605774 118.454208,488.605774 145.000000,488.605774 
	C145.000000,483.067047 145.001740,477.921356 144.999649,472.775665 
	C144.995529,462.622009 139.388062,457.057526 129.011566,456.052673 
	C128.954178,451.049103 128.896805,446.045532 128.970230,440.111664 
M432.970276,152.111649 
	C433.020203,147.107300 433.070160,142.102966 434.038513,137.009308 
	C447.855103,137.006195 461.671936,137.048187 475.488220,136.981003 
	C482.429871,136.947250 488.927887,130.419540 488.978729,123.466843 
	C489.023743,117.312462 488.889008,111.156761 488.975159,104.075012 
	C488.983887,82.410599 489.008484,60.746147 488.963928,39.081848 
	C488.961090,37.711185 488.420074,36.341625 488.007202,34.252941 
	C485.775299,28.789009 481.792023,25.103676 475.869049,25.083458 
	C431.253754,24.931150 386.637665,24.969915 342.021942,25.034412 
	C335.658936,25.043610 329.044708,31.713022 329.034912,38.091087 
	C329.000641,60.395096 329.110748,82.699326 329.015717,105.931198 
	C329.010468,111.423027 328.992767,116.914871 329.002930,122.406670 
	C329.018250,130.709625 335.217865,136.973648 343.446014,136.997894 
	C357.257385,137.038589 371.068817,137.065842 384.977905,138.015839 
	C385.038788,143.024429 385.099701,148.033020 385.021606,153.960815 
	C384.985687,158.967621 384.949768,163.974411 384.085266,168.996414 
	C376.996246,169.069061 370.223358,173.232666 369.377472,179.626007 
	C368.458801,186.569839 369.169128,193.729187 369.169128,200.605774 
	C396.114929,200.605774 422.454193,200.605774 449.000000,200.605774 
	C449.000000,195.067047 449.001740,189.921371 448.999634,184.775681 
	C448.995514,174.622025 443.387970,169.057434 433.011566,168.052704 
	C432.954193,163.049118 432.896820,158.045532 432.970276,152.111649 
M128.970230,152.112076 
	C129.020264,147.107559 129.070282,142.103027 130.038757,137.009293 
	C143.855316,137.006180 157.672089,137.048187 171.488342,136.980988 
	C178.429962,136.947235 184.927887,130.419495 184.978699,123.466797 
	C185.023697,117.312431 184.888977,111.156761 184.975174,104.075020 
	C184.983917,82.410576 185.008499,60.746101 184.963959,39.081768 
	C184.961136,37.711109 184.420044,36.341557 184.007202,34.252880 
	C181.775208,28.789024 177.792007,25.103659 171.868973,25.083443 
	C127.253700,24.931154 82.637619,24.969915 38.021912,25.034418 
	C31.658894,25.043617 25.044683,31.713003 25.034882,38.091099 
	C25.000605,60.395103 25.110746,82.699333 25.015726,105.931198 
	C25.010483,111.422989 24.992758,116.914795 25.002913,122.406555 
	C25.018265,130.709686 31.217663,136.973679 39.445801,136.997894 
	C53.257092,137.038559 67.068420,137.065704 80.977821,138.015472 
	C81.038696,143.024612 81.099571,148.033752 81.021606,153.961945 
	C80.985687,158.968369 80.949768,163.974792 80.085258,168.996414 
	C72.996338,169.069061 66.223343,173.232712 65.377502,179.625977 
	C64.458809,186.569809 65.169128,193.729172 65.169128,200.605774 
	C92.114906,200.605774 118.454185,200.605774 145.000000,200.605774 
	C145.000000,195.068008 145.001740,189.921844 144.999649,184.775681 
	C144.995529,174.621994 139.388062,169.057495 129.011566,168.052658 
	C128.954208,163.049286 128.896851,158.045914 128.970230,152.112076 
M265.000000,184.500000 
	C265.000000,155.430832 265.000000,126.361656 265.000000,96.814827 
	C278.661804,96.814827 291.719482,96.814827 304.629028,96.814827 
	C304.629028,91.266495 304.629028,86.205658 304.629028,81.378799 
	C272.552185,81.378799 240.847382,81.378799 209.239380,81.378799 
	C209.239380,86.700844 209.239380,91.641495 209.239380,97.054108 
	C222.526459,97.054108 235.583450,97.054108 249.082275,97.054108 
	C249.082275,137.233643 249.082275,176.933685 249.082275,216.694992 
	C254.596176,216.694992 259.651703,216.694992 265.000000,216.694992 
	C265.000000,206.094925 265.000000,195.797470 265.000000,184.500000 
M298.407959,417.000000 
	C287.330841,417.000000 276.253693,417.000000 264.735962,417.000000 
	C264.735962,376.583588 264.735962,336.881622 264.735962,297.220764 
	C259.338013,297.220764 254.397858,297.220764 249.008881,297.220764 
	C249.008881,337.139679 249.008881,376.841370 249.008881,417.022675 
	C235.504929,417.022675 222.447357,417.022675 209.290131,417.022675 
	C209.290131,422.566315 209.290131,427.622131 209.290131,432.699524 
	C241.286377,432.699524 272.991577,432.699524 304.661407,432.699524 
	C304.661407,427.337341 304.661407,422.280609 304.661407,417.000000 
	C302.678741,417.000000 301.029572,417.000000 298.407959,417.000000 
M403.705566,225.002151 
	C402.803986,226.137390 401.165375,227.245453 401.122375,228.412323 
	C400.873474,235.166321 401.000793,241.934189 401.000793,249.136536 
	C366.044800,249.136536 331.678009,249.136536 297.331146,249.136536 
	C297.331146,254.650528 297.331146,259.706451 297.331146,265.207916 
	C332.026672,265.207916 366.393158,265.207916 401.239990,265.207916 
	C401.239990,273.384705 401.239990,281.115234 401.239990,288.777344 
	C406.667908,288.777344 411.606842,288.777344 416.760986,288.777344 
	C416.760986,267.512512 416.760986,246.470459 416.760986,225.000275 
	C412.579895,225.000275 408.624756,225.000275 403.705566,225.002151 
M205.479980,265.000000 
	C209.241455,265.000000 213.002930,265.000000 216.640076,265.000000 
	C216.640076,259.287140 216.640076,254.231064 216.640076,248.737732 
	C181.917313,248.737732 147.552872,248.737732 112.709236,248.737732 
	C112.709236,240.562485 112.709236,232.832291 112.709236,225.247406 
	C107.280975,225.247406 102.340889,225.247406 97.261818,225.247406 
	C97.261818,246.536438 97.261818,267.577332 97.261818,288.702515 
	C102.583778,288.702515 107.638268,288.702515 113.173370,288.702515 
	C113.173370,280.685486 113.173370,272.954987 113.173370,265.000000 
	C143.934906,265.000000 174.210953,265.000000 205.479980,265.000000 
M273.992584,274.509369 
	C279.524750,269.734497 280.917297,263.575043 281.126373,256.465302 
	C281.591064,240.664474 266.692871,229.388321 249.829758,233.608856 
	C240.913773,235.840363 231.924881,245.990540 232.795959,258.188965 
	C233.525787,268.409271 238.282974,275.061188 246.935593,279.371552 
	C253.606339,282.694611 268.554199,281.847473 273.992584,274.509369 
z"/>
<path fill="#5AAAE7" opacity="1.000000" stroke="none" 
	d="
M25.166023,105.003471 
	C25.110746,82.699333 25.000605,60.395103 25.034882,38.091099 
	C25.044683,31.713003 31.658894,25.043617 38.021912,25.034418 
	C82.637619,24.969915 127.253700,24.931154 171.868973,25.083443 
	C177.792007,25.103659 181.775208,28.789024 183.811752,34.841019 
	C172.517441,55.105839 157.524185,71.419014 139.461258,84.737572 
	C129.480759,92.096611 118.568512,98.191978 107.605309,104.907913 
	C79.811554,104.973701 52.488792,104.988586 25.166023,105.003471 
z"/>
<path fill="#5AAAE7" opacity="1.000000" stroke="none" 
	d="
M329.166016,105.003471 
	C329.110748,82.699326 329.000641,60.395096 329.034912,38.091087 
	C329.044708,31.713022 335.658936,25.043610 342.021942,25.034412 
	C386.637665,24.969915 431.253754,24.931150 475.869049,25.083458 
	C481.792023,25.103676 485.775299,28.789009 487.811768,34.841042 
	C476.517456,55.105854 461.524139,71.418983 443.461243,84.737541 
	C433.480713,92.096581 422.568481,98.191978 411.605255,104.907898 
	C383.811523,104.973694 356.488770,104.988586 329.166016,105.003471 
z"/>
<path fill="#5AAAE7" opacity="1.000000" stroke="none" 
	d="
M329.166016,393.003479 
	C329.110748,370.699310 329.000641,348.395081 329.034882,326.091064 
	C329.044678,319.713074 335.658966,313.043579 342.021973,313.034363 
	C386.637726,312.969849 431.253815,312.931122 475.869141,313.083466 
	C481.791992,313.103699 485.775513,316.788910 487.811798,322.841125 
	C476.517456,343.105804 461.524109,359.418945 443.461243,372.737518 
	C433.480743,380.096588 422.568451,386.191956 411.605255,392.907898 
	C383.811523,392.973694 356.488770,392.988586 329.166016,393.003479 
z"/>
<path fill="#5AAAE7" opacity="1.000000" stroke="none" 
	d="
M25.166025,393.003479 
	C25.110746,370.699341 25.000605,348.395081 25.034887,326.091095 
	C25.044691,319.712952 31.658934,313.043579 38.021965,313.034363 
	C82.637695,312.969849 127.253799,312.931091 171.869095,313.083435 
	C177.792007,313.103638 181.775421,316.788971 183.811798,322.841125 
	C172.517365,343.105743 157.524246,359.419067 139.461258,372.737549 
	C129.480728,380.096527 118.568512,386.191956 107.605309,392.907898 
	C79.811554,392.973694 52.488792,392.988586 25.166025,393.003479 
z"/>
<path fill="#D8D7DA" opacity="1.000000" stroke="none" 
	d="
M329.090881,393.467346 
	C356.488770,392.988586 383.811523,392.973694 412.066162,392.958069 
	C438.276581,392.972107 463.555084,392.986877 488.833588,393.001648 
	C488.889008,399.156738 489.023712,405.312439 488.978729,411.466797 
	C488.927887,418.419495 482.429871,424.947235 475.488312,424.980988 
	C461.672058,425.048157 447.855286,425.006195 433.104248,425.022034 
	C416.406464,425.056061 400.643219,425.077332 384.879944,425.098633 
	C371.068604,425.065735 357.257202,425.038513 343.445892,424.997864 
	C335.217804,424.973633 329.018250,418.709595 329.002930,410.406616 
	C328.992767,404.914856 329.010498,399.423004 329.090881,393.467346 
z"/>
<path fill="#D8D7DA" opacity="1.000000" stroke="none" 
	d="
M25.090874,393.467346 
	C52.488792,392.988586 79.811554,392.973694 108.066208,392.958069 
	C134.276596,392.972137 159.555084,392.986908 184.833588,393.001709 
	C184.888977,399.156769 185.023697,405.312439 184.978714,411.466797 
	C184.927887,418.419495 178.429932,424.947235 171.488342,424.980988 
	C157.672104,425.048157 143.855347,425.006165 129.104309,425.022034 
	C112.406502,425.056061 96.643196,425.077332 80.879898,425.098633 
	C67.068550,425.065735 53.257183,425.038605 39.445858,424.997925 
	C31.217728,424.973694 25.018274,418.709717 25.002913,410.406586 
	C24.992752,404.914825 25.010483,399.422974 25.090874,393.467346 
z"/>
<path fill="#D8D7DA" opacity="1.000000" stroke="none" 
	d="
M25.090876,105.467331 
	C52.488792,104.988586 79.811554,104.973701 108.066208,104.958076 
	C134.276596,104.972115 159.555084,104.986885 184.833588,105.001663 
	C184.888977,111.156761 185.023697,117.312431 184.978699,123.466797 
	C184.927887,130.419495 178.429962,136.947235 171.488342,136.980988 
	C157.672089,137.048187 143.855316,137.006180 129.104263,137.022018 
	C112.406425,137.056015 96.643082,137.077286 80.879738,137.098541 
	C67.068420,137.065704 53.257092,137.038559 39.445801,136.997894 
	C31.217663,136.973679 25.018265,130.709686 25.002913,122.406555 
	C24.992758,116.914795 25.010483,111.422989 25.090876,105.467331 
z"/>
<path fill="#D8D7DA" opacity="1.000000" stroke="none" 
	d="
M329.090881,105.467331 
	C356.488770,104.988586 383.811523,104.973694 412.066162,104.958069 
	C438.276581,104.972099 463.555084,104.986877 488.833588,105.001648 
	C488.889008,111.156761 489.023743,117.312462 488.978729,123.466843 
	C488.927887,130.419540 482.429871,136.947250 475.488220,136.981003 
	C461.671936,137.048187 447.855103,137.006195 433.104034,137.022034 
	C416.406433,137.056107 400.643341,137.077438 384.880219,137.098755 
	C371.068817,137.065842 357.257385,137.038589 343.446014,136.997894 
	C335.217865,136.973648 329.018250,130.709625 329.002930,122.406670 
	C328.992767,116.914871 329.010468,111.423027 329.090881,105.467331 
z"/>
<path fill="#FF9811" opacity="1.000000" stroke="none" 
	d="
M265.000000,185.000000 
	C265.000000,195.797470 265.000000,206.094925 265.000000,216.694992 
	C259.651703,216.694992 254.596176,216.694992 249.082275,216.694992 
	C249.082275,176.933685 249.082275,137.233643 249.082275,97.054108 
	C235.583450,97.054108 222.526459,97.054108 209.239380,97.054108 
	C209.239380,91.641495 209.239380,86.700844 209.239380,81.378799 
	C240.847382,81.378799 272.552185,81.378799 304.629028,81.378799 
	C304.629028,86.205658 304.629028,91.266495 304.629028,96.814827 
	C291.719482,96.814827 278.661804,96.814827 265.000000,96.814827 
	C265.000000,126.361656 265.000000,155.430832 265.000000,185.000000 
z"/>
<path fill="#FF9811" opacity="1.000000" stroke="none" 
	d="
M298.894196,417.000000 
	C301.029572,417.000000 302.678741,417.000000 304.661407,417.000000 
	C304.661407,422.280609 304.661407,427.337341 304.661407,432.699524 
	C272.991577,432.699524 241.286377,432.699524 209.290131,432.699524 
	C209.290131,427.622131 209.290131,422.566315 209.290131,417.022675 
	C222.447357,417.022675 235.504929,417.022675 249.008881,417.022675 
	C249.008881,376.841370 249.008881,337.139679 249.008881,297.220764 
	C254.397858,297.220764 259.338013,297.220764 264.735962,297.220764 
	C264.735962,336.881622 264.735962,376.583588 264.735962,417.000000 
	C276.253693,417.000000 287.330841,417.000000 298.894196,417.000000 
z"/>
<path fill="#FF9811" opacity="1.000000" stroke="none" 
	d="
M404.187592,225.001221 
	C408.624756,225.000275 412.579895,225.000275 416.760986,225.000275 
	C416.760986,246.470459 416.760986,267.512512 416.760986,288.777344 
	C411.606842,288.777344 406.667908,288.777344 401.239990,288.777344 
	C401.239990,281.115234 401.239990,273.384705 401.239990,265.207916 
	C366.393158,265.207916 332.026672,265.207916 297.331146,265.207916 
	C297.331146,259.706451 297.331146,254.650528 297.331146,249.136536 
	C331.678009,249.136536 366.044800,249.136536 401.000793,249.136536 
	C401.000793,241.934189 400.873474,235.166321 401.122375,228.412323 
	C401.165375,227.245453 402.803986,226.137390 404.187592,225.001221 
z"/>
<path fill="#FF9811" opacity="1.000000" stroke="none" 
	d="
M204.983490,265.000000 
	C174.210953,265.000000 143.934906,265.000000 113.173370,265.000000 
	C113.173370,272.954987 113.173370,280.685486 113.173370,288.702515 
	C107.638268,288.702515 102.583778,288.702515 97.261818,288.702515 
	C97.261818,267.577332 97.261818,246.536438 97.261818,225.247406 
	C102.340889,225.247406 107.280975,225.247406 112.709236,225.247406 
	C112.709236,232.832291 112.709236,240.562485 112.709236,248.737732 
	C147.552872,248.737732 181.917313,248.737732 216.640076,248.737732 
	C216.640076,254.231064 216.640076,259.287140 216.640076,265.000000 
	C213.002930,265.000000 209.241455,265.000000 204.983490,265.000000 
z"/>
<path fill="#898890" opacity="1.000000" stroke="none" 
	d="
M129.086029,168.981171 
	C139.388062,169.057495 144.995529,174.621994 144.999649,184.775681 
	C145.001740,189.921844 145.000000,195.068008 145.000000,200.605774 
	C118.454185,200.605774 92.114906,200.605774 65.169128,200.605774 
	C65.169128,193.729172 64.458809,186.569809 65.377502,179.625977 
	C66.223343,173.232712 72.996338,169.069061 80.973709,168.993393 
	C97.603455,168.987305 113.344742,168.984238 129.086029,168.981171 
z"/>
<path fill="#898890" opacity="1.000000" stroke="none" 
	d="
M433.085999,456.981171 
	C443.388123,457.057526 448.995514,462.621979 448.999664,472.775665 
	C449.001740,477.921356 449.000000,483.067047 449.000000,488.605774 
	C422.454224,488.605774 396.114929,488.605774 369.169098,488.605774 
	C369.169098,481.729156 368.458771,474.569794 369.377472,467.625977 
	C370.223328,461.232697 376.996307,457.069092 384.973755,456.993408 
	C401.603485,456.987335 417.344727,456.984253 433.085999,456.981171 
z"/>
<path fill="#898890" opacity="1.000000" stroke="none" 
	d="
M129.086014,456.981171 
	C139.388062,457.057526 144.995529,462.622009 144.999649,472.775665 
	C145.001740,477.921356 145.000000,483.067047 145.000000,488.605774 
	C118.454208,488.605774 92.114922,488.605774 65.169128,488.605774 
	C65.169128,481.729156 64.458809,474.569824 65.377502,467.625977 
	C66.223358,461.232666 72.996231,457.069092 80.973709,456.993408 
	C97.603447,456.987335 113.344734,456.984253 129.086014,456.981171 
z"/>
<path fill="#898890" opacity="1.000000" stroke="none" 
	d="
M433.086029,168.981201 
	C443.387970,169.057434 448.995514,174.622025 448.999634,184.775681 
	C449.001740,189.921371 449.000000,195.067047 449.000000,200.605774 
	C422.454193,200.605774 396.114929,200.605774 369.169128,200.605774 
	C369.169128,193.729187 368.458801,186.569839 369.377472,179.626007 
	C370.223358,173.232666 376.996246,169.069061 384.973724,168.993393 
	C401.603455,168.987320 417.344757,168.984268 433.086029,168.981201 
z"/>
<path fill="#3D9AE2" opacity="1.000000" stroke="none" 
	d="
M184.904373,392.538391 
	C159.555084,392.986908 134.276596,392.972137 108.537201,392.907166 
	C118.568512,386.191956 129.480728,380.096527 139.461258,372.737549 
	C157.524246,359.419067 172.517365,343.105743 183.872925,323.200409 
	C184.420120,324.341705 184.961121,325.711243 184.963943,327.081940 
	C185.008469,348.746216 184.983902,370.410645 184.904373,392.538391 
z"/>
<path fill="#3D9AE2" opacity="1.000000" stroke="none" 
	d="
M488.904358,392.538330 
	C463.555084,392.986877 438.276581,392.972107 412.537170,392.907166 
	C422.568451,386.191956 433.480743,380.096588 443.461243,372.737518 
	C461.524109,359.418945 476.517456,343.105804 487.872986,323.200439 
	C488.420197,324.341766 488.961182,325.711334 488.963989,327.082031 
	C489.008514,348.746277 488.983917,370.410645 488.904358,392.538330 
z"/>
<path fill="#3D9AE2" opacity="1.000000" stroke="none" 
	d="
M488.904358,104.538330 
	C463.555084,104.986877 438.276581,104.972099 412.537170,104.907166 
	C422.568481,98.191978 433.480713,92.096581 443.461243,84.737541 
	C461.524139,71.418983 476.517456,55.105854 487.872864,35.200348 
	C488.420074,36.341625 488.961090,37.711185 488.963928,39.081848 
	C489.008484,60.746147 488.983887,82.410599 488.904358,104.538330 
z"/>
<path fill="#3D9AE2" opacity="1.000000" stroke="none" 
	d="
M184.904388,104.538345 
	C159.555084,104.986885 134.276596,104.972115 108.537201,104.907166 
	C118.568512,98.191978 129.480759,92.096611 139.461258,84.737572 
	C157.524185,71.419014 172.517441,55.105839 183.872833,35.200325 
	C184.420044,36.341557 184.961136,37.711109 184.963959,39.081768 
	C185.008499,60.746101 184.983917,82.410576 184.904388,104.538345 
z"/>
<path fill="#EE8700" opacity="1.000000" stroke="none" 
	d="
M273.733398,274.763672 
	C268.554199,281.847473 253.606339,282.694611 246.935593,279.371552 
	C238.282974,275.061188 233.525787,268.409271 232.795959,258.188965 
	C231.924881,245.990540 240.913773,235.840363 249.829758,233.608856 
	C266.692871,229.388321 281.591064,240.664474 281.126373,256.465302 
	C280.917297,263.575043 279.524750,269.734497 273.733398,274.763672 
M256.604950,249.052399 
	C251.117569,250.408752 248.638443,253.299622 249.085144,257.821136 
	C249.485367,261.872253 252.664948,264.827454 256.752899,264.947754 
	C260.836823,265.067963 264.227631,262.294067 264.864044,258.312256 
	C265.609894,253.645370 263.022491,250.440216 256.604950,249.052399 
z"/>
<path fill="#ACABB1" opacity="1.000000" stroke="none" 
	d="
M129.048798,168.516907 
	C113.344742,168.984238 97.603455,168.987305 81.388008,168.985794 
	C80.949768,163.974792 80.985687,158.968369 81.549332,153.491730 
	C97.664536,153.028519 113.252022,153.035522 128.839508,153.042542 
	C128.896851,158.045914 128.954208,163.049286 129.048798,168.516907 
z"/>
<path fill="#898890" opacity="1.000000" stroke="none" 
	d="
M384.929077,137.557312 
	C400.643341,137.077438 416.406433,137.056107 432.644836,137.066696 
	C433.070160,142.102966 433.020203,147.107300 432.446533,152.566315 
	C416.335419,153.027863 400.748016,153.034729 385.160614,153.041595 
	C385.099701,148.033020 385.038788,143.024429 384.929077,137.557312 
z"/>
<path fill="#898890" opacity="1.000000" stroke="none" 
	d="
M128.904877,152.577301 
	C113.252022,153.035522 97.664536,153.028519 81.618744,153.032196 
	C81.099571,148.033752 81.038696,143.024612 80.928780,137.557007 
	C96.643082,137.077286 112.406425,137.056015 128.645035,137.066620 
	C129.070282,142.103027 129.020264,147.107559 128.904877,152.577301 
z"/>
<path fill="#898890" opacity="1.000000" stroke="none" 
	d="
M80.928871,425.557129 
	C96.643196,425.077332 112.406502,425.056061 128.645081,425.066650 
	C129.070328,430.102875 129.020279,435.107269 128.446533,440.566345 
	C112.335426,441.027893 96.748032,441.034729 81.160629,441.041595 
	C81.099701,436.032959 81.038773,431.024292 80.928871,425.557129 
z"/>
<path fill="#898890" opacity="1.000000" stroke="none" 
	d="
M384.928894,425.557159 
	C400.643219,425.077332 416.406464,425.056061 432.645020,425.066620 
	C433.070282,430.102875 433.020264,435.107269 432.446533,440.566345 
	C416.335419,441.027863 400.748016,441.034729 385.160583,441.041565 
	C385.099670,436.032959 385.038727,431.024323 384.928894,425.557159 
z"/>
<path fill="#ACABB1" opacity="1.000000" stroke="none" 
	d="
M81.091133,441.501190 
	C96.748032,441.034729 112.335426,441.027893 128.381119,441.031494 
	C128.896805,446.045532 128.954178,451.049103 129.048798,456.516907 
	C113.344734,456.984253 97.603447,456.987335 81.388016,456.985779 
	C80.949783,451.974396 80.985703,446.967590 81.091133,441.501190 
z"/>
<path fill="#ACABB1" opacity="1.000000" stroke="none" 
	d="
M385.091125,441.501160 
	C400.748016,441.034729 416.335419,441.027863 432.381104,441.031494 
	C432.896820,446.045532 432.954193,451.049103 433.048767,456.516907 
	C417.344727,456.984253 401.603485,456.987335 385.388062,456.985779 
	C384.949799,451.974396 384.985718,446.967590 385.091125,441.501160 
z"/>
<path fill="#ACABB1" opacity="1.000000" stroke="none" 
	d="
M385.091125,153.501205 
	C400.748016,153.034729 416.335419,153.027863 432.381104,153.031464 
	C432.896820,158.045532 432.954193,163.049118 433.048798,168.516953 
	C417.344757,168.984268 401.603455,168.987320 385.388000,168.985794 
	C384.949768,163.974411 384.985687,158.967621 385.091125,153.501205 
z"/>
<path fill="#FE9710" opacity="1.000000" stroke="none" 
	d="
M256.997009,249.052505 
	C263.022491,250.440216 265.609894,253.645370 264.864044,258.312256 
	C264.227631,262.294067 260.836823,265.067963 256.752899,264.947754 
	C252.664948,264.827454 249.485367,261.872253 249.085144,257.821136 
	C248.638443,253.299622 251.117569,250.408752 256.997009,249.052505 
z"/>
</svg>