<svg version="1.1" id="Layer_1" xmlns="http://www.w3.org/2000/svg" xmlns:xlink="http://www.w3.org/1999/xlink" x="0px" y="0px"
	 width="100%" viewBox="0 0 512 512" enable-background="new 0 0 512 512" xml:space="preserve">
<path fill="#000000" opacity="0.000000" stroke="none" 
	d="
M291.000000,1.000001 
	C364.978577,1.000000 438.957153,1.000000 512.967896,1.000000 
	C512.967896,171.595795 512.967896,342.191620 512.967896,512.893677 
	C342.453674,512.893677 171.907272,512.893677 1.000000,512.893677 
	C1.000000,431.977722 1.000000,350.954895 1.345505,269.524841 
	C1.960193,269.304199 2.378335,269.432587 2.477198,269.685669 
	C7.653077,282.935455 16.563332,292.359863 30.089174,297.366425 
	C31.450012,297.870117 32.655304,300.339355 32.909992,302.048859 
	C35.690628,320.712891 52.092548,334.992279 71.022934,334.999298 
	C81.688568,335.003265 92.375084,334.575409 103.014999,335.098572 
	C119.347832,335.901642 128.869476,324.047028 128.941330,309.368713 
	C129.116745,273.539703 129.124619,237.708511 128.917480,201.879852 
	C128.859940,191.927109 125.407906,183.416794 115.914955,178.276382 
	C114.467171,177.492432 112.908394,174.700851 113.222015,173.224762 
	C115.866539,160.778152 117.651466,147.937103 122.110085,136.126389 
	C137.099213,96.420784 165.459824,69.925873 205.471054,56.063789 
	C230.036850,47.552856 255.542969,47.111282 280.870667,50.391869 
	C316.468872,55.002750 345.662964,71.927269 368.434143,99.869545 
	C385.889191,121.288475 395.014008,145.977478 397.806030,173.189270 
	C397.973328,174.819916 396.541595,177.498199 395.097168,178.266769 
	C385.937622,183.140594 382.211365,191.333130 382.130432,200.862183 
	C381.820435,237.356018 381.752319,273.856720 382.134125,310.349182 
	C382.282959,324.572205 391.820404,335.669830 407.457214,335.078583 
	C418.274078,334.669586 429.118835,335.003082 439.951141,334.999329 
	C458.201447,334.992950 474.900940,321.350739 477.721985,303.485840 
	C478.377899,299.332214 480.056000,297.610229 483.625488,296.060822 
	C504.951080,286.803894 513.818481,267.047211 508.964722,244.443512 
	C505.799347,229.702438 496.050873,220.158844 482.437073,214.141113 
	C480.575287,213.318146 478.554230,210.992554 478.145569,209.040558 
	C474.954620,193.798523 466.534424,183.015167 451.725433,177.951553 
	C447.625061,176.549530 446.380798,174.271484 446.013031,170.550629 
	C445.443176,164.784790 444.960663,158.996338 444.045227,153.280869 
	C436.996826,109.274048 415.762085,72.997475 382.332062,44.147968 
	C357.885742,23.051216 329.391418,9.418094 297.323334,3.788571 
	C295.120270,3.401824 293.103455,1.954239 291.000000,1.000001 
M221.026810,461.985352 
	C216.360992,461.991730 211.692429,462.105438 207.029831,461.985931 
	C186.343063,461.455872 166.619232,480.154053 167.967041,501.767303 
	C168.343384,507.802460 170.125320,509.971161 176.085617,509.974792 
	C229.079514,510.007172 282.073456,510.008331 335.067383,509.972321 
	C340.816254,509.968414 342.647125,507.828064 343.024170,502.123871 
	C344.427094,480.900482 325.446045,461.616364 304.252380,461.993164 
	C299.920959,462.070190 295.580292,461.853455 291.256104,462.045990 
	C287.590759,462.209198 286.358429,460.501160 285.945282,457.075409 
	C284.915161,448.533844 283.743622,439.999481 282.254608,431.528015 
	C281.669861,428.201324 283.008850,427.087067 285.756989,426.196899 
	C318.292664,415.658783 340.210327,394.131531 351.836243,362.053253 
	C357.818512,345.546967 358.037415,328.156403 358.826935,310.982513 
	C359.599091,294.186615 359.362091,277.316650 358.867645,260.499786 
	C358.532379,249.096939 357.936188,237.548553 355.804626,226.380585 
	C349.503632,193.367065 330.679321,169.106079 300.835114,154.126343 
	C277.390533,142.358780 252.430649,140.425735 227.166489,147.855530 
	C193.773346,157.675888 171.385269,179.481613 159.170929,211.915421 
	C153.088943,228.065491 152.469879,245.154922 152.257874,261.979919 
	C151.941849,287.058075 153.270920,312.159424 154.012238,337.247589 
	C154.512161,354.165741 160.216812,369.592377 169.219925,383.590942 
	C182.707779,404.562622 201.546295,419.060516 225.445343,426.578827 
	C228.613266,427.575409 229.198593,428.732208 228.601273,431.840118 
	C227.447708,437.842499 227.328934,444.075958 225.816513,449.965912 
	C224.787476,453.973328 227.175568,459.289917 221.026810,461.985352 
z"/>
<path fill="#272727" opacity="1.000000" stroke="none" 
	d="
M290.531342,1.000001 
	C293.103455,1.954239 295.120270,3.401824 297.323334,3.788571 
	C329.391418,9.418094 357.885742,23.051216 382.332062,44.147968 
	C415.762085,72.997475 436.996826,109.274048 444.045227,153.280869 
	C444.960663,158.996338 445.443176,164.784790 446.013031,170.550629 
	C446.380798,174.271484 447.625061,176.549530 451.725433,177.951553 
	C466.534424,183.015167 474.954620,193.798523 478.145569,209.040558 
	C478.554230,210.992554 480.575287,213.318146 482.437073,214.141113 
	C496.050873,220.158844 505.799347,229.702438 508.964722,244.443512 
	C513.818481,267.047211 504.951080,286.803894 483.625488,296.060822 
	C480.056000,297.610229 478.377899,299.332214 477.721985,303.485840 
	C474.900940,321.350739 458.201447,334.992950 439.951141,334.999329 
	C429.118835,335.003082 418.274078,334.669586 407.457214,335.078583 
	C391.820404,335.669830 382.282959,324.572205 382.134125,310.349182 
	C381.752319,273.856720 381.820435,237.356018 382.130432,200.862183 
	C382.211365,191.333130 385.937622,183.140594 395.097168,178.266769 
	C396.541595,177.498199 397.973328,174.819916 397.806030,173.189270 
	C395.014008,145.977478 385.889191,121.288475 368.434143,99.869545 
	C345.662964,71.927269 316.468872,55.002750 280.870667,50.391869 
	C255.542969,47.111282 230.036850,47.552856 205.471054,56.063789 
	C165.459824,69.925873 137.099213,96.420784 122.110085,136.126389 
	C117.651466,147.937103 115.866539,160.778152 113.222015,173.224762 
	C112.908394,174.700851 114.467171,177.492432 115.914955,178.276382 
	C125.407906,183.416794 128.859940,191.927109 128.917480,201.879852 
	C129.124619,237.708511 129.116745,273.539703 128.941330,309.368713 
	C128.869476,324.047028 119.347832,335.901642 103.014999,335.098572 
	C92.375084,334.575409 81.688568,335.003265 71.022934,334.999298 
	C52.092548,334.992279 35.690628,320.712891 32.909992,302.048859 
	C32.655304,300.339355 31.450012,297.870117 30.089174,297.366425 
	C16.563332,292.359863 7.653077,282.935455 2.477198,269.685669 
	C2.378335,269.432587 1.960193,269.304199 1.345505,269.058838 
	C1.000000,260.312439 1.000000,251.624863 1.345505,242.409836 
	C2.055075,241.560501 2.604102,241.308685 2.756391,240.906616 
	C7.693266,227.871994 16.597630,218.881927 29.630793,213.784851 
	C31.153116,213.189484 32.539532,210.735764 32.902958,208.925537 
	C35.974289,193.627426 44.575691,182.984634 59.336498,177.939209 
	C63.484272,176.521469 64.786682,174.187988 64.952911,170.486801 
	C65.796127,151.712326 70.186821,133.739029 77.051842,116.312798 
	C91.458420,79.743034 115.615875,50.985920 148.240967,29.555283 
	C169.423889,15.640738 192.890732,6.852954 218.062912,2.932616 
	C219.116714,2.768493 220.024292,1.665565 221.000000,1.000000 
	C244.020889,1.000000 267.041779,1.000000 290.531342,1.000001 
M462.000000,284.492493 
	C461.999939,262.023071 462.030457,239.553574 461.987610,217.084229 
	C461.964203,204.828186 454.975464,194.881561 442.926514,193.273224 
	C430.991608,191.680115 418.747559,192.158447 406.641602,192.219910 
	C402.208008,192.242432 399.029846,196.754974 399.024170,201.793182 
	C398.983704,237.577805 398.977051,273.362518 399.026733,309.147125 
	C399.035126,315.207092 402.637054,318.895447 408.574402,318.964691 
	C418.226593,319.077301 427.886169,319.191284 437.533325,318.942780 
	C449.760773,318.627777 458.716797,311.328613 461.231293,299.359314 
	C462.172424,294.879456 461.782867,290.120026 462.000000,284.492493 
M58.601784,196.962753 
	C51.552448,202.811218 48.866425,210.377197 48.935028,219.440887 
	C49.122871,244.258240 48.971287,269.078003 49.012375,293.896667 
	C49.032696,306.170868 56.026611,316.027740 68.080185,317.745026 
	C79.187256,319.327393 90.611748,318.787109 101.899780,318.953674 
	C108.458015,319.050415 111.978012,315.348480 111.984352,308.667908 
	C112.018036,273.188751 112.019859,237.709549 111.982384,202.230408 
	C111.975372,195.591675 108.424652,192.073242 101.797028,192.017395 
	C93.635727,191.948639 85.420944,191.434174 77.328651,192.184341 
	C71.196487,192.752823 65.219917,194.999741 58.601784,196.962753 
M247.687958,17.000513 
	C238.624130,17.890869 229.487427,18.326254 220.511276,19.763985 
	C200.313217,22.999157 181.315262,29.790413 163.604126,40.151886 
	C146.768005,50.001450 132.352097,62.665600 119.744675,77.437843 
	C108.431396,90.693733 99.778885,105.601830 93.165367,121.687431 
	C86.351746,138.259735 82.817261,155.620148 81.239182,173.407242 
	C81.173378,174.148926 82.039993,175.636826 82.523659,175.659088 
	C86.500122,175.842041 90.695137,176.471786 94.371597,175.405975 
	C95.830307,174.983078 96.365555,170.668243 96.945465,168.042358 
	C99.515724,156.404083 100.760643,144.319214 104.669220,133.161011 
	C114.084709,106.281578 130.316208,83.927353 152.524368,65.832497 
	C179.914551,43.515396 211.548096,33.323391 246.374405,32.098907 
	C255.481049,31.778715 264.628998,32.697350 273.759857,32.988964 
	C293.164612,33.608707 311.490265,38.666832 328.859741,47.028896 
	C346.504059,55.523315 362.001892,66.962166 375.221710,81.599121 
	C392.043060,100.223602 404.097565,121.336723 410.034607,145.732407 
	C412.183990,154.564392 413.267426,163.652817 415.000977,172.592499 
	C415.234100,173.794525 416.358429,175.694000 417.192657,175.761765 
	C421.265961,176.092651 425.380829,175.911575 430.182098,175.911575 
	C429.064087,168.074417 428.217316,161.039337 427.036530,154.060760 
	C422.917175,129.713852 413.248138,107.662148 399.066010,87.544853 
	C389.420624,73.862846 377.695892,62.212135 364.503937,51.909721 
	C348.716217,39.580112 331.249969,30.752298 312.155396,24.785536 
	C291.418976,18.305710 270.140839,16.959175 247.687958,17.000513 
M20.413202,268.962341 
	C23.316601,273.825562 26.911623,277.893311 32.508064,280.122192 
	C32.508064,263.440033 32.508064,247.327087 32.508064,231.056488 
	C18.638348,236.910294 13.337098,253.208878 20.413202,268.962341 
M478.102112,263.497375 
	C478.102112,268.902161 478.102112,274.306915 478.102112,279.908234 
	C488.399841,276.231354 495.022217,264.540405 493.971497,252.743637 
	C493.088531,242.830688 485.519165,232.611816 478.102112,231.551773 
	C478.102112,241.884842 478.102112,252.191544 478.102112,263.497375 
z"/>
<path fill="#000000" opacity="1.000000" stroke="none" 
	d="
M220.531342,1.000000 
	C220.024292,1.665565 219.116714,2.768493 218.062912,2.932616 
	C192.890732,6.852954 169.423889,15.640738 148.240967,29.555283 
	C115.615875,50.985920 91.458420,79.743034 77.051842,116.312798 
	C70.186821,133.739029 65.796127,151.712326 64.952911,170.486801 
	C64.786682,174.187988 63.484272,176.521469 59.336498,177.939209 
	C44.575691,182.984634 35.974289,193.627426 32.902958,208.925537 
	C32.539532,210.735764 31.153116,213.189484 29.630793,213.784851 
	C16.597630,218.881927 7.693266,227.871994 2.756391,240.906616 
	C2.604102,241.308685 2.055075,241.560501 1.345505,241.941193 
	C1.000000,161.742950 1.000000,81.485916 1.000000,1.000000 
	C74.020737,1.000000 147.041702,1.000000 220.531342,1.000000 
z"/>
<path fill="#292827" opacity="1.000000" stroke="none" 
	d="
M221.469879,461.955811 
	C227.175568,459.289917 224.787476,453.973328 225.816513,449.965912 
	C227.328934,444.075958 227.447708,437.842499 228.601273,431.840118 
	C229.198593,428.732208 228.613266,427.575409 225.445343,426.578827 
	C201.546295,419.060516 182.707779,404.562622 169.219925,383.590942 
	C160.216812,369.592377 154.512161,354.165741 154.012238,337.247589 
	C153.270920,312.159424 151.941849,287.058075 152.257874,261.979919 
	C152.469879,245.154922 153.088943,228.065491 159.170929,211.915421 
	C171.385269,179.481613 193.773346,157.675888 227.166489,147.855530 
	C252.430649,140.425735 277.390533,142.358780 300.835114,154.126343 
	C330.679321,169.106079 349.503632,193.367065 355.804626,226.380585 
	C357.936188,237.548553 358.532379,249.096939 358.867645,260.499786 
	C359.362091,277.316650 359.599091,294.186615 358.826935,310.982513 
	C358.037415,328.156403 357.818512,345.546967 351.836243,362.053253 
	C340.210327,394.131531 318.292664,415.658783 285.756989,426.196899 
	C283.008850,427.087067 281.669861,428.201324 282.254608,431.528015 
	C283.743622,439.999481 284.915161,448.533844 285.945282,457.075409 
	C286.358429,460.501160 287.590759,462.209198 291.256104,462.045990 
	C295.580292,461.853455 299.920959,462.070190 304.252380,461.993164 
	C325.446045,461.616364 344.427094,480.900482 343.024170,502.123871 
	C342.647125,507.828064 340.816254,509.968414 335.067383,509.972321 
	C282.073456,510.008331 229.079514,510.007172 176.085617,509.974792 
	C170.125320,509.971161 168.343384,507.802460 167.967041,501.767303 
	C166.619232,480.154053 186.343063,461.455872 207.029831,461.985931 
	C211.692429,462.105438 216.360992,461.991730 221.469879,461.955811 
M235.166763,162.533768 
	C201.738174,171.020538 170.209381,205.311066 171.810699,231.756531 
	C176.940567,231.756531 182.092667,231.753571 187.244781,231.757111 
	C199.407196,231.765457 211.570724,231.686020 223.731476,231.833862 
	C228.306305,231.889465 231.400818,235.062683 231.613632,239.246658 
	C231.822586,243.355148 228.889282,246.748352 224.418350,247.383499 
	C222.779984,247.616226 221.095825,247.574524 219.432480,247.575958 
	C204.270920,247.589035 189.108658,247.518219 173.948883,247.682480 
	C172.372742,247.699524 169.555237,248.943741 169.456558,249.851501 
	C168.981979,254.217133 169.243179,258.662750 169.243179,263.416290 
	C171.327393,263.416290 173.143372,263.416290 174.959351,263.416290 
	C189.954300,263.416382 204.949249,263.406555 219.944183,263.420746 
	C227.705658,263.428070 231.525864,266.012390 231.625183,271.259888 
	C231.725876,276.580109 227.944946,279.237762 220.224472,279.241302 
	C204.729691,279.248383 189.234924,279.243439 173.740143,279.243469 
	C171.967438,279.243469 170.194733,279.243469 168.301376,279.243469 
	C168.301376,284.844391 168.301376,289.764252 168.301376,295.179932 
	C170.351318,295.179932 172.139771,295.179932 173.928238,295.179932 
	C189.256409,295.179962 204.584579,295.178497 219.912750,295.182678 
	C221.245071,295.183044 222.590881,295.106384 223.907303,295.261566 
	C228.600845,295.814789 231.807739,299.303864 231.616760,303.539185 
	C231.422440,307.848175 228.131302,311.036896 223.266708,311.068115 
	C206.939575,311.172729 190.611420,311.117706 174.283646,311.123627 
	C172.525574,311.124268 170.767517,311.123718 168.511658,311.123718 
	C169.017960,319.481659 169.476685,327.054260 169.936783,334.649414 
	C227.207703,334.649414 283.917511,334.649414 340.879944,334.649414 
	C341.370483,326.755951 341.839996,319.200714 342.326904,311.365967 
	C340.663086,311.255402 339.691803,311.136902 338.720215,311.134735 
	C329.723328,311.114655 320.725220,311.200897 311.729950,311.075256 
	C306.631287,311.004028 303.193268,307.656342 303.210602,303.195770 
	C303.226959,298.985474 306.525909,295.664398 311.282318,295.247345 
	C313.267303,295.073273 315.278137,295.182892 317.277222,295.181854 
	C325.712128,295.177460 334.147034,295.179993 342.768890,295.179993 
	C342.768890,289.641357 342.768890,284.724823 342.768890,279.241028 
	C332.582550,279.241028 322.631989,279.282318 312.681976,279.225494 
	C306.759613,279.191681 303.141174,276.093262 303.205170,271.308807 
	C303.266052,266.756744 306.798889,263.563812 312.365265,263.468079 
	C320.693420,263.324860 329.025726,263.440216 337.356079,263.401123 
	C339.095673,263.392944 340.834381,263.191223 342.698334,263.070648 
	C342.369293,257.632507 342.080292,252.856079 341.761261,247.583618 
	C337.478729,247.583618 333.518768,247.601074 329.558990,247.579620 
	C323.229767,247.545319 316.887360,247.717697 310.576050,247.356949 
	C306.119751,247.102264 303.082977,243.433380 303.208069,239.388168 
	C303.336273,235.242416 306.481750,232.116486 310.980194,231.808945 
	C312.970795,231.672836 314.977173,231.758896 316.976379,231.757965 
	C324.568665,231.754425 332.160980,231.756531 339.752899,231.756531 
	C339.540588,223.449158 334.745758,210.494751 328.538086,200.511673 
	C310.809601,172.001053 275.195831,153.444107 235.166763,162.533768 
M321.206299,382.689392 
	C328.477142,373.416595 334.664948,363.621002 336.971436,351.292175 
	C282.178406,351.292175 228.137299,351.292175 173.797958,351.292175 
	C174.026169,352.595337 174.086197,353.741180 174.431778,354.793243 
	C181.731796,377.016052 195.722488,393.945831 216.490250,404.376251 
	C230.681244,411.503571 245.791321,416.181976 262.360443,414.051392 
	C285.796051,411.037903 305.380859,401.210510 321.206299,382.689392 
M196.678894,480.982208 
	C191.549255,483.922211 187.611771,487.824524 185.658539,493.756744 
	C232.501572,493.756744 278.705383,493.756744 324.992706,493.756744 
	C322.080902,484.109192 313.240997,478.147430 301.873230,478.133179 
	C271.063202,478.094482 240.252457,478.027496 209.443726,478.232147 
	C205.411789,478.258911 201.389984,479.809937 196.678894,480.982208 
M244.246017,437.692078 
	C243.148438,445.698944 242.050842,453.705780 240.940887,461.802795 
	C250.904556,461.802795 260.419739,461.802795 270.135406,461.802795 
	C268.590912,451.067352 267.105591,440.743347 265.601990,430.292145 
	C258.741364,430.292145 252.167236,430.292145 245.458252,430.292145 
	C245.086304,432.616425 244.749054,434.723785 244.246017,437.692078 
z"/>
<path fill="#000000" opacity="1.000000" stroke="none" 
	d="
M462.000000,284.990295 
	C461.782867,290.120026 462.172424,294.879456 461.231293,299.359314 
	C458.716797,311.328613 449.760773,318.627777 437.533325,318.942780 
	C427.886169,319.191284 418.226593,319.077301 408.574402,318.964691 
	C402.637054,318.895447 399.035126,315.207092 399.026733,309.147125 
	C398.977051,273.362518 398.983704,237.577805 399.024170,201.793182 
	C399.029846,196.754974 402.208008,192.242432 406.641602,192.219910 
	C418.747559,192.158447 430.991608,191.680115 442.926514,193.273224 
	C454.975464,194.881561 461.964203,204.828186 461.987610,217.084229 
	C462.030457,239.553574 461.999939,262.023071 462.000000,284.990295 
z"/>
<path fill="#000000" opacity="1.000000" stroke="none" 
	d="
M58.887947,196.731262 
	C65.219917,194.999741 71.196487,192.752823 77.328651,192.184341 
	C85.420944,191.434174 93.635727,191.948639 101.797028,192.017395 
	C108.424652,192.073242 111.975372,195.591675 111.982384,202.230408 
	C112.019859,237.709549 112.018036,273.188751 111.984352,308.667908 
	C111.978012,315.348480 108.458015,319.050415 101.899780,318.953674 
	C90.611748,318.787109 79.187256,319.327393 68.080185,317.745026 
	C56.026611,316.027740 49.032696,306.170868 49.012375,293.896667 
	C48.971287,269.078003 49.122871,244.258240 48.935028,219.440887 
	C48.866425,210.377197 51.552448,202.811218 58.887947,196.731262 
z"/>
<path fill="#000000" opacity="1.000000" stroke="none" 
	d="
M248.169312,17.000151 
	C270.140839,16.959175 291.418976,18.305710 312.155396,24.785536 
	C331.249969,30.752298 348.716217,39.580112 364.503937,51.909721 
	C377.695892,62.212135 389.420624,73.862846 399.066010,87.544853 
	C413.248138,107.662148 422.917175,129.713852 427.036530,154.060760 
	C428.217316,161.039337 429.064087,168.074417 430.182098,175.911575 
	C425.380829,175.911575 421.265961,176.092651 417.192657,175.761765 
	C416.358429,175.694000 415.234100,173.794525 415.000977,172.592499 
	C413.267426,163.652817 412.183990,154.564392 410.034607,145.732407 
	C404.097565,121.336723 392.043060,100.223602 375.221710,81.599121 
	C362.001892,66.962166 346.504059,55.523315 328.859741,47.028896 
	C311.490265,38.666832 293.164612,33.608707 273.759857,32.988964 
	C264.628998,32.697350 255.481049,31.778715 246.374405,32.098907 
	C211.548096,33.323391 179.914551,43.515396 152.524368,65.832497 
	C130.316208,83.927353 114.084709,106.281578 104.669220,133.161011 
	C100.760643,144.319214 99.515724,156.404083 96.945465,168.042358 
	C96.365555,170.668243 95.830307,174.983078 94.371597,175.405975 
	C90.695137,176.471786 86.500122,175.842041 82.523659,175.659088 
	C82.039993,175.636826 81.173378,174.148926 81.239182,173.407242 
	C82.817261,155.620148 86.351746,138.259735 93.165367,121.687431 
	C99.778885,105.601830 108.431396,90.693733 119.744675,77.437843 
	C132.352097,62.665600 146.768005,50.001450 163.604126,40.151886 
	C181.315262,29.790413 200.313217,22.999157 220.511276,19.763985 
	C229.487427,18.326254 238.624130,17.890869 248.169312,17.000151 
z"/>
<path fill="#F9AE45" opacity="1.000000" stroke="none" 
	d="
M20.233612,268.634521 
	C13.337098,253.208878 18.638348,236.910294 32.508064,231.056488 
	C32.508064,247.327087 32.508064,263.440033 32.508064,280.122192 
	C26.911623,277.893311 23.316601,273.825562 20.233612,268.634521 
z"/>
<path fill="#F9AE45" opacity="1.000000" stroke="none" 
	d="
M478.102112,262.997803 
	C478.102112,252.191544 478.102112,241.884842 478.102112,231.551773 
	C485.519165,232.611816 493.088531,242.830688 493.971497,252.743637 
	C495.022217,264.540405 488.399841,276.231354 478.102112,279.908234 
	C478.102112,274.306915 478.102112,268.902161 478.102112,262.997803 
z"/>
<path fill="#FDB146" opacity="1.000000" stroke="none" 
	d="
M235.563004,162.402374 
	C275.195831,153.444107 310.809601,172.001053 328.538086,200.511673 
	C334.745758,210.494751 339.540588,223.449158 339.752899,231.756531 
	C332.160980,231.756531 324.568665,231.754425 316.976379,231.757965 
	C314.977173,231.758896 312.970795,231.672836 310.980194,231.808945 
	C306.481750,232.116486 303.336273,235.242416 303.208069,239.388168 
	C303.082977,243.433380 306.119751,247.102264 310.576050,247.356949 
	C316.887360,247.717697 323.229767,247.545319 329.558990,247.579620 
	C333.518768,247.601074 337.478729,247.583618 341.761261,247.583618 
	C342.080292,252.856079 342.369293,257.632507 342.698334,263.070648 
	C340.834381,263.191223 339.095673,263.392944 337.356079,263.401123 
	C329.025726,263.440216 320.693420,263.324860 312.365265,263.468079 
	C306.798889,263.563812 303.266052,266.756744 303.205170,271.308807 
	C303.141174,276.093262 306.759613,279.191681 312.681976,279.225494 
	C322.631989,279.282318 332.582550,279.241028 342.768890,279.241028 
	C342.768890,284.724823 342.768890,289.641357 342.768890,295.179993 
	C334.147034,295.179993 325.712128,295.177460 317.277222,295.181854 
	C315.278137,295.182892 313.267303,295.073273 311.282318,295.247345 
	C306.525909,295.664398 303.226959,298.985474 303.210602,303.195770 
	C303.193268,307.656342 306.631287,311.004028 311.729950,311.075256 
	C320.725220,311.200897 329.723328,311.114655 338.720215,311.134735 
	C339.691803,311.136902 340.663086,311.255402 342.326904,311.365967 
	C341.839996,319.200714 341.370483,326.755951 340.879944,334.649414 
	C283.917511,334.649414 227.207703,334.649414 169.936783,334.649414 
	C169.476685,327.054260 169.017960,319.481659 168.511658,311.123718 
	C170.767517,311.123718 172.525574,311.124268 174.283646,311.123627 
	C190.611420,311.117706 206.939575,311.172729 223.266708,311.068115 
	C228.131302,311.036896 231.422440,307.848175 231.616760,303.539185 
	C231.807739,299.303864 228.600845,295.814789 223.907303,295.261566 
	C222.590881,295.106384 221.245071,295.183044 219.912750,295.182678 
	C204.584579,295.178497 189.256409,295.179962 173.928238,295.179932 
	C172.139771,295.179932 170.351318,295.179932 168.301376,295.179932 
	C168.301376,289.764252 168.301376,284.844391 168.301376,279.243469 
	C170.194733,279.243469 171.967438,279.243469 173.740143,279.243469 
	C189.234924,279.243439 204.729691,279.248383 220.224472,279.241302 
	C227.944946,279.237762 231.725876,276.580109 231.625183,271.259888 
	C231.525864,266.012390 227.705658,263.428070 219.944183,263.420746 
	C204.949249,263.406555 189.954300,263.416382 174.959351,263.416290 
	C173.143372,263.416290 171.327393,263.416290 169.243179,263.416290 
	C169.243179,258.662750 168.981979,254.217133 169.456558,249.851501 
	C169.555237,248.943741 172.372742,247.699524 173.948883,247.682480 
	C189.108658,247.518219 204.270920,247.589035 219.432480,247.575958 
	C221.095825,247.574524 222.779984,247.616226 224.418350,247.383499 
	C228.889282,246.748352 231.822586,243.355148 231.613632,239.246658 
	C231.400818,235.062683 228.306305,231.889465 223.731476,231.833862 
	C211.570724,231.686020 199.407196,231.765457 187.244781,231.757111 
	C182.092667,231.753571 176.940567,231.756531 171.810699,231.756531 
	C170.209381,205.311066 201.738174,171.020538 235.563004,162.402374 
M268.372375,235.890762 
	C266.773590,241.800034 268.333923,246.127121 273.153625,246.970779 
	C277.152954,247.670868 281.557159,247.853867 285.419006,246.858078 
	C287.673859,246.276703 290.385101,243.113724 290.751282,240.776917 
	C291.121185,238.416260 289.499542,234.920792 287.595398,233.201965 
	C283.910126,229.875366 272.524200,231.536316 268.372375,235.890762 
M268.789551,275.733704 
	C272.864899,281.273834 278.790527,279.063110 284.008026,279.074036 
	C288.430450,279.083282 290.952240,276.104767 291.109680,271.663757 
	C291.267792,267.203888 288.870941,264.402954 284.520020,263.692871 
	C281.926025,263.269562 279.222900,263.331970 276.578766,263.433807 
	C269.192505,263.718414 266.395294,267.758606 268.789551,275.733704 
M267.563416,304.186005 
	C268.398865,308.512329 270.971710,310.921570 275.413025,311.079865 
	C278.233337,311.180389 281.079773,311.282928 283.880737,311.022034 
	C288.275940,310.612579 290.871674,308.057495 291.106934,303.597351 
	C291.344055,299.102234 288.897339,296.303711 284.638336,295.470490 
	C282.068695,294.967743 279.343109,295.125000 276.693329,295.196686 
	C270.887451,295.353760 268.617584,297.447083 267.563416,304.186005 
z"/>
<path fill="#000000" opacity="1.000000" stroke="none" 
	d="
M321.033081,382.999908 
	C305.380859,401.210510 285.796051,411.037903 262.360443,414.051392 
	C245.791321,416.181976 230.681244,411.503571 216.490250,404.376251 
	C195.722488,393.945831 181.731796,377.016052 174.431778,354.793243 
	C174.086197,353.741180 174.026169,352.595337 173.797958,351.292175 
	C228.137299,351.292175 282.178406,351.292175 336.971436,351.292175 
	C334.664948,363.621002 328.477142,373.416595 321.033081,382.999908 
z"/>
<path fill="#EEEEFC" opacity="1.000000" stroke="none" 
	d="
M197.021179,480.818604 
	C201.389984,479.809937 205.411789,478.258911 209.443726,478.232147 
	C240.252457,478.027496 271.063202,478.094482 301.873230,478.133179 
	C313.240997,478.147430 322.080902,484.109192 324.992706,493.756744 
	C278.705383,493.756744 232.501572,493.756744 185.658539,493.756744 
	C187.611771,487.824524 191.549255,483.922211 197.021179,480.818604 
z"/>
<path fill="#EDEDFB" opacity="1.000000" stroke="none" 
	d="
M244.328918,437.261597 
	C244.749054,434.723785 245.086304,432.616425 245.458252,430.292145 
	C252.167236,430.292145 258.741364,430.292145 265.601990,430.292145 
	C267.105591,440.743347 268.590912,451.067352 270.135406,461.802795 
	C260.419739,461.802795 250.904556,461.802795 240.940887,461.802795 
	C242.050842,453.705780 243.148438,445.698944 244.328918,437.261597 
z"/>
<path fill="#2D2B28" opacity="1.000000" stroke="none" 
	d="
M268.584808,235.573639 
	C272.524200,231.536316 283.910126,229.875366 287.595398,233.201965 
	C289.499542,234.920792 291.121185,238.416260 290.751282,240.776917 
	C290.385101,243.113724 287.673859,246.276703 285.419006,246.858078 
	C281.557159,247.853867 277.152954,247.670868 273.153625,246.970779 
	C268.333923,246.127121 266.773590,241.800034 268.584808,235.573639 
z"/>
<path fill="#2D2B28" opacity="1.000000" stroke="none" 
	d="
M268.577728,275.417969 
	C266.395294,267.758606 269.192505,263.718414 276.578766,263.433807 
	C279.222900,263.331970 281.926025,263.269562 284.520020,263.692871 
	C288.870941,264.402954 291.267792,267.203888 291.109680,271.663757 
	C290.952240,276.104767 288.430450,279.083282 284.008026,279.074036 
	C278.790527,279.063110 272.864899,281.273834 268.577728,275.417969 
z"/>
<path fill="#2D2B28" opacity="1.000000" stroke="none" 
	d="
M267.516144,303.818115 
	C268.617584,297.447083 270.887451,295.353760 276.693329,295.196686 
	C279.343109,295.125000 282.068695,294.967743 284.638336,295.470490 
	C288.897339,296.303711 291.344055,299.102234 291.106934,303.597351 
	C290.871674,308.057495 288.275940,310.612579 283.880737,311.022034 
	C281.079773,311.282928 278.233337,311.180389 275.413025,311.079865 
	C270.971710,310.921570 268.398865,308.512329 267.516144,303.818115 
z"/>
</svg>