<svg version="1.1" id="Layer_1" xmlns="http://www.w3.org/2000/svg" xmlns:xlink="http://www.w3.org/1999/xlink" x="0px" y="0px"
	 width="100%" viewBox="0 0 512 512" enable-background="new 0 0 512 512" xml:space="preserve">
<path fill="#000000" opacity="0.000000" stroke="none" 
	d="
M239.000000,513.000000 
	C159.352646,513.000000 80.205292,513.000000 1.028970,513.000000 
	C1.028970,342.394287 1.028970,171.788574 1.028970,1.091425 
	C171.564041,1.091425 342.128143,1.091425 512.846130,1.091425 
	C512.846130,171.666565 512.846130,342.333252 512.846130,513.000000 
	C421.788544,513.000000 330.644257,513.000000 239.000000,513.000000 
M89.906593,338.214783 
	C89.282516,338.083496 88.658432,337.952209 87.613548,337.280975 
	C77.063438,332.671448 67.105148,327.211182 60.293983,317.498840 
	C61.590393,316.079498 62.886803,314.660156 64.803566,312.984619 
	C66.554848,311.311310 68.306129,309.638000 70.033615,307.987427 
	C91.635895,328.847015 121.781998,332.449585 139.241486,325.939331 
	C136.723145,323.537903 134.367035,321.291168 131.717026,318.440155 
	C128.748291,315.602356 125.779556,312.764557 122.205994,309.348602 
	C125.236076,308.761810 127.137451,308.345154 129.055496,308.029846 
	C144.814026,305.439453 160.590576,302.952972 176.319641,300.195312 
	C178.576553,299.799622 181.044617,298.567322 182.675873,296.968262 
	C195.285522,284.607300 207.717773,272.065277 220.187637,259.562073 
	C221.077744,258.669586 221.830261,257.639954 222.495270,256.853241 
	C204.850601,239.086578 187.897690,221.152039 169.992935,204.224274 
	C151.039078,186.304642 128.056396,180.977798 102.859680,187.199615 
	C84.944717,191.623352 70.654976,201.752975 60.298878,218.118546 
	C44.388195,244.592422 45.418606,270.988464 60.891827,297.175751 
	C58.735882,298.858795 56.791767,300.376465 54.210060,302.012482 
	C52.807587,303.036835 51.405113,304.061218 49.273117,305.053070 
	C48.242153,303.851288 46.891369,302.801697 46.234711,301.421783 
	C43.123299,294.883545 40.201351,288.255157 37.175526,280.869995 
	C33.918507,268.497253 33.207657,256.032104 34.949150,243.304871 
	C40.299301,204.204926 75.998413,171.662750 115.429214,169.973907 
	C142.388153,168.819244 165.237076,177.772842 184.251129,196.878983 
	C197.384384,210.075821 210.692001,223.099167 224.153931,236.818665 
	C227.208603,240.001801 230.263275,243.184937 232.894196,245.926498 
	C239.832733,239.013657 246.248825,232.621323 252.741333,226.152863 
	C249.410324,223.272705 245.851578,220.195648 242.546234,217.337708 
	C239.940796,219.118652 237.457428,220.816162 234.592621,221.916901 
	C221.642075,208.960281 208.825226,195.866623 195.713089,183.075653 
	C168.727173,156.750824 136.428299,146.811600 99.558929,154.202118 
	C69.538277,160.219757 46.419949,176.874359 30.293243,203.833054 
	C30.193470,204.224091 30.093695,204.615112 30.003384,205.000809 
	C30.003384,205.000809 30.001856,204.989517 29.425463,205.376511 
	C7.410930,245.729156 12.793972,293.942688 43.167786,327.408203 
	C58.265362,344.042542 76.855057,354.844849 98.839798,359.495178 
	C127.530052,365.563904 154.255646,360.113342 180.386719,343.979950 
	C184.872314,348.920776 189.369675,353.874542 194.399216,359.414520 
	C195.309067,353.113281 196.110550,347.562561 197.170410,341.261566 
	C198.807709,331.485840 200.445007,321.710083 202.192703,311.275177 
	C191.619553,313.043396 181.699707,314.702362 170.901230,316.334808 
	C165.424103,317.279297 159.946976,318.223816 153.267868,319.375580 
	C158.048370,323.842194 162.110580,327.637726 166.490692,331.730255 
	C163.818268,333.216675 161.817368,334.329590 159.069519,335.656525 
	C136.472137,345.214111 113.526344,346.444275 90.177292,338.713684 
	C90.177292,338.713684 90.350861,338.679169 89.906593,338.214783 
M293.322205,207.995316 
	C264.664459,236.938400 236.006729,265.881470 207.000992,295.176025 
	C211.318481,294.557556 215.445663,293.966370 220.162842,293.290680 
	C219.482224,297.692291 218.847824,301.794952 218.474518,304.209137 
	C246.813416,276.092896 275.969208,247.166199 304.241089,219.116470 
	C301.883453,219.462479 297.587524,220.092987 293.016388,220.763870 
	C293.334442,216.296341 293.633759,212.091797 294.301392,208.195770 
	C294.380615,207.935226 294.459808,207.674683 294.539032,207.414154 
	C294.363312,207.612534 294.187622,207.810913 293.322205,207.995316 
M326.853180,200.070587 
	C337.376526,198.377213 347.899872,196.683853 360.036621,194.730850 
	C354.786133,190.118439 350.684784,186.515533 346.583435,182.912628 
	C346.649689,182.288589 346.715973,181.664536 346.782227,181.040497 
	C355.012604,178.185318 363.054077,174.456863 371.506561,172.628510 
	C405.241058,165.331436 434.876007,173.314255 457.841278,199.627594 
	C480.422699,225.501038 485.486725,255.626541 473.771912,287.764618 
	C459.506531,326.899750 417.071228,352.295258 370.489502,341.032074 
	C354.633301,336.937866 341.143250,328.834747 329.646118,317.216522 
	C316.409607,303.840576 303.046722,290.589630 289.745972,277.277222 
	C286.597412,274.125916 283.477692,270.945831 281.021149,268.462708 
	C274.631836,274.858368 268.592133,280.904083 263.101135,286.400543 
	C265.894653,289.207123 269.144501,292.472229 272.559448,295.903198 
	C274.212555,294.403992 276.139252,292.656677 278.305267,290.692352 
	C291.060944,303.481903 303.742584,315.971771 316.169769,328.709869 
	C335.061279,348.074066 357.788330,359.378601 384.799652,361.489899 
	C405.856873,363.135864 425.789734,359.094055 444.703247,348.146088 
	C445.146881,347.808960 445.590515,347.471802 446.633453,347.080597 
	C447.089569,346.720154 447.545685,346.359711 448.682617,345.871124 
	C474.411987,329.449524 489.925232,305.966156 496.316528,276.476715 
	C499.700897,276.847382 502.729187,277.179077 506.069916,277.544952 
	C506.069916,274.421936 505.912781,272.085083 506.115143,269.779785 
	C506.308594,267.575653 506.876068,265.404388 507.350464,262.831909 
	C503.918823,262.505157 501.149963,262.241516 497.982117,261.939880 
	C497.982117,259.524445 497.982147,257.232971 497.982147,254.941483 
	C497.982147,252.691925 497.982117,250.442368 497.982117,248.242798 
	C500.954681,247.970718 503.382599,247.748489 506.607605,247.453308 
	C505.721161,242.458084 505.423248,237.822556 503.785370,233.722244 
	C503.397644,232.751602 498.510132,233.578430 495.477203,233.578430 
	C495.324615,233.065323 495.118561,232.456375 494.962341,231.834915 
	C489.349762,209.507263 477.769287,190.825027 460.125519,176.105560 
	C425.526459,147.240967 376.788452,143.760178 338.007019,167.110443 
	C336.128113,168.241730 334.371948,170.403442 331.735382,167.363846 
	C327.537720,163.232666 323.340027,159.101486 318.552704,154.389984 
	C315.855011,171.006805 313.317535,186.636566 310.675934,202.907913 
	C316.313629,201.830750 321.153900,200.905960 326.853180,200.070587 
M424.947906,320.596710 
	C427.555695,319.271210 430.335419,318.201385 432.744720,316.580811 
	C457.895081,299.663940 469.823273,268.698578 462.484283,239.652939 
	C454.986420,209.978333 430.268005,188.302963 400.007568,185.226257 
	C391.197784,184.330536 382.338776,184.497665 372.961609,187.796555 
	C378.955902,193.700806 384.372589,199.036133 390.175873,204.752243 
	C388.391113,205.180435 387.171875,205.557709 385.924255,205.759369 
	C370.656097,208.227142 355.373688,210.609207 340.121490,213.171402 
	C337.268188,213.650726 333.749695,214.009796 331.870575,215.812912 
	C321.313721,225.942764 311.164764,236.497681 300.252991,247.155014 
	C297.033112,250.235596 293.813202,253.316193 290.779907,256.218231 
	C291.196503,257.173218 291.252930,257.543030 291.466003,257.756714 
	C306.167755,272.499817 320.846558,287.266144 335.617706,301.939514 
	C339.864960,306.158630 344.115387,310.447632 348.820404,314.120361 
	C370.375244,330.945892 403.201508,333.857361 424.947906,320.596710 
z"/>
<path fill="#A9E599" opacity="1.000000" stroke="none" 
	d="
M60.891670,217.740128 
	C70.654976,201.752975 84.944717,191.623352 102.859680,187.199615 
	C128.056396,180.977798 151.039078,186.304642 169.992935,204.224274 
	C187.897690,221.152039 204.850601,239.086578 222.495270,256.853241 
	C221.830261,257.639954 221.077744,258.669586 220.187637,259.562073 
	C207.717773,272.065277 195.285522,284.607300 182.675873,296.968262 
	C181.044617,298.567322 178.576553,299.799622 176.319641,300.195312 
	C160.590576,302.952972 144.814026,305.439453 129.055496,308.029846 
	C127.137451,308.345154 125.236076,308.761810 122.205994,309.348602 
	C125.779556,312.764557 128.748291,315.602356 131.582703,318.992432 
	C128.347931,319.303558 125.161415,319.442749 122.160034,318.763702 
	C84.163139,310.167084 59.234634,280.153198 58.182209,241.864944 
	C57.962017,233.854218 59.931324,225.783310 60.891670,217.740128 
M114.010452,286.523682 
	C114.010452,288.634491 114.010452,290.745300 114.010452,292.858521 
	C119.299454,292.858521 124.020142,292.858521 128.777298,292.858521 
	C130.095139,285.977753 125.255539,276.789154 136.798416,274.552826 
	C140.619125,276.696777 144.785660,279.034790 149.253311,281.541748 
	C151.811340,277.062378 154.158768,272.951813 156.638077,268.610260 
	C153.020905,266.527649 149.840973,264.748352 146.712509,262.882751 
	C142.649368,260.459747 142.596359,253.570450 146.629211,251.154449 
	C149.855728,249.221497 153.143005,247.389969 156.725250,245.328140 
	C154.039795,240.772079 151.645538,236.710083 149.142838,232.464096 
	C145.476868,234.546402 142.323563,236.364182 139.144791,238.136337 
	C135.102783,240.389755 129.102402,237.042084 129.031509,232.471756 
	C128.972870,228.692093 129.019531,224.910828 129.019531,221.143082 
	C123.733711,221.143082 119.013809,221.143082 114.009941,221.143082 
	C114.009941,225.108536 113.799637,228.763840 114.058777,232.385574 
	C114.456757,237.947678 108.937943,237.038986 106.828484,239.759720 
	C102.415649,237.272736 98.263649,234.932755 93.811699,232.423721 
	C91.238380,236.956940 88.904205,241.068893 86.466347,245.363495 
	C90.072479,247.454697 93.248985,249.245392 96.374062,251.121765 
	C100.426636,253.554977 100.442680,260.434509 96.397789,262.861938 
	C93.175224,264.795868 89.897224,266.637360 86.363220,268.682251 
	C89.048241,273.244385 91.442551,277.312561 93.969978,281.606934 
	C97.336449,279.640625 100.287666,278.114807 103.018135,276.263397 
	C105.486435,274.589752 107.329514,274.860382 110.142761,276.098053 
	C115.021072,278.244263 113.897842,281.965576 114.010452,286.523682 
z"/>
<path fill="#F8ED92" opacity="1.000000" stroke="none" 
	d="
M300.876617,246.907547 
	C311.164764,236.497681 321.313721,225.942764 331.870575,215.812912 
	C333.749695,214.009796 337.268188,213.650726 340.121490,213.171402 
	C355.373688,210.609207 370.656097,208.227142 385.924255,205.759369 
	C387.171875,205.557709 388.391113,205.180435 390.175873,204.752243 
	C384.372589,199.036133 378.955902,193.700806 372.961609,187.796555 
	C382.338776,184.497665 391.197784,184.330536 400.007568,185.226257 
	C430.268005,188.302963 454.986420,209.978333 462.484283,239.652939 
	C469.823273,268.698578 457.895081,299.663940 432.744720,316.580811 
	C430.335419,318.201385 427.555695,319.271210 424.226379,320.792847 
	C422.178162,321.040863 420.834259,320.973541 419.527344,321.162384 
	C399.944702,323.992188 381.771698,319.899109 365.553986,308.830658 
	C358.366974,303.925568 352.139496,297.519135 345.856445,291.403778 
	C330.743744,276.694427 315.855438,261.754456 300.876617,246.907547 
M425.141724,242.543365 
	C423.257690,239.267639 421.373627,235.991928 419.328369,232.435913 
	C414.798584,234.989716 410.630676,237.339478 406.872253,239.458389 
	C399.580261,237.923035 398.104614,233.151413 399.027161,226.863144 
	C399.305145,224.968414 399.070160,222.998444 399.070160,221.162872 
	C393.747894,221.162872 389.027191,221.162872 384.275604,221.162872 
	C383.050079,228.077072 387.687439,237.152496 376.414764,239.483231 
	C372.473480,237.263947 368.328949,234.930191 363.899902,232.436249 
	C361.316406,236.952072 358.966583,241.059433 356.533478,245.312408 
	C359.375549,246.994186 361.672668,248.723526 364.244751,249.789169 
	C368.151733,251.407913 370.153137,253.954605 369.009796,258.119843 
	C368.523865,259.890076 367.465088,261.873230 366.049225,262.940308 
	C363.182892,265.100525 359.895264,266.701752 356.498260,268.699921 
	C359.054138,273.130371 361.420990,277.233093 363.789154,281.338135 
	C370.644806,279.264893 376.030701,270.083649 384.157013,279.229218 
	C384.157013,283.154236 384.157013,287.936096 384.157013,292.946289 
	C389.217560,292.946289 393.939270,292.946289 398.982117,292.946289 
	C398.982117,287.944031 398.982117,283.160614 398.982117,278.556976 
	C406.613007,274.380676 406.608673,274.388306 414.050293,278.624847 
	C415.735626,279.584320 417.462738,280.470490 419.395630,281.511597 
	C421.941986,277.000916 424.266113,272.883881 426.678772,268.610016 
	C423.743805,266.898743 421.337463,265.438232 418.876587,264.076141 
	C416.142792,262.562927 413.800171,261.461182 413.802307,257.233521 
	C413.804474,252.967560 415.780914,251.399841 418.897125,249.895157 
	C420.837555,248.958176 422.840759,247.996597 424.467346,246.630966 
	C425.251526,245.972549 425.230835,244.355484 425.141724,242.543365 
z"/>
<path fill="#C2E2F6" opacity="1.000000" stroke="none" 
	d="
M446.034180,347.134644 
	C445.590515,347.471802 445.146881,347.808960 444.182861,347.911499 
	C442.239960,347.768433 440.769043,347.656555 439.402222,347.981995 
	C417.687592,353.152740 396.351837,351.889893 375.413177,344.216400 
	C373.834106,343.637695 372.525330,342.321442 371.090912,341.348053 
	C417.071228,352.295258 459.506531,326.899750 473.771912,287.764618 
	C485.486725,255.626541 480.422699,225.501038 457.841278,199.627594 
	C434.876007,173.314255 405.241058,165.331436 371.506561,172.628510 
	C363.054077,174.456863 355.012604,178.185318 346.782227,181.040497 
	C346.715973,181.664536 346.649689,182.288589 346.583435,182.912628 
	C350.684784,186.515533 354.786133,190.118439 360.036621,194.730850 
	C347.899872,196.683853 337.376526,198.377213 326.421936,199.597626 
	C326.988434,192.477249 327.841705,185.803665 329.039764,179.192551 
	C329.726257,175.404434 330.972961,171.717850 331.967438,167.985550 
	C334.371948,170.403442 336.128113,168.241730 338.007019,167.110443 
	C376.788452,143.760178 425.526459,147.240967 460.125519,176.105560 
	C477.769287,190.825027 489.349762,209.507263 494.962341,231.834915 
	C495.118561,232.456375 495.324615,233.065323 495.477203,233.578430 
	C498.510132,233.578430 503.397644,232.751602 503.785370,233.722244 
	C505.423248,237.822556 505.721161,242.458084 506.607605,247.453308 
	C503.382599,247.748489 500.954681,247.970718 497.982117,248.242798 
	C497.982117,250.442368 497.982147,252.691925 497.982147,254.941483 
	C497.982147,257.232971 497.982117,259.524445 497.982117,261.939880 
	C501.149963,262.241516 503.918823,262.505157 507.350464,262.831909 
	C506.876068,265.404388 506.308594,267.575653 506.115143,269.779785 
	C505.912781,272.085083 506.069916,274.421936 506.069916,277.544952 
	C502.729187,277.179077 499.700897,276.847382 496.316528,276.476715 
	C489.925232,305.966156 474.411987,329.449524 448.037231,345.950562 
	C446.939270,346.398224 446.486725,346.766449 446.034180,347.134644 
z"/>
<path fill="#C2E3F6" opacity="1.000000" stroke="none" 
	d="
M30.816257,203.502106 
	C46.419949,176.874359 69.538277,160.219757 99.558929,154.202118 
	C136.428299,146.811600 168.727173,156.750824 195.713089,183.075653 
	C208.825226,195.866623 221.642075,208.960281 234.764236,222.544403 
	C233.952652,224.627991 233.107376,226.204971 231.958298,227.515610 
	C229.359055,230.480240 226.609894,233.313416 223.921692,236.200043 
	C210.692001,223.099167 197.384384,210.075821 184.251129,196.878983 
	C165.237076,177.772842 142.388153,168.819244 115.429214,169.973907 
	C75.998413,171.662750 40.299301,204.204926 34.949150,243.304871 
	C33.207657,256.032104 33.918507,268.497253 36.982506,281.438416 
	C34.827801,277.068054 32.345173,272.266205 31.004166,267.164246 
	C27.294794,253.051605 24.381741,238.789993 26.911596,224.043808 
	C27.999542,217.702301 28.975183,211.341537 30.001854,204.989517 
	C30.001856,204.989517 30.003384,205.000809 30.228827,204.810913 
	C30.574932,204.248047 30.695597,203.875076 30.816257,203.502106 
z"/>
<path fill="#A2D4F2" opacity="1.000000" stroke="none" 
	d="
M29.713657,205.183014 
	C28.975183,211.341537 27.999542,217.702301 26.911596,224.043808 
	C24.381741,238.789993 27.294794,253.051605 31.004166,267.164246 
	C32.345173,272.266205 34.827801,277.068054 37.000698,281.832886 
	C40.201351,288.255157 43.123299,294.883545 46.234711,301.421783 
	C46.891369,302.801697 48.242153,303.851288 49.687378,305.413879 
	C53.335194,309.827728 56.568748,313.880768 59.802303,317.933777 
	C67.105148,327.211182 77.063438,332.671448 88.024033,337.819397 
	C89.073296,338.464905 89.712082,338.572052 90.350861,338.679169 
	C90.350861,338.679169 90.177292,338.713684 90.306625,338.967499 
	C92.286827,340.300262 94.035263,341.637482 96.004303,342.418518 
	C117.977333,351.134735 140.521957,352.330933 163.498077,347.303406 
	C165.153076,346.941284 166.758072,346.350555 168.729202,345.764099 
	C165.412994,341.923706 162.614731,338.683105 159.816452,335.442505 
	C161.817368,334.329590 163.818268,333.216675 166.490692,331.730255 
	C162.110580,327.637726 158.048370,323.842194 153.267868,319.375580 
	C159.946976,318.223816 165.424103,317.279297 171.415222,316.730591 
	C172.838791,318.466003 173.572083,319.978333 174.687286,321.116394 
	C180.699081,327.251434 186.771530,333.328522 192.910522,339.336151 
	C194.037704,340.439209 195.567856,341.130493 196.912018,342.011841 
	C196.110550,347.562561 195.309067,353.113281 194.399216,359.414520 
	C189.369675,353.874542 184.872314,348.920776 180.386719,343.979950 
	C154.255646,360.113342 127.530052,365.563904 98.839798,359.495178 
	C76.855057,354.844849 58.265362,344.042542 43.167786,327.408203 
	C12.793972,293.942688 7.410930,245.729156 29.713657,205.183014 
z"/>
<path fill="#A2D4F2" opacity="1.000000" stroke="none" 
	d="
M370.790222,341.190063 
	C372.525330,342.321442 373.834106,343.637695 375.413177,344.216400 
	C396.351837,351.889893 417.687592,353.152740 439.402222,347.981995 
	C440.769043,347.656555 442.239960,347.768433 443.898163,347.966064 
	C425.789734,359.094055 405.856873,363.135864 384.799652,361.489899 
	C357.788330,359.378601 335.061279,348.074066 316.169769,328.709869 
	C303.742584,315.971771 291.060944,303.481903 278.305267,290.692352 
	C276.139252,292.656677 274.212555,294.403992 272.559448,295.903198 
	C269.144501,292.472229 265.894653,289.207123 263.101135,286.400543 
	C268.592133,280.904083 274.631836,274.858368 281.021149,268.462708 
	C283.477692,270.945831 286.597412,274.125916 289.745972,277.277222 
	C303.046722,290.589630 316.409607,303.840576 329.646118,317.216522 
	C341.143250,328.834747 354.633301,336.937866 370.790222,341.190063 
z"/>
<path fill="#C1E2F5" opacity="1.000000" stroke="none" 
	d="
M293.933075,207.887253 
	C293.633759,212.091797 293.334442,216.296341 293.016388,220.763870 
	C297.587524,220.092987 301.883453,219.462479 304.241089,219.116470 
	C275.969208,247.166199 246.813416,276.092896 218.474518,304.209137 
	C218.847824,301.794952 219.482224,297.692291 220.162842,293.290680 
	C215.445663,293.966370 211.318481,294.557556 207.000992,295.176025 
	C236.006729,265.881470 264.664459,236.938400 293.645264,207.973145 
	C293.968323,207.950974 293.933075,207.887253 293.933075,207.887253 
z"/>
<path fill="#8DDC77" opacity="1.000000" stroke="none" 
	d="
M60.595276,217.929337 
	C59.931324,225.783310 57.962017,233.854218 58.182209,241.864944 
	C59.234634,280.153198 84.163139,310.167084 122.160034,318.763702 
	C125.161415,319.442749 128.347931,319.303558 131.729645,319.294556 
	C134.367035,321.291168 136.723145,323.537903 139.241486,325.939331 
	C121.781998,332.449585 91.635895,328.847015 70.033615,307.987427 
	C68.306129,309.638000 66.554848,311.311310 64.198845,312.915955 
	C60.678627,309.196259 57.763134,305.545197 54.847649,301.894165 
	C56.791767,300.376465 58.735882,298.858795 60.891827,297.175751 
	C45.418606,270.988464 44.388195,244.592422 60.595276,217.929337 
z"/>
<path fill="#F3DF3E" opacity="1.000000" stroke="none" 
	d="
M300.564819,247.031281 
	C315.855438,261.754456 330.743744,276.694427 345.856445,291.403778 
	C352.139496,297.519135 358.366974,303.925568 365.553986,308.830658 
	C381.771698,319.899109 399.944702,323.992188 419.527344,321.162384 
	C420.834259,320.973541 422.178162,321.040863 423.978149,321.031830 
	C403.201508,333.857361 370.375244,330.945892 348.820404,314.120361 
	C344.115387,310.447632 339.864960,306.158630 335.617706,301.939514 
	C320.846558,287.266144 306.167755,272.499817 291.466003,257.756714 
	C291.252930,257.543030 291.196503,257.173218 290.779907,256.218231 
	C293.813202,253.316193 297.033112,250.235596 300.564819,247.031281 
z"/>
<path fill="#A1D3F0" opacity="1.000000" stroke="none" 
	d="
M331.851410,167.674698 
	C330.972961,171.717850 329.726257,175.404434 329.039764,179.192551 
	C327.841705,185.803665 326.988434,192.477249 325.992432,199.552917 
	C321.153900,200.905960 316.313629,201.830750 310.675934,202.907913 
	C313.317535,186.636566 315.855011,171.006805 318.552704,154.389984 
	C323.340027,159.101486 327.537720,163.232666 331.851410,167.674698 
z"/>
<path fill="#C0E1F5" opacity="1.000000" stroke="none" 
	d="
M159.442993,335.549500 
	C162.614731,338.683105 165.412994,341.923706 168.729202,345.764099 
	C166.758072,346.350555 165.153076,346.941284 163.498077,347.303406 
	C140.521957,352.330933 117.977333,351.134735 96.004303,342.418518 
	C94.035263,341.637482 92.286827,340.300262 90.317123,338.879639 
	C113.526344,346.444275 136.472137,345.214111 159.442993,335.549500 
z"/>
<path fill="#C0E1F5" opacity="1.000000" stroke="none" 
	d="
M197.041214,341.636719 
	C195.567856,341.130493 194.037704,340.439209 192.910522,339.336151 
	C186.771530,333.328522 180.699081,327.251434 174.687286,321.116394 
	C173.572083,319.978333 172.838791,318.466003 171.854553,316.743866 
	C181.699707,314.702362 191.619553,313.043396 202.192703,311.275177 
	C200.445007,321.710083 198.807709,331.485840 197.041214,341.636719 
z"/>
<path fill="#A1D2EF" opacity="1.000000" stroke="none" 
	d="
M224.037811,236.509369 
	C226.609894,233.313416 229.359055,230.480240 231.958298,227.515610 
	C233.107376,226.204971 233.952652,224.627991 234.954956,222.842789 
	C237.457428,220.816162 239.940796,219.118652 242.546234,217.337708 
	C245.851578,220.195648 249.410324,223.272705 252.741333,226.152863 
	C246.248825,232.621323 239.832733,239.013657 232.894196,245.926498 
	C230.263275,243.184937 227.208603,240.001801 224.037811,236.509369 
z"/>
<path fill="#C1E2F5" opacity="1.000000" stroke="none" 
	d="
M54.528854,301.953308 
	C57.763134,305.545197 60.678627,309.196259 63.888664,313.044067 
	C62.886803,314.660156 61.590393,316.079498 60.048141,317.716309 
	C56.568748,313.880768 53.335194,309.827728 50.052139,305.430115 
	C51.405113,304.061218 52.807587,303.036835 54.528854,301.953308 
z"/>
<path fill="#C0E1F5" opacity="1.000000" stroke="none" 
	d="
M90.128723,338.446960 
	C89.712082,338.572052 89.073296,338.464905 88.234436,338.089355 
	C88.658432,337.952209 89.282516,338.083496 90.128723,338.446960 
z"/>
<path fill="#A2D4F2" opacity="1.000000" stroke="none" 
	d="
M446.333801,347.107635 
	C446.486725,346.766449 446.939270,346.398224 447.696838,346.014648 
	C447.545685,346.359711 447.089569,346.720154 446.333801,347.107635 
z"/>
<path fill="#C1E2F5" opacity="1.000000" stroke="none" 
	d="
M293.990112,207.980133 
	C294.187622,207.810913 294.363312,207.612534 294.539001,207.414154 
	C294.459808,207.674683 294.380615,207.935226 294.117249,208.041504 
	C293.933075,207.887253 293.968323,207.950974 293.990112,207.980133 
z"/>
<path fill="#A2D4F2" opacity="1.000000" stroke="none" 
	d="
M30.554752,203.667572 
	C30.695597,203.875076 30.574932,204.248047 30.224094,204.813583 
	C30.093695,204.615112 30.193470,204.224091 30.554752,203.667572 
z"/>
<path fill="#020302" opacity="1.000000" stroke="none" 
	d="
M114.010452,286.047913 
	C113.897842,281.965576 115.021072,278.244263 110.142761,276.098053 
	C107.329514,274.860382 105.486435,274.589752 103.018135,276.263397 
	C100.287666,278.114807 97.336449,279.640625 93.969978,281.606934 
	C91.442551,277.312561 89.048241,273.244385 86.363220,268.682251 
	C89.897224,266.637360 93.175224,264.795868 96.397789,262.861938 
	C100.442680,260.434509 100.426636,253.554977 96.374062,251.121765 
	C93.248985,249.245392 90.072479,247.454697 86.466347,245.363495 
	C88.904205,241.068893 91.238380,236.956940 93.811699,232.423721 
	C98.263649,234.932755 102.415649,237.272736 106.828484,239.759720 
	C108.937943,237.038986 114.456757,237.947678 114.058777,232.385574 
	C113.799637,228.763840 114.009941,225.108536 114.009941,221.143082 
	C119.013809,221.143082 123.733711,221.143082 129.019531,221.143082 
	C129.019531,224.910828 128.972870,228.692093 129.031509,232.471756 
	C129.102402,237.042084 135.102783,240.389755 139.144791,238.136337 
	C142.323563,236.364182 145.476868,234.546402 149.142838,232.464096 
	C151.645538,236.710083 154.039795,240.772079 156.725250,245.328140 
	C153.143005,247.389969 149.855728,249.221497 146.629211,251.154449 
	C142.596359,253.570450 142.649368,260.459747 146.712509,262.882751 
	C149.840973,264.748352 153.020905,266.527649 156.638077,268.610260 
	C154.158768,272.951813 151.811340,277.062378 149.253311,281.541748 
	C144.785660,279.034790 140.619125,276.696777 136.798416,274.552826 
	C125.255539,276.789154 130.095139,285.977753 128.777298,292.858521 
	C124.020142,292.858521 119.299454,292.858521 114.010452,292.858521 
	C114.010452,290.745300 114.010452,288.634491 114.010452,286.047913 
M121.562004,249.572952 
	C116.876282,249.935883 114.145409,252.472809 114.117920,257.150299 
	C114.096298,260.828552 116.212601,263.339600 119.913216,264.174713 
	C123.875488,265.068939 127.735817,262.731537 128.792511,258.914734 
	C129.950226,254.733078 127.476913,251.203186 121.562004,249.572952 
z"/>
<path fill="#040302" opacity="1.000000" stroke="none" 
	d="
M425.358185,242.857941 
	C425.230835,244.355484 425.251526,245.972549 424.467346,246.630966 
	C422.840759,247.996597 420.837555,248.958176 418.897125,249.895157 
	C415.780914,251.399841 413.804474,252.967560 413.802307,257.233521 
	C413.800171,261.461182 416.142792,262.562927 418.876587,264.076141 
	C421.337463,265.438232 423.743805,266.898743 426.678772,268.610016 
	C424.266113,272.883881 421.941986,277.000916 419.395630,281.511597 
	C417.462738,280.470490 415.735626,279.584320 414.050293,278.624847 
	C406.608673,274.388306 406.613007,274.380676 398.982117,278.556976 
	C398.982117,283.160614 398.982117,287.944031 398.982117,292.946289 
	C393.939270,292.946289 389.217560,292.946289 384.157013,292.946289 
	C384.157013,287.936096 384.157013,283.154236 384.157013,279.229218 
	C376.030701,270.083649 370.644806,279.264893 363.789154,281.338135 
	C361.420990,277.233093 359.054138,273.130371 356.498260,268.699921 
	C359.895264,266.701752 363.182892,265.100525 366.049225,262.940308 
	C367.465088,261.873230 368.523865,259.890076 369.009796,258.119843 
	C370.153137,253.954605 368.151733,251.407913 364.244751,249.789169 
	C361.672668,248.723526 359.375549,246.994186 356.533478,245.312408 
	C358.966583,241.059433 361.316406,236.952072 363.899902,232.436249 
	C368.328949,234.930191 372.473480,237.263947 376.414764,239.483231 
	C387.687439,237.152496 383.050079,228.077072 384.275604,221.162872 
	C389.027191,221.162872 393.747894,221.162872 399.070160,221.162872 
	C399.070160,222.998444 399.305145,224.968414 399.027161,226.863144 
	C398.104614,233.151413 399.580261,237.923035 406.872253,239.458389 
	C410.630676,237.339478 414.798584,234.989716 419.328369,232.435913 
	C421.373627,235.991928 423.257690,239.267639 425.358185,242.857941 
M395.422913,263.355469 
	C398.593536,261.313141 400.058685,258.195465 398.600800,254.888992 
	C397.678741,252.797714 395.152771,250.280670 393.143799,250.090347 
	C390.670380,249.855988 387.112915,251.172455 385.654114,253.071167 
	C384.353577,254.763885 384.428192,258.538025 385.399902,260.725494 
	C387.107361,264.569122 390.866425,265.031433 395.422913,263.355469 
z"/>
<path fill="#A5E095" opacity="1.000000" stroke="none" 
	d="
M121.924866,249.602036 
	C127.476913,251.203186 129.950226,254.733078 128.792511,258.914734 
	C127.735817,262.731537 123.875488,265.068939 119.913216,264.174713 
	C116.212601,263.339600 114.096298,260.828552 114.117920,257.150299 
	C114.145409,252.472809 116.876282,249.935883 121.924866,249.602036 
z"/>
<path fill="#F4E98F" opacity="1.000000" stroke="none" 
	d="
M395.082764,263.580444 
	C390.866425,265.031433 387.107361,264.569122 385.399902,260.725494 
	C384.428192,258.538025 384.353577,254.763885 385.654114,253.071167 
	C387.112915,251.172455 390.670380,249.855988 393.143799,250.090347 
	C395.152771,250.280670 397.678741,252.797714 398.600800,254.888992 
	C400.058685,258.195465 398.593536,261.313141 395.082764,263.580444 
z"/>
</svg>