<?xml version="1.0" encoding="UTF-8"?>
<!DOCTYPE svg PUBLIC "-//W3C//DTD SVG 1.1//EN" "http://www.w3.org/Graphics/SVG/1.1/DTD/svg11.dtd">
<svg xmlns="http://www.w3.org/2000/svg" version="1.1" width="512px" height="549px" style="shape-rendering:geometricPrecision; text-rendering:geometricPrecision; image-rendering:optimizeQuality; fill-rule:evenodd; clip-rule:evenodd" xmlns:xlink="http://www.w3.org/1999/xlink">
<g><path style="opacity:0.991" fill="#373737" d="M 237.5,-0.5 C 249.5,-0.5 261.5,-0.5 273.5,-0.5C 276.603,0.0423776 279.436,1.37571 282,3.5C 286.11,12.7194 289.943,22.0527 293.5,31.5C 302.897,34.4635 311.897,38.2969 320.5,43C 330.763,39.5479 341.096,36.0479 351.5,32.5C 355.448,32.6406 358.781,34.1406 361.5,37C 367.306,41.8946 372.64,47.228 377.5,53C 413.193,53.054 448.86,53.7207 484.5,55C 498.429,59.4279 507.429,68.5946 511.5,82.5C 511.5,191.833 511.5,301.167 511.5,410.5C 507.455,424.379 498.455,433.546 484.5,438C 444.868,439.464 405.201,439.964 365.5,439.5C 365.187,446.755 365.52,453.921 366.5,461C 384.329,470.747 401.996,480.747 419.5,491C 423.266,492.769 426.433,495.269 429,498.5C 429.667,510.833 429.667,523.167 429,535.5C 426.727,541.27 422.894,545.603 417.5,548.5C 309.5,548.5 201.5,548.5 93.5,548.5C 88.1063,545.603 84.273,541.27 82,535.5C 81.3333,523.167 81.3333,510.833 82,498.5C 84.5426,495.3 87.7093,492.8 91.5,491C 109.329,481.253 126.996,471.253 144.5,461C 145.48,453.921 145.813,446.755 145.5,439.5C 105.799,439.964 66.1323,439.464 26.5,438C 12.5447,433.546 3.54471,424.379 -0.5,410.5C -0.5,333.167 -0.5,255.833 -0.5,178.5C 1.41314,174.928 4.41314,172.928 8.5,172.5C 12.7364,173.734 15.7364,176.401 17.5,180.5C 17.5,236.167 17.5,291.833 17.5,347.5C 176.167,347.5 334.833,347.5 493.5,347.5C 493.833,260.332 493.499,173.332 492.5,86.5C 490.316,79.4834 485.649,74.9834 478.5,73C 447.495,72.1668 416.495,72.3334 385.5,73.5C 381.97,81.4246 378.637,89.4246 375.5,97.5C 380.141,106.456 383.975,115.79 387,125.5C 396.697,130.182 406.53,134.682 416.5,139C 417.126,139.75 417.626,140.584 418,141.5C 419.474,150.454 419.807,159.454 419,168.5C 416.971,171.596 414.138,173.262 410.5,173.5C 406.239,172.947 403.406,170.613 402,166.5C 401.501,161.511 401.334,156.511 401.5,151.5C 393.753,148.972 386.087,146.139 378.5,143C 375.898,142.117 373.731,140.617 372,138.5C 368.644,125.792 363.644,113.792 357,102.5C 356.333,99.5 356.333,96.5 357,93.5C 360.116,85.4824 363.616,77.6491 367.5,70C 362.314,63.3138 356.314,57.4805 349.5,52.5C 341.167,56 332.833,59.5 324.5,63C 322.167,63.6667 319.833,63.6667 317.5,63C 306.241,56.2463 294.241,51.2463 281.5,48C 279.951,46.786 278.785,45.286 278,43.5C 274.862,35.087 271.529,26.7536 268,18.5C 259.667,17.1667 251.333,17.1667 243,18.5C 240,26.1667 237,33.8333 234,41.5C 233.117,44.1024 231.617,46.2691 229.5,48C 216.393,51.052 204.06,56.052 192.5,63C 190.167,63.6667 187.833,63.6667 185.5,63C 177.541,59.4028 169.541,55.9028 161.5,52.5C 154.686,57.4805 148.686,63.3138 143.5,70C 148.157,78.9754 151.824,88.3087 154.5,98C 151.459,106.262 147.959,114.428 144,122.5C 142.458,127.884 140.791,133.217 139,138.5C 137.786,140.049 136.286,141.215 134.5,142C 126.46,145.069 118.46,148.235 110.5,151.5C 109.335,159.813 109.168,168.147 110,176.5C 119.449,180.225 128.783,184.225 138,188.5C 141.183,196.378 144.183,204.378 147,212.5C 149.079,216.993 151.412,221.326 154,225.5C 154.667,228.5 154.667,231.5 154,234.5C 150.046,242.719 146.713,251.052 144,259.5C 149.167,264.667 154.333,269.833 159.5,275C 160.833,275.667 162.167,275.667 163.5,275C 171.99,271.005 180.656,267.505 189.5,264.5C 196.236,267.367 202.903,270.533 209.5,274C 216.473,276.602 223.473,279.102 230.5,281.5C 235.493,290.656 239.827,300.156 243.5,310C 251.5,310.667 259.5,310.667 267.5,310C 271.225,300.551 275.225,291.217 279.5,282C 288.12,278.673 296.786,275.339 305.5,272C 309.993,269.921 314.326,267.588 318.5,265C 320.167,264.333 321.833,264.333 323.5,265C 330.616,267.725 337.616,270.725 344.5,274C 346.754,275.15 349.087,275.484 351.5,275C 356.333,270.167 361.167,265.333 366,260.5C 366.667,258.833 366.667,257.167 366,255.5C 362.108,247.225 358.941,238.725 356.5,230C 358.266,223.956 360.766,218.123 364,212.5C 366.732,205.637 369.066,198.637 371,191.5C 377.485,183.241 383.318,183.574 388.5,192.5C 386.325,206.027 381.991,218.86 375.5,231C 378.805,239.249 382.305,247.415 386,255.5C 386.667,258.167 386.667,260.833 386,263.5C 377.875,275.293 368.041,285.459 356.5,294C 354.801,294.958 352.967,295.458 351,295.5C 341.962,292.597 333.128,289.097 324.5,285C 323.167,284.333 321.833,284.333 320.5,285C 311.821,289.449 302.821,293.115 293.5,296C 289.614,304.322 286.114,312.822 283,321.5C 280.341,326.414 276.174,328.581 270.5,328C 258.833,328.667 247.167,328.667 235.5,328C 232.804,327.31 230.637,325.81 229,323.5C 225.572,314.146 221.738,304.979 217.5,296C 207.561,292.854 197.894,289.02 188.5,284.5C 180.172,287.997 171.838,291.497 163.5,295C 160.833,295.667 158.167,295.667 155.5,295C 143.626,286.126 133.459,275.626 125,263.5C 124.333,260.833 124.333,258.167 125,255.5C 128.695,247.415 132.195,239.249 135.5,231C 130.975,221.783 127.142,212.283 124,202.5C 115.678,198.614 107.178,195.114 98.5,192C 93.8859,189.61 91.7192,185.777 92,180.5C 91.3333,168.167 91.3333,155.833 92,143.5C 92.6667,142.167 93.3333,140.833 94,139.5C 103.2,134.762 112.7,130.596 122.5,127C 125.973,117.551 130.14,108.385 135,99.5C 135.667,98.1667 135.667,96.8333 135,95.5C 131.931,88.1255 128.764,80.7922 125.5,73.5C 109.833,73.1667 94.1667,72.8333 78.5,72.5C 61.7696,72.3544 45.1029,72.8544 28.5,74C 23.5551,76.9456 20.0551,81.1122 18,86.5C 17.6667,104.5 17.3333,122.5 17,140.5C 15.0575,143.878 12.2241,145.878 8.5,146.5C 4.7793,146.109 1.7793,144.442 -0.5,141.5C -0.5,121.833 -0.5,102.167 -0.5,82.5C 3.54471,68.6206 12.5447,59.4539 26.5,55C 62.1373,53.7135 97.804,53.0468 133.5,53C 140.183,45.6516 147.517,38.985 155.5,33C 157,32.8333 158.5,32.6667 160,32.5C 170.175,36.1807 180.342,39.6807 190.5,43C 199.137,38.2884 208.137,34.4551 217.5,31.5C 221.057,22.0527 224.89,12.7194 229,3.5C 231.564,1.37571 234.397,0.0423776 237.5,-0.5 Z"/></g>
<g><path style="opacity:1" fill="#4c7592" d="M 410.5,173.5 C 410.784,176.777 410.451,179.943 409.5,183C 402.07,185.519 395.07,188.685 388.5,192.5C 383.318,183.574 377.485,183.241 371,191.5C 369.066,198.637 366.732,205.637 364,212.5C 360.766,218.123 358.266,223.956 356.5,230C 358.941,238.725 362.108,247.225 366,255.5C 366.667,257.167 366.667,258.833 366,260.5C 361.167,265.333 356.333,270.167 351.5,275C 349.087,275.484 346.754,275.15 344.5,274C 337.616,270.725 330.616,267.725 323.5,265C 321.833,264.333 320.167,264.333 318.5,265C 314.326,267.588 309.993,269.921 305.5,272C 296.786,275.339 288.12,278.673 279.5,282C 275.225,291.217 271.225,300.551 267.5,310C 259.5,310.667 251.5,310.667 243.5,310C 239.827,300.156 235.493,290.656 230.5,281.5C 223.473,279.102 216.473,276.602 209.5,274C 202.903,270.533 196.236,267.367 189.5,264.5C 180.656,267.505 171.99,271.005 163.5,275C 162.167,275.667 160.833,275.667 159.5,275C 154.333,269.833 149.167,264.667 144,259.5C 146.713,251.052 150.046,242.719 154,234.5C 154.667,231.5 154.667,228.5 154,225.5C 151.412,221.326 149.079,216.993 147,212.5C 144.183,204.378 141.183,196.378 138,188.5C 128.783,184.225 119.449,180.225 110,176.5C 109.168,168.147 109.335,159.813 110.5,151.5C 118.46,148.235 126.46,145.069 134.5,142C 136.286,141.215 137.786,140.049 139,138.5C 140.791,133.217 142.458,127.884 144,122.5C 147.959,114.428 151.459,106.262 154.5,98C 151.824,88.3087 148.157,78.9754 143.5,70C 148.686,63.3138 154.686,57.4805 161.5,52.5C 169.541,55.9028 177.541,59.4028 185.5,63C 187.833,63.6667 190.167,63.6667 192.5,63C 204.06,56.052 216.393,51.052 229.5,48C 231.617,46.2691 233.117,44.1024 234,41.5C 237,33.8333 240,26.1667 243,18.5C 251.333,17.1667 259.667,17.1667 268,18.5C 271.529,26.7536 274.862,35.087 278,43.5C 278.785,45.286 279.951,46.786 281.5,48C 294.241,51.2463 306.241,56.2463 317.5,63C 319.833,63.6667 322.167,63.6667 324.5,63C 332.833,59.5 341.167,56 349.5,52.5C 356.314,57.4805 362.314,63.3138 367.5,70C 363.616,77.6491 360.116,85.4824 357,93.5C 356.333,96.5 356.333,99.5 357,102.5C 363.644,113.792 368.644,125.792 372,138.5C 373.731,140.617 375.898,142.117 378.5,143C 386.087,146.139 393.753,148.972 401.5,151.5C 401.334,156.511 401.501,161.511 402,166.5C 403.406,170.613 406.239,172.947 410.5,173.5 Z"/></g>
<g><path style="opacity:1" fill="#5dc3e7" d="M 388.5,192.5 C 395.07,188.685 402.07,185.519 409.5,183C 410.451,179.943 410.784,176.777 410.5,173.5C 414.138,173.262 416.971,171.596 419,168.5C 419.807,159.454 419.474,150.454 418,141.5C 417.626,140.584 417.126,139.75 416.5,139C 406.53,134.682 396.697,130.182 387,125.5C 383.975,115.79 380.141,106.456 375.5,97.5C 378.637,89.4246 381.97,81.4246 385.5,73.5C 416.495,72.3334 447.495,72.1668 478.5,73C 485.649,74.9834 490.316,79.4834 492.5,86.5C 492.5,173.167 492.5,259.833 492.5,346.5C 334.5,346.5 176.5,346.5 18.5,346.5C 18.8323,290.997 18.499,235.664 17.5,180.5C 15.7364,176.401 12.7364,173.734 8.5,172.5C 8.5,163.833 8.5,155.167 8.5,146.5C 12.2241,145.878 15.0575,143.878 17,140.5C 17.3333,122.5 17.6667,104.5 18,86.5C 20.0551,81.1122 23.5551,76.9456 28.5,74C 45.1029,72.8544 61.7696,72.3544 78.5,72.5C 94.1667,72.8333 109.833,73.1667 125.5,73.5C 128.764,80.7922 131.931,88.1255 135,95.5C 135.667,96.8333 135.667,98.1667 135,99.5C 130.14,108.385 125.973,117.551 122.5,127C 112.7,130.596 103.2,134.762 94,139.5C 93.3333,140.833 92.6667,142.167 92,143.5C 91.3333,155.833 91.3333,168.167 92,180.5C 91.7192,185.777 93.8859,189.61 98.5,192C 107.178,195.114 115.678,198.614 124,202.5C 127.142,212.283 130.975,221.783 135.5,231C 132.195,239.249 128.695,247.415 125,255.5C 124.333,258.167 124.333,260.833 125,263.5C 133.459,275.626 143.626,286.126 155.5,295C 158.167,295.667 160.833,295.667 163.5,295C 171.838,291.497 180.172,287.997 188.5,284.5C 197.894,289.02 207.561,292.854 217.5,296C 221.738,304.979 225.572,314.146 229,323.5C 230.637,325.81 232.804,327.31 235.5,328C 247.167,328.667 258.833,328.667 270.5,328C 276.174,328.581 280.341,326.414 283,321.5C 286.114,312.822 289.614,304.322 293.5,296C 302.821,293.115 311.821,289.449 320.5,285C 321.833,284.333 323.167,284.333 324.5,285C 333.128,289.097 341.962,292.597 351,295.5C 352.967,295.458 354.801,294.958 356.5,294C 368.041,285.459 377.875,275.293 386,263.5C 386.667,260.833 386.667,258.167 386,255.5C 382.305,247.415 378.805,239.249 375.5,231C 381.991,218.86 386.325,206.027 388.5,192.5 Z"/></g>
<g><path style="opacity:1" fill="#373738" d="M 196.5,109.5 C 207.273,108.767 211.106,113.434 208,123.5C 195.015,137.318 181.849,150.985 168.5,164.5C 181.486,177.986 194.653,191.319 208,204.5C 210.965,216.532 206.465,220.699 194.5,217C 179,201.5 163.5,186 148,170.5C 145.296,167.001 144.963,163.334 147,159.5C 163.702,142.965 180.202,126.299 196.5,109.5 Z"/></g>
<g><path style="opacity:1" fill="#373737" d="M 270.5,109.5 C 280.179,108.678 284.012,113.011 282,122.5C 269.5,153.5 257,184.5 244.5,215.5C 241.03,218.394 237.03,219.227 232.5,218C 228.797,214.604 227.631,210.437 229,205.5C 241,175.5 253,145.5 265,115.5C 266.36,112.977 268.193,110.977 270.5,109.5 Z"/></g>
<g><path style="opacity:1" fill="#373737" d="M 306.5,109.5 C 309.607,109.351 312.607,109.851 315.5,111C 331.667,127.167 347.833,143.333 364,159.5C 366.037,163.334 365.704,167.001 363,170.5C 347.5,186 332,201.5 316.5,217C 304.514,220.678 300.014,216.511 303,204.5C 316.542,191.292 329.709,177.792 342.5,164C 329.746,150.244 316.579,136.744 303,123.5C 301.543,120.634 301.21,117.634 302,114.5C 303.707,112.963 305.207,111.296 306.5,109.5 Z"/></g>
<g><path style="opacity:1" fill="#5197b0" d="M 492.5,86.5 C 493.499,173.332 493.833,260.332 493.5,347.5C 334.833,347.5 176.167,347.5 17.5,347.5C 17.5,291.833 17.5,236.167 17.5,180.5C 18.499,235.664 18.8323,290.997 18.5,346.5C 176.5,346.5 334.5,346.5 492.5,346.5C 492.5,259.833 492.5,173.167 492.5,86.5 Z"/></g>
<g><path style="opacity:1" fill="#cad0d6" d="M 17.5,365.5 C 176.167,365.5 334.833,365.5 493.5,365.5C 493.667,379.171 493.5,392.837 493,406.5C 490.5,413 486,417.5 479.5,420C 330.167,420.667 180.833,420.667 31.5,420C 25.0257,417.526 20.5257,413.026 18,406.5C 17.5001,392.837 17.3334,379.171 17.5,365.5 Z"/></g>
<g><path style="opacity:1" fill="#3b3c3c" d="M 234.5,383.5 C 248.504,383.333 262.504,383.5 276.5,384C 283.275,388.175 284.275,393.508 279.5,400C 278.167,400.667 276.833,401.333 275.5,402C 261.833,402.667 248.167,402.667 234.5,402C 228.975,399.081 227.142,394.581 229,388.5C 230.73,386.598 232.563,384.931 234.5,383.5 Z"/></g>
<g><path style="opacity:1" fill="#797c81" d="M 164.5,438.5 C 164.5,444.5 164.5,450.5 164.5,456.5C 225.167,456.5 285.833,456.5 346.5,456.5C 346.5,450.5 346.5,444.5 346.5,438.5C 347.49,444.645 347.823,450.978 347.5,457.5C 286.167,457.5 224.833,457.5 163.5,457.5C 163.177,450.978 163.51,444.645 164.5,438.5 Z"/></g>
<g><path style="opacity:1" fill="#a9afb9" d="M 164.5,438.5 C 225.167,438.5 285.833,438.5 346.5,438.5C 346.5,444.5 346.5,450.5 346.5,456.5C 285.833,456.5 225.167,456.5 164.5,456.5C 164.5,450.5 164.5,444.5 164.5,438.5 Z"/></g>
<g><path style="opacity:1" fill="#cad0d6" d="M 384.5,492.5 C 298.5,493.833 212.5,493.833 126.5,492.5C 136.606,487.278 146.606,481.778 156.5,476C 222.5,475.333 288.5,475.333 354.5,476C 364.394,481.778 374.394,487.278 384.5,492.5 Z"/></g>
<g><path style="opacity:1" fill="#4b4c4d" d="M 126.5,492.5 C 212.5,493.833 298.5,493.833 384.5,492.5C 385.043,492.56 385.376,492.893 385.5,493.5C 298.833,494.833 212.167,494.833 125.5,493.5C 125.624,492.893 125.957,492.56 126.5,492.5 Z"/></g>
<g><path style="opacity:1" fill="#7d8087" d="M 99.5,511.5 C 203.5,511.5 307.5,511.5 411.5,511.5C 411.5,517.833 411.5,524.167 411.5,530.5C 307.5,530.5 203.5,530.5 99.5,530.5C 99.5,524.167 99.5,517.833 99.5,511.5 Z"/></g>
<g><path style="opacity:1" fill="#aab1ba" d="M 100.5,512.5 C 203.833,512.5 307.167,512.5 410.5,512.5C 410.5,518.167 410.5,523.833 410.5,529.5C 307.167,529.5 203.833,529.5 100.5,529.5C 100.5,523.833 100.5,518.167 100.5,512.5 Z"/></g>
</svg>
