<svg version="1.1" id="Layer_1" xmlns="http://www.w3.org/2000/svg" xmlns:xlink="http://www.w3.org/1999/xlink" x="0px" y="0px"
	 width="100%" viewBox="0 0 512 512" enable-background="new 0 0 512 512" xml:space="preserve">
<path fill="#020202" opacity="0.000000" stroke="none" 
	d="
M513.000000,181.000000 
	C513.000000,291.973022 513.000000,402.446045 513.000000,512.959534 
	C342.401978,512.959534 171.803925,512.959534 1.102941,512.959534 
	C1.102941,342.443665 1.102941,171.887268 1.102941,1.165426 
	C171.666534,1.165426 342.333252,1.165426 513.000000,1.165426 
	C513.000000,60.862705 513.000000,120.681351 513.000000,181.000000 
M194.727722,272.877686 
	C218.000229,267.072784 234.498047,252.847351 238.082169,229.252289 
	C241.202438,208.710922 239.603455,187.438782 239.817978,166.486755 
	C239.846176,163.731094 237.831528,161.717499 234.341995,162.238495 
	C230.565598,162.802292 226.739899,163.035904 222.018890,163.258026 
	C205.023026,164.418961 189.010468,161.178909 173.764496,153.384125 
	C165.205948,149.008438 156.258636,145.337723 147.311127,141.791824 
	C135.150070,136.972366 128.126038,139.875671 122.852226,151.855026 
	C121.422546,155.102509 120.589874,158.877548 120.543213,162.424393 
	C120.313072,179.918472 120.153709,197.424179 120.581322,214.910843 
	C120.750053,221.811035 121.546234,228.991547 123.706757,235.496368 
	C133.228149,264.163055 162.184998,279.280823 194.727722,272.877686 
M283.929291,376.274780 
	C289.031097,376.274780 294.132904,376.274780 299.735077,376.274780 
	C299.735077,363.917267 300.064941,352.138428 299.673248,340.383636 
	C298.496429,305.068268 272.972992,289.380554 251.133347,285.047028 
	C241.209015,284.260071 231.292099,283.341248 221.354919,282.782654 
	C218.993423,282.649933 216.414185,283.365448 214.189133,284.297363 
	C191.533340,293.785980 168.926834,293.808624 146.288345,284.298676 
	C144.773621,283.662415 143.181412,282.802673 141.610931,282.771667 
	C128.947205,282.521576 116.244354,282.259003 103.967140,286.150238 
	C83.309082,292.697723 67.004311,304.755768 62.971329,326.912781 
	C60.060226,342.906250 60.887085,359.580170 60.043709,376.010773 
	C72.497879,376.010773 83.540215,376.010773 94.922325,376.010773 
	C94.922325,364.814484 94.863060,354.006500 94.946365,343.199615 
	C94.990547,337.467407 98.166008,334.028259 103.190155,333.916199 
	C108.367012,333.800751 111.764992,337.403229 111.955162,343.281372 
	C112.025185,345.445618 111.969269,347.613922 111.969360,349.780396 
	C111.969711,358.561890 111.969513,367.343353 111.969513,376.104492 
	C157.685867,376.104492 202.775391,376.104492 248.402802,376.104492 
	C248.402802,372.534271 248.400757,369.244843 248.403168,365.955383 
	C248.408829,358.289551 248.265213,350.619629 248.473541,342.959290 
	C248.628235,337.270020 252.060257,333.889984 257.045197,333.915710 
	C262.017517,333.941376 265.221558,337.327820 265.560516,343.054138 
	C265.688293,345.213318 265.596008,347.385773 265.596466,349.552155 
	C265.598297,358.330444 265.597229,367.108704 265.597229,376.045502 
	C271.805328,376.045502 277.411774,376.045502 283.929291,376.274780 
M474.741302,495.884247 
	C489.189301,496.241547 495.961487,489.689087 495.964813,475.325500 
	C495.970642,450.074860 495.966583,424.824249 495.966614,399.573608 
	C495.966614,397.797882 495.966583,396.022186 495.966583,393.917755 
	C489.916687,393.917755 484.480804,393.917755 478.125885,393.682373 
	C477.459961,393.660187 476.794037,393.618561 476.128113,393.618561 
	C325.018921,393.614441 173.909744,393.612366 22.800566,393.623932 
	C21.356586,393.624023 19.912619,393.806091 18.041363,393.931946 
	C18.041363,396.018524 18.041361,397.816071 18.041363,399.613617 
	C18.041388,424.770721 18.038971,449.927795 18.042368,475.084900 
	C18.044352,489.782471 24.261278,495.957672 39.059345,495.957825 
	C181.838364,495.959167 324.617371,495.960022 467.396393,495.945496 
	C469.554535,495.945282 471.712677,495.747864 474.741302,495.884247 
M473.035767,18.101625 
	C471.536499,18.080320 470.037201,18.040384 468.537933,18.040354 
	C325.056885,18.037514 181.575836,18.036261 38.094799,18.040077 
	C24.469412,18.040440 18.039579,24.554213 18.039242,38.339130 
	C18.036526,149.157837 18.037716,259.976532 18.037706,370.795227 
	C18.037706,372.585236 18.037706,374.375244 18.037706,376.115662 
	C26.816116,376.115662 35.069611,376.115662 43.809223,376.115662 
	C43.809223,363.676239 43.432320,351.530884 43.884418,339.416473 
	C44.964207,310.482452 58.568478,289.257446 84.177124,275.729492 
	C95.636063,269.676178 108.044411,267.038574 120.595955,265.808807 
	C116.744545,259.082764 112.299835,252.800949 109.414185,245.870026 
	C106.454529,238.761398 105.019699,231.017929 102.846817,223.301239 
	C80.405418,220.125290 69.784790,211.061249 69.130798,194.081711 
	C68.512634,178.032288 78.722275,167.064346 97.781906,162.811172 
	C95.342987,153.011810 92.121857,143.320328 90.619514,133.369339 
	C87.298294,111.370735 93.943993,93.287315 113.540115,81.055542 
	C115.298355,79.958054 116.795349,78.278091 118.079933,76.611420 
	C129.393234,61.933041 143.566406,51.308411 161.594894,46.467239 
	C183.469147,40.593369 204.449615,44.503387 224.925491,52.967117 
	C236.616180,57.799488 238.377975,66.973152 228.911713,75.921738 
	C230.499619,76.691193 231.970200,77.391853 233.430496,78.113335 
	C243.516418,83.096436 252.773529,89.244072 260.237671,97.769035 
	C271.814697,110.991417 276.641876,126.286263 272.761658,143.583374 
	C271.231781,150.403122 268.024231,156.846542 265.589294,163.437912 
	C282.548645,167.579529 292.089996,179.582016 290.974274,195.645569 
	C289.852722,211.793060 278.216064,221.277512 257.598053,223.181030 
	C255.420197,230.807755 253.939896,238.537476 250.976990,245.649521 
	C248.030350,252.722549 243.593964,259.174927 239.945267,265.660522 
	C244.725769,266.429932 249.847488,267.047394 254.878860,268.097656 
	C287.229950,274.850464 310.377411,297.246643 315.329346,328.708923 
	C317.485413,342.407562 316.429626,356.612549 316.815735,370.588043 
	C316.868408,372.493500 316.823029,374.401672 316.823029,376.298065 
	C318.256226,376.364746 318.920929,376.422668 319.585663,376.422729 
	C371.578796,376.427277 423.571930,376.429321 475.565063,376.414490 
	C476.718048,376.414185 477.871002,376.217468 479.925354,376.378082 
	C485.175751,376.378082 490.426147,376.378082 495.959045,376.378082 
	C495.959045,374.098907 495.959076,372.455078 495.959076,370.811249 
	C495.959045,260.001587 495.960602,149.191940 495.957245,38.382286 
	C495.956818,23.854773 488.685303,17.218323 473.035767,18.101625 
M213.436600,88.237846 
	C211.326935,85.788437 207.573318,83.412971 207.459122,80.873810 
	C207.239746,75.996559 209.083588,71.026497 210.176407,65.571709 
	C206.935684,64.723076 202.483734,63.384640 197.954880,62.399746 
	C171.520615,56.651058 146.052612,66.155975 131.651321,86.666779 
	C129.170547,90.199982 125.836685,93.526619 122.174492,95.768784 
	C107.676537,104.645126 103.092445,122.740486 109.882317,139.577682 
	C110.319092,138.982407 110.717072,138.473251 111.080139,137.940308 
	C120.870560,123.569023 134.346954,118.894714 150.568222,124.886803 
	C160.068161,128.396042 169.584885,132.124695 178.518036,136.844849 
	C194.128113,145.092987 210.550293,147.799133 227.813004,145.811020 
	C236.415634,144.820251 244.827835,143.248825 251.222275,152.241058 
	C252.533005,149.742844 253.505905,148.233215 254.156082,146.595459 
	C259.943665,132.016876 256.744293,119.141602 246.328354,107.911201 
	C237.494446,98.386543 226.131485,92.879257 213.436600,88.237846 
M274.008942,192.585541 
	C272.581787,183.187302 266.293243,178.769089 257.261993,180.789581 
	C257.261993,189.069489 257.261993,197.339508 257.261993,205.581802 
	C267.523224,206.391449 272.601379,202.632782 274.008942,192.585541 
M91.464264,182.837250 
	C86.190117,187.944504 84.966476,193.350113 87.837463,198.859131 
	C90.655235,204.266037 95.920700,206.525558 102.939102,205.324570 
	C102.939102,196.979080 102.939102,188.635269 102.939102,179.270523 
	C98.884323,180.418533 95.468445,181.385666 91.464264,182.837250 
z"/>
<path fill="#F4F4F4" opacity="1.000000" stroke="none" 
	d="
M479.023956,376.112366 
	C477.871002,376.217468 476.718048,376.414185 475.565063,376.414490 
	C423.571930,376.429321 371.578796,376.427277 319.585663,376.422729 
	C318.920929,376.422668 318.256226,376.364746 316.823029,376.298065 
	C316.823029,374.401672 316.868408,372.493500 316.815735,370.588043 
	C316.429626,356.612549 317.485413,342.407562 315.329346,328.708923 
	C310.377411,297.246643 287.229950,274.850464 254.878860,268.097656 
	C249.847488,267.047394 244.725769,266.429932 239.945267,265.660522 
	C243.593964,259.174927 248.030350,252.722549 250.976990,245.649521 
	C253.939896,238.537476 255.420197,230.807755 257.598053,223.181030 
	C278.216064,221.277512 289.852722,211.793060 290.974274,195.645569 
	C292.089996,179.582016 282.548645,167.579529 265.589294,163.437912 
	C268.024231,156.846542 271.231781,150.403122 272.761658,143.583374 
	C276.641876,126.286263 271.814697,110.991417 260.237671,97.769035 
	C252.773529,89.244072 243.516418,83.096436 233.430496,78.113335 
	C231.970200,77.391853 230.499619,76.691193 228.911713,75.921738 
	C238.377975,66.973152 236.616180,57.799488 224.925491,52.967117 
	C204.449615,44.503387 183.469147,40.593369 161.594894,46.467239 
	C143.566406,51.308411 129.393234,61.933041 118.079933,76.611420 
	C116.795349,78.278091 115.298355,79.958054 113.540115,81.055542 
	C93.943993,93.287315 87.298294,111.370735 90.619514,133.369339 
	C92.121857,143.320328 95.342987,153.011810 97.781906,162.811172 
	C78.722275,167.064346 68.512634,178.032288 69.130798,194.081711 
	C69.784790,211.061249 80.405418,220.125290 102.846817,223.301239 
	C105.019699,231.017929 106.454529,238.761398 109.414185,245.870026 
	C112.299835,252.800949 116.744545,259.082764 120.595955,265.808807 
	C108.044411,267.038574 95.636063,269.676178 84.177124,275.729492 
	C58.568478,289.257446 44.964207,310.482452 43.884418,339.416473 
	C43.432320,351.530884 43.809223,363.676239 43.809223,376.115662 
	C35.069611,376.115662 26.816116,376.115662 18.037706,376.115662 
	C18.037706,374.375244 18.037706,372.585236 18.037706,370.795227 
	C18.037716,259.976532 18.036526,149.157837 18.039242,38.339130 
	C18.039579,24.554213 24.469412,18.040440 38.094799,18.040077 
	C181.575836,18.036261 325.056885,18.037514 468.537933,18.040354 
	C470.037201,18.040384 471.536499,18.080320 473.491821,18.544786 
	C478.689758,26.857080 479.078735,35.492886 479.070312,44.417313 
	C478.965912,154.982254 479.014679,265.547333 479.023956,376.112366 
M431.497986,52.119362 
	C396.519928,52.119511 361.541718,52.068073 326.563843,52.142979 
	C310.628998,52.177101 299.842316,62.845760 299.777222,78.718544 
	C299.663116,106.533997 299.664001,134.350571 299.775726,162.166046 
	C299.839478,178.034073 310.597900,188.618500 326.527161,188.815018 
	C331.641418,188.878113 336.757141,188.824890 342.246948,188.824890 
	C342.246948,193.424667 342.238556,197.549393 342.248749,201.674072 
	C342.268768,209.773224 345.287048,216.308853 352.538818,220.335876 
	C359.815460,224.376678 366.875122,223.362061 373.733490,218.977127 
	C383.256378,212.888596 393.337128,207.554428 402.307739,200.748825 
	C414.673676,191.367325 427.878082,186.528000 443.407043,188.806946 
	C444.218811,188.926086 445.072113,188.819809 445.901154,188.755280 
	C459.371338,187.707092 469.929199,177.738876 470.069611,164.723083 
	C470.387543,135.246155 470.346405,105.761963 470.087219,76.283928 
	C469.985016,64.659164 461.424347,54.894756 449.902893,52.940128 
	C444.218018,51.975693 438.305939,52.350533 431.497986,52.119362 
z"/>
<path fill="#9D9D9D" opacity="1.000000" stroke="none" 
	d="
M473.870819,495.642456 
	C471.712677,495.747864 469.554535,495.945282 467.396393,495.945496 
	C324.617371,495.960022 181.838364,495.959167 39.059345,495.957825 
	C24.261278,495.957672 18.044352,489.782471 18.042368,475.084900 
	C18.038971,449.927795 18.041388,424.770721 18.041363,399.613617 
	C18.041361,397.816071 18.041363,396.018524 18.041363,393.931946 
	C19.912619,393.806091 21.356586,393.624023 22.800566,393.623932 
	C173.909744,393.612366 325.018921,393.614441 476.128113,393.618561 
	C476.794037,393.618561 477.459961,393.660187 478.565674,394.274628 
	C478.999054,416.663696 479.016083,438.460571 478.976868,460.257324 
	C478.955231,472.288361 480.436310,484.550049 473.870819,495.642456 
M189.956696,436.115417 
	C188.468979,434.896210 186.517441,433.960388 185.570709,432.410706 
	C180.373306,423.902954 172.945145,419.097900 162.990646,419.164734 
	C153.273804,419.229980 145.658035,423.738129 140.990997,432.331207 
	C139.404251,435.252747 137.753693,436.217590 134.490494,436.196991 
	C110.998894,436.048859 87.505898,436.103973 64.013428,436.143463 
	C62.039143,436.146790 59.962387,436.183563 58.112423,436.770020 
	C53.938499,438.093262 51.830055,441.299500 52.307861,445.564178 
	C52.777531,449.756195 55.316326,452.549713 59.747227,453.061890 
	C61.393959,453.252197 63.074638,453.174927 64.739845,453.175354 
	C87.732536,453.181213 110.725655,453.247772 133.717484,453.106689 
	C137.218246,453.085175 139.233337,453.794708 141.085663,457.213593 
	C145.715454,465.759003 153.288528,470.230194 163.136230,470.198639 
	C175.031082,470.160583 182.585587,463.614899 187.512177,453.179474 
	C189.538544,453.179474 191.531494,453.179504 193.524445,453.179504 
	C278.497467,453.179504 363.470459,453.179871 448.443481,453.176910 
	C450.275787,453.176819 452.119019,453.258850 453.938263,453.093994 
	C458.238586,452.704376 461.414490,449.522125 461.797211,445.382721 
	C462.162872,441.427826 459.395782,437.500793 455.234528,436.530731 
	C453.323700,436.085297 451.273743,436.133087 449.286835,436.132690 
	C363.147522,436.115143 277.008240,436.117340 189.956696,436.115417 
z"/>
<path fill="#02A9F3" opacity="1.000000" stroke="none" 
	d="
M283.018250,376.045502 
	C277.411774,376.045502 271.805328,376.045502 265.597229,376.045502 
	C265.597229,367.108704 265.598297,358.330444 265.596466,349.552155 
	C265.596008,347.385773 265.688293,345.213318 265.560516,343.054138 
	C265.221558,337.327820 262.017517,333.941376 257.045197,333.915710 
	C252.060257,333.889984 248.628235,337.270020 248.473541,342.959290 
	C248.265213,350.619629 248.408829,358.289551 248.403168,365.955383 
	C248.400757,369.244843 248.402802,372.534271 248.402802,376.104492 
	C202.775391,376.104492 157.685867,376.104492 111.969513,376.104492 
	C111.969513,367.343353 111.969711,358.561890 111.969360,349.780396 
	C111.969269,347.613922 112.025185,345.445618 111.955162,343.281372 
	C111.764992,337.403229 108.367012,333.800751 103.190155,333.916199 
	C98.166008,334.028259 94.990547,337.467407 94.946365,343.199615 
	C94.863060,354.006500 94.922325,364.814484 94.922325,376.010773 
	C83.540215,376.010773 72.497879,376.010773 60.043709,376.010773 
	C60.887085,359.580170 60.060226,342.906250 62.971329,326.912781 
	C67.004311,304.755768 83.309082,292.697723 103.967140,286.150238 
	C116.244354,282.259003 128.947205,282.521576 141.610931,282.771667 
	C143.181412,282.802673 144.773621,283.662415 146.288345,284.298676 
	C168.926834,293.808624 191.533340,293.785980 214.189133,284.297363 
	C216.414185,283.365448 218.993423,282.649933 221.354919,282.782654 
	C231.292099,283.341248 241.209015,284.260071 251.601883,285.485168 
	C258.373352,291.928528 265.394592,297.353241 270.820984,304.066986 
	C280.390991,315.907349 282.471283,330.464050 282.893646,345.197357 
	C283.188202,355.472809 282.994110,365.762299 283.018250,376.045502 
z"/>
<path fill="#FEDFB1" opacity="1.000000" stroke="none" 
	d="
M193.963745,272.774048 
	C162.184998,279.280823 133.228149,264.163055 123.706757,235.496368 
	C121.546234,228.991547 120.750053,221.811035 120.581322,214.910843 
	C120.153709,197.424179 120.313072,179.918472 120.543213,162.424393 
	C120.589874,158.877548 121.422546,155.102509 122.852226,151.855026 
	C128.126038,139.875671 135.150070,136.972366 147.311127,141.791824 
	C156.258636,145.337723 165.205948,149.008438 173.764496,153.384125 
	C189.010468,161.178909 205.023026,164.418961 222.482452,163.777771 
	C222.632843,185.390945 223.253860,206.553635 221.696991,227.554871 
	C220.548798,243.043350 212.580536,256.096558 200.529068,266.318115 
	C198.194702,268.298035 196.144836,270.613403 193.963745,272.774048 
z"/>
<path fill="#9F522D" opacity="1.000000" stroke="none" 
	d="
M213.768173,88.410522 
	C226.131485,92.879257 237.494446,98.386543 246.328354,107.911201 
	C256.744293,119.141602 259.943665,132.016876 254.156082,146.595459 
	C253.505905,148.233215 252.533005,149.742844 251.222275,152.241058 
	C244.827835,143.248825 236.415634,144.820251 227.813004,145.811020 
	C210.550293,147.799133 194.128113,145.092987 178.518036,136.844849 
	C169.584885,132.124695 160.068161,128.396042 150.568222,124.886803 
	C134.346954,118.894714 120.870560,123.569023 111.080139,137.940308 
	C110.717072,138.473251 110.319092,138.982407 109.882317,139.577682 
	C103.092445,122.740486 107.676537,104.645126 122.174492,95.768784 
	C125.836685,93.526619 129.170547,90.199982 131.651321,86.666779 
	C146.052612,66.155975 171.520615,56.651058 197.954880,62.399746 
	C202.483734,63.384640 206.935684,64.723076 210.176407,65.571709 
	C209.083588,71.026497 207.239746,75.996559 207.459122,80.873810 
	C207.573318,83.412971 211.326935,85.788437 213.768173,88.410522 
z"/>
<path fill="#D0D8DC" opacity="1.000000" stroke="none" 
	d="
M479.474670,376.245239 
	C479.014679,265.547333 478.965912,154.982254 479.070312,44.417313 
	C479.078735,35.492886 478.689758,26.857080 473.951111,18.627628 
	C488.685303,17.218323 495.956818,23.854773 495.957245,38.382286 
	C495.960602,149.191940 495.959045,260.001587 495.959076,370.811249 
	C495.959076,372.455078 495.959045,374.098907 495.959045,376.378082 
	C490.426147,376.378082 485.175751,376.378082 479.474670,376.245239 
z"/>
<path fill="#DDC29A" opacity="1.000000" stroke="none" 
	d="
M194.345734,272.825867 
	C196.144836,270.613403 198.194702,268.298035 200.529068,266.318115 
	C212.580536,256.096558 220.548798,243.043350 221.696991,227.554871 
	C223.253860,206.553635 222.632843,185.390945 222.940857,163.855515 
	C226.739899,163.035904 230.565598,162.802292 234.341995,162.238495 
	C237.831528,161.717499 239.846176,163.731094 239.817978,166.486755 
	C239.603455,187.438782 241.202438,208.710922 238.082169,229.252289 
	C234.498047,252.847351 218.000229,267.072784 194.345734,272.825867 
z"/>
<path fill="#6F6F6F" opacity="1.000000" stroke="none" 
	d="
M474.306061,495.763367 
	C480.436310,484.550049 478.955231,472.288361 478.976868,460.257324 
	C479.016083,438.460571 478.999054,416.663696 479.025208,394.392334 
	C484.480804,393.917755 489.916687,393.917755 495.966583,393.917755 
	C495.966583,396.022186 495.966614,397.797882 495.966614,399.573608 
	C495.966583,424.824249 495.970642,450.074860 495.964813,475.325500 
	C495.961487,489.689087 489.189301,496.241547 474.306061,495.763367 
z"/>
<path fill="#0376BA" opacity="1.000000" stroke="none" 
	d="
M283.473755,376.160156 
	C282.994110,365.762299 283.188202,355.472809 282.893646,345.197357 
	C282.471283,330.464050 280.390991,315.907349 270.820984,304.066986 
	C265.394592,297.353241 258.373352,291.928528 251.987000,285.605743 
	C272.972992,289.380554 298.496429,305.068268 299.673248,340.383636 
	C300.064941,352.138428 299.735077,363.917267 299.735077,376.274780 
	C294.132904,376.274780 289.031097,376.274780 283.473755,376.160156 
z"/>
<path fill="#F9DBAE" opacity="1.000000" stroke="none" 
	d="
M274.008911,192.996429 
	C272.601379,202.632782 267.523224,206.391449 257.261993,205.581802 
	C257.261993,197.339508 257.261993,189.069489 257.261993,180.789581 
	C266.293243,178.769089 272.581787,183.187302 274.008911,192.996429 
z"/>
<path fill="#FADCAF" opacity="1.000000" stroke="none" 
	d="
M91.758423,182.595016 
	C95.468445,181.385666 98.884323,180.418533 102.939102,179.270523 
	C102.939102,188.635269 102.939102,196.979080 102.939102,205.324570 
	C95.920700,206.525558 90.655235,204.266037 87.837463,198.859131 
	C84.966476,193.350113 86.190117,187.944504 91.758423,182.595016 
z"/>
<path fill="#040302" opacity="1.000000" stroke="none" 
	d="
M431.997314,52.119362 
	C438.305939,52.350533 444.218018,51.975693 449.902893,52.940128 
	C461.424347,54.894756 469.985016,64.659164 470.087219,76.283928 
	C470.346405,105.761963 470.387543,135.246155 470.069611,164.723083 
	C469.929199,177.738876 459.371338,187.707092 445.901154,188.755280 
	C445.072113,188.819809 444.218811,188.926086 443.407043,188.806946 
	C427.878082,186.528000 414.673676,191.367325 402.307739,200.748825 
	C393.337128,207.554428 383.256378,212.888596 373.733490,218.977127 
	C366.875122,223.362061 359.815460,224.376678 352.538818,220.335876 
	C345.287048,216.308853 342.268768,209.773224 342.248749,201.674072 
	C342.238556,197.549393 342.246948,193.424667 342.246948,188.824890 
	C336.757141,188.824890 331.641418,188.878113 326.527161,188.815018 
	C310.597900,188.618500 299.839478,178.034073 299.775726,162.166046 
	C299.664001,134.350571 299.663116,106.533997 299.777222,78.718544 
	C299.842316,62.845760 310.628998,52.177101 326.563843,52.142979 
	C361.541718,52.068073 396.519928,52.119511 431.997314,52.119362 
M435.820526,171.704208 
	C437.316956,171.722412 438.813416,171.755493 440.309845,171.756424 
	C450.956573,171.763092 453.180664,169.547653 453.181885,158.922668 
	C453.184692,134.640945 452.799225,110.351082 453.314636,86.080307 
	C453.671600,69.269684 449.866547,68.390518 434.025238,69.240013 
	C398.382751,69.222809 362.740265,69.179207 327.097839,69.210342 
	C319.833801,69.216690 316.851868,72.303246 316.842712,79.633827 
	C316.808838,106.782288 316.811127,133.930817 316.840118,161.079285 
	C316.848328,168.740799 319.743164,171.652954 327.389801,171.728897 
	C334.550964,171.800003 341.713654,171.704407 348.875153,171.755875 
	C356.555420,171.811081 359.261108,174.569138 359.325470,182.386566 
	C359.376221,188.548691 359.273163,194.712448 359.357391,200.873840 
	C359.428284,206.056946 360.885345,206.837830 365.303497,204.065826 
	C377.279236,196.552017 389.496674,189.379578 401.087158,181.309006 
	C410.832581,174.523163 420.785919,169.807175 432.963593,171.710602 
	C433.589447,171.808426 434.271790,171.544907 435.820526,171.704208 
z"/>
<path fill="#020202" opacity="1.000000" stroke="none" 
	d="
M190.412811,436.116272 
	C277.008240,436.117340 363.147522,436.115143 449.286835,436.132690 
	C451.273743,436.133087 453.323700,436.085297 455.234528,436.530731 
	C459.395782,437.500793 462.162872,441.427826 461.797211,445.382721 
	C461.414490,449.522125 458.238586,452.704376 453.938263,453.093994 
	C452.119019,453.258850 450.275787,453.176819 448.443481,453.176910 
	C363.470459,453.179871 278.497467,453.179504 193.524445,453.179504 
	C191.531494,453.179504 189.538544,453.179474 187.512177,453.179474 
	C182.585587,463.614899 175.031082,470.160583 163.136230,470.198639 
	C153.288528,470.230194 145.715454,465.759003 141.085663,457.213593 
	C139.233337,453.794708 137.218246,453.085175 133.717484,453.106689 
	C110.725655,453.247772 87.732536,453.181213 64.739845,453.175354 
	C63.074638,453.174927 61.393959,453.252197 59.747227,453.061890 
	C55.316326,452.549713 52.777531,449.756195 52.307861,445.564178 
	C51.830055,441.299500 53.938499,438.093262 58.112423,436.770020 
	C59.962387,436.183563 62.039143,436.146790 64.013428,436.143463 
	C87.505898,436.103973 110.998894,436.048859 134.490494,436.196991 
	C137.753693,436.217590 139.404251,435.252747 140.990997,432.331207 
	C145.658035,423.738129 153.273804,419.229980 162.990646,419.164734 
	C172.945145,419.097900 180.373306,423.902954 185.570709,432.410706 
	C186.517441,433.960388 188.468979,434.896210 190.412811,436.116272 
M171.226593,442.333496 
	C168.806152,437.360992 165.341888,435.324097 161.170670,436.420837 
	C156.672974,437.603424 154.087738,441.620392 154.839355,446.258514 
	C155.565063,450.736786 159.559128,453.640045 164.242798,453.093872 
	C169.032364,452.535278 171.547791,449.032776 171.226593,442.333496 
z"/>
<path fill="#FEDE00" opacity="1.000000" stroke="none" 
	d="
M434.927795,171.449615 
	C434.271790,171.544907 433.589447,171.808426 432.963593,171.710602 
	C420.785919,169.807175 410.832581,174.523163 401.087158,181.309006 
	C389.496674,189.379578 377.279236,196.552017 365.303497,204.065826 
	C360.885345,206.837830 359.428284,206.056946 359.357391,200.873840 
	C359.273163,194.712448 359.376221,188.548691 359.325470,182.386566 
	C359.261108,174.569138 356.555420,171.811081 348.875153,171.755875 
	C341.713654,171.704407 334.550964,171.800003 327.389801,171.728897 
	C319.743164,171.652954 316.848328,168.740799 316.840118,161.079285 
	C316.811127,133.930817 316.808838,106.782288 316.842712,79.633827 
	C316.851868,72.303246 319.833801,69.216690 327.097839,69.210342 
	C362.740265,69.179207 398.382751,69.222809 434.492432,69.736465 
	C435.308472,74.187149 435.943298,78.140228 435.959137,82.095787 
	C436.053894,105.760292 436.078217,129.425735 435.956787,153.089996 
	C435.925354,159.211472 435.287231,165.329834 434.927795,171.449615 
z"/>
<path fill="#F8BE07" opacity="1.000000" stroke="none" 
	d="
M435.374146,171.576904 
	C435.287231,165.329834 435.925354,159.211472 435.956787,153.089996 
	C436.078217,129.425735 436.053894,105.760292 435.959137,82.095787 
	C435.943298,78.140228 435.308472,74.187149 434.947754,69.832184 
	C449.866547,68.390518 453.671600,69.269684 453.314636,86.080307 
	C452.799225,110.351082 453.184692,134.640945 453.181885,158.922668 
	C453.180664,169.547653 450.956573,171.763092 440.309845,171.756424 
	C438.813416,171.755493 437.316956,171.722412 435.374146,171.576904 
z"/>
<path fill="#EEEEEE" opacity="1.000000" stroke="none" 
	d="
M171.336212,442.698883 
	C171.547791,449.032776 169.032364,452.535278 164.242798,453.093872 
	C159.559128,453.640045 155.565063,450.736786 154.839355,446.258514 
	C154.087738,441.620392 156.672974,437.603424 161.170670,436.420837 
	C165.341888,435.324097 168.806152,437.360992 171.336212,442.698883 
z"/>
</svg>