<?xml version="1.0" encoding="UTF-8"?>
<svg version="1.1" xmlns="http://www.w3.org/2000/svg" width="512" height="512">
<path d="M0 0 C0.93713907 -0.00523668 1.87427815 -0.01047336 2.83981538 -0.01586872 C5.98181538 -0.03087725 9.12365264 -0.03157407 12.26568604 -0.03224182 C14.51780472 -0.03986276 16.7699208 -0.04829014 19.02203369 -0.0574646 C25.14198645 -0.07942372 31.26188924 -0.0882105 37.38187695 -0.09329104 C41.2057244 -0.09693313 45.02955873 -0.10317245 48.85340118 -0.11029243 C59.44785714 -0.12974827 70.04230219 -0.1462612 80.63677597 -0.14916897 C81.31438689 -0.14935654 81.99199782 -0.14954411 82.69014241 -0.14973736 C84.06372849 -0.1501036 85.43731457 -0.1504673 86.81090066 -0.15082847 C87.49271811 -0.15101128 88.17453557 -0.1511941 88.87701416 -0.15138245 C89.55966726 -0.151563 90.24232035 -0.15174354 90.94565991 -0.15192956 C102.00357619 -0.15547015 113.0612976 -0.18248664 124.11914632 -0.21988034 C135.48163988 -0.25799563 146.84400535 -0.27688594 158.20657563 -0.27762848 C164.58241819 -0.27842153 170.95800935 -0.28717349 177.33379364 -0.31562614 C183.33226072 -0.34179594 189.33026777 -0.34401759 195.32876587 -0.3279705 C197.52775322 -0.32615514 199.72676696 -0.33285449 201.92569733 -0.34878922 C204.9334297 -0.36925244 207.93955295 -0.35869572 210.94726562 -0.34057617 C211.81255756 -0.35377614 212.6778495 -0.36697611 213.5693624 -0.38057607 C220.50935197 -0.2854199 226.14746846 1.96109577 231.28656363 6.71682173 C236.36630472 12.4866955 238.17645196 17.85235147 238.11528015 25.42073059 C238.12335846 26.62664335 238.12335846 26.62664335 238.13159996 27.85691798 C238.14587097 30.54221523 238.13877798 33.22701893 238.13165283 35.91233826 C238.13735689 37.84110917 238.14432128 39.7698767 238.15245056 41.69863892 C238.17039417 46.93217361 238.16921117 52.16554075 238.16350818 57.39909697 C238.16041774 61.77034863 238.16650724 66.14156804 238.17254692 70.51281512 C238.1865948 80.8268436 238.18502895 91.14078927 238.17364502 101.45481873 C238.16216624 112.08967296 238.17623491 122.72427494 238.20304149 133.35909593 C238.22520569 142.49474086 238.23183416 151.63030665 238.22596508 160.76597655 C238.22259571 166.22008213 238.22500924 171.67402605 238.24221611 177.12810898 C238.25769429 182.25819169 238.25371982 187.38790112 238.23491096 192.51796913 C238.23122738 194.39808011 238.23432683 196.27821878 238.24479675 198.15830421 C238.25802451 200.73050156 238.24644393 203.30146641 238.22880554 205.87361145 C238.24321305 206.9822935 238.24321305 206.9822935 238.25791162 208.11337316 C238.16795654 214.51523874 235.97499149 219.55514794 231.90338135 224.48118591 C231.28849854 225.0109906 230.67361572 225.54079529 230.0401001 226.08665466 C229.13711182 226.90069763 229.13711182 226.90069763 228.21588135 227.73118591 C221.44129069 231.93207023 214.79314675 232.67434461 206.98638916 232.24632263 C205.05935897 232.17092527 203.13229404 232.09641183 201.2052002 232.0226593 C200.194618 231.97893063 199.1840358 231.93520195 198.1428299 231.89014816 C192.69897967 231.67615899 187.25253765 231.5849404 181.8057251 231.47727966 C174.91347704 231.3403702 168.03093662 231.16819071 161.14556885 230.82395935 C132.52018906 228.57409778 132.52018906 228.57409778 107.33892822 239.77122498 C101.50947586 245.09920941 96.28839575 251.10354476 91.74747467 257.56746292 C88.45932144 262.09206308 85.16074872 263.95576792 79.7276001 265.27415466 C72.93577321 266.0018504 67.68880408 264.09125711 61.9776001 260.58665466 C53.39031099 251.76082975 55.7276001 244.78131116 55.7276001 232.27415466 C39.2276001 232.27415466 22.7276001 232.27415466 5.7276001 232.27415466 C5.0676001 234.25415466 4.4076001 236.23415466 3.7276001 238.27415466 C-0.48634656 246.68781167 -6.93212176 251.81762672 -15.3973999 255.71165466 C-19.11012932 256.43805824 -22.49168155 256.40452426 -26.2723999 256.27415466 C-26.22599365 256.9431781 -26.1795874 257.61220154 -26.1317749 258.30149841 C-25.26821142 281.27845542 -35.88549733 303.19663322 -51.04193115 319.94602966 C-59.15770795 328.53026018 -68.67005219 334.39771893 -79.1552124 339.68040466 C-82.32194903 341.22404706 -82.32194903 341.22404706 -85.2723999 343.27415466 C-84.51056396 343.80782654 -83.74872803 344.34149841 -82.96380615 344.89134216 C-67.83028952 355.81165753 -56.66426877 369.79276427 -52.2723999 388.27415466 C-51.75925702 391.60739046 -51.42145363 394.90554031 -51.2723999 398.27415466 C-50.5505249 398.37727966 -49.8286499 398.48040466 -49.0848999 398.58665466 C-46.02747997 399.33402398 -43.88910356 400.55460655 -41.2723999 402.27415466 C-40.5092749 401.63477966 -39.7461499 400.99540466 -38.9598999 400.33665466 C-36.2723999 398.27415466 -36.2723999 398.27415466 -33.2723999 397.27415466 C-34.71759807 392.52040639 -36.7011415 388.18321221 -38.9598999 383.77415466 C-39.3100415 383.07781921 -39.66018311 382.38148376 -40.02093506 381.66404724 C-41.73704001 378.25619845 -43.48175805 374.86766242 -45.28411865 371.50462341 C-50.50382022 361.66708109 -53.66902044 353.0639078 -51.1552124 341.91087341 C-48.55605307 334.14789753 -43.39024302 328.26485715 -36.2723999 324.27415466 C-28.64610048 321.15038795 -19.1934791 320.84812395 -11.25286865 323.14915466 C4.79874764 330.6448403 9.55516531 347.01894306 17.7276001 362.27415466 C90.3276001 362.60415466 162.9276001 362.93415466 237.7276001 363.27415466 C237.7276001 412.44415466 237.7276001 461.61415466 237.7276001 512.27415466 C150.2776001 512.27415466 62.8276001 512.27415466 -27.2723999 512.27415466 C-27.2723999 496.10415466 -27.2723999 479.93415466 -27.2723999 463.27415466 C-30.2423999 463.27415466 -33.2123999 463.27415466 -36.2723999 463.27415466 C-36.4167749 464.09915466 -36.5611499 464.92415466 -36.7098999 465.77415466 C-39.25438605 471.47380364 -44.11460889 475.61932554 -49.62786865 478.50852966 C-52.2723999 479.27415466 -52.2723999 479.27415466 -59.2723999 479.27415466 C-59.2723999 490.16415466 -59.2723999 501.05415466 -59.2723999 512.27415466 C-94.9123999 512.27415466 -130.5523999 512.27415466 -167.2723999 512.27415466 C-167.6023999 495.77415466 -167.9323999 479.27415466 -168.2723999 462.27415466 C-170.9123999 458.64415466 -173.5523999 455.01415466 -176.2723999 451.27415466 C-182.76031942 438.29831562 -184.42649213 426.958919 -184.44036865 412.62962341 C-184.44536125 410.82126762 -184.44536125 410.82126762 -184.45045471 408.97637939 C-184.45550122 406.43395874 -184.45786374 403.8915315 -184.45770264 401.34910583 C-184.45988681 397.48481698 -184.4780609 393.6208149 -184.49700928 389.75657654 C-184.49994423 387.2767598 -184.50192834 384.79694171 -184.50286865 382.31712341 C-184.51005417 381.17406235 -184.51723969 380.03100128 -184.52464294 378.853302 C-184.48132331 363.44236145 -181.01889149 352.26468383 -171.2723999 340.27415466 C-172.28818115 339.75208435 -173.3039624 339.23001404 -174.3505249 338.69212341 C-183.96136377 333.61065171 -191.68996983 328.04503694 -199.2723999 320.27415466 C-200.07161865 319.48395935 -200.8708374 318.69376404 -201.6942749 317.87962341 C-216.3714751 302.62039631 -225.26576665 281.25001709 -225.3973999 260.02415466 C-225.3561499 258.78665466 -225.3148999 257.54915466 -225.2723999 256.27415466 C-226.4067749 256.35665466 -227.5411499 256.43915466 -228.7098999 256.52415466 C-236.25722403 256.51082017 -243.83895566 252.39488269 -249.2723999 247.27415466 C-256.86958798 238.10390177 -259.12690424 229.04002215 -258.2723999 217.27415466 C-257.91081787 215.96124451 -257.91081787 215.96124451 -257.54193115 214.62181091 C-257.45298584 213.84708435 -257.36404053 213.07235779 -257.2723999 212.27415466 C-258.63882059 210.48239937 -258.63882059 210.48239937 -260.7098999 208.96165466 C-264.90151379 205.11688207 -267.24686035 201.06762939 -269.7098999 196.02415466 C-270.0514209 195.32636902 -270.39294189 194.62858337 -270.74481201 193.90965271 C-275.8150345 183.22187612 -276.55207654 168.33082721 -272.6473999 157.08665466 C-271.90870834 155.45741509 -271.11736583 153.85089795 -270.2723999 152.27415466 C-269.84829834 151.42981873 -269.42419678 150.58548279 -268.98724365 149.71556091 C-265.12854607 142.65382188 -259.74669237 135.60911688 -252.50286865 131.82884216 C-251.76681396 131.31579529 -251.03075928 130.80274841 -250.2723999 130.27415466 C-249.77861979 127.94062456 -249.77861979 127.94062456 -250.1473999 125.33665466 C-250.60480772 114.13754069 -247.22268221 105.0258641 -240.2723999 96.27415466 C-232.8792896 88.376667 -224.97534152 83.83955089 -214.2723999 82.27415466 C-213.10450928 82.2625531 -213.10450928 82.2625531 -211.9130249 82.25071716 C-209.47116439 82.20974635 -207.58204743 82.08494175 -205.2723999 81.27415466 C-203.40216095 79.21821822 -202.10896074 77.08324404 -200.7098999 74.68431091 C-195.57074218 66.06784267 -187.12978425 61.52053919 -177.7802124 58.45774841 C-167.88346429 56.00924499 -158.64086279 57.48016502 -149.1708374 61.07102966 C-147.14417803 61.48878541 -147.14417803 61.48878541 -145.2645874 59.98118591 C-144.56591553 59.3559906 -143.86724365 58.73079529 -143.1473999 58.08665466 C-133.84197566 50.3935564 -123.11680312 48.31153532 -111.2723999 49.27415466 C-103.85212149 50.65939094 -98.37868151 52.93351695 -92.5223999 57.71165466 C-89.17615884 60.53748285 -89.17615884 60.53748285 -85.08099365 61.15696716 C-82.92669073 60.35459145 -82.92669073 60.35459145 -80.7802124 59.29759216 C-71.7203938 55.60028301 -60.74143683 56.8431801 -51.7880249 60.20774841 C-42.61208476 64.32552279 -34.43825651 70.99565585 -30.2723999 80.27415466 C-30.2723999 80.93415466 -30.2723999 81.59415466 -30.2723999 82.27415466 C-29.2823999 82.27415466 -28.2923999 82.27415466 -27.2723999 82.27415466 C-27.28128235 81.53436874 -27.29016479 80.79458282 -27.29931641 80.03237915 C-27.3798969 73.01626015 -27.44058293 66.00030492 -27.47964859 58.98385143 C-27.50040889 55.37769814 -27.52851042 51.77193132 -27.57415771 48.16600037 C-27.61803434 44.67759792 -27.64162359 41.18956413 -27.65190887 37.70090675 C-27.66275577 35.74075776 -27.6939131 33.7807544 -27.72558594 31.8208313 C-27.72778857 22.92327713 -26.76907078 14.68408842 -21.08880615 7.52024841 C-20.34501709 6.92341248 -19.60122803 6.32657654 -18.8348999 5.71165466 C-18.09368896 5.0916156 -17.35247803 4.47157654 -16.58880615 3.83274841 C-11.11281081 0.14822541 -6.4093041 -0.01770618 0 0 Z " fill="#020202" transform="translate(274.27239990234375,-0.2741546630859375)"/>
<path d="M0 0 C0.90799848 -0.00709439 1.81599697 -0.01418877 2.75151056 -0.02149814 C5.79501123 -0.03910473 8.83723935 -0.02095958 11.88072205 -0.00291443 C14.06213971 -0.00805218 16.24355323 -0.01533236 18.42495728 -0.02459717 C24.35051651 -0.04313645 30.27562671 -0.03015676 36.20116735 -0.01050687 C42.39729046 0.00585781 48.59338465 -0.00293013 54.78952026 -0.00802612 C65.86105709 -0.01283899 76.93239698 0.00682535 88.00388931 0.03665394 C98.04330319 0.06308546 108.08249725 0.06622317 118.12193298 0.05177307 C131.02415964 0.03328563 143.92621825 0.03494408 156.82844353 0.0539875 C161.75702002 0.06086851 166.68550143 0.05981478 171.61407661 0.05244255 C177.41472239 0.04479475 183.21499845 0.0568569 189.01558113 0.08429146 C191.14730736 0.09119183 193.279068 0.09125568 195.4107933 0.08407593 C198.31504956 0.07541967 201.21815471 0.09127245 204.12231445 0.11352539 C204.97104301 0.10528462 205.81977157 0.09704386 206.69421917 0.08855337 C210.14971309 0.13760951 212.54944416 0.35187314 215.52062893 2.18352604 C217.53562844 5.51857897 217.55243241 8.47319064 217.50559998 12.25746155 C217.51183994 13.02984838 217.5180799 13.80223521 217.52450895 14.59802771 C217.5404752 17.18846933 217.52782097 19.77797471 217.51524353 22.36842346 C217.52066305 24.22457428 217.52778475 26.08072079 217.53648376 27.93685913 C217.55474028 32.98022543 217.54763996 38.02326493 217.53496742 43.06663704 C217.52485183 48.34054074 217.53422909 53.61441615 217.54051208 58.88832092 C217.54779269 67.74550916 217.53818993 76.60256406 217.51914978 85.45973206 C217.49738028 95.70496414 217.50443136 105.94987785 217.5264554 116.19510221 C217.54459762 124.98585854 217.54717349 133.77651893 217.53670073 142.56728792 C217.53045932 147.82007855 217.52964796 153.07271944 217.54284668 158.32550049 C217.55438739 163.26350523 217.54641199 168.20109882 217.52326965 173.13905907 C217.51797304 174.95311487 217.51951257 176.76720518 217.52832031 178.58124733 C217.53922209 181.05427349 217.52557839 183.52597528 217.50559998 185.99891663 C217.51452286 186.71992601 217.52344575 187.44093539 217.53263903 188.18379354 C217.47903943 191.59503132 217.23405595 193.32887041 215.09091949 196.04251862 C212.1150062 198.29681629 210.64024906 198.74684484 206.97955322 198.57780457 C205.7173999 198.52528786 205.7173999 198.52528786 204.42974854 198.47171021 C203.04084663 198.40728981 203.04084663 198.40728981 201.62388611 198.34156799 C191.5398421 197.92878458 181.459619 197.66866013 171.36868 197.49529457 C165.26863269 197.38373085 159.1811748 197.2172725 153.08726501 196.91725159 C122.6108528 194.60395188 122.6108528 194.60395188 95.8624115 206.69361877 C89.53746188 212.48149503 83.89129034 218.98906146 78.90440178 225.96287155 C75.57289737 230.5283698 75.57289737 230.5283698 72.22515869 231.10929871 C69.99766541 230.62818909 69.99766541 230.62818909 68.99766541 229.62818909 C68.99766541 219.39818909 68.99766541 209.16818909 68.99766541 198.62818909 C46.55766541 198.62818909 24.11766541 198.62818909 0.99766541 198.62818909 C2.13049433 192.96404444 3.05126193 192.48689471 6.99766541 188.62818909 C16.59290601 176.25278903 19.49478539 163.02529377 17.99766541 147.62818909 C16.6867338 140.78435495 14.22565593 134.71085525 9.49766541 129.56568909 C7.95860291 127.72975159 7.95860291 127.72975159 6.99766541 125.62818909 C7.32953479 122.28258691 8.16677433 119.28868024 9.10313416 116.06178284 C11.58905641 106.51974936 10.4807915 97.35449931 5.99766541 88.62818909 C1.49528471 81.03613857 -3.34096519 75.9650984 -11.00233459 71.62818909 C-11.99233459 70.96818909 -12.98233459 70.30818909 -14.00233459 69.62818909 C-14.39674377 66.99163818 -14.39674377 66.99163818 -14.42225647 63.60548401 C-14.43816833 62.3404454 -14.4540802 61.0754068 -14.47047424 59.77203369 C-14.4717417 58.3842423 -14.47191823 56.99644955 -14.47108459 55.60865784 C-14.47818386 54.18859555 -14.48588251 52.76853615 -14.49415588 51.34848022 C-14.50761945 48.36831195 -14.50916218 45.3884086 -14.50331116 42.40821838 C-14.4974258 38.59460834 -14.52794686 34.78227617 -14.56842804 30.96891308 C-14.59432519 28.03398833 -14.5971805 25.09936994 -14.59353638 22.16434669 C-14.5952271 20.75894787 -14.60486526 19.35353483 -14.62268066 17.94824791 C-14.64489357 15.97864904 -14.63195005 14.00874938 -14.61756897 12.03907776 C-14.61962341 10.9192601 -14.62167786 9.79944244 -14.62379456 8.64569092 C-12.94810605 0.50937732 -7.04444002 -0.09849532 0 0 Z " fill="#E4E7EB" transform="translate(278.00233459472656,16.371810913085938)"/>
<path d="M0 0 C1.21236328 0.01353516 1.21236328 0.01353516 2.44921875 0.02734375 C3.37154297 0.04474609 3.37154297 0.04474609 4.3125 0.0625 C4.55484375 0.64257812 4.7971875 1.22265625 5.046875 1.8203125 C8.80208233 10.57283419 12.56962466 16.71541574 21.3125 21.0625 C28.24123982 23.64031202 34.54558948 24.50626067 41.90283203 24.49487305 C42.90891006 24.5050647 43.9149881 24.51525635 44.95155334 24.52575684 C48.24119783 24.55569024 51.53055019 24.56512269 54.8203125 24.57421875 C57.11531527 24.59107999 59.4103089 24.60923217 61.70529175 24.62861633 C67.71884297 24.67596525 73.73235706 24.70587232 79.74603271 24.73205566 C85.89326303 24.76193754 92.04036563 24.80844161 98.1875 24.85351562 C110.22909964 24.93937683 122.2707257 25.00679841 134.3125 25.0625 C134.40582186 35.59067691 134.47657688 46.11875291 134.51974869 56.64726162 C134.54048531 61.5378592 134.56854321 66.42817058 134.61425781 71.31860352 C134.65821898 76.05192374 134.68174132 80.78497143 134.69200897 85.5184803 C134.69931132 87.31030623 134.71356622 89.1021199 134.73542023 90.89382744 C134.90572925 105.45661158 133.73886801 120.25590161 126.75 133.375 C126.24617798 134.34953125 126.24617798 134.34953125 125.73217773 135.34375 C121.96787568 142.24991714 116.93594349 147.63408923 111.3125 153.0625 C110.60609375 153.79984375 109.8996875 154.5371875 109.171875 155.296875 C96.77459181 167.50488669 78.80272463 173.16967767 61.7734375 173.265625 C60.97072418 173.27132507 60.16801086 173.27702515 59.3409729 173.28289795 C57.64838965 173.29229788 55.95578851 173.29886188 54.26318359 173.30273438 C51.71548224 173.31239391 49.16860482 173.34344577 46.62109375 173.375 C34.04136747 173.45876299 22.43771784 172.36338837 11.125 166.375 C10.45210937 166.02759766 9.77921875 165.68019531 9.0859375 165.32226562 C3.25624575 162.21719948 -1.81559169 158.5306105 -6.6875 154.0625 C-7.39261719 153.43730469 -8.09773438 152.81210937 -8.82421875 152.16796875 C-21.99894875 139.84645936 -30.14793233 121.17601262 -30.83467102 103.2129364 C-30.84955096 101.80565674 -30.85922065 100.39831522 -30.86450195 98.9909668 C-30.87107315 98.21596832 -30.87764435 97.44096985 -30.88441467 96.64248657 C-30.90399153 94.09889605 -30.91577362 91.55536404 -30.92578125 89.01171875 C-30.92985678 88.13698221 -30.9339323 87.26224567 -30.93813133 86.36100197 C-30.95892313 81.73293933 -30.97325583 77.10490575 -30.98266602 72.47680664 C-30.99373086 67.71912496 -31.02815148 62.96191084 -31.06783772 58.20439434 C-31.09407978 54.52473631 -31.10236444 50.84518869 -31.10594749 47.16544533 C-31.11079187 45.4125025 -31.12234392 43.65956388 -31.14098549 41.90671349 C-31.27741403 28.23151569 -29.93786856 18.51611657 -20.203125 8.265625 C-14.56535664 3.32820053 -7.55632223 -0.10951192 0 0 Z " fill="#EECEB2" transform="translate(96.6875,156.9375)"/>
<path d="M0 0 C64.02 0 128.04 0 194 0 C194 37.95 194 75.9 194 115 C118.1 115 42.2 115 -36 115 C-36 104.44 -36 93.88 -36 83 C-20.5813353 77.39321284 -20.5813353 77.39321284 -15.66870117 79.35522461 C-14.848228 79.67563217 -14.02775482 79.99603973 -13.18241882 80.32615662 C-12.3114003 80.68129837 -11.44038177 81.03644012 -10.54296875 81.40234375 C-9.64000565 81.75889542 -8.73704254 82.11544708 -7.80671692 82.48280334 C-4.92872498 83.62241883 -2.05820222 84.77966051 0.8125 85.9375 C2.76450777 86.71406348 4.71697698 87.48946814 6.66992188 88.26367188 C11.45206952 90.16238461 16.22759638 92.07693417 21 94 C23.66061809 50.99492801 23.66061809 50.99492801 6.92871094 12.81689453 C4.18494256 8.80960345 2.17194138 4.34388276 0 0 Z " fill="#E5E8EC" transform="translate(301,380)"/>
<path d="M0 0 C15.18 0 30.36 0 46 0 C50 12 50 12 50 14 C51.41791408 13.54554036 52.83428046 13.08625056 54.25 12.625 C55.03890625 12.36976562 55.8278125 12.11453125 56.640625 11.8515625 C59.00006809 11.08135674 59.00006809 11.08135674 60.984375 9.8359375 C63.8598037 8.64341474 65.02887218 8.99728965 68 10 C70.49650371 11.89171963 72.66395096 14.07967926 74.8671875 16.30078125 C75.50616974 16.93356491 76.14515198 17.56634857 76.80349731 18.2183075 C78.14809093 19.55580957 79.48758301 20.89845727 80.82226562 22.24584961 C82.87305445 24.31054126 84.94675055 26.35006899 87.0234375 28.38867188 C88.32697308 29.69125664 89.62910649 30.99524645 90.9296875 32.30078125 C91.55350311 32.91133865 92.17731873 33.52189606 92.82003784 34.1509552 C94.53076172 35.8996582 94.53076172 35.8996582 97 39 C96.48851264 42.71829667 94.64755794 45.66647103 92.83984375 48.90234375 C91.84529067 51.38641353 91.85702718 53.34808483 92 56 C92.77085937 56.20496094 93.54171875 56.40992188 94.3359375 56.62109375 C95.84027344 57.02521484 95.84027344 57.02521484 97.375 57.4375 C98.37273437 57.70433594 99.37046875 57.97117188 100.3984375 58.24609375 C103 59 103 59 105 60 C105 74.85 105 89.7 105 105 C95 109 95 109 92 109 C92.43298772 114.19585266 93.63997735 117.64625042 96.35546875 122.10546875 C97 124 97 124 96.22085571 125.92364502 C95.01232674 127.97903545 93.79914155 129.44259011 92.11083984 131.11621094 C91.24016373 131.98666046 91.24016373 131.98666046 90.35189819 132.87469482 C89.72788116 133.48838928 89.10386414 134.10208374 88.4609375 134.734375 C87.82008209 135.37240051 87.17922668 136.01042603 86.51895142 136.66778564 C84.47562179 138.69994069 82.42544018 140.72502218 80.375 142.75 C78.9865214 144.1284453 77.5984951 145.50734636 76.2109375 146.88671875 C72.81251303 150.26311894 69.40792746 153.63319288 66 157 C63.10495217 155.85787135 60.27095937 154.66745515 57.4375 153.375 C53.99806567 151.75240622 53.99806567 151.75240622 50 152 C48.68 156.29 47.36 160.58 46 165 C30.82 165 15.64 165 0 165 C-1.98 159.06 -1.98 159.06 -4 153 C-9.33580354 151.93283929 -10.20626635 152.16213157 -14.8125 154.4375 C-15.78832031 154.91058594 -16.76414062 155.38367188 -17.76953125 155.87109375 C-18.50558594 156.24363281 -19.24164063 156.61617187 -20 157 C-24.45228922 152.69585453 -28.88463475 148.37249215 -33.29956055 144.0300293 C-34.80463509 142.55515692 -36.31504659 141.08571058 -37.83081055 139.62182617 C-40.00689815 137.51839354 -42.16313787 135.39628654 -44.31640625 133.26953125 C-44.99965469 132.61725052 -45.68290314 131.96496979 -46.38685608 131.29292297 C-48.0913572 129.58966631 -49.64448713 127.99213989 -51 126 C-50.97601224 122.47167317 -49.79668722 120.33346921 -47.875 117.4375 C-45.83169302 114.34853275 -45.83169302 114.34853275 -46.0078125 111.921875 C-46.8982281 109.71232463 -46.8982281 109.71232463 -49.6875 108.76953125 C-50.780625 108.45371094 -51.87375 108.13789063 -53 107.8125 C-58.9480737 106.0519263 -58.9480737 106.0519263 -60 105 C-60.0928726 103.58774954 -60.11746772 102.17091066 -60.11352539 100.75561523 C-60.11344986 99.85475693 -60.11337433 98.95389862 -60.11329651 98.02574158 C-60.10813522 97.04658279 -60.10297394 96.06742401 -60.09765625 95.05859375 C-60.0962413 94.06118668 -60.09482635 93.0637796 -60.09336853 92.03614807 C-60.08775114 88.83656876 -60.07519571 85.63705831 -60.0625 82.4375 C-60.05748724 80.27408955 -60.05292395 78.11067801 -60.04882812 75.94726562 C-60.03777607 70.63148675 -60.02102104 65.31574829 -60 60 C-58.23141309 59.32739649 -56.46003984 58.66211605 -54.6875 58 C-53.70136719 57.62875 -52.71523438 57.2575 -51.69921875 56.875 C-49 56 -49 56 -46 56 C-46.47265449 51.2734551 -47.90757198 47.96561778 -50.2578125 43.9296875 C-51.20365032 41.47050916 -50.8489859 40.4677696 -50 38 C-48.81916809 36.41130066 -48.81916809 36.41130066 -47.31958008 34.86791992 C-46.75841995 34.28439255 -46.19725983 33.70086517 -45.61909485 33.09965515 C-45.00873886 32.48282364 -44.39838287 31.86599213 -43.76953125 31.23046875 C-43.14149094 30.59007156 -42.51345062 29.94967438 -41.86637878 29.28987122 C-40.53633557 27.94027384 -39.20210043 26.59479667 -37.86401367 25.25317383 C-35.8196819 23.19473147 -33.80349797 21.11116562 -31.78710938 19.02539062 C-30.49123042 17.71711647 -29.19375579 16.41042053 -27.89453125 15.10546875 C-27.29429642 14.47851608 -26.69406158 13.85156342 -26.07563782 13.20561218 C-21.79605956 8.99394061 -21.79605956 8.99394061 -17.76049805 9.0246582 C-14.6893842 10.10974707 -11.89901858 11.51965008 -9 13 C-6.26427415 13.69907414 -6.26427415 13.69907414 -4 14 C-3.81824219 13.11248047 -3.81824219 13.11248047 -3.6328125 12.20703125 C-3.46523438 11.41683594 -3.29765625 10.62664063 -3.125 9.8125 C-2.96257812 9.03519531 -2.80015625 8.25789063 -2.6328125 7.45703125 C-2 5 -2 5 0 0 Z " fill="#F8D46E" transform="translate(357,33)"/>
<path d="M0 0 C6.29202747 3.59544427 10.1832709 8.92059139 13.32421875 15.328125 C13.32421875 15.988125 13.32421875 16.648125 13.32421875 17.328125 C16.78303047 15.07989738 20.07808243 12.7500935 23.32421875 10.203125 C29.24936165 5.76766831 34.99546603 4.34853924 42.32421875 5.328125 C49.46088762 7.50681104 55.62530147 11.23731539 59.57421875 17.703125 C62.22316236 22.78026692 63.4412657 27.61233205 63.32421875 33.328125 C64.00226563 33.1115625 64.6803125 32.895 65.37890625 32.671875 C73.89210275 30.12499073 81.15657931 28.59229226 89.51171875 32.328125 C95.5325201 35.6561585 100.81675833 40.81341476 103.32421875 47.328125 C104.54304162 58.70852926 102.06426071 65.83814159 96.32421875 75.328125 C96.98808594 75.93398437 97.65195312 76.53984375 98.3359375 77.1640625 C106.07514764 84.50783855 111.48081794 91.58595126 112.52734375 102.43359375 C112.72990201 111.43055665 110.40320271 118.60134054 104.921875 125.734375 C103.11689565 127.5349412 101.76156032 128.55324762 99.32421875 129.328125 C97.60546875 128.53515625 97.60546875 128.53515625 95.82421875 127.140625 C90.73793914 123.61490845 85.29291719 122.60369362 79.32421875 121.328125 C79.30963623 120.66393555 79.29505371 119.99974609 79.2800293 119.31542969 C78.73600826 97.147053 76.82437095 79.62385054 60.32421875 63.328125 C59.49470703 62.46574219 59.49470703 62.46574219 58.6484375 61.5859375 C48.84064323 52.19187152 35.15901369 49.77696354 22.32421875 47.328125 C21.99421875 52.608125 21.66421875 57.888125 21.32421875 63.328125 C23.57234375 63.699375 25.82046875 64.070625 28.13671875 64.453125 C39.62478091 66.61908127 48.91119418 71.76432534 55.7890625 81.375 C58.96853308 86.2778358 61.32421875 90.36900297 61.32421875 96.328125 C47.99837072 96.42081083 34.67259941 96.49188312 21.34649467 96.53537369 C15.15861499 96.55624714 8.97095587 96.58456101 2.78320312 96.62988281 C-3.188477 96.67334822 -9.15994498 96.69726393 -15.13177109 96.70763397 C-17.40995498 96.71502401 -19.68812728 96.72945497 -21.96622086 96.75104523 C-25.15758594 96.78008762 -28.34807478 96.78408054 -31.53955078 96.78222656 C-32.48110519 96.79660767 -33.42265961 96.81098877 -34.39274597 96.82580566 C-40.00192725 96.79055277 -43.24071182 96.10025986 -47.67578125 92.328125 C-52.2985906 87.08061168 -53.02909125 83.9805811 -52.95703125 77.08984375 C-52.43497799 71.96357081 -49.8001459 69.34279554 -46.11328125 66.015625 C-42.66408569 63.62772038 -40.0970682 63.20442254 -36.0078125 63.23046875 C-35.11513672 63.23369141 -34.22246094 63.23691406 -33.30273438 63.24023438 C-31.90958008 63.25280273 -31.90958008 63.25280273 -30.48828125 63.265625 C-29.54791016 63.27013672 -28.60753906 63.27464844 -27.63867188 63.27929688 C-25.31768117 63.29107855 -22.99672318 63.30901386 -20.67578125 63.328125 C-20.67578125 58.048125 -20.67578125 52.768125 -20.67578125 47.328125 C-41.41337323 46.85311469 -41.41337323 46.85311469 -59.01953125 56.4453125 C-62.42729255 60.0135843 -64.65872615 63.0140456 -66.17578125 67.703125 C-67.05078125 69.6875 -67.05078125 69.6875 -68.67578125 71.328125 C-71.91051569 72.24163797 -75.01462187 72.78750797 -78.33251953 73.26074219 C-91.99600249 75.26508972 -102.39402883 83.29281921 -110.55078125 94.203125 C-116.13576581 102.72549531 -118.28472891 111.21942189 -118.67578125 121.328125 C-119.36542969 121.41449219 -120.05507812 121.50085938 -120.765625 121.58984375 C-126.8930661 122.50601807 -131.48912608 123.93264334 -136.703125 127.3046875 C-138.67578125 128.328125 -138.67578125 128.328125 -142.67578125 128.328125 C-144.2734375 126.82421875 -144.2734375 126.82421875 -145.73828125 124.765625 C-146.46724609 123.77369141 -146.46724609 123.77369141 -147.2109375 122.76171875 C-152.34180627 114.23763543 -153.03523119 106.02100307 -151.67578125 96.328125 C-149.13078132 87.70982979 -144.09544414 81.31681138 -136.67578125 76.328125 C-127.43372746 71.328125 -127.43372746 71.328125 -123.67578125 71.328125 C-123.96453125 70.4825 -124.25328125 69.636875 -124.55078125 68.765625 C-127.63497957 59.34168568 -129.36556311 53.5328305 -125.17578125 44.203125 C-122.23523332 38.69741823 -119.09285832 35.37168193 -113.67578125 32.328125 C-112.89203125 31.874375 -112.10828125 31.420625 -111.30078125 30.953125 C-102.80159901 28.92951018 -94.89720293 30.95493111 -86.67578125 33.328125 C-86.65 32.6990625 -86.62421875 32.07 -86.59765625 31.421875 C-86.04187658 23.03465457 -84.12954346 17.34155494 -77.92578125 11.515625 C-72.50758824 7.12086845 -66.92797005 4.64934553 -59.80859375 4.984375 C-52.20432723 6.20997107 -46.71509158 9.62026381 -41.3671875 15.03515625 C-40.80902344 15.46183594 -40.25085938 15.88851562 -39.67578125 16.328125 C-35.79906696 15.0358869 -35.51128791 13.64964778 -33.55078125 10.140625 C-25.88937724 -2.39473603 -13.32737853 -5.94187677 0 0 Z " fill="#B07845" transform="translate(168.67578125,68.671875)"/>
<path d="M0 0 C15.18 0 30.36 0 46 0 C50 12 50 12 50 14 C51.41791408 13.54554036 52.83428046 13.08625056 54.25 12.625 C55.03890625 12.36976562 55.8278125 12.11453125 56.640625 11.8515625 C59.00006809 11.08135674 59.00006809 11.08135674 60.984375 9.8359375 C63.8598037 8.64341474 65.02887218 8.99728965 68 10 C70.49650371 11.89171963 72.66395096 14.07967926 74.8671875 16.30078125 C75.50616974 16.93356491 76.14515198 17.56634857 76.80349731 18.2183075 C78.14809093 19.55580957 79.48758301 20.89845727 80.82226562 22.24584961 C82.87305445 24.31054126 84.94675055 26.35006899 87.0234375 28.38867188 C88.32697308 29.69125664 89.62910649 30.99524645 90.9296875 32.30078125 C91.55350311 32.91133865 92.17731873 33.52189606 92.82003784 34.1509552 C94.53076172 35.8996582 94.53076172 35.8996582 97 39 C96.48851264 42.71829667 94.64755794 45.66647103 92.83984375 48.90234375 C91.84529067 51.38641353 91.85702718 53.34808483 92 56 C92.77085937 56.20496094 93.54171875 56.40992188 94.3359375 56.62109375 C95.84027344 57.02521484 95.84027344 57.02521484 97.375 57.4375 C98.37273437 57.70433594 99.37046875 57.97117188 100.3984375 58.24609375 C103 59 103 59 105 60 C105 74.85 105 89.7 105 105 C95 109 95 109 92 109 C92.43298772 114.19585266 93.63997735 117.64625042 96.35546875 122.10546875 C97 124 97 124 96.22085571 125.92364502 C95.01232674 127.97903545 93.79914155 129.44259011 92.11083984 131.11621094 C91.24016373 131.98666046 91.24016373 131.98666046 90.35189819 132.87469482 C89.72788116 133.48838928 89.10386414 134.10208374 88.4609375 134.734375 C87.82008209 135.37240051 87.17922668 136.01042603 86.51895142 136.66778564 C84.47562179 138.69994069 82.42544018 140.72502218 80.375 142.75 C78.9865214 144.1284453 77.5984951 145.50734636 76.2109375 146.88671875 C72.81251303 150.26311894 69.40792746 153.63319288 66 157 C63.10495217 155.85787135 60.27095937 154.66745515 57.4375 153.375 C53.99806567 151.75240622 53.99806567 151.75240622 50 152 C48.68 156.29 47.36 160.58 46 165 C30.82 165 15.64 165 0 165 C-1.98 159.06 -1.98 159.06 -4 153 C-9.33580354 151.93283929 -10.20626635 152.16213157 -14.8125 154.4375 C-15.78832031 154.91058594 -16.76414062 155.38367188 -17.76953125 155.87109375 C-18.50558594 156.24363281 -19.24164063 156.61617187 -20 157 C-24.45228922 152.69585453 -28.88463475 148.37249215 -33.29956055 144.0300293 C-34.80463509 142.55515692 -36.31504659 141.08571058 -37.83081055 139.62182617 C-40.00689815 137.51839354 -42.16313787 135.39628654 -44.31640625 133.26953125 C-44.99965469 132.61725052 -45.68290314 131.96496979 -46.38685608 131.29292297 C-48.0913572 129.58966631 -49.64448713 127.99213989 -51 126 C-50.97601224 122.47167317 -49.79668722 120.33346921 -47.875 117.4375 C-45.83169302 114.34853275 -45.83169302 114.34853275 -46.0078125 111.921875 C-46.8982281 109.71232463 -46.8982281 109.71232463 -49.6875 108.76953125 C-50.780625 108.45371094 -51.87375 108.13789063 -53 107.8125 C-58.9480737 106.0519263 -58.9480737 106.0519263 -60 105 C-60.0928726 103.58774954 -60.11746772 102.17091066 -60.11352539 100.75561523 C-60.11344986 99.85475693 -60.11337433 98.95389862 -60.11329651 98.02574158 C-60.10813522 97.04658279 -60.10297394 96.06742401 -60.09765625 95.05859375 C-60.0962413 94.06118668 -60.09482635 93.0637796 -60.09336853 92.03614807 C-60.08775114 88.83656876 -60.07519571 85.63705831 -60.0625 82.4375 C-60.05748724 80.27408955 -60.05292395 78.11067801 -60.04882812 75.94726562 C-60.03777607 70.63148675 -60.02102104 65.31574829 -60 60 C-58.23141309 59.32739649 -56.46003984 58.66211605 -54.6875 58 C-53.70136719 57.62875 -52.71523438 57.2575 -51.69921875 56.875 C-49 56 -49 56 -46 56 C-46.47265449 51.2734551 -47.90757198 47.96561778 -50.2578125 43.9296875 C-51.20365032 41.47050916 -50.8489859 40.4677696 -50 38 C-48.81916809 36.41130066 -48.81916809 36.41130066 -47.31958008 34.86791992 C-46.75841995 34.28439255 -46.19725983 33.70086517 -45.61909485 33.09965515 C-45.00873886 32.48282364 -44.39838287 31.86599213 -43.76953125 31.23046875 C-43.14149094 30.59007156 -42.51345062 29.94967438 -41.86637878 29.28987122 C-40.53633557 27.94027384 -39.20210043 26.59479667 -37.86401367 25.25317383 C-35.8196819 23.19473147 -33.80349797 21.11116562 -31.78710938 19.02539062 C-30.49123042 17.71711647 -29.19375579 16.41042053 -27.89453125 15.10546875 C-27.29429642 14.47851608 -26.69406158 13.85156342 -26.07563782 13.20561218 C-21.79605956 8.99394061 -21.79605956 8.99394061 -17.76049805 9.0246582 C-14.6893842 10.10974707 -11.89901858 11.51965008 -9 13 C-6.26427415 13.69907414 -6.26427415 13.69907414 -4 14 C-3.81824219 13.11248047 -3.81824219 13.11248047 -3.6328125 12.20703125 C-3.46523438 11.41683594 -3.29765625 10.62664063 -3.125 9.8125 C-2.96257812 9.03519531 -2.80015625 8.25789063 -2.6328125 7.45703125 C-2 5 -2 5 0 0 Z M12 17 C8.80304035 23.190277 8.80304035 23.190277 9 27 C7.515 27.12375 7.515 27.12375 6 27.25 C2.86234282 27.66201559 0.67579458 28.62049906 -2.0625 30.1875 C-5.12177396 31.82934973 -5.62172607 32.0815885 -9.1875 31.3125 C-10.115625 30.879375 -11.04375 30.44625 -12 30 C-14.233554 28.78915482 -14.233554 28.78915482 -17 29 C-19.76674093 30.99358244 -22.00210153 33.44150825 -24.3125 35.9375 C-24.95767578 36.60974609 -25.60285156 37.28199219 -26.26757812 37.97460938 C-27.85933005 39.63710583 -29.43546905 41.31192844 -31 43 C-29.62068442 47.17674596 -29.62068442 47.17674596 -28.125 51.3125 C-27.95259124 55.01928842 -29.41009533 57.47883452 -31.0078125 60.7734375 C-32.21260874 63.47711411 -32.69889455 66.06422185 -33 69 C-33.95712891 69.19916016 -33.95712891 69.19916016 -34.93359375 69.40234375 C-35.75988281 69.57894531 -36.58617187 69.75554687 -37.4375 69.9375 C-38.26121094 70.11152344 -39.08492188 70.28554687 -39.93359375 70.46484375 C-41.97661204 70.80752994 -41.97661204 70.80752994 -43 72 C-43.08700342 73.63472882 -43.10701063 75.27314055 -43.09765625 76.91015625 C-43.09443359 77.89951172 -43.09121094 78.88886719 -43.08789062 79.90820312 C-43.07951172 80.94912109 -43.07113281 81.99003906 -43.0625 83.0625 C-43.05798828 84.10728516 -43.05347656 85.15207031 -43.04882812 86.22851562 C-43.03699913 88.8190666 -43.02051689 91.40950559 -43 94 C-42.39236816 94.13680176 -41.78473633 94.27360352 -41.15869141 94.41455078 C-36.65793544 95.62806519 -34.52538703 96.24971045 -31.7734375 100.1796875 C-31.31195313 101.39914063 -30.85046875 102.61859375 -30.375 103.875 C-29.88773437 105.08929688 -29.40046875 106.30359375 -28.8984375 107.5546875 C-27.79182179 111.79831816 -28.04700751 114.2528471 -30.125 118.0625 C-31.24582523 120.5443273 -30.8735795 121.45957686 -30 124 C-28.15917157 126.23590513 -26.33859091 128.26208627 -24.3125 130.3125 C-23.79494141 130.87517578 -23.27738281 131.43785156 -22.74414062 132.01757812 C-21.00976401 133.86145731 -21.00976401 133.86145731 -18 136 C-14.42168459 135.93493972 -12.43339529 135.21669765 -9.25 133.625 C-4.73232535 132.75621641 -2.37503088 134.44153082 1.53515625 136.640625 C3.9357786 138.11035751 3.9357786 138.11035751 6.62109375 138.609375 C9 140 9 140 12 149 C19.26 149 26.52 149 34 149 C34.99 145.7 35.98 142.4 37 139 C39.99609375 136.96484375 39.99609375 136.96484375 43.4375 135.9375 C45.13712891 135.39416016 45.13712891 135.39416016 46.87109375 134.83984375 C48.41990234 134.42412109 48.41990234 134.42412109 50 134 C51.10021484 133.64615234 51.10021484 133.64615234 52.22265625 133.28515625 C55.16995504 132.81229293 57.39863159 134.69931579 60 136 C63.32131669 135.62792431 64.94294 134.4187718 67.234375 132.05859375 C67.80800781 131.47529297 68.38164062 130.89199219 68.97265625 130.29101562 C69.55917969 129.67935547 70.14570313 129.06769531 70.75 128.4375 C71.35199219 127.82197266 71.95398438 127.20644531 72.57421875 126.57226562 C74.05634381 125.05485187 75.5290967 123.52829404 77 122 C76.50371094 120.91332031 76.00742187 119.82664062 75.49609375 118.70703125 C73.06314225 112.67864751 74.73441318 108.47445867 77.0625 102.6875 C77.42472656 101.84574219 77.78695312 101.00398438 78.16015625 100.13671875 C79.12193676 98.07241103 79.12193676 98.07241103 79 96 C79.63808594 95.86722656 80.27617187 95.73445313 80.93359375 95.59765625 C82.17302734 95.33275391 82.17302734 95.33275391 83.4375 95.0625 C84.67306641 94.80146484 84.67306641 94.80146484 85.93359375 94.53515625 C87.97661204 94.19247006 87.97661204 94.19247006 89 93 C89.08685603 91.43827255 89.10702219 89.87270656 89.09765625 88.30859375 C89.09443359 87.36435547 89.09121094 86.42011719 89.08789062 85.44726562 C89.07951172 84.45404297 89.07113281 83.46082031 89.0625 82.4375 C89.05573242 80.94186523 89.05573242 80.94186523 89.04882812 79.41601562 C89.03700023 76.94398513 89.01906415 74.47198528 89 72 C85.7 71.01 82.4 70.02 79 69 C78.67 67.35 78.34 65.7 78 64 C77.32754874 62.52477747 76.61871023 61.06561352 75.875 59.625 C73.91300079 55.34556693 73.75178801 52.63621597 75 48 C75.65247643 46.32772708 76.31681717 44.65996489 77 43 C74.79560567 40.6215393 72.55796096 38.27717611 70.3125 35.9375 C69.68666016 35.26138672 69.06082031 34.58527344 68.41601562 33.88867188 C65.04397379 30.11244349 65.04397379 30.11244349 60.41796875 28.94140625 C59.62003906 29.29074219 58.82210937 29.64007813 58 30 C53.5231006 31.9080854 50.93278293 32.18909074 46.28710938 30.48242188 C45.63548828 30.22009766 44.98386719 29.95777344 44.3125 29.6875 C43.64927734 29.46771484 42.98605469 29.24792969 42.30273438 29.02148438 C40.36328125 28.26171875 40.36328125 28.26171875 37 26 C36.01 23.03 35.02 20.06 34 17 C26.74 17 19.48 17 12 17 Z " fill="#030302" transform="translate(357,33)"/>
<path d="M0 0 C5.72333953 3.98625578 8.98709871 8.97015085 11.2265625 15.55078125 C11.62715778 18.29707482 11.89873791 20.83665427 12.01171875 23.58984375 C12.04575302 24.3454509 12.07978729 25.10105804 12.11485291 25.87956238 C12.20301908 28.31194828 12.2533411 30.74208101 12.2890625 33.17578125 C12.30412842 34.0004892 12.31919434 34.82519714 12.3347168 35.67489624 C12.47879165 51.58606566 8.44386926 61.84974945 -2.7734375 73.55078125 C-0.07179985 76.45070423 2.47746037 78.44831542 5.9765625 80.30078125 C6.77578125 80.72875 7.575 81.15671875 8.3984375 81.59765625 C9.30335938 82.06945312 9.30335938 82.06945312 10.2265625 82.55078125 C10.66226563 81.86113281 11.09796875 81.17148437 11.546875 80.4609375 C12.14242187 79.52121094 12.73796875 78.58148438 13.3515625 77.61328125 C13.93164062 76.69675781 14.51171875 75.78023438 15.109375 74.8359375 C15.80804688 73.75183594 16.50671875 72.66773438 17.2265625 71.55078125 C17.59880447 70.80746048 17.97104645 70.06413971 18.35456848 69.29829407 C21.78101696 63.04914332 21.78101696 63.04914332 25.62237549 61.72480774 C28.56921121 61.4250058 31.39464362 61.40723598 34.35546875 61.49609375 C35.95635597 61.49740799 35.95635597 61.49740799 37.58958435 61.49874878 C39.83979984 61.51012488 42.08999776 61.54340289 44.33959961 61.59716797 C47.78215397 61.6756238 51.21877853 61.67925304 54.66210938 61.671875 C56.85160795 61.69219791 59.04107191 61.71679303 61.23046875 61.74609375 C62.25765518 61.74852081 63.28484161 61.75094788 64.34315491 61.75344849 C68.85845497 61.88812483 71.51378093 62.09570146 75.37670898 64.56201172 C77.85700457 68.56937329 77.91637577 71.54869458 77.8203125 76.17578125 C77.82035278 77.00029785 77.82039307 77.82481445 77.82043457 78.67431641 C77.81508805 80.4125127 77.79754221 82.15070908 77.76855469 83.88867188 C77.72669436 86.54242178 77.7274891 89.19363173 77.734375 91.84765625 C77.72388157 93.54038214 77.71094264 95.233095 77.6953125 96.92578125 C77.69501038 98.11034912 77.69501038 98.11034912 77.69470215 99.31884766 C77.59716158 103.88127689 77.08058321 106.93172928 74.2265625 110.55078125 C71.25051703 112.03880399 68.20301342 111.72413569 64.93798828 111.74365234 C63.81066536 111.75591858 63.81066536 111.75591858 62.66056824 111.76843262 C60.16434521 111.79331081 57.66817958 111.80981775 55.171875 111.82421875 C54.31711452 111.82954243 53.46235405 111.8348661 52.58169174 111.8403511 C48.04861091 111.86710603 43.5155577 111.88646465 38.98242188 111.90087891 C35.2461672 111.91416394 31.51046572 111.94191141 27.77441406 111.98291016 C23.2527272 112.03252752 18.73153834 112.05703679 14.20959091 112.06410599 C12.49456221 112.07077608 10.77954274 112.08588603 9.06467056 112.1099968 C-3.34904211 112.27442907 -14.61139864 111.33587069 -24.1484375 102.30078125 C-33.70196018 92.99222069 -38.72117982 82.27569597 -39.29101562 68.80175781 C-39.31697323 66.43177839 -39.3207433 64.06147344 -39.3046875 61.69140625 C-39.3085144 60.42157898 -39.31234131 59.15175171 -39.31628418 57.84344482 C-39.3189871 55.18069943 -39.31380837 52.51946018 -39.29492188 49.85693359 C-39.27204056 46.46896669 -39.28534896 43.0822615 -39.30921173 39.69433975 C-39.32723971 36.422485 -39.31457781 33.15077752 -39.3046875 29.87890625 C-39.31278442 28.67558655 -39.32088135 27.47226685 -39.32922363 26.23248291 C-39.21869454 16.25149428 -36.90241605 8.6797598 -29.7734375 1.55078125 C-20.52111738 -4.9508491 -9.87015544 -5.56175426 0 0 Z " fill="#5BD4B1" transform="translate(145.7734375,350.44921875)"/>
<path d="M0 0 C9.56844371 4.8356651 17.09510098 13.00577824 21 23 C21.35835938 23.91652344 21.71671875 24.83304688 22.0859375 25.77734375 C25.1024667 36.41254284 23.24533299 47.81227243 18.375 57.5 C12.29017632 68.03926399 4.16930207 73.52968769 -7 78 C-18.11632873 80.39900695 -29.47610865 79.42225498 -39.42578125 73.57421875 C-41.39359512 72.14004932 -43.20344009 70.64183226 -45 69 C-46.299375 67.8553125 -46.299375 67.8553125 -47.625 66.6875 C-56.96406586 56.11960968 -59.89377868 46.35495377 -59.40234375 32.44921875 C-58.64891596 21.37782031 -53.00969495 13.34222037 -45 6 C-39.4542446 1.47734085 -33.85481198 -1.08670911 -27 -3 C-17.9290852 -6.02363827 -8.57676428 -3.49827361 0 0 Z " fill="#030302" transform="translate(398,78)"/>
<path d="M0 0 C16.5 0 33 0 50 0 C50 27.39 50 54.78 50 83 C33.5 83 17 83 0 83 C0 55.61 0 28.22 0 0 Z " fill="#060605" transform="translate(429,396)"/>
<path d="M0 0 C27.39 0 54.78 0 83 0 C83 15.16055592 82.24524603 25.98077494 71.9609375 37.23046875 C62.42451912 46.21087687 51.49030784 50.57454243 38.40234375 50.3046875 C27.24112025 49.30517495 17.89510754 44.10743133 10.15625 36.08984375 C1.22042528 24.98844926 0 14.15657003 0 0 Z " fill="#050403" transform="translate(107,264)"/>
<path d="M0 0 C6.1762546 3.5407844 10.07150143 8.75287261 13.0625 15.125 C14.59877836 23.14778701 13.74307843 30.40188012 9.1484375 37.26953125 C4.39350674 43.12091865 -0.12896749 46.58575249 -7.71484375 47.4375 C-16.11267404 47.7242989 -22.08811468 47.06301443 -28.3046875 41.26171875 C-34.29932391 34.85666118 -37.0642897 28.7414304 -36.78515625 19.90625 C-35.72373433 12.54705799 -32.00499598 6.68646286 -26.10546875 2.24609375 C-25.53441406 1.85550781 -24.96335937 1.46492188 -24.375 1.0625 C-23.075625 0.134375 -23.075625 0.134375 -21.75 -0.8125 C-14.57991204 -3.20252932 -6.94375488 -3.06841767 0 0 Z " fill="#E3E6E9" transform="translate(391.375,92.9375)"/>
<path d="M0 0 C5.61 0 11.22 0 17 0 C17 27.39 17 54.78 17 83 C11.39 83 5.78 83 0 83 C0 55.61 0 28.22 0 0 Z " fill="#070707" transform="translate(396,396)"/>
<path d="M0 0 C5.94892655 4.75431452 11.30158099 11.82040497 12.8125 19.375 C12.8125 21.685 12.8125 23.995 12.8125 26.375 C7.2025 26.375 1.5925 26.375 -4.1875 26.375 C-4.8475 23.735 -5.5075 21.095 -6.1875 18.375 C-6.86174167 16.02039322 -6.86174167 16.02039322 -8.1875 14.375 C-10.59702023 13.12785597 -10.59702023 13.12785597 -13.1875 12.375 C-14.1775 12.045 -15.1675 11.715 -16.1875 11.375 C-21.18205908 10.85061428 -25.06706656 10.82496904 -29.625 13.0625 C-34.34771931 17.32446621 -35.12111462 19.97668774 -36.1875 26.375 C-41.7975 26.375 -47.4075 26.375 -53.1875 26.375 C-53.1875 16.31677377 -50.46060356 9.7418488 -43.54296875 2.421875 C-30.38066638 -9.01601296 -14.31917083 -9.67437261 0 0 Z " fill="#050403" transform="translate(210.1875,204.625)"/>
<path d="M0 0 C7.70237145 5.2723903 13.20562399 12.01483161 16 21 C16 23.64 16 26.28 16 29 C10.72 29 5.44 29 0 29 C-0.61875 27.1746875 -0.61875 27.1746875 -1.25 25.3125 C-2.97065534 20.76964828 -4.88724319 17.30493803 -9.125 14.6875 C-14.85802405 13.31655947 -20.00213471 13.03806486 -25.375 15.625 C-29.93349447 19.74935214 -31.78999138 22.94995689 -33 29 C-38.28 29 -43.56 29 -49 29 C-49.71806221 20.09602855 -46.95946414 14.6505865 -42.25 7.25 C-30.61812596 -4.38187404 -14.85352316 -8.02481705 0 0 Z " fill="#030302" transform="translate(124,202)"/>
<path d="M0 0 C3.29291016 0.96679688 3.29291016 0.96679688 6.65234375 1.953125 C19.67941735 5.2796904 33.21426879 4.6786324 46.5625 4.75 C49.23117618 4.77607271 51.8997392 4.80814643 54.56835938 4.83984375 C61.04554078 4.91307954 67.52251422 4.96303496 74 5 C74 10.28 74 15.56 74 21 C49.58 21 25.16 21 0 21 C0 14.07 0 7.14 0 0 Z " fill="#5BD5B2" transform="translate(124,474)"/>
<path d="M0 0 C2.89284391 2.89284391 4.3015644 5.13531782 6.1875 8.71484375 C6.79916016 9.86726563 7.41082031 11.0196875 8.04101562 12.20703125 C8.69426304 13.45038814 9.3472528 14.69388043 10 15.9375 C11.34131918 18.47915394 12.68581706 21.01911541 14.03125 23.55859375 C14.3660437 24.19159393 14.7008374 24.82459412 15.04577637 25.47677612 C17.13018756 29.40463674 19.27148406 33.29381329 21.46875 37.16015625 C21.984375 38.07095947 22.5 38.9817627 23.03125 39.92016602 C23.99024791 41.60462927 24.95861398 43.28380307 25.9375 44.95678711 C26.3603125 45.70323486 26.783125 46.44968262 27.21875 47.21875 C27.58935547 47.85748047 27.95996094 48.49621094 28.34179688 49.15429688 C29.1837923 51.51538196 28.92454172 52.69391419 28 55 C25.78515625 56.703125 25.78515625 56.703125 23.0625 58.25 C21.71865234 59.03117187 21.71865234 59.03117187 20.34765625 59.828125 C18 61 18 61 16 61 C15.97421875 60.29875 15.9484375 59.5975 15.921875 58.875 C15.4424724 50.85590194 13.84438143 45.47646619 8.75 39.25 C3.73821568 35.14944919 -0.45283911 33.05416438 -6.9375 32.8125 C-9.9199361 32.35473074 -11.46362612 31.6952848 -13.32177734 29.28662109 C-21 16.91535926 -21 16.91535926 -21 12 C-14.07 8.04 -7.14 4.08 0 0 Z " fill="#EA7082" transform="translate(273,365)"/>
<path d="M0 0 C1.42602539 -0.03673828 1.42602539 -0.03673828 2.88085938 -0.07421875 C6.9424597 -0.09124852 10.03849369 0.11151799 13.82421875 1.6484375 C16.93476999 6.2001456 16.32674476 11.00774726 16.1875 16.375 C16.19136719 18.0146875 16.19136719 18.0146875 16.1953125 19.6875 C16.08295881 28.85556095 16.08295881 28.85556095 12.6875 32.375 C9.39015354 33.47411549 6.95791255 33.4889456 3.48828125 33.47265625 C2.27978516 33.46943359 1.07128906 33.46621094 -0.17382812 33.46289062 C-2.0677832 33.45032227 -2.0677832 33.45032227 -4 33.4375 C-5.91135742 33.43073242 -5.91135742 33.43073242 -7.86132812 33.42382812 C-11.01176564 33.41202873 -14.16210949 33.39556597 -17.3125 33.375 C-17.4590954 29.70876188 -17.54699874 26.043288 -17.625 22.375 C-17.66689453 21.34503906 -17.70878906 20.31507813 -17.75195312 19.25390625 C-17.86334534 12.25847491 -16.85144189 7.78531469 -12.3125 2.375 C-8.96634636 -0.97115364 -4.54200632 0.0060844 0 0 Z " fill="#ECCCB1" transform="translate(256.3125,412.625)"/>
<path d="M0 0 C12.98100675 3.41605441 23.72099332 12.7990272 30.4921875 24.12109375 C33.76751109 30.37475564 36 35.90351788 36 43 C25.77 43 15.54 43 5 43 C4.6875 29.125 4.6875 29.125 4.61206055 24.81298828 C4.3978828 17.35793527 3.50012751 11.01106349 1 4 C0.65140838 2.67057427 0.31313252 1.33822155 0 0 Z " fill="#5BD4B1" transform="translate(169,353)"/>
<path d="M0 0 C5.61 0 11.22 0 17 0 C17 16.5 17 33 17 50 C11.39 50 5.78 50 0 50 C0 33.5 0 17 0 0 Z " fill="#080808" transform="translate(363,429)"/>
<path d="M0 0 C5.28 0 10.56 0 16 0 C16 16.17 16 32.34 16 49 C10.72 49 5.44 49 0 49 C0 32.83 0 16.66 0 0 Z " fill="#FCD770" transform="translate(446,413)"/>
<path d="M0 0 C15.18 0 30.36 0 46 0 C42.43000879 7.13998242 38.81530251 10.93981978 32 15 C25.70880895 17.03419668 17.7663516 17.20039004 11.6875 14.5 C7.29589061 11.92750914 3.83140143 8.20196387 1 4 C0.67 2.68 0.34 1.36 0 0 Z " fill="#EC7183" transform="translate(126,281)"/>
<path d="M0 0 C0 11.22 0 22.44 0 34 C-6.65041133 32.89159811 -9.89136461 31.39358612 -14.3125 26.375 C-17.62363886 21.71487864 -17.61354132 17.60828615 -17 12 C-14.60760989 7.12320478 -11.28431045 4.19044396 -7 1 C-4 0 -4 0 0 0 Z " fill="#E1C3A9" transform="translate(50,206)"/>
<path d="M0 0 C9.13564669 1.14195584 9.13564669 1.14195584 13 6 C13.598125 6.7425 14.19625 7.485 14.8125 8.25 C16.82975114 12.92152895 16.7831694 17.35214155 15.34375 22.21875 C13.03342536 27.55639657 10.32938533 29.75604828 5 32 C3.35 32 1.7 32 0 32 C0 21.44 0 10.88 0 0 Z " fill="#EDCDB1" transform="translate(248,207)"/>
<path d="M0 0 C5.44044949 2.50085178 6.63559665 6.48305886 9 12 C2.07 15.96 -4.86 19.92 -12 24 C-16.09089839 18.54546881 -17.61715887 15.29338913 -17.42578125 8.484375 C-16.83341238 5.02798414 -15.72225432 3.23770491 -13.04296875 1.00390625 C-8.80851073 -1.07688861 -4.54782294 -0.89332236 0 0 Z " fill="#CA9A73" transform="translate(257,339)"/>
<path d="M0 0 C5.61 0 11.22 0 17 0 C17 5.61 17 11.22 17 17 C11.39 17 5.78 17 0 17 C0 11.39 0 5.78 0 0 Z " fill="#0C0C0D" transform="translate(363,396)"/>
<path d="M0 0 C0 4.62 0 9.24 0 14 C-10.17857143 11.05357143 -10.17857143 11.05357143 -14 9 C-10.73787201 5.33010602 -5.2007339 0 0 0 Z " fill="#BB8E6A" transform="translate(306,436)"/>
</svg>
